%FSTAX23Y23*%
%MOIN*%
%SFA1B1*%

%IPPOS*%
%ADD80R,0.043429X0.067059*%
%ADD110C,0.074000*%
%ADD111C,0.165500*%
%ADD112C,0.051307*%
%ADD114R,0.067055X0.067055*%
%ADD115C,0.067055*%
%ADD116C,0.064000*%
%ADD117O,0.086740X0.108000*%
%ADD118C,0.084000*%
%ADD119C,0.108000*%
%ADD120O,0.108000X0.090677*%
%ADD121O,0.094614X0.108000*%
%ADD122C,0.098551*%
%ADD123C,0.104456*%
%ADD124C,0.104653*%
%ADD125C,0.086740*%
%ADD126C,0.126110*%
%ADD127C,0.165500*%
%ADD128C,0.074000*%
%ADD129C,0.084000*%
%ADD130C,0.108000*%
%ADD131C,0.023787*%
%ADD135O,0.070992X0.161543*%
%LNquadcube_65_pcb_soldermask_top-1*%
%LPD*%
G54D80*
X16042Y0849D03*
X16172D03*
X16042Y08683D03*
X16172D03*
G54D110*
X15062Y07411D03*
X05001Y06886D03*
X05844Y06136D03*
X05188Y06886D03*
X15032Y08386D03*
X15407D03*
X14938Y06886D03*
X15218Y07636D03*
X05376Y06136D03*
X05001D03*
X16157Y08386D03*
X15782D03*
X14657D03*
X05838Y05386D03*
X14751Y06136D03*
X14376D03*
X07157Y05386D03*
X10157D03*
X12601D03*
X12401D03*
X09688D03*
X13719D03*
X14376D03*
X14176D03*
X13244D03*
X13907D03*
X14657D03*
X13444D03*
X13157D03*
X15307D03*
X14557D03*
X13807D03*
X15119D03*
X14276D03*
X13057D03*
X14276Y06136D03*
X15118Y07636D03*
X15062Y07511D03*
X14838Y06886D03*
X14369D03*
X12307Y05386D03*
X13338D03*
X13619D03*
X14282D03*
X12501D03*
X10057D03*
X12494D03*
X13344D03*
X09588D03*
X07057D03*
X06876D03*
X05938D03*
X06307D03*
X05557D03*
X06119D03*
X04807D03*
X05276Y06136D03*
X05744D03*
X04994Y05386D03*
X05088Y06886D03*
X04901Y06136D03*
Y06886D03*
X15307Y08386D03*
X15682D03*
X16057D03*
X14651Y06136D03*
X14932Y08386D03*
X14557D03*
X14469Y06886D03*
X15219Y05386D03*
X15407D03*
X04907D03*
X05094D03*
X05657D03*
X06407D03*
X06219D03*
X06038D03*
X06976D03*
X06776D03*
G54D111*
X04951Y07086D03*
X15732Y08586D03*
X15357Y05586D03*
X14607D03*
X13857D03*
X15263D03*
X14326D03*
Y06336D03*
X15168Y07836D03*
X15262Y07461D03*
X14888Y07086D03*
X14419D03*
X12357Y05586D03*
X13388D03*
X13669D03*
X14232D03*
X12451D03*
X10107Y05586D03*
X12544Y05586D03*
X13294D03*
X09638D03*
X07107D03*
X06919D03*
X06357D03*
X05607D03*
X06169D03*
X04857D03*
X05982D03*
X05326Y06336D03*
X05794D03*
X05044Y05586D03*
X04951D03*
X05138Y07086D03*
X04951Y06336D03*
X15357Y08586D03*
X14701Y06336D03*
X14982Y08586D03*
X14607D03*
X15358Y07411D03*
X14418D03*
X12356Y05911D03*
X14231Y06011D03*
X15171D03*
X11608Y05911D03*
X07856D03*
X07668D03*
X14512Y08261D03*
X15262D03*
X14937Y07931D03*
X15452Y08261D03*
X16202D03*
X14937Y06991D03*
X05796Y06011D03*
X04856D03*
G54D112*
X10513Y0872D03*
X1045D03*
X10545Y08673D03*
X10419D03*
X10482D03*
G54D114*
X05434Y06724D03*
X12048Y06715D03*
G54D115*
X05334Y06724D03*
X05234D03*
X05134D03*
X05034D03*
X04934D03*
X11948Y06715D03*
X11848D03*
X11748D03*
X11648D03*
X11548D03*
G54D116*
X10332Y07281D03*
X10253D03*
G54D117*
X15457Y05786D03*
X15207Y05686D03*
X15113D03*
X15363Y05786D03*
X13488D03*
X13238Y05686D03*
X14332Y05786D03*
X14082Y05686D03*
X13144D03*
X13394Y05786D03*
G54D118*
X15557Y05586D03*
X14407D03*
X14807D03*
X14057D03*
X15463D03*
X15063D03*
X14969D03*
X14526D03*
X14126D03*
X12907D03*
X14126Y06336D03*
X14526D03*
X14968Y07836D03*
X15368D03*
X15262Y07661D03*
Y07261D03*
X14688Y07086D03*
X15088D03*
X14219D03*
X14619D03*
X12157Y05586D03*
X13188D03*
X13588D03*
X13469D03*
X14032D03*
X14432D03*
X12651D03*
X12251D03*
X09907D03*
X10307D03*
X12744D03*
X09438Y05587D03*
X09838D03*
X13494Y05586D03*
X07307D03*
X06719D03*
X07026D03*
X06626D03*
X05688D03*
X06088D03*
X06557D03*
X05807D03*
X05407D03*
X04657D03*
X05782D03*
X05526Y06336D03*
X05126D03*
X05994D03*
X05594D03*
X05244Y05586D03*
X04751D03*
X05151D03*
X05338Y07086D03*
X05151Y06336D03*
X04751D03*
Y07086D03*
X15157Y08586D03*
X15557D03*
X15532D03*
X15932D03*
X15907D03*
X16307D03*
X14501Y06336D03*
X14901D03*
X15182Y08586D03*
X14782D03*
X14407D03*
X14807D03*
G54D119*
X14707Y05786D03*
X13957D03*
X13707Y05686D03*
X15269Y05786D03*
X15019Y05686D03*
X12957D03*
X14426Y06536D03*
X14176Y06436D03*
X15268Y08036D03*
X15018Y07936D03*
X15462Y07361D03*
X15362Y07611D03*
X14988Y07286D03*
X14738Y07186D03*
X14519Y07286D03*
X14269Y07186D03*
X12457Y05786D03*
X12207Y05686D03*
X13769Y05786D03*
X12551D03*
X10207D03*
X12644D03*
X09738D03*
X07207D03*
X06769Y05686D03*
X07019Y05786D03*
X06676Y05686D03*
X06457Y05786D03*
X06207Y05686D03*
X05457D03*
X06269Y05786D03*
X04707Y05686D03*
X04957Y05786D03*
X06082D03*
X05176Y06436D03*
X05426Y06536D03*
X05644Y06436D03*
X05894Y06536D03*
X05144Y05786D03*
X05051D03*
X05238Y07286D03*
X04801Y06436D03*
X05051Y06536D03*
X04801Y07186D03*
X05051Y07286D03*
X15457Y08786D03*
X15207Y08686D03*
X15832Y08786D03*
X15582Y08686D03*
X16207Y08786D03*
X15957Y08686D03*
X14801Y06536D03*
X14551Y06436D03*
X14832Y08686D03*
X15082Y08786D03*
X14707D03*
X14457Y08686D03*
G54D120*
X14457Y05686D03*
G54D121*
X14176Y05686D03*
X14426Y05786D03*
G54D122*
X13207Y05786D03*
X13519Y05686D03*
X12301D03*
X09957D03*
X12394D03*
X09488D03*
X06957D03*
X05988Y05786D03*
X05707D03*
X06019Y05686D03*
X04894D03*
X04801D03*
X04988Y07186D03*
G54D123*
X06926Y05786D03*
G54D124*
X05738Y05686D03*
G54D125*
X05832Y05686D03*
G54D126*
X11608Y05311D03*
X15171Y06611D03*
X15358Y06811D03*
X07668Y05311D03*
X07856D03*
X14512Y08861D03*
X15262D03*
X16202D03*
X15537Y06991D03*
X15452Y08861D03*
X15537Y07931D03*
X05796Y06611D03*
X04856D03*
X14231D03*
G54D127*
X16107Y07836D03*
Y07086D03*
X11043Y06336D03*
X11793D03*
X10293D03*
X09543D03*
X12543D03*
X13293D03*
X15357D03*
X08231Y07836D03*
X08981D03*
X07481D03*
X06731D03*
X09731D03*
X10481D03*
X11981D03*
X11231D03*
X06918Y07086D03*
X07668D03*
X06168D03*
X12731Y07836D03*
X13481D03*
X14231D03*
X12356Y08586D03*
X13106D03*
X11606D03*
X10856D03*
X13856D03*
X09356D03*
X10106D03*
X08606D03*
X07856D03*
X04856D03*
X05606D03*
X07106D03*
X06356D03*
X06543Y06336D03*
X07293D03*
X08793D03*
X08043D03*
X12918Y07086D03*
X13668D03*
X12168D03*
X11418D03*
X08418D03*
X09168D03*
X10668D03*
X09918D03*
X05043Y07836D03*
X05981D03*
X16107Y05586D03*
Y06336D03*
G54D128*
X16157Y07636D03*
X16057D03*
Y06886D03*
X16157D03*
X11093Y06136D03*
X10993D03*
X11743D03*
X11843D03*
X10343D03*
X10243D03*
X09493D03*
X09593D03*
X12593D03*
X12493D03*
X13243D03*
X13343D03*
X15407D03*
X15307D03*
X08181Y07636D03*
X08281D03*
X09031D03*
X08931D03*
X07431D03*
X07531D03*
X06781D03*
X06681D03*
X09681D03*
X09781D03*
X10531D03*
X10431D03*
X11931D03*
X12031D03*
X11281D03*
X11181D03*
X06868Y06886D03*
X06968D03*
X07718D03*
X07618D03*
X06118D03*
X06218D03*
X12781Y07636D03*
X12681D03*
X13431D03*
X13531D03*
X14281D03*
X14181D03*
X12306Y08386D03*
X12406D03*
X13156D03*
X13056D03*
X11556D03*
X11656D03*
X10906D03*
X10806D03*
X13806D03*
X13906D03*
X09406D03*
X09306D03*
X10056D03*
X10156D03*
X08656D03*
X08556D03*
X07806D03*
X07906D03*
X04906D03*
X04806D03*
X05556D03*
X05656D03*
X07156D03*
X07056D03*
X06306D03*
X06406D03*
X06593Y06136D03*
X06493D03*
X07243D03*
X07343D03*
X08843D03*
X08743D03*
X07993D03*
X08093D03*
X12968Y06886D03*
X12868D03*
X13618D03*
X13718D03*
X12218D03*
X12118D03*
X11368D03*
X11468D03*
X08468D03*
X08368D03*
X09118D03*
X09218D03*
X10718D03*
X10618D03*
X09868D03*
X09968D03*
X05093Y07636D03*
X04993D03*
X05931D03*
X06031D03*
X16157Y05386D03*
X16057D03*
Y06136D03*
X16157D03*
G54D129*
X16307Y07836D03*
X15907D03*
Y07086D03*
X16307D03*
X11243Y06336D03*
X10843D03*
X11593D03*
X11993D03*
X10493D03*
X10093D03*
X09343D03*
X09743D03*
X12743D03*
X12343D03*
X13093D03*
X13493D03*
X15557D03*
X15157D03*
X08031Y07836D03*
X08431D03*
X09181D03*
X08781D03*
X07281D03*
X07681D03*
X06931D03*
X06531D03*
X09531D03*
X09931D03*
X10681D03*
X10281D03*
X11781D03*
X12181D03*
X11431D03*
X11031D03*
X06718Y07086D03*
X07118D03*
X07868D03*
X07468D03*
X05968D03*
X06368D03*
X12931Y07836D03*
X12531D03*
X13281D03*
X13681D03*
X14431D03*
X14031D03*
X12156Y08586D03*
X12556D03*
X13306D03*
X12906D03*
X11406D03*
X11806D03*
X11056D03*
X10656D03*
X13656D03*
X14056D03*
X09556D03*
X09156D03*
X09906D03*
X10306D03*
X08806D03*
X08406D03*
X07656D03*
X08056D03*
X05056D03*
X04656D03*
X05406D03*
X05806D03*
X07306D03*
X06906D03*
X06156D03*
X06556D03*
X06743Y06336D03*
X06343D03*
X07093D03*
X07493D03*
X08993D03*
X08593D03*
X07843D03*
X08243D03*
X13118Y07086D03*
X12718D03*
X13468D03*
X13868D03*
X12368D03*
X11968D03*
X11218D03*
X11618D03*
X08618D03*
X08218D03*
X08968D03*
X09368D03*
X10868D03*
X10468D03*
X09718D03*
X10118D03*
X05243Y07836D03*
X04843D03*
X05781D03*
X06181D03*
X16307Y05586D03*
X15907D03*
Y06336D03*
X16307D03*
G54D130*
X16207Y08036D03*
X15957Y07936D03*
Y07186D03*
X16207Y07286D03*
X11143Y06536D03*
X10893Y06436D03*
X11643D03*
X11893Y06536D03*
X10393D03*
X10143Y06436D03*
X09393D03*
X09643Y06536D03*
X12643D03*
X12393Y06436D03*
X13143D03*
X13393Y06536D03*
X15457D03*
X15207Y06436D03*
X08081Y07936D03*
X08331Y08036D03*
X09081D03*
X08831Y07936D03*
X07331D03*
X07581Y08036D03*
X06831D03*
X06581Y07936D03*
X09581D03*
X09831Y08036D03*
X10581D03*
X10331Y07936D03*
X11831D03*
X12081Y08036D03*
X11331D03*
X11081Y07936D03*
X06768Y07186D03*
X07018Y07286D03*
X07768D03*
X07518Y07186D03*
X06018D03*
X06268Y07286D03*
X12831Y08036D03*
X12581Y07936D03*
X13331D03*
X13581Y08036D03*
X14331D03*
X14081Y07936D03*
X12206Y08686D03*
X12456Y08786D03*
X13206D03*
X12956Y08686D03*
X11456D03*
X11706Y08786D03*
X10956D03*
X10706Y08686D03*
X13706D03*
X13956Y08786D03*
X09456D03*
X09206Y08686D03*
X09956D03*
X10206Y08786D03*
X08706D03*
X08456Y08686D03*
X07706D03*
X07956Y08786D03*
X04956D03*
X04706Y08686D03*
X05456D03*
X05706Y08786D03*
X07206D03*
X06956Y08686D03*
X06206D03*
X06456Y08786D03*
X06643Y06536D03*
X06393Y06436D03*
X07143D03*
X07393Y06536D03*
X08893D03*
X08643Y06436D03*
X07893D03*
X08143Y06536D03*
X13018Y07286D03*
X12768Y07186D03*
X13518D03*
X13768Y07286D03*
X12268D03*
X12018Y07186D03*
X11268D03*
X11518Y07286D03*
X08518D03*
X08268Y07186D03*
X09018D03*
X09268Y07286D03*
X10768D03*
X10518Y07186D03*
X09768D03*
X10018Y07286D03*
X05143Y08036D03*
X04893Y07936D03*
X05831D03*
X06081Y08036D03*
X16207Y05786D03*
X15957Y05686D03*
Y06436D03*
X16207Y06536D03*
G54D131*
X15847Y05883D03*
X16317Y06732D03*
X16301Y07002D03*
X10592Y08254D03*
X10385Y0747D03*
X10654Y06711D03*
X1073Y05914D03*
X06694Y08171D03*
X04948Y05876D03*
X04864Y07236D03*
X11482Y0778D03*
X10536Y05763D03*
X12007Y05776D03*
X10802Y0549D03*
X10378Y05375D03*
X0649Y08254D03*
Y08492D03*
X05249D03*
X0519Y07772D03*
X10562Y08435D03*
X06391Y08212D03*
X11159Y05431D03*
X0884Y0572D03*
X12848Y075D03*
X10959Y05377D03*
X10724Y05466D03*
X05811Y07595D03*
X06118Y06288D03*
X13956Y08891D03*
X05806Y08862D03*
X05761Y07718D03*
X16293Y06629D03*
X12964Y06726D03*
X05607Y08143D03*
X05717Y07554D03*
X14559Y07224D03*
X1268Y07286D03*
X13768Y07444D03*
X09049Y06501D03*
X08635Y07474D03*
X11496Y05739D03*
X0936Y07447D03*
X12077Y07028D03*
X14229Y06278D03*
X05848Y0702D03*
X06297Y06597D03*
X05698Y07045D03*
X1297Y08495D03*
X1256Y06483D03*
X05667Y07286D03*
X05336Y07349D03*
X04677Y06769D03*
X13082Y07656D03*
X12885Y05526D03*
X10789Y08235D03*
X11338Y05863D03*
X11307Y05967D03*
X15884Y07283D03*
X13483Y06044D03*
X1292Y05905D03*
X1636Y06688D03*
Y05914D03*
X16021Y08158D03*
X15881Y06818D03*
X10966Y08281D03*
X10389Y0812D03*
X08056Y08151D03*
X04631Y06868D03*
X05682Y05433D03*
X13981Y05705D03*
X15767Y0674D03*
X0834Y05368D03*
X08228Y0552D03*
X09367Y05418D03*
X08694Y05351D03*
X09066Y0546D03*
X08753D03*
X08975Y05308D03*
X08828Y05351D03*
X06432Y08325D03*
X06313Y07732D03*
X11203Y06668D03*
X10894Y06977D03*
X05654D03*
X047Y0793D03*
X0474Y0668D03*
X05953Y07413D03*
X05478Y07527D03*
X11307Y05431D03*
X0958Y07385D03*
X09542Y05562D03*
X09355Y06173D03*
X11063Y05711D03*
X10851Y05611D03*
X05231Y07179D03*
X0539Y07138D03*
X13954Y05959D03*
X05413Y07058D03*
X09058Y05853D03*
X08039Y06004D03*
X05443Y05848D03*
X13152Y07315D03*
Y07416D03*
X0604Y07339D03*
X05541Y07242D03*
X112Y05434D03*
X10635Y05424D03*
X11016Y05452D03*
X1075Y05418D03*
X05316Y08731D03*
X05439Y0708D03*
X10804Y081D03*
X05502Y06689D03*
X12741Y05864D03*
X10719Y05856D03*
X06449Y0566D03*
X06434Y06873D03*
X06339Y06196D03*
X06263Y05638D03*
X1028Y05503D03*
X10067Y05684D03*
X10374Y05503D03*
X10227Y05355D03*
X08872Y05383D03*
X11276Y05865D03*
X10694Y0812D03*
X07334Y07028D03*
X09422Y07379D03*
X05777Y07502D03*
X05788Y06744D03*
X11805Y06758D03*
X10198Y08022D03*
X10213Y07312D03*
X11744Y06977D03*
Y07466D03*
X06447Y05883D03*
X0652Y08171D03*
X06238Y08165D03*
Y07483D03*
X15794Y0845D03*
X1073Y06711D03*
X06533Y05958D03*
X11122Y0746D03*
X11229Y05532D03*
X10326Y07427D03*
X10199Y08005D03*
X10213Y07314D03*
X10352Y08225D03*
X10812Y05307D03*
X08281Y05751D03*
X09456Y08151D03*
X11421Y07369D03*
X10861Y06091D03*
X09684Y05945D03*
X08734Y05635D03*
X06576Y08133D03*
X06558Y07727D03*
X15716Y06223D03*
X15831Y06338D03*
X15862Y06742D03*
X15716Y05557D03*
X06338Y06196D03*
X13954Y06493D03*
X05223Y07355D03*
X10474Y08065D03*
X05446Y07125D03*
X05529Y07134D03*
X05505Y07238D03*
X05482Y07137D03*
X1529Y08767D03*
X09498Y05477D03*
X04631Y08227D03*
X08186Y08281D03*
X09456D03*
X11574Y05816D03*
X13385Y05873D03*
X04632Y06391D03*
X06703Y08339D03*
X11247Y05973D03*
X05339Y08095D03*
X05383Y08013D03*
X10321Y08316D03*
X11503Y05554D03*
X11655Y05679D03*
X09538Y07278D03*
X105Y07463D03*
X10439Y08239D03*
X10401Y08411D03*
X10058Y07909D03*
X07157Y08151D03*
X09396Y05424D03*
X15886Y08184D03*
X05642Y07696D03*
X08511Y08152D03*
X04723Y07501D03*
X0529Y07419D03*
X05179Y07448D03*
X05455Y07432D03*
X05562D03*
X09637Y08151D03*
X09449Y08366D03*
X09542Y08386D03*
X09801Y08148D03*
X13125Y07672D03*
X13124Y07526D03*
X13111Y07584D03*
G54D135*
X10625Y08903D03*
X10338D03*
M02*