%FSTAX23Y23*%
%MOIN*%
%SFA1B1*%

%IPPOS*%
%ADD162C,0.040000*%
%ADD163C,0.040000*%
%ADD164C,0.040000*%
%ADD165C,0.040000*%
%ADD166C,0.040000*%
%ADD167C,0.040000*%
%ADD168C,0.040000*%
%ADD169C,0.040000*%
%ADD170C,0.040000*%
%ADD171C,0.040000*%
%ADD172C,0.040000*%
%ADD173C,0.040000*%
%ADD174C,0.040000*%
%ADD175C,0.040000*%
%ADD176C,0.040000*%
%ADD177C,0.040000*%
%ADD178C,0.040000*%
%ADD179C,0.040000*%
%ADD180C,0.040000*%
%ADD181C,0.040000*%
%ADD182C,0.040000*%
%ADD183C,0.040000*%
%ADD184C,0.040000*%
%ADD185C,0.040000*%
%ADD186C,0.040000*%
%ADD187C,0.040000*%
%ADD188C,0.040000*%
%ADD189C,0.040000*%
%ADD190C,0.040000*%
%ADD191C,0.157500*%
%ADD192C,0.027559*%
%ADD193O,0.033465X0.094488*%
%ADD194C,0.035433*%
%ADD195C,0.031500*%
%ADD196C,0.157500*%
%ADD197C,0.059059*%
%ADD198C,0.067500*%
%ADD199C,0.040000*%
%ADD200C,0.157500*%
%ADD201O,0.059055X0.039370*%
%ADD202C,0.059059*%
%ADD203C,0.067500*%
%ADD204C,0.067500*%
%ADD205C,0.040000*%
%ADD206C,0.157500*%
%ADD207C,0.059059*%
%ADD208C,0.059059*%
%ADD209C,0.067500*%
%ADD210C,0.040000*%
%ADD211C,0.157500*%
%ADD212O,0.059055X0.039370*%
%ADD213O,0.059055X0.039370*%
%ADD214C,0.157500*%
%ADD215C,0.067500*%
%ADD216C,0.067500*%
%ADD217C,0.059059*%
%ADD218C,0.059059*%
%ADD219C,0.067500*%
%ADD220C,0.040000*%
%ADD221C,0.059059*%
%ADD222O,0.059055X0.039370*%
%ADD223C,0.157500*%
%ADD224C,0.040000*%
%ADD225C,0.067500*%
%ADD226C,0.067500*%
%ADD227C,0.059059*%
%ADD228C,0.059059*%
%ADD229C,0.067500*%
%ADD230C,0.040000*%
%ADD231C,0.059059*%
%ADD232C,0.059059*%
%ADD233C,0.067500*%
%ADD234C,0.067500*%
%ADD235C,0.040000*%
%ADD236C,0.157500*%
%ADD237C,0.059059*%
%ADD238C,0.059059*%
%ADD239C,0.067500*%
%ADD240C,0.067500*%
%ADD241C,0.040000*%
%ADD242C,0.157500*%
%ADD243O,0.039370X0.059055*%
%ADD244O,0.039370X0.059055*%
%ADD245C,0.067500*%
%ADD246C,0.067500*%
%ADD247C,0.040000*%
%ADD248C,0.157500*%
%ADD249C,0.059059*%
%ADD250C,0.059059*%
%ADD251C,0.067500*%
%ADD252C,0.067500*%
%ADD253C,0.040000*%
%ADD254C,0.157500*%
%ADD255C,0.059059*%
%ADD256C,0.059059*%
%ADD257C,0.067500*%
%ADD258C,0.067500*%
%ADD259C,0.040000*%
%ADD260C,0.157500*%
%ADD261C,0.059059*%
%ADD262C,0.059059*%
%ADD263C,0.067500*%
%ADD264C,0.040000*%
%ADD265C,0.157500*%
%ADD266C,0.059059*%
%ADD267C,0.059059*%
%ADD268C,0.067500*%
%ADD269C,0.067500*%
%ADD270C,0.040000*%
%ADD271C,0.157500*%
%ADD272O,0.059055X0.039370*%
%ADD273C,0.059059*%
%ADD274C,0.157500*%
%ADD275C,0.040000*%
%ADD276C,0.067500*%
%ADD277C,0.059059*%
%ADD278C,0.059059*%
%ADD279C,0.067500*%
%ADD280C,0.067500*%
%ADD281C,0.040000*%
%ADD282C,0.157500*%
%ADD283C,0.059059*%
%ADD284O,0.059055X0.039370*%
%ADD285C,0.157500*%
%ADD286C,0.040000*%
%ADD287C,0.067500*%
%ADD288C,0.067500*%
%ADD289C,0.059059*%
%ADD290C,0.059059*%
%ADD291C,0.067500*%
%ADD292C,0.067500*%
%ADD293C,0.040000*%
%ADD294C,0.157500*%
%ADD295C,0.059059*%
%ADD296O,0.059055X0.039370*%
%ADD297C,0.157500*%
%ADD298C,0.040000*%
%ADD299C,0.067500*%
%ADD300C,0.059059*%
%ADD301C,0.067500*%
%ADD302C,0.067500*%
%ADD303O,0.059055X0.039370*%
%ADD304C,0.157500*%
%ADD305C,0.040000*%
%ADD306C,0.067500*%
%ADD307C,0.059059*%
%ADD308C,0.059059*%
%ADD309C,0.040000*%
%ADD310C,0.157500*%
%ADD311O,0.059055X0.039370*%
%ADD312O,0.059055X0.039370*%
%ADD313C,0.157500*%
%ADD314C,0.040000*%
%ADD315C,0.067500*%
%ADD316C,0.059059*%
%ADD317O,0.059055X0.039370*%
%ADD318C,0.157500*%
%ADD319C,0.067500*%
%ADD320C,0.059059*%
%ADD321C,0.059059*%
%ADD322C,0.040000*%
%ADD323C,0.067500*%
%ADD324C,0.067500*%
%ADD325C,0.059059*%
%ADD326C,0.059059*%
%ADD327C,0.067500*%
%ADD328C,0.067500*%
%ADD329C,0.040000*%
%ADD330C,0.059059*%
%ADD331C,0.059059*%
%ADD332C,0.067500*%
%ADD333C,0.040000*%
%ADD334C,0.157500*%
%ADD335O,0.059055X0.039370*%
%ADD336C,0.059059*%
%ADD337C,0.157500*%
%ADD338C,0.040000*%
%ADD339C,0.067500*%
%ADD340C,0.067500*%
%ADD341C,0.059059*%
%ADD342O,0.059055X0.039370*%
%ADD343C,0.157500*%
%ADD344C,0.040000*%
%ADD345C,0.059059*%
%ADD346C,0.059059*%
%ADD347C,0.157500*%
%ADD348C,0.040000*%
%ADD349C,0.067500*%
%ADD350C,0.059059*%
%ADD351O,0.059055X0.039370*%
%ADD352C,0.157500*%
%ADD353C,0.067500*%
%ADD354C,0.059059*%
%ADD355C,0.059059*%
%ADD356C,0.157500*%
%ADD357C,0.040000*%
%ADD358C,0.067500*%
%ADD359C,0.067500*%
%ADD360C,0.059059*%
%ADD361C,0.059059*%
%ADD362C,0.157500*%
%ADD363C,0.040000*%
%ADD364C,0.067500*%
%ADD365C,0.067500*%
%ADD366C,0.059059*%
%ADD367C,0.059059*%
%ADD368C,0.067500*%
%ADD369C,0.040000*%
%ADD370C,0.157500*%
%ADD371O,0.059055X0.039370*%
%ADD372C,0.059059*%
%ADD373C,0.067500*%
%ADD374C,0.067500*%
%ADD375C,0.157500*%
%ADD376O,0.059055X0.039370*%
%ADD377C,0.047244*%
%ADD378C,0.157500*%
%ADD379C,0.040000*%
%ADD380C,0.067500*%
%ADD381C,0.059059*%
%ADD382C,0.059059*%
%ADD383C,0.157500*%
%ADD384C,0.040000*%
%ADD385C,0.067500*%
%ADD386C,0.067500*%
%ADD387C,0.059059*%
%ADD388C,0.059059*%
%ADD389C,0.040000*%
%ADD390C,0.067500*%
%ADD391C,0.059059*%
%ADD392O,0.059055X0.039370*%
%ADD393C,0.067500*%
%ADD394C,0.067500*%
%ADD395C,0.040000*%
%ADD396C,0.157500*%
%ADD397C,0.059059*%
%ADD398C,0.059059*%
%ADD399C,0.067500*%
%ADD400C,0.067500*%
%ADD401C,0.040000*%
%ADD402C,0.059059*%
%ADD403O,0.059055X0.039370*%
%ADD404C,0.067500*%
%ADD405C,0.067500*%
%ADD406C,0.040000*%
%ADD407C,0.059059*%
%ADD408C,0.059059*%
%ADD409C,0.067500*%
%ADD410C,0.067500*%
%ADD411C,0.040000*%
%ADD412C,0.157500*%
%ADD413C,0.059059*%
%ADD414C,0.059059*%
%ADD415C,0.157500*%
%ADD416C,0.040000*%
%ADD417C,0.067500*%
%ADD418C,0.067500*%
%ADD419C,0.059059*%
%ADD420C,0.059059*%
%ADD421C,0.067500*%
%ADD422C,0.067500*%
%ADD423C,0.040000*%
%ADD424C,0.157500*%
%ADD425C,0.059059*%
%ADD426C,0.157500*%
%ADD427C,0.157500*%
%ADD428C,0.157500*%
%ADD429C,0.157500*%
%ADD430C,0.118110*%
%ADD431C,0.118110*%
%ADD432C,0.157500*%
%ADD433C,0.118110*%
%ADD434C,0.157500*%
%ADD435C,0.118110*%
%ADD436C,0.157500*%
%ADD437C,0.157500*%
%ADD438C,0.118110*%
%ADD439C,0.118110*%
%ADD440C,0.118110*%
%ADD441C,0.118110*%
%ADD442C,0.118110*%
%ADD443C,0.118110*%
%ADD444C,0.157500*%
%ADD445C,0.157500*%
%ADD446C,0.157500*%
%ADD447C,0.157500*%
%ADD448C,0.157500*%
%ADD449C,0.157500*%
%ADD450C,0.118110*%
%ADD451C,0.118110*%
%ADD452C,0.157500*%
%ADD453C,0.157500*%
%ADD454C,0.118110*%
%ADD455C,0.118110*%
%ADD456C,0.157500*%
%ADD457C,0.040000*%
%ADD458C,0.067500*%
%ADD459C,0.059059*%
%ADD460C,0.040000*%
%ADD461C,0.040000*%
%ADD462C,0.040000*%
%ADD463C,0.040000*%
%ADD464C,0.040000*%
%ADD465C,0.040000*%
%ADD466C,0.040000*%
%ADD467C,0.040000*%
%ADD468C,0.040000*%
%ADD469C,0.040000*%
%ADD470C,0.040000*%
%ADD471C,0.011850*%
%LNquadcube_65_pcb_pth_drill-1*%
%LPD*%
G54D162*
X15062Y07411D03*
G54D163*
X05001Y06886D03*
G54D164*
X05844Y06136D03*
G54D165*
X05188Y06886D03*
G54D166*
X15032Y08386D03*
G54D167*
X15407Y08386D03*
G54D168*
X14938Y06886D03*
G54D169*
X15218Y07636D03*
G54D170*
X05376Y06136D03*
G54D171*
X05001Y06136D03*
G54D172*
X16157Y08386D03*
G54D173*
X15782Y08386D03*
G54D174*
X14657Y08386D03*
G54D175*
X05838Y05386D03*
G54D176*
X14751Y06136D03*
G54D177*
X14376Y06136D03*
G54D178*
X07157Y05386D03*
G54D179*
X10157Y05386D03*
G54D180*
X12601Y05386D03*
G54D181*
X12401Y05386D03*
G54D182*
X09688Y05386D03*
G54D183*
X13719Y05386D03*
G54D184*
X14376Y05386D03*
G54D185*
X14176Y05386D03*
G54D186*
X13244Y05386D03*
G54D187*
X13907Y05386D03*
G54D188*
X14657Y05386D03*
G54D189*
X13444Y05386D03*
G54D190*
X13157Y05386D03*
G54D191*
X04951Y07086D03*
G54D192*
X10513Y0872D03*
X1045D03*
X10545Y08673D03*
X10419D03*
X10482D03*
G54D193*
X10625Y08903D03*
X10338D03*
G54D194*
X05434Y06724D03*
X05334D03*
X05234D03*
X05134D03*
X05034D03*
X04934D03*
X12048Y06715D03*
X11948D03*
X11848D03*
X11748D03*
X11648D03*
X11548D03*
G54D195*
X10332Y07281D03*
X10253D03*
G54D196*
X15732Y08586D03*
G54D197*
X15457Y05786D03*
G54D198*
X15557Y05586D03*
G54D199*
X15307Y05386D03*
G54D200*
X15357Y05586D03*
G54D201*
X15207Y05686D03*
G54D202*
X14707Y05786D03*
G54D203*
X14407Y05586D03*
G54D204*
X14807Y05586D03*
G54D205*
X14557Y05386D03*
G54D206*
X14607Y05586D03*
G54D207*
X14457Y05686D03*
G54D208*
X13957Y05786D03*
G54D209*
X14057Y05586D03*
G54D210*
X13807Y05386D03*
G54D211*
X13857Y05586D03*
G54D212*
X13707Y05686D03*
G54D213*
X15113Y05686D03*
G54D214*
X15263Y05586D03*
G54D215*
X15463Y05586D03*
G54D216*
X15063Y05586D03*
G54D217*
X15363Y05786D03*
G54D218*
X15269Y05786D03*
G54D219*
X14969Y05586D03*
G54D220*
X15119Y05386D03*
G54D221*
X15019Y05686D03*
G54D222*
X14176Y05686D03*
G54D223*
X14326Y05586D03*
G54D224*
X14276Y05386D03*
G54D225*
X14526Y05586D03*
G54D226*
X14126Y05586D03*
G54D227*
X14426Y05786D03*
G54D228*
X13207Y05786D03*
G54D229*
X12907Y05586D03*
G54D230*
X13057Y05386D03*
G54D231*
X12957Y05686D03*
G54D232*
X14426Y06536D03*
G54D233*
X14126Y06336D03*
G54D234*
X14526Y06336D03*
G54D235*
X14276Y06136D03*
G54D236*
X14326Y06336D03*
G54D237*
X14176Y06436D03*
G54D238*
X15268Y08036D03*
G54D239*
X14968Y07836D03*
G54D240*
X15368Y07836D03*
G54D241*
X15118Y07636D03*
G54D242*
X15168Y07836D03*
G54D243*
X15018Y07936D03*
G54D244*
X15462Y07361D03*
G54D245*
X15262Y07661D03*
G54D246*
X15262Y07261D03*
G54D247*
X15062Y07511D03*
G54D248*
X15262Y07461D03*
G54D249*
X15362Y07611D03*
G54D250*
X14988Y07286D03*
G54D251*
X14688Y07086D03*
G54D252*
X15088Y07086D03*
G54D253*
X14838Y06886D03*
G54D254*
X14888Y07086D03*
G54D255*
X14738Y07186D03*
G54D256*
X14519Y07286D03*
G54D257*
X14219Y07086D03*
G54D258*
X14619Y07086D03*
G54D259*
X14369Y06886D03*
G54D260*
X14419Y07086D03*
G54D261*
X14269Y07186D03*
G54D262*
X12457Y05786D03*
G54D263*
X12157Y05586D03*
G54D264*
X12307Y05386D03*
G54D265*
X12357Y05586D03*
G54D266*
X12207Y05686D03*
G54D267*
X13488Y05786D03*
G54D268*
X13188Y05586D03*
G54D269*
X13588Y05586D03*
G54D270*
X13338Y05386D03*
G54D271*
X13388Y05586D03*
G54D272*
X13238Y05686D03*
G54D273*
X13519Y05686D03*
G54D274*
X13669Y05586D03*
G54D275*
X13619Y05386D03*
G54D276*
X13469Y05586D03*
G54D277*
X13769Y05786D03*
G54D278*
X14332Y05786D03*
G54D279*
X14032Y05586D03*
G54D280*
X14432Y05586D03*
G54D281*
X14282Y05386D03*
G54D282*
X14232Y05586D03*
G54D283*
X14082Y05686D03*
G54D284*
X12301Y05686D03*
G54D285*
X12451Y05586D03*
G54D286*
X12501Y05386D03*
G54D287*
X12651Y05586D03*
G54D288*
X12251Y05586D03*
G54D289*
X12551Y05786D03*
G54D290*
X10207Y05786D03*
G54D291*
X09907Y05586D03*
G54D292*
X10307Y05586D03*
G54D293*
X10057Y05386D03*
G54D294*
X10107Y05586D03*
G54D295*
X09957Y05686D03*
G54D296*
X12394Y05686D03*
G54D297*
X12544Y05586D03*
G54D298*
X12494Y05386D03*
G54D299*
X12744Y05586D03*
G54D300*
X12644Y05786D03*
G54D301*
X09438Y05587D03*
G54D302*
X09838Y05587D03*
G54D303*
X13144Y05686D03*
G54D304*
X13294Y05586D03*
G54D305*
X13344Y05386D03*
G54D306*
X13494Y05586D03*
G54D307*
X13394Y05786D03*
G54D308*
X09738Y05786D03*
G54D309*
X09588Y05386D03*
G54D310*
X09638Y05586D03*
G54D311*
X09488Y05686D03*
G54D312*
X06957Y05686D03*
G54D313*
X07107Y05586D03*
G54D314*
X07057Y05386D03*
G54D315*
X07307Y05586D03*
G54D316*
X07207Y05786D03*
G54D317*
X06769Y05686D03*
G54D318*
X06919Y05586D03*
G54D319*
X06719Y05586D03*
G54D320*
X07019Y05786D03*
G54D321*
X06676Y05686D03*
G54D322*
X06876Y05386D03*
G54D323*
X07026Y05586D03*
G54D324*
X06626Y05586D03*
G54D325*
X06926Y05786D03*
G54D326*
X05988Y05786D03*
G54D327*
X05688Y05586D03*
G54D328*
X06088Y05586D03*
G54D329*
X05938Y05386D03*
G54D330*
X05738Y05686D03*
G54D331*
X06457Y05786D03*
G54D332*
X06557Y05586D03*
G54D333*
X06307Y05386D03*
G54D334*
X06357Y05586D03*
G54D335*
X06207Y05686D03*
G54D336*
X05457Y05686D03*
G54D337*
X05607Y05586D03*
G54D338*
X05557Y05386D03*
G54D339*
X05807Y05586D03*
G54D340*
X05407Y05586D03*
G54D341*
X05707Y05786D03*
G54D342*
X06019Y05686D03*
G54D343*
X06169Y05586D03*
G54D344*
X06119Y05386D03*
G54D345*
X06269Y05786D03*
G54D346*
X04707Y05686D03*
G54D347*
X04857Y05586D03*
G54D348*
X04807Y05386D03*
G54D349*
X04657Y05586D03*
G54D350*
X04957Y05786D03*
G54D351*
X05832Y05686D03*
G54D352*
X05982Y05586D03*
G54D353*
X05782Y05586D03*
G54D354*
X06082Y05786D03*
G54D355*
X05176Y06436D03*
G54D356*
X05326Y06336D03*
G54D357*
X05276Y06136D03*
G54D358*
X05526Y06336D03*
G54D359*
X05126Y06336D03*
G54D360*
X05426Y06536D03*
G54D361*
X05644Y06436D03*
G54D362*
X05794Y06336D03*
G54D363*
X05744Y06136D03*
G54D364*
X05994Y06336D03*
G54D365*
X05594Y06336D03*
G54D366*
X05894Y06536D03*
G54D367*
X05144Y05786D03*
G54D368*
X05244Y05586D03*
G54D369*
X04994Y05386D03*
G54D370*
X05044Y05586D03*
G54D371*
X04894Y05686D03*
G54D372*
X05051Y05786D03*
G54D373*
X04751Y05586D03*
G54D374*
X05151Y05586D03*
G54D375*
X04951Y05586D03*
G54D376*
X04801Y05686D03*
G54D377*
X04988Y07186D03*
G54D378*
X05138Y07086D03*
G54D379*
X05088Y06886D03*
G54D380*
X05338Y07086D03*
G54D381*
X05238Y07286D03*
G54D382*
X04801Y06436D03*
G54D383*
X04951Y06336D03*
G54D384*
X04901Y06136D03*
G54D385*
X05151Y06336D03*
G54D386*
X04751Y06336D03*
G54D387*
X05051Y06536D03*
G54D388*
X04801Y07186D03*
G54D389*
X04901Y06886D03*
G54D390*
X04751Y07086D03*
G54D391*
X05051Y07286D03*
G54D392*
X15457Y08786D03*
G54D393*
X15157Y08586D03*
G54D394*
X15557Y08586D03*
G54D395*
X15307Y08386D03*
G54D396*
X15357Y08586D03*
G54D397*
X15207Y08686D03*
G54D398*
X15832Y08786D03*
G54D399*
X15532Y08586D03*
G54D400*
X15932Y08586D03*
G54D401*
X15682Y08386D03*
G54D402*
X15582Y08686D03*
G54D403*
X16207Y08786D03*
G54D404*
X15907Y08586D03*
G54D405*
X16307Y08586D03*
G54D406*
X16057Y08386D03*
G54D407*
X15957Y08686D03*
G54D408*
X14801Y06536D03*
G54D409*
X14501Y06336D03*
G54D410*
X14901Y06336D03*
G54D411*
X14651Y06136D03*
G54D412*
X14701Y06336D03*
G54D413*
X14551Y06436D03*
G54D414*
X14832Y08686D03*
G54D415*
X14982Y08586D03*
G54D416*
X14932Y08386D03*
G54D417*
X15182Y08586D03*
G54D418*
X14782Y08586D03*
G54D419*
X15082Y08786D03*
G54D420*
X14707Y08786D03*
G54D421*
X14407Y08586D03*
G54D422*
X14807Y08586D03*
G54D423*
X14557Y08386D03*
G54D424*
X14607Y08586D03*
G54D425*
X14457Y08686D03*
G54D426*
X15358Y07411D03*
G54D427*
X14418Y07411D03*
G54D428*
X12356Y05911D03*
G54D429*
X14231Y06011D03*
G54D430*
X11608Y05311D03*
G54D431*
X15171Y06611D03*
G54D432*
X15171Y06011D03*
G54D433*
X15358Y06811D03*
G54D434*
X11608Y05911D03*
G54D435*
X07668Y05311D03*
G54D436*
X07856Y05911D03*
G54D437*
X07668Y05911D03*
G54D438*
X07856Y05311D03*
G54D439*
X14512Y08861D03*
G54D440*
X15262Y08861D03*
G54D441*
X16202Y08861D03*
G54D442*
X15537Y06991D03*
G54D443*
X15452Y08861D03*
G54D444*
X14512Y08261D03*
G54D445*
X15262Y08261D03*
G54D446*
X14937Y07931D03*
G54D447*
X15452Y08261D03*
G54D448*
X16202Y08261D03*
G54D449*
X14937Y06991D03*
G54D450*
X15537Y07931D03*
G54D451*
X05796Y06611D03*
G54D452*
X05796Y06011D03*
G54D453*
X04856Y06011D03*
G54D454*
X04856Y06611D03*
G54D455*
X14231Y06611D03*
G54D456*
X16107Y07836D03*
Y07086D03*
X11043Y06336D03*
X11793D03*
X10293D03*
X09543D03*
X12543D03*
X13293D03*
X15357D03*
X08231Y07836D03*
X08981D03*
X07481D03*
X06731D03*
X09731D03*
X10481D03*
X11981D03*
X11231D03*
X06918Y07086D03*
X07668D03*
X06168D03*
X12731Y07836D03*
X13481D03*
X14231D03*
X12356Y08586D03*
X13106D03*
X11606D03*
X10856D03*
X13856D03*
X09356D03*
X10106D03*
X08606D03*
X07856D03*
X04856D03*
X05606D03*
X07106D03*
X06356D03*
X06543Y06336D03*
X07293D03*
X08793D03*
X08043D03*
X12918Y07086D03*
X13668D03*
X12168D03*
X11418D03*
X08418D03*
X09168D03*
X10668D03*
X09918D03*
X05043Y07836D03*
X05981D03*
X16107Y05586D03*
Y06336D03*
G54D457*
X16157Y07636D03*
X16057D03*
Y06886D03*
X16157D03*
X11093Y06136D03*
X10993D03*
X11743D03*
X11843D03*
X10343D03*
X10243D03*
X09493D03*
X09593D03*
X12593D03*
X12493D03*
X13243D03*
X13343D03*
X15407D03*
X15307D03*
X08181Y07636D03*
X08281D03*
X09031D03*
X08931D03*
X07431D03*
X07531D03*
X06781D03*
X06681D03*
X09681D03*
X09781D03*
X10531D03*
X10431D03*
X11931D03*
X12031D03*
X11281D03*
X11181D03*
X06868Y06886D03*
X06968D03*
X07718D03*
X07618D03*
X06118D03*
X06218D03*
X12781Y07636D03*
X12681D03*
X13431D03*
X13531D03*
X14281D03*
X14181D03*
X12306Y08386D03*
X12406D03*
X13156D03*
X13056D03*
X11556D03*
X11656D03*
X10906D03*
X10806D03*
X13806D03*
X13906D03*
X09406D03*
X09306D03*
X10056D03*
X10156D03*
X08656D03*
X08556D03*
X07806D03*
X07906D03*
X04906D03*
X04806D03*
X05556D03*
X05656D03*
X07156D03*
X07056D03*
X06306D03*
X06406D03*
X06593Y06136D03*
X06493D03*
X07243D03*
X07343D03*
X08843D03*
X08743D03*
X07993D03*
X08093D03*
X12968Y06886D03*
X12868D03*
X13618D03*
X13718D03*
X12218D03*
X12118D03*
X11368D03*
X11468D03*
X08468D03*
X08368D03*
X09118D03*
X09218D03*
X10718D03*
X10618D03*
X09868D03*
X09968D03*
X05093Y07636D03*
X04993D03*
X05931D03*
X06031D03*
X16157Y05386D03*
X16057D03*
Y06136D03*
X16157D03*
G54D458*
X16307Y07836D03*
X15907D03*
Y07086D03*
X16307D03*
X11243Y06336D03*
X10843D03*
X11593D03*
X11993D03*
X10493D03*
X10093D03*
X09343D03*
X09743D03*
X12743D03*
X12343D03*
X13093D03*
X13493D03*
X15557D03*
X15157D03*
X08031Y07836D03*
X08431D03*
X09181D03*
X08781D03*
X07281D03*
X07681D03*
X06931D03*
X06531D03*
X09531D03*
X09931D03*
X10681D03*
X10281D03*
X11781D03*
X12181D03*
X11431D03*
X11031D03*
X06718Y07086D03*
X07118D03*
X07868D03*
X07468D03*
X05968D03*
X06368D03*
X12931Y07836D03*
X12531D03*
X13281D03*
X13681D03*
X14431D03*
X14031D03*
X12156Y08586D03*
X12556D03*
X13306D03*
X12906D03*
X11406D03*
X11806D03*
X11056D03*
X10656D03*
X13656D03*
X14056D03*
X09556D03*
X09156D03*
X09906D03*
X10306D03*
X08806D03*
X08406D03*
X07656D03*
X08056D03*
X05056D03*
X04656D03*
X05406D03*
X05806D03*
X07306D03*
X06906D03*
X06156D03*
X06556D03*
X06743Y06336D03*
X06343D03*
X07093D03*
X07493D03*
X08993D03*
X08593D03*
X07843D03*
X08243D03*
X13118Y07086D03*
X12718D03*
X13468D03*
X13868D03*
X12368D03*
X11968D03*
X11218D03*
X11618D03*
X08618D03*
X08218D03*
X08968D03*
X09368D03*
X10868D03*
X10468D03*
X09718D03*
X10118D03*
X05243Y07836D03*
X04843D03*
X05781D03*
X06181D03*
X16307Y05586D03*
X15907D03*
Y06336D03*
X16307D03*
G54D459*
X16207Y08036D03*
X15957Y07936D03*
Y07186D03*
X16207Y07286D03*
X11143Y06536D03*
X10893Y06436D03*
X11643D03*
X11893Y06536D03*
X10393D03*
X10143Y06436D03*
X09393D03*
X09643Y06536D03*
X12643D03*
X12393Y06436D03*
X13143D03*
X13393Y06536D03*
X15457D03*
X15207Y06436D03*
X08081Y07936D03*
X08331Y08036D03*
X09081D03*
X08831Y07936D03*
X07331D03*
X07581Y08036D03*
X06831D03*
X06581Y07936D03*
X09581D03*
X09831Y08036D03*
X10581D03*
X10331Y07936D03*
X11831D03*
X12081Y08036D03*
X11331D03*
X11081Y07936D03*
X06768Y07186D03*
X07018Y07286D03*
X07768D03*
X07518Y07186D03*
X06018D03*
X06268Y07286D03*
X12831Y08036D03*
X12581Y07936D03*
X13331D03*
X13581Y08036D03*
X14331D03*
X14081Y07936D03*
X12206Y08686D03*
X12456Y08786D03*
X13206D03*
X12956Y08686D03*
X11456D03*
X11706Y08786D03*
X10956D03*
X10706Y08686D03*
X13706D03*
X13956Y08786D03*
X09456D03*
X09206Y08686D03*
X09956D03*
X10206Y08786D03*
X08706D03*
X08456Y08686D03*
X07706D03*
X07956Y08786D03*
X04956D03*
X04706Y08686D03*
X05456D03*
X05706Y08786D03*
X07206D03*
X06956Y08686D03*
X06206D03*
X06456Y08786D03*
X06643Y06536D03*
X06393Y06436D03*
X07143D03*
X07393Y06536D03*
X08893D03*
X08643Y06436D03*
X07893D03*
X08143Y06536D03*
X13018Y07286D03*
X12768Y07186D03*
X13518D03*
X13768Y07286D03*
X12268D03*
X12018Y07186D03*
X11268D03*
X11518Y07286D03*
X08518D03*
X08268Y07186D03*
X09018D03*
X09268Y07286D03*
X10768D03*
X10518Y07186D03*
X09768D03*
X10018Y07286D03*
X05143Y08036D03*
X04893Y07936D03*
X05831D03*
X06081Y08036D03*
X16207Y05786D03*
X15957Y05686D03*
Y06436D03*
X16207Y06536D03*
G54D460*
X14469Y06886D03*
G54D461*
X15219Y05386D03*
G54D462*
X15407Y05386D03*
G54D463*
X04907Y05386D03*
G54D464*
X05094Y05386D03*
G54D465*
X05657Y05386D03*
G54D466*
X06407Y05386D03*
G54D467*
X06219Y05386D03*
G54D468*
X06038Y05386D03*
G54D469*
X06976Y05386D03*
G54D470*
X06776Y05386D03*
G54D471*
X15847Y05883D03*
X16317Y06732D03*
X16301Y07002D03*
X10592Y08254D03*
X10385Y0747D03*
X10654Y06711D03*
X1073Y05914D03*
X06694Y08171D03*
X04948Y05876D03*
X04864Y07236D03*
X11482Y0778D03*
X10536Y05763D03*
X12007Y05776D03*
X10802Y0549D03*
X10378Y05375D03*
X0649Y08254D03*
Y08492D03*
X05249D03*
X0519Y07772D03*
X10562Y08435D03*
X06391Y08212D03*
X11159Y05431D03*
X0884Y0572D03*
X12848Y075D03*
X10959Y05377D03*
X10724Y05466D03*
X05811Y07595D03*
X06118Y06288D03*
X13956Y08891D03*
X05806Y08862D03*
X05761Y07718D03*
X16293Y06629D03*
X12964Y06726D03*
X05607Y08143D03*
X05717Y07554D03*
X14559Y07224D03*
X1268Y07286D03*
X13768Y07444D03*
X09049Y06501D03*
X08635Y07474D03*
X11496Y05739D03*
X0936Y07447D03*
X12077Y07028D03*
X14229Y06278D03*
X05848Y0702D03*
X06297Y06597D03*
X05698Y07045D03*
X1297Y08495D03*
X1256Y06483D03*
X05667Y07286D03*
X05336Y07349D03*
X04677Y06769D03*
X13082Y07656D03*
X12885Y05526D03*
X10789Y08235D03*
X11338Y05863D03*
X11307Y05967D03*
X15884Y07283D03*
X13483Y06044D03*
X1292Y05905D03*
X1636Y06688D03*
Y05914D03*
X16021Y08158D03*
X15881Y06818D03*
X10966Y08281D03*
X10389Y0812D03*
X08056Y08151D03*
X04631Y06868D03*
X05682Y05433D03*
X13981Y05705D03*
X15767Y0674D03*
X0834Y05368D03*
X08228Y0552D03*
X09367Y05418D03*
X08694Y05351D03*
X09066Y0546D03*
X08753D03*
X08975Y05308D03*
X08828Y05351D03*
X06432Y08325D03*
X06313Y07732D03*
X11203Y06668D03*
X10894Y06977D03*
X05654D03*
X047Y0793D03*
X0474Y0668D03*
X05953Y07413D03*
X05478Y07527D03*
X11307Y05431D03*
X0958Y07385D03*
X09542Y05562D03*
X09355Y06173D03*
X11063Y05711D03*
X10851Y05611D03*
X05231Y07179D03*
X0539Y07138D03*
X13954Y05959D03*
X05413Y07058D03*
X09058Y05853D03*
X08039Y06004D03*
X05443Y05848D03*
X13152Y07315D03*
Y07416D03*
X0604Y07339D03*
X05541Y07242D03*
X112Y05434D03*
X10635Y05424D03*
X11016Y05452D03*
X1075Y05418D03*
X05316Y08731D03*
X05439Y0708D03*
X10804Y081D03*
X05502Y06689D03*
X12741Y05864D03*
X10719Y05856D03*
X06449Y0566D03*
X06434Y06873D03*
X06339Y06196D03*
X06263Y05638D03*
X1028Y05503D03*
X10067Y05684D03*
X10374Y05503D03*
X10227Y05355D03*
X08872Y05383D03*
X11276Y05865D03*
X10694Y0812D03*
X07334Y07028D03*
X09422Y07379D03*
X05777Y07502D03*
X05788Y06744D03*
X11805Y06758D03*
X10198Y08022D03*
X10213Y07312D03*
X11744Y06977D03*
Y07466D03*
X06447Y05883D03*
X0652Y08171D03*
X06238Y08165D03*
Y07483D03*
X15794Y0845D03*
X1073Y06711D03*
X06533Y05958D03*
X11122Y0746D03*
X11229Y05532D03*
X10326Y07427D03*
X10199Y08005D03*
X10213Y07314D03*
X10352Y08225D03*
X10812Y05307D03*
X08281Y05751D03*
X09456Y08151D03*
X11421Y07369D03*
X10861Y06091D03*
X09684Y05945D03*
X08734Y05635D03*
X06576Y08133D03*
X06558Y07727D03*
X15716Y06223D03*
X15831Y06338D03*
X15862Y06742D03*
X15716Y05557D03*
X06338Y06196D03*
X13954Y06493D03*
X05223Y07355D03*
X10474Y08065D03*
X05446Y07125D03*
X05529Y07134D03*
X05505Y07238D03*
X05482Y07137D03*
X1529Y08767D03*
X09498Y05477D03*
X04631Y08227D03*
X08186Y08281D03*
X09456D03*
X11574Y05816D03*
X13385Y05873D03*
X04632Y06391D03*
X06703Y08339D03*
X11247Y05973D03*
X05339Y08095D03*
X05383Y08013D03*
X10321Y08316D03*
X11503Y05554D03*
X11655Y05679D03*
X09538Y07278D03*
X105Y07463D03*
X10439Y08239D03*
X10401Y08411D03*
X10058Y07909D03*
X07157Y08151D03*
X09396Y05424D03*
X15886Y08184D03*
X05642Y07696D03*
X08511Y08152D03*
X04723Y07501D03*
X0529Y07419D03*
X05179Y07448D03*
X05455Y07432D03*
X05562D03*
X09637Y08151D03*
X09449Y08366D03*
X09542Y08386D03*
X09801Y08148D03*
X13125Y07672D03*
X13124Y07526D03*
X13111Y07584D03*
M02*