%FSTAX23Y23*%
%MOIN*%
%SFA1B1*%

%IPPOS*%
%ADD145C,0.007870*%
%LNquadcube_65_pcb_mechanical_25-1*%
%LPD*%
G54D145*
X02896Y00936D02*
X03041D01*
X03068Y00909*
Y00764D02*
Y00909D01*
X03041Y00736D02*
X03068Y00764D01*
X02896Y00736D02*
X03041D01*
X02868Y00764D02*
X02896Y00736D01*
X02868Y00764D02*
Y00909D01*
X02896Y00936*
X01021Y02436D02*
X01166D01*
X01193Y02409*
Y02264D02*
Y02409D01*
X01166Y02236D02*
X01193Y02264D01*
X01021Y02236D02*
X01166D01*
X00993Y02264D02*
X01021Y02236D01*
X00993Y02264D02*
Y02409D01*
X01021Y02436*
X01677Y03936D02*
X01822D01*
X0185Y03909*
Y03764D02*
Y03909D01*
X01822Y03736D02*
X0185Y03764D01*
X01677Y03736D02*
X01822D01*
X0165Y03764D02*
X01677Y03736D01*
X0165Y03764D02*
Y03909D01*
X01677Y03936*
X02427D02*
X02572D01*
X026Y03909*
Y03764D02*
Y03909D01*
X02572Y03736D02*
X026Y03764D01*
X02427Y03736D02*
X02572D01*
X024Y03764D02*
X02427Y03736D01*
X024Y03764D02*
Y03909D01*
X02427Y03936*
X03177D02*
X03322D01*
X0335Y03909*
Y03764D02*
Y03909D01*
X03322Y03736D02*
X0335Y03764D01*
X03177Y03736D02*
X03322D01*
X0315Y03764D02*
X03177Y03736D01*
X0315Y03764D02*
Y03909D01*
X03177Y03936*
X03927D02*
X04072D01*
X041Y03909*
Y03764D02*
Y03909D01*
X04072Y03736D02*
X041Y03764D01*
X03927Y03736D02*
X04072D01*
X039Y03764D02*
X03927Y03736D01*
X039Y03764D02*
Y03909D01*
X03927Y03936*
X12177D02*
X12322D01*
X1235Y03909*
Y03764D02*
Y03909D01*
X12322Y03736D02*
X1235Y03764D01*
X12177Y03736D02*
X12322D01*
X1215Y03764D02*
X12177Y03736D01*
X1215Y03764D02*
Y03909D01*
X12177Y03936*
Y00936D02*
X12322D01*
X1235Y00909*
Y00764D02*
Y00909D01*
X12322Y00736D02*
X1235Y00764D01*
X12177Y00736D02*
X12322D01*
X1215Y00764D02*
X12177Y00736D01*
X1215Y00764D02*
Y00909D01*
X12177Y00936*
X11427Y01686D02*
X11572D01*
X116Y01659*
Y01514D02*
Y01659D01*
X11572Y01486D02*
X116Y01514D01*
X11427Y01486D02*
X11572D01*
X114Y01514D02*
X11427Y01486D01*
X114Y01514D02*
Y01659D01*
X11427Y01686*
X09552Y03186D02*
X09697D01*
X09725Y03159*
Y03014D02*
Y03159D01*
X09697Y02986D02*
X09725Y03014D01*
X09552Y02986D02*
X09697D01*
X09525Y03014D02*
X09552Y02986D01*
X09525Y03014D02*
Y03159D01*
X09552Y03186*
X08802D02*
X08947D01*
X08975Y03159*
Y03014D02*
Y03159D01*
X08947Y02986D02*
X08975Y03014D01*
X08802Y02986D02*
X08947D01*
X08775Y03014D02*
X08802Y02986D01*
X08775Y03014D02*
Y03159D01*
X08802Y03186*
X08052D02*
X08197D01*
X08225Y03159*
Y03014D02*
Y03159D01*
X08197Y02986D02*
X08225Y03014D01*
X08052Y02986D02*
X08197D01*
X08025Y03014D02*
X08052Y02986D01*
X08025Y03014D02*
Y03159D01*
X08052Y03186*
X07302D02*
X07447D01*
X07475Y03159*
Y03014D02*
Y03159D01*
X07447Y02986D02*
X07475Y03014D01*
X07302Y02986D02*
X07447D01*
X07275Y03014D02*
X07302Y02986D01*
X07275Y03014D02*
Y03159D01*
X07302Y03186*
X06552D02*
X06697D01*
X06725Y03159*
Y03014D02*
Y03159D01*
X06697Y02986D02*
X06725Y03014D01*
X06552Y02986D02*
X06697D01*
X06525Y03014D02*
X06552Y02986D01*
X06525Y03014D02*
Y03159D01*
X06552Y03186*
X09177Y03936D02*
X09322D01*
X0935Y03909*
Y03764D02*
Y03909D01*
X09322Y03736D02*
X0935Y03764D01*
X09177Y03736D02*
X09322D01*
X0915Y03764D02*
X09177Y03736D01*
X0915Y03764D02*
Y03909D01*
X09177Y03936*
X09927D02*
X10072D01*
X101Y03909*
Y03764D02*
Y03909D01*
X10072Y03736D02*
X101Y03764D01*
X09927Y03736D02*
X10072D01*
X099Y03764D02*
X09927Y03736D01*
X099Y03764D02*
Y03909D01*
X09927Y03936*
X08427D02*
X08572D01*
X086Y03909*
Y03764D02*
Y03909D01*
X08572Y03736D02*
X086Y03764D01*
X08427Y03736D02*
X08572D01*
X084Y03764D02*
X08427Y03736D01*
X084Y03764D02*
Y03909D01*
X08427Y03936*
X07677D02*
X07822D01*
X0785Y03909*
Y03764D02*
Y03909D01*
X07822Y03736D02*
X0785Y03764D01*
X07677Y03736D02*
X07822D01*
X0765Y03764D02*
X07677Y03736D01*
X0765Y03764D02*
Y03909D01*
X07677Y03936*
X06927D02*
X07072D01*
X071Y03909*
Y03764D02*
Y03909D01*
X07072Y03736D02*
X071Y03764D01*
X06927Y03736D02*
X07072D01*
X069Y03764D02*
X06927Y03736D01*
X069Y03764D02*
Y03909D01*
X06927Y03936*
X06177D02*
X06322D01*
X0635Y03909*
Y03764D02*
Y03909D01*
X06322Y03736D02*
X0635Y03764D01*
X06177Y03736D02*
X06322D01*
X0615Y03764D02*
X06177Y03736D01*
X0615Y03764D02*
Y03909D01*
X06177Y03936*
X05427D02*
X05572D01*
X056Y03909*
Y03764D02*
Y03909D01*
X05572Y03736D02*
X056Y03764D01*
X05427Y03736D02*
X05572D01*
X054Y03764D02*
X05427Y03736D01*
X054Y03764D02*
Y03909D01*
X05427Y03936*
X04677D02*
X04822D01*
X0485Y03909*
Y03764D02*
Y03909D01*
X04822Y03736D02*
X0485Y03764D01*
X04677Y03736D02*
X04822D01*
X0465Y03764D02*
X04677Y03736D01*
X0465Y03764D02*
Y03909D01*
X04677Y03936*
X05052Y03186D02*
X05197D01*
X05225Y03159*
Y03014D02*
Y03159D01*
X05197Y02986D02*
X05225Y03014D01*
X05052Y02986D02*
X05197D01*
X05025Y03014D02*
X05052Y02986D01*
X05025Y03014D02*
Y03159D01*
X05052Y03186*
X05802D02*
X05947D01*
X05975Y03159*
Y03014D02*
Y03159D01*
X05947Y02986D02*
X05975Y03014D01*
X05802Y02986D02*
X05947D01*
X05775Y03014D02*
X05802Y02986D01*
X05775Y03014D02*
Y03159D01*
X05802Y03186*
X04302D02*
X04447D01*
X04475Y03159*
Y03014D02*
Y03159D01*
X04447Y02986D02*
X04475Y03014D01*
X04302Y02986D02*
X04447D01*
X04275Y03014D02*
X04302Y02986D01*
X04275Y03014D02*
Y03159D01*
X04302Y03186*
X03552D02*
X03697D01*
X03725Y03159*
Y03014D02*
Y03159D01*
X03697Y02986D02*
X03725Y03014D01*
X03552Y02986D02*
X03697D01*
X03525Y03014D02*
X03552Y02986D01*
X03525Y03014D02*
Y03159D01*
X03552Y03186*
X01115D02*
X01259D01*
X01287Y03159*
Y03014D02*
Y03159D01*
X01259Y02986D02*
X01287Y03014D01*
X01115Y02986D02*
X01259D01*
X01087Y03014D02*
X01115Y02986D01*
X01087Y03014D02*
Y03159D01*
X01115Y03186*
X02052D02*
X02197D01*
X02225Y03159*
Y03014D02*
Y03159D01*
X02197Y02986D02*
X02225Y03014D01*
X02052Y02986D02*
X02197D01*
X02025Y03014D02*
X02052Y02986D01*
X02025Y03014D02*
Y03159D01*
X02052Y03186*
X02802D02*
X02947D01*
X02975Y03159*
Y03014D02*
Y03159D01*
X02947Y02986D02*
X02975Y03014D01*
X02802Y02986D02*
X02947D01*
X02775Y03014D02*
X02802Y02986D01*
X02775Y03014D02*
Y03159D01*
X02802Y03186*
X0224Y02436D02*
X02384D01*
X02412Y02409*
Y02264D02*
Y02409D01*
X02384Y02236D02*
X02412Y02264D01*
X0224Y02236D02*
X02384D01*
X02212Y02264D02*
X0224Y02236D01*
X02212Y02264D02*
Y02409D01*
X0224Y02436*
X0299D02*
X03134D01*
X03162Y02409*
Y02264D02*
Y02409D01*
X03134Y02236D02*
X03162Y02264D01*
X0299Y02236D02*
X03134D01*
X02962Y02264D02*
X0299Y02236D01*
X02962Y02264D02*
Y02409D01*
X0299Y02436*
X0374D02*
X03884D01*
X03912Y02409*
Y02264D02*
Y02409D01*
X03884Y02236D02*
X03912Y02264D01*
X0374Y02236D02*
X03884D01*
X03712Y02264D02*
X0374Y02236D01*
X03712Y02264D02*
Y02409D01*
X0374Y02436*
X0449D02*
X04634D01*
X04662Y02409*
Y02264D02*
Y02409D01*
X04634Y02236D02*
X04662Y02264D01*
X0449Y02236D02*
X04634D01*
X04462Y02264D02*
X0449Y02236D01*
X04462Y02264D02*
Y02409D01*
X0449Y02436*
X0524D02*
X05384D01*
X05412Y02409*
Y02264D02*
Y02409D01*
X05384Y02236D02*
X05412Y02264D01*
X0524Y02236D02*
X05384D01*
X05212Y02264D02*
X0524Y02236D01*
X05212Y02264D02*
Y02409D01*
X0524Y02436*
X0599D02*
X06134D01*
X06162Y02409*
Y02264D02*
Y02409D01*
X06134Y02236D02*
X06162Y02264D01*
X0599Y02236D02*
X06134D01*
X05962Y02264D02*
X0599Y02236D01*
X05962Y02264D02*
Y02409D01*
X0599Y02436*
X0674D02*
X06884D01*
X06912Y02409*
Y02264D02*
Y02409D01*
X06884Y02236D02*
X06912Y02264D01*
X0674Y02236D02*
X06884D01*
X06712Y02264D02*
X0674Y02236D01*
X06712Y02264D02*
Y02409D01*
X0674Y02436*
X0749D02*
X07634D01*
X07662Y02409*
Y02264D02*
Y02409D01*
X07634Y02236D02*
X07662Y02264D01*
X0749Y02236D02*
X07634D01*
X07462Y02264D02*
X0749Y02236D01*
X07462Y02264D02*
Y02409D01*
X0749Y02436*
X0824D02*
X08384D01*
X08412Y02409*
Y02264D02*
Y02409D01*
X08384Y02236D02*
X08412Y02264D01*
X0824Y02236D02*
X08384D01*
X08212Y02264D02*
X0824Y02236D01*
X08212Y02264D02*
Y02409D01*
X0824Y02436*
X0899D02*
X09134D01*
X09162Y02409*
Y02264D02*
Y02409D01*
X09134Y02236D02*
X09162Y02264D01*
X0899Y02236D02*
X09134D01*
X08962Y02264D02*
X0899Y02236D01*
X08962Y02264D02*
Y02409D01*
X0899Y02436*
X0974D02*
X09884D01*
X09912Y02409*
Y02264D02*
Y02409D01*
X09884Y02236D02*
X09912Y02264D01*
X0974Y02236D02*
X09884D01*
X09712Y02264D02*
X0974Y02236D01*
X09712Y02264D02*
Y02409D01*
X0974Y02436*
X10302Y03186D02*
X10447D01*
X10475Y03159*
Y03014D02*
Y03159D01*
X10447Y02986D02*
X10475Y03014D01*
X10302Y02986D02*
X10447D01*
X10275Y03014D02*
X10302Y02986D01*
X10275Y03014D02*
Y03159D01*
X10302Y03186*
X12177Y01686D02*
X12322D01*
X1235Y01659*
Y01514D02*
Y01659D01*
X12322Y01486D02*
X1235Y01514D01*
X12177Y01486D02*
X12322D01*
X1215Y01514D02*
X12177Y01486D01*
X1215Y01514D02*
Y01659D01*
X12177Y01686*
X09365D02*
X09509D01*
X09537Y01659*
Y01514D02*
Y01659D01*
X09509Y01486D02*
X09537Y01514D01*
X09365Y01486D02*
X09509D01*
X09337Y01514D02*
X09365Y01486D01*
X09337Y01514D02*
Y01659D01*
X09365Y01686*
X08615D02*
X08759D01*
X08787Y01659*
Y01514D02*
Y01659D01*
X08759Y01486D02*
X08787Y01514D01*
X08615Y01486D02*
X08759D01*
X08587Y01514D02*
X08615Y01486D01*
X08587Y01514D02*
Y01659D01*
X08615Y01686*
X07865D02*
X08009D01*
X08037Y01659*
Y01514D02*
Y01659D01*
X08009Y01486D02*
X08037Y01514D01*
X07865Y01486D02*
X08009D01*
X07837Y01514D02*
X07865Y01486D01*
X07837Y01514D02*
Y01659D01*
X07865Y01686*
X07115D02*
X07259D01*
X07287Y01659*
Y01514D02*
Y01659D01*
X07259Y01486D02*
X07287Y01514D01*
X07115Y01486D02*
X07259D01*
X07087Y01514D02*
X07115Y01486D01*
X07087Y01514D02*
Y01659D01*
X07115Y01686*
X06365D02*
X06509D01*
X06537Y01659*
Y01514D02*
Y01659D01*
X06509Y01486D02*
X06537Y01514D01*
X06365Y01486D02*
X06509D01*
X06337Y01514D02*
X06365Y01486D01*
X06337Y01514D02*
Y01659D01*
X06365Y01686*
X02615D02*
X02759D01*
X02787Y01659*
Y01514D02*
Y01659D01*
X02759Y01486D02*
X02787Y01514D01*
X02615Y01486D02*
X02759D01*
X02587Y01514D02*
X02615Y01486D01*
X02587Y01514D02*
Y01659D01*
X02615Y01686*
X03365D02*
X03509D01*
X03537Y01659*
Y01514D02*
Y01659D01*
X03509Y01486D02*
X03537Y01514D01*
X03365Y01486D02*
X03509D01*
X03337Y01514D02*
X03365Y01486D01*
X03337Y01514D02*
Y01659D01*
X03365Y01686*
X04115D02*
X04259D01*
X04287Y01659*
Y01514D02*
Y01659D01*
X04259Y01486D02*
X04287Y01514D01*
X04115Y01486D02*
X04259D01*
X04087Y01514D02*
X04115Y01486D01*
X04087Y01514D02*
Y01659D01*
X04115Y01686*
X04865D02*
X05009D01*
X05037Y01659*
Y01514D02*
Y01659D01*
X05009Y01486D02*
X05037Y01514D01*
X04865Y01486D02*
X05009D01*
X04837Y01514D02*
X04865Y01486D01*
X04837Y01514D02*
Y01659D01*
X04865Y01686*
X05615D02*
X05759D01*
X05787Y01659*
Y01514D02*
Y01659D01*
X05759Y01486D02*
X05787Y01514D01*
X05615Y01486D02*
X05759D01*
X05587Y01514D02*
X05615Y01486D01*
X05587Y01514D02*
Y01659D01*
X05615Y01686*
X10677Y03936D02*
X10822D01*
X1085Y03909*
Y03764D02*
Y03909D01*
X10822Y03736D02*
X1085Y03764D01*
X10677Y03736D02*
X10822D01*
X1065Y03764D02*
X10677Y03736D01*
X1065Y03764D02*
Y03909D01*
X10677Y03936*
X11427D02*
X11572D01*
X116Y03909*
Y03764D02*
Y03909D01*
X11572Y03736D02*
X116Y03764D01*
X11427Y03736D02*
X11572D01*
X114Y03764D02*
X11427Y03736D01*
X114Y03764D02*
Y03909D01*
X11427Y03936*
X09365Y00936D02*
X09509D01*
X09537Y00909*
Y00764D02*
Y00909D01*
X09509Y00736D02*
X09537Y00764D01*
X09365Y00736D02*
X09509D01*
X09337Y00764D02*
X09365Y00736D01*
X09337Y00764D02*
Y00909D01*
X09365Y00936*
X03177D02*
X03322D01*
X0335Y00909*
Y00764D02*
Y00909D01*
X03322Y00736D02*
X0335Y00764D01*
X03177Y00736D02*
X03322D01*
X0315Y00764D02*
X03177Y00736D01*
X0315Y00764D02*
Y00909D01*
X03177Y00936*
X01958D02*
X02103D01*
X02131Y00909*
Y00764D02*
Y00909D01*
X02103Y00736D02*
X02131Y00764D01*
X01958Y00736D02*
X02103D01*
X05634Y02194D02*
X05662Y02167D01*
X05634Y02194D02*
Y02339D01*
X05662Y02367*
X10677Y00936D02*
X10822D01*
X1085Y00909*
Y00764D02*
Y00909D01*
X10822Y00736D02*
X1085Y00764D01*
X10677Y00736D02*
X10822D01*
X1065Y00764D02*
X10677Y00736D01*
X1065Y00764D02*
Y00909D01*
X10677Y00936*
X11427D02*
X11572D01*
X116Y00909*
Y00764D02*
Y00909D01*
X11572Y00736D02*
X116Y00764D01*
X11427Y00736D02*
X11572D01*
X114Y00764D02*
X11427Y00736D01*
X114Y00764D02*
Y00909D01*
X11427Y00936*
X04725Y02367D02*
X04869D01*
X04897Y02339*
Y02194D02*
Y02339D01*
X04869Y02167D02*
X04897Y02194D01*
X04725Y02167D02*
X04869D01*
X04697Y02194D02*
X04725Y02167D01*
X04697Y02194D02*
Y02339D01*
X04725Y02367*
X01865Y01686D02*
X02009D01*
X02037Y01659*
Y01514D02*
Y01659D01*
X02009Y01486D02*
X02037Y01514D01*
X01865Y01486D02*
X02009D01*
X01837Y01514D02*
X01865Y01486D01*
X01837Y01514D02*
Y01659D01*
X01865Y01686*
X00927Y03936D02*
X01072D01*
X011Y03909*
Y03764D02*
Y03909D01*
X01072Y03736D02*
X011Y03764D01*
X00927Y03736D02*
X01072D01*
X009Y03764D02*
X00927Y03736D01*
X009Y03764D02*
Y03909D01*
X00927Y03936*
X1124Y00936D02*
X11384D01*
X11412Y00909*
Y00764D02*
Y00909D01*
X11384Y00736D02*
X11412Y00764D01*
X1124Y00736D02*
X11384D01*
X11212Y00764D02*
X1124Y00736D01*
X11212Y00764D02*
Y00909D01*
X1124Y00936*
X12177Y03186D02*
X12322D01*
X1235Y03159*
Y03014D02*
Y03159D01*
X12322Y02986D02*
X1235Y03014D01*
X12177Y02986D02*
X12322D01*
X1215Y03014D02*
X12177Y02986D01*
X1215Y03014D02*
Y03159D01*
X12177Y03186*
Y02436D02*
X12322D01*
X1235Y02409*
Y02264D02*
Y02409D01*
X12322Y02236D02*
X1235Y02264D01*
X12177Y02236D02*
X12322D01*
X1215Y02264D02*
X12177Y02236D01*
X1215Y02264D02*
Y02409D01*
X12177Y02436*
M02*