%FSTAX23Y23*%
%MOIN*%
%SFA1B1*%

%IPPOS*%
%AMD46*
4,1,4,-0.036100,0.002800,0.002800,-0.036100,0.036100,-0.002800,-0.002800,0.036100,-0.036100,0.002800,0.0*
%
%ADD11R,0.035429X0.059059*%
%ADD41R,0.027559X0.035433*%
%ADD42R,0.035433X0.027559*%
%ADD43R,0.048031X0.035827*%
%ADD44R,0.035433X0.031496*%
%ADD45R,0.059055X0.102362*%
G04~CAMADD=46~9~0.0~0.0~551.2~472.4~0.0~0.0~0~0.0~0.0~0.0~0.0~0~0.0~0.0~0.0~0.0~0~0.0~0.0~0.0~135.0~722.0~721.0*
%ADD46D46*%
%ADD47O,0.021654X0.068898*%
%ADD48O,0.068898X0.021654*%
%ADD49O,0.021654X0.062992*%
%ADD50O,0.062992X0.021654*%
%ADD51R,0.027559X0.011811*%
%ADD52R,0.035827X0.048031*%
%ADD53R,0.031496X0.035433*%
%ADD54R,0.043307X0.102362*%
%ADD55R,0.023622X0.045275*%
%ADD56R,0.045275X0.023622*%
%ADD57R,0.129921X0.094488*%
%ADD58O,0.023622X0.086614*%
%ADD59O,0.061024X0.013780*%
%ADD60O,0.066929X0.011811*%
%ADD61R,0.019685X0.015748*%
%ADD62R,0.027559X0.015748*%
%ADD63R,0.070866X0.066929*%
%ADD64R,0.059059X0.035429*%
%ADD65R,0.035433X0.031496*%
%ADD66R,0.043307X0.025591*%
%ADD67R,0.224409X0.062992*%
%ADD68R,0.023622X0.043307*%
%ADD69R,0.031496X0.035433*%
%ADD70R,0.039370X0.078740*%
%ADD71R,0.078740X0.039370*%
%ADD72R,0.059055X0.023622*%
%LNquadcube_65_pcb_paste_bot-1*%
%LPD*%
G54D11*
X04612Y06075D03*
X04742D03*
X04612Y05882D03*
X04742D03*
G54D41*
X11968Y06804D03*
X12027D03*
X09401Y05523D03*
X09342D03*
X09398Y05382D03*
X09339D03*
X05004Y06641D03*
X05063D03*
X04923Y06968D03*
X04864D03*
X13042Y0783D03*
X13101D03*
X11121Y07323D03*
X1118D03*
X11002D03*
X11062D03*
G54D42*
X11351Y07433D03*
Y07492D03*
X07011Y05512D03*
Y05453D03*
X06263Y05505D03*
Y05446D03*
X0575D03*
Y05387D03*
X06826Y08153D03*
Y08212D03*
X10401Y08257D03*
Y08198D03*
X10487Y05283D03*
Y05342D03*
X15891Y07636D03*
Y07695D03*
X14477Y08446D03*
Y08386D03*
X10487Y05406D03*
Y05465D03*
X06281Y07541D03*
Y07482D03*
X05394Y07731D03*
Y0779D03*
X05317Y07731D03*
Y0779D03*
X15881Y06886D03*
Y06945D03*
X10363Y07566D03*
Y07625D03*
X09537Y07384D03*
Y07325D03*
X14758Y06946D03*
Y06886D03*
X14336Y07004D03*
Y06945D03*
X1376Y05504D03*
Y05445D03*
X12977Y05446D03*
Y05386D03*
X04727Y05446D03*
Y05386D03*
X05665Y06196D03*
Y06136D03*
X04821Y06196D03*
Y06136D03*
X05045Y07008D03*
Y06949D03*
X14477Y05446D03*
Y05386D03*
X15343Y05483D03*
Y05424D03*
X15227Y06196D03*
Y06136D03*
X14196Y06196D03*
Y06136D03*
X12227Y05446D03*
Y05386D03*
X09543Y05509D03*
Y0545D03*
X15038Y07696D03*
Y07636D03*
X15979Y06195D03*
Y06136D03*
X15981Y05443D03*
Y05384D03*
X10163Y06196D03*
Y06136D03*
X09413Y06196D03*
Y06136D03*
X06413Y06196D03*
Y06136D03*
X07163Y06196D03*
Y06136D03*
X08663Y06196D03*
Y06136D03*
X07913Y06196D03*
Y06136D03*
X10913Y06196D03*
Y06136D03*
X11663Y06196D03*
Y06136D03*
X12413Y06196D03*
Y06136D03*
X13163Y06196D03*
Y06136D03*
X12601Y07696D03*
Y07636D03*
X13351Y07696D03*
Y07636D03*
X14101Y07696D03*
Y07636D03*
X12226Y08446D03*
Y08386D03*
X12976Y08446D03*
Y08386D03*
X13726Y08446D03*
Y08386D03*
X12788Y06946D03*
Y06886D03*
X13538Y06946D03*
Y06886D03*
X12038Y06946D03*
Y06886D03*
X11288Y06946D03*
Y06886D03*
X04915Y07728D03*
Y07669D03*
X08101Y07696D03*
Y07636D03*
X08851Y07696D03*
Y07636D03*
X07351Y07696D03*
Y07636D03*
X06601Y07696D03*
Y07636D03*
X06788Y06946D03*
Y06886D03*
X07538Y06946D03*
Y06886D03*
X06038Y06946D03*
Y06886D03*
X09226Y08446D03*
Y08386D03*
X08476Y08446D03*
Y08386D03*
X06976Y08446D03*
Y08386D03*
X08288Y06946D03*
Y06886D03*
X09038Y06946D03*
Y06886D03*
X10538Y06946D03*
Y06886D03*
X09788Y06946D03*
Y06886D03*
X05871Y07754D03*
Y07695D03*
X09601Y07696D03*
Y07636D03*
X10392Y07754D03*
Y07695D03*
X11851Y07696D03*
Y07636D03*
X11101Y07696D03*
Y07636D03*
X11476Y08446D03*
Y08386D03*
X10776Y085D03*
Y08441D03*
X09976Y08446D03*
Y08386D03*
X07726Y08446D03*
Y08386D03*
X06226Y08446D03*
Y08386D03*
X05476Y08446D03*
Y08386D03*
X04726Y08446D03*
Y08386D03*
X10615Y07654D03*
Y07595D03*
X15972Y07695D03*
Y07636D03*
X15962Y06945D03*
Y06886D03*
X15182Y08415D03*
Y08356D03*
X15964Y08425D03*
Y08366D03*
G54D43*
X14625Y07315D03*
Y07186D03*
X14658Y06585D03*
Y06456D03*
X14185Y05765D03*
Y05894D03*
X12747Y0581D03*
Y05681D03*
X14886Y05815D03*
Y05686D03*
X09833Y05842D03*
Y05714D03*
X07311Y05815D03*
Y05686D03*
X15806Y07696D03*
Y07567D03*
X15697Y07696D03*
Y07567D03*
X14821Y08904D03*
Y08776D03*
X15792Y06946D03*
Y06817D03*
X15694Y06946D03*
Y06817D03*
X04617Y06565D03*
Y06436D03*
X15167Y07315D03*
Y07186D03*
X14067Y05894D03*
Y05765D03*
X13301Y05894D03*
Y05765D03*
X06581Y0582D03*
Y05691D03*
X05578Y05831D03*
Y05702D03*
X06074Y06565D03*
Y06436D03*
X05246Y0583D03*
Y05701D03*
X05145Y07333D03*
Y07204D03*
X15636Y05815D03*
Y05686D03*
X15558Y06575D03*
Y06446D03*
X15369Y08066D03*
Y07937D03*
X16348Y06624D03*
Y06495D03*
X1635Y05826D03*
Y05697D03*
X10229Y06565D03*
Y06436D03*
X09822Y06565D03*
Y06436D03*
X06822Y06565D03*
Y06436D03*
X07572Y06565D03*
Y06436D03*
X09072Y06565D03*
Y06436D03*
X08322Y06565D03*
Y06436D03*
X11322Y06565D03*
Y06436D03*
X12072Y06565D03*
Y06436D03*
X12822Y06565D03*
Y06436D03*
X13231Y06566D03*
Y06437D03*
X1226Y08065D03*
Y07936D03*
X1301Y08065D03*
Y07936D03*
X1376Y08065D03*
Y07936D03*
X1451Y08065D03*
Y07936D03*
X12635Y08815D03*
Y08686D03*
X13385Y08815D03*
Y08686D03*
X14135Y08815D03*
Y08686D03*
X13197Y07315D03*
Y07186D03*
X13862Y07315D03*
Y07186D03*
X12447Y07315D03*
Y07186D03*
X11697Y07315D03*
Y07186D03*
X05322Y08065D03*
Y07936D03*
X0851Y08065D03*
Y07936D03*
X0926Y08065D03*
Y07936D03*
X0776Y08065D03*
Y07936D03*
X0701Y08065D03*
Y07936D03*
X07197Y07315D03*
Y07186D03*
X07947Y07315D03*
Y07186D03*
X06447Y07315D03*
Y07186D03*
X09635Y08815D03*
Y08686D03*
X08885Y08815D03*
Y08686D03*
X07385Y08815D03*
Y08686D03*
X08697Y07315D03*
Y07186D03*
X09929Y07323D03*
Y07194D03*
X0626Y08065D03*
Y07936D03*
X09668Y08065D03*
Y07936D03*
X10419Y08065D03*
Y07936D03*
X1151Y08065D03*
Y07936D03*
X11885Y08815D03*
Y08686D03*
X11135Y08815D03*
Y08686D03*
X08135Y08815D03*
Y08686D03*
X06635Y08815D03*
Y08686D03*
X05885Y08815D03*
Y08686D03*
X05135Y08815D03*
Y08686D03*
X10604Y07316D03*
Y07187D03*
X11371Y07566D03*
Y07695D03*
X09447Y07315D03*
Y07186D03*
X05267Y06611D03*
Y06482D03*
X16349Y08123D03*
Y07994D03*
X16347Y07374D03*
Y07245D03*
G54D44*
X11035Y05554D03*
Y05609D03*
X11655Y0564D03*
Y05585D03*
X10685Y07262D03*
Y07317D03*
X07069Y05969D03*
Y05914D03*
X13484Y05969D03*
Y05914D03*
X09603Y05915D03*
Y0597D03*
X05258Y0742D03*
Y07365D03*
X1083Y05969D03*
Y05914D03*
X0499Y08386D03*
Y08331D03*
X09479Y08386D03*
Y08331D03*
X15985Y05969D03*
Y05914D03*
X14008Y08281D03*
Y08336D03*
G54D45*
X10823Y07721D03*
X10705D03*
X09122Y05459D03*
X0924D03*
X09122Y05307D03*
X0924D03*
G54D46*
X11889Y05495D03*
X11828Y05556D03*
X11781Y05508D03*
X11842Y05447D03*
G54D47*
X05446Y07186D03*
X05478D03*
X05509D03*
X05541D03*
X05572D03*
X05604D03*
X05635D03*
X05667D03*
X05698D03*
X0573D03*
X05761D03*
Y0763D03*
X0573D03*
X05698D03*
X05667D03*
X05635D03*
X05604D03*
X05572D03*
X05541D03*
X05509D03*
X05478D03*
X05446D03*
G54D48*
X05826Y0725D03*
Y07282D03*
Y07313D03*
Y07345D03*
Y07376D03*
Y07408D03*
Y07439D03*
Y07471D03*
Y07502D03*
Y07534D03*
Y07565D03*
X05381D03*
Y07534D03*
Y07502D03*
Y07471D03*
Y07439D03*
Y07408D03*
Y07376D03*
Y07345D03*
Y07313D03*
Y07282D03*
Y0725D03*
G54D49*
X11181Y05363D03*
X11212D03*
X11244D03*
X11275D03*
X11307D03*
X11338D03*
X1137D03*
X11401D03*
X11433D03*
X11464D03*
X11496D03*
Y05808D03*
X11464D03*
X11433D03*
X11401D03*
X1137D03*
X11338D03*
X11307D03*
X11275D03*
X11244D03*
X11212D03*
X11181D03*
G54D50*
X11561Y05428D03*
Y05459D03*
Y05491D03*
Y05522D03*
Y05554D03*
Y05585D03*
Y05617D03*
Y05648D03*
Y0568D03*
Y05711D03*
Y05743D03*
X11116D03*
Y05711D03*
Y0568D03*
Y05648D03*
Y05617D03*
Y05585D03*
Y05554D03*
Y05522D03*
Y05491D03*
Y05459D03*
Y05428D03*
G54D51*
X1027Y05355D03*
Y05304D03*
X10351D03*
Y05329D03*
Y05355D03*
X10586Y05334D03*
Y05283D03*
X10667D03*
Y05309D03*
Y05334D03*
X10586Y05457D03*
Y05406D03*
X10667D03*
Y05432D03*
Y05457D03*
G54D52*
X04799Y06968D03*
X0467D03*
X13101Y07952D03*
X1323D03*
X10065Y08791D03*
X09936D03*
X15378Y08763D03*
X15249D03*
X16085Y08772D03*
X15956D03*
G54D53*
X04706Y0754D03*
X04761D03*
X04707Y07371D03*
X04762D03*
X05592Y07085D03*
X05647D03*
Y07746D03*
X05592D03*
X10457Y07331D03*
X10512D03*
X10879Y07254D03*
X10935D03*
X11995Y05626D03*
X11939D03*
Y05374D03*
X11995D03*
X10143Y05315D03*
X10198D03*
G54D54*
X1009Y07909D03*
X10196D03*
G54D55*
X0616Y07728D03*
X06123Y07639D03*
X06197D03*
X06404Y07728D03*
X06367Y07639D03*
X06441D03*
G54D56*
X0983Y07462D03*
X09742Y075D03*
Y07425D03*
G54D57*
X10982Y06985D03*
Y06711D03*
X10106Y07719D03*
Y07445D03*
G54D58*
X05564Y08292D03*
X05614D03*
X05664D03*
X05714D03*
X05564Y08024D03*
X05614D03*
X05664D03*
X05714D03*
G54D59*
X10832Y05743D03*
Y05717D03*
Y05691D03*
Y05666D03*
X10606Y05743D03*
Y05717D03*
Y05691D03*
Y05666D03*
G54D60*
X10562Y08395D03*
Y08375D03*
Y08356D03*
Y08336D03*
Y08316D03*
X10401Y08395D03*
Y08375D03*
Y08356D03*
Y08336D03*
Y08316D03*
G54D61*
X11265Y07517D03*
Y07492D03*
Y07466D03*
X1119D03*
Y07492D03*
Y07517D03*
G54D62*
X09618Y07448D03*
Y075D03*
X09537D03*
Y07474D03*
Y07448D03*
G54D63*
X04884Y07371D03*
Y0754D03*
G54D64*
X16317Y06818D03*
Y06688D03*
X16124Y06818D03*
Y06688D03*
X06114Y06044D03*
Y05914D03*
X05922Y06044D03*
Y05914D03*
X07197D03*
Y06044D03*
X0739Y05914D03*
Y06044D03*
X0848D03*
Y05914D03*
X08287Y06044D03*
Y05914D03*
X09748D03*
Y06044D03*
X09941Y05914D03*
Y06044D03*
X11177D03*
Y05914D03*
X10984Y06044D03*
Y05914D03*
X12476D03*
Y06044D03*
X12668Y05914D03*
Y06044D03*
X13767D03*
Y05914D03*
X13574Y06044D03*
Y05914D03*
X14849D03*
Y06044D03*
X15042Y05914D03*
Y06044D03*
X16317D03*
Y05914D03*
X16125Y06044D03*
Y05914D03*
X15888Y08151D03*
Y08281D03*
X16081Y08151D03*
Y08281D03*
X15042D03*
Y08151D03*
X14849Y08281D03*
Y08151D03*
X13574D03*
Y08281D03*
X13767Y08151D03*
Y08281D03*
X12491D03*
Y08151D03*
X12298Y08281D03*
Y08151D03*
X11023D03*
Y08281D03*
X11216Y08151D03*
Y08281D03*
X09941D03*
Y08151D03*
X09748Y08281D03*
Y08151D03*
X08472D03*
Y08281D03*
X08665Y08151D03*
Y08281D03*
X0739D03*
Y08151D03*
X07197Y08281D03*
Y08151D03*
X05922D03*
Y08281D03*
X06114Y08151D03*
Y08281D03*
X04839D03*
Y08151D03*
X04646Y08281D03*
Y08151D03*
X04835Y06838D03*
Y06708D03*
X04642Y06838D03*
Y06708D03*
G54D65*
X13115Y07503D03*
X13036Y07541D03*
Y07466D03*
X13116Y07693D03*
X13037Y07731D03*
Y07656D03*
G54D66*
X10457Y075D03*
Y07463D03*
Y07426D03*
X10363D03*
Y075D03*
G54D67*
X10771Y07384D03*
Y07569D03*
G54D68*
X10965Y07517D03*
X11002D03*
X1104D03*
Y07423D03*
X11002D03*
X10965D03*
G54D69*
X06549Y08133D03*
X06474D03*
Y08361D03*
X06549D03*
X06511Y08282D03*
Y08212D03*
G54D70*
X08222Y05809D03*
X08281D03*
X08931D03*
X08399D03*
X0834D03*
X08576D03*
X08635D03*
X08517D03*
X08458D03*
X08694D03*
X08753D03*
X08872D03*
X08812D03*
Y05297D03*
X08872D03*
X08753D03*
X08694D03*
X08458D03*
X08517D03*
X08635D03*
X08576D03*
X0834D03*
X08399D03*
X08931D03*
X08281D03*
X08222D03*
G54D71*
X09003Y05405D03*
Y05346D03*
Y05523D03*
Y05582D03*
Y05759D03*
Y057D03*
Y05641D03*
Y05464D03*
G54D72*
X10833Y05587D03*
Y05512D03*
X10758Y0555D03*
M02*