%FSTAX23Y23*%
%MOIN*%
%SFA1B1*%

%IPPOS*%
%ADD18C,0.010000*%
%ADD132C,0.005000*%
%ADD138C,0.007874*%
%ADD144C,0.002953*%
%ADD145C,0.007870*%
%ADD146C,0.003937*%
%ADD156C,0.038390*%
%ADD157C,0.038390*%
%ADD158C,0.003937*%
%ADD159C,0.015748*%
%ADD160C,0.005905*%
%LNquadcube_65_pcb_mechanical_24-1*%
%LPD*%
G54D18*
X02691Y00769D02*
X02771D01*
X02691Y00674D02*
Y00769D01*
X02796D02*
X02876D01*
Y00674D02*
Y00769D01*
X00816Y02269D02*
X00896D01*
X00816Y02174D02*
Y02269D01*
X00921D02*
X01001D01*
Y02174D02*
Y02269D01*
X01472Y03769D02*
X01552D01*
X01472Y03674D02*
Y03769D01*
X01577D02*
X01657D01*
Y03674D02*
Y03769D01*
X0705Y02771D02*
X0714D01*
Y02871*
X0692Y02771D02*
X0701D01*
X0692D02*
Y02871D01*
X0715Y02771D02*
Y02871D01*
Y02771D02*
X0716D01*
Y02871*
X01971Y02329D02*
X01996D01*
X02046Y02379*
Y02754D02*
Y02829D01*
X01546D02*
X01621D01*
X01546Y02329D02*
Y02404D01*
X01191Y01519D02*
X01271D01*
X01191Y01424D02*
Y01519D01*
X01296D02*
X01376D01*
Y01424D02*
Y01519D01*
X06147Y03264D02*
X06227D01*
X06147Y03169D02*
Y03264D01*
X06252D02*
X06332D01*
Y03169D02*
Y03264D01*
X06147Y03379D02*
X06227D01*
X06147Y03284D02*
Y03379D01*
X06252D02*
X06332D01*
Y03284D02*
Y03379D01*
X06877Y03274D02*
X06957D01*
X06877Y03179D02*
Y03274D01*
X06982D02*
X07062D01*
Y03179D02*
Y03274D01*
X01447Y02084D02*
Y02164D01*
Y02084D02*
X01542D01*
X01447Y02189D02*
Y02269D01*
X01542*
X06252Y03399D02*
X06332D01*
Y03494*
X06147Y03399D02*
X06227D01*
X06147D02*
Y03494D01*
X06432Y03314D02*
Y03394D01*
Y03314D02*
X06527D01*
X06432Y03419D02*
Y03499D01*
X06527*
X01207Y03604D02*
X01287D01*
X01207Y03509D02*
Y03604D01*
X01312D02*
X01392D01*
Y03509D02*
Y03604D01*
X01312Y03394D02*
X01392D01*
Y03489*
X01207Y03394D02*
X01287D01*
X01207D02*
Y03489D01*
X02092Y03394D02*
X02172D01*
Y03489*
X01987Y03394D02*
X02067D01*
X01987D02*
Y03489D01*
Y03604D02*
X02067D01*
X01987Y03509D02*
Y03604D01*
X02092D02*
X02172D01*
Y03509D02*
Y03604D01*
X00903Y02624D02*
Y02704D01*
Y02624D02*
X00998D01*
X00903Y02729D02*
Y02809D01*
X00998*
X00872Y02729D02*
Y02809D01*
X00777D02*
X00872D01*
Y02624D02*
Y02704D01*
X00777Y02624D02*
X00872D01*
X06982Y03064D02*
X07062D01*
Y03159*
X06877Y03064D02*
X06957D01*
X06877D02*
Y03159D01*
X0699Y03451D02*
X07015D01*
X07075D02*
X071D01*
X0713D02*
X07155D01*
X07215D02*
X0724D01*
X068D02*
X06825D01*
X06885D02*
X0691D01*
X02222Y03769D02*
X02302D01*
X02222Y03674D02*
Y03769D01*
X02327D02*
X02407D01*
Y03674D02*
Y03769D01*
X02972D02*
X03052D01*
X02972Y03674D02*
Y03769D01*
X03077D02*
X03157D01*
Y03674D02*
Y03769D01*
X03722D02*
X03802D01*
X03722Y03674D02*
Y03769D01*
X03827D02*
X03907D01*
Y03674D02*
Y03769D01*
X11972D02*
X12052D01*
X11972Y03674D02*
Y03769D01*
X12077D02*
X12157D01*
Y03674D02*
Y03769D01*
X11972Y00769D02*
X12052D01*
X11972Y00674D02*
Y00769D01*
X12077D02*
X12157D01*
Y00674D02*
Y00769D01*
X11222Y01519D02*
X11302D01*
X11222Y01424D02*
Y01519D01*
X11327D02*
X11407D01*
Y01424D02*
Y01519D01*
X09347Y03019D02*
X09427D01*
X09347Y02924D02*
Y03019D01*
X09452D02*
X09532D01*
Y02924D02*
Y03019D01*
X08597D02*
X08677D01*
X08597Y02924D02*
Y03019D01*
X08702D02*
X08782D01*
Y02924D02*
Y03019D01*
X07847D02*
X07927D01*
X07847Y02924D02*
Y03019D01*
X07952D02*
X08032D01*
Y02924D02*
Y03019D01*
X07097D02*
X07177D01*
X07097Y02924D02*
Y03019D01*
X07202D02*
X07282D01*
Y02924D02*
Y03019D01*
X06347D02*
X06427D01*
X06347Y02924D02*
Y03019D01*
X06452D02*
X06532D01*
Y02924D02*
Y03019D01*
X08972Y03769D02*
X09052D01*
X08972Y03674D02*
Y03769D01*
X09077D02*
X09157D01*
Y03674D02*
Y03769D01*
X09722D02*
X09802D01*
X09722Y03674D02*
Y03769D01*
X09827D02*
X09907D01*
Y03674D02*
Y03769D01*
X08222D02*
X08302D01*
X08222Y03674D02*
Y03769D01*
X08327D02*
X08407D01*
Y03674D02*
Y03769D01*
X07472D02*
X07552D01*
X07472Y03674D02*
Y03769D01*
X07577D02*
X07657D01*
Y03674D02*
Y03769D01*
X06722D02*
X06802D01*
X06722Y03674D02*
Y03769D01*
X06827D02*
X06907D01*
Y03674D02*
Y03769D01*
X05972D02*
X06052D01*
X05972Y03674D02*
Y03769D01*
X06077D02*
X06157D01*
Y03674D02*
Y03769D01*
X05222D02*
X05302D01*
X05222Y03674D02*
Y03769D01*
X05327D02*
X05407D01*
Y03674D02*
Y03769D01*
X04472D02*
X04552D01*
X04472Y03674D02*
Y03769D01*
X04577D02*
X04657D01*
Y03674D02*
Y03769D01*
X04847Y03019D02*
X04927D01*
X04847Y02924D02*
Y03019D01*
X04952D02*
X05032D01*
Y02924D02*
Y03019D01*
X05597D02*
X05677D01*
X05597Y02924D02*
Y03019D01*
X05702D02*
X05782D01*
Y02924D02*
Y03019D01*
X04097D02*
X04177D01*
X04097Y02924D02*
Y03019D01*
X04202D02*
X04282D01*
Y02924D02*
Y03019D01*
X03347D02*
X03427D01*
X03347Y02924D02*
Y03019D01*
X03452D02*
X03532D01*
Y02924D02*
Y03019D01*
X0091D02*
X0099D01*
X0091Y02924D02*
Y03019D01*
X01015D02*
X01095D01*
Y02924D02*
Y03019D01*
X01847D02*
X01927D01*
X01847Y02924D02*
Y03019D01*
X01952D02*
X02032D01*
Y02924D02*
Y03019D01*
X02597D02*
X02677D01*
X02597Y02924D02*
Y03019D01*
X02702D02*
X02782D01*
Y02924D02*
Y03019D01*
X02035Y02269D02*
X02115D01*
X02035Y02174D02*
Y02269D01*
X0214D02*
X0222D01*
Y02174D02*
Y02269D01*
X02785D02*
X02865D01*
X02785Y02174D02*
Y02269D01*
X0289D02*
X0297D01*
Y02174D02*
Y02269D01*
X03535D02*
X03615D01*
X03535Y02174D02*
Y02269D01*
X0364D02*
X0372D01*
Y02174D02*
Y02269D01*
X04285D02*
X04365D01*
X04285Y02174D02*
Y02269D01*
X0439D02*
X0447D01*
Y02174D02*
Y02269D01*
X05035D02*
X05115D01*
X05035Y02174D02*
Y02269D01*
X0514D02*
X0522D01*
Y02174D02*
Y02269D01*
X05785D02*
X05865D01*
X05785Y02174D02*
Y02269D01*
X0589D02*
X0597D01*
Y02174D02*
Y02269D01*
X06535D02*
X06615D01*
X06535Y02174D02*
Y02269D01*
X0664D02*
X0672D01*
Y02174D02*
Y02269D01*
X07285D02*
X07365D01*
X07285Y02174D02*
Y02269D01*
X0739D02*
X0747D01*
Y02174D02*
Y02269D01*
X08035D02*
X08115D01*
X08035Y02174D02*
Y02269D01*
X0814D02*
X0822D01*
Y02174D02*
Y02269D01*
X08785D02*
X08865D01*
X08785Y02174D02*
Y02269D01*
X0889D02*
X0897D01*
Y02174D02*
Y02269D01*
X09535D02*
X09615D01*
X09535Y02174D02*
Y02269D01*
X0964D02*
X0972D01*
Y02174D02*
Y02269D01*
X10097Y03019D02*
X10177D01*
X10097Y02924D02*
Y03019D01*
X10202D02*
X10282D01*
Y02924D02*
Y03019D01*
X11972Y01519D02*
X12052D01*
X11972Y01424D02*
Y01519D01*
X12077D02*
X12157D01*
Y01424D02*
Y01519D01*
X0916D02*
X0924D01*
X0916Y01424D02*
Y01519D01*
X09265D02*
X09345D01*
Y01424D02*
Y01519D01*
X0841D02*
X0849D01*
X0841Y01424D02*
Y01519D01*
X08515D02*
X08595D01*
Y01424D02*
Y01519D01*
X0766D02*
X0774D01*
X0766Y01424D02*
Y01519D01*
X07765D02*
X07845D01*
Y01424D02*
Y01519D01*
X0691D02*
X0699D01*
X0691Y01424D02*
Y01519D01*
X07015D02*
X07095D01*
Y01424D02*
Y01519D01*
X0616D02*
X0624D01*
X0616Y01424D02*
Y01519D01*
X06265D02*
X06345D01*
Y01424D02*
Y01519D01*
X0241D02*
X0249D01*
X0241Y01424D02*
Y01519D01*
X02515D02*
X02595D01*
Y01424D02*
Y01519D01*
X0316D02*
X0324D01*
X0316Y01424D02*
Y01519D01*
X03265D02*
X03345D01*
Y01424D02*
Y01519D01*
X0391D02*
X0399D01*
X0391Y01424D02*
Y01519D01*
X04015D02*
X04095D01*
Y01424D02*
Y01519D01*
X0466D02*
X0474D01*
X0466Y01424D02*
Y01519D01*
X04765D02*
X04845D01*
Y01424D02*
Y01519D01*
X0541D02*
X0549D01*
X0541Y01424D02*
Y01519D01*
X05515D02*
X05595D01*
Y01424D02*
Y01519D01*
X10472Y03769D02*
X10552D01*
X10472Y03674D02*
Y03769D01*
X10577D02*
X10657D01*
Y03674D02*
Y03769D01*
X11222D02*
X11302D01*
X11222Y03674D02*
Y03769D01*
X11327D02*
X11407D01*
Y03674D02*
Y03769D01*
X0916Y00769D02*
X0924D01*
X0916Y00674D02*
Y00769D01*
X09265D02*
X09345D01*
Y00674D02*
Y00769D01*
X0098Y03496D02*
X01005D01*
X01065D02*
X0109D01*
X00835D02*
X0086D01*
X0092D02*
X00945D01*
X02767Y00744D02*
X02847D01*
X02767Y00649D02*
Y00744D01*
X02872D02*
X02952D01*
Y00649D02*
Y00744D01*
X05457Y02199D02*
X05537D01*
X05457Y02104D02*
Y02199D01*
X05562D02*
X05642D01*
Y02104D02*
Y02199D01*
X10472Y00769D02*
X10552D01*
X10472Y00674D02*
Y00769D01*
X10577D02*
X10657D01*
Y00674D02*
Y00769D01*
X11222D02*
X11302D01*
X11222Y00674D02*
Y00769D01*
X11327D02*
X11407D01*
Y00674D02*
Y00769D01*
X04519Y02199D02*
X04599D01*
X04519Y02104D02*
Y02199D01*
X04624D02*
X04704D01*
Y02104D02*
Y02199D01*
X10566Y01519D02*
X10646D01*
X10566Y01424D02*
Y01519D01*
X10671D02*
X10751D01*
Y01424D02*
Y01519D01*
X04003Y00769D02*
X04083D01*
X04003Y00674D02*
Y00769D01*
X04108D02*
X04188D01*
Y00674D02*
Y00769D01*
X06816D02*
X06896D01*
X06816Y00674D02*
Y00769D01*
X06921D02*
X07001D01*
Y00674D02*
Y00769D01*
X10865Y02746D02*
Y02826D01*
Y02746D02*
X1096D01*
X10865Y02851D02*
Y02931D01*
X1096*
X10744Y01996D02*
Y02076D01*
Y01996D02*
X10839D01*
X10744Y02101D02*
Y02181D01*
X10839*
X0166Y01519D02*
X0174D01*
X0166Y01424D02*
Y01519D01*
X01765D02*
X01845D01*
Y01424D02*
Y01519D01*
X00722Y03769D02*
X00802D01*
X00722Y03674D02*
Y03769D01*
X00827D02*
X00907D01*
Y03674D02*
Y03769D01*
X10596Y02269D02*
X10676D01*
X10596Y02174D02*
Y02269D01*
X10701D02*
X10781D01*
Y02174D02*
Y02269D01*
X10713Y00728D02*
Y00808D01*
Y00728D02*
X10808D01*
X10713Y00833D02*
Y00913D01*
X10808*
X1058Y00504D02*
X1066D01*
Y00599*
X10475Y00504D02*
X10555D01*
X10475D02*
Y00599D01*
X05972Y00769D02*
X06052D01*
X05972Y00674D02*
Y00769D01*
X06077D02*
X06157D01*
Y00674D02*
Y00769D01*
X02605Y03225D02*
Y03305D01*
X02515D02*
X02605D01*
Y03115D02*
Y03195D01*
X02515Y03115D02*
X02605D01*
X11982Y02834D02*
X12062D01*
X12087D02*
X12167D01*
X12072Y02659D02*
Y02739D01*
Y02659D02*
X12167D01*
X11972Y02094D02*
X12052D01*
X11972Y01999D02*
Y02094D01*
X12077D02*
X12157D01*
Y01914D02*
Y01994D01*
X12062Y01914D02*
X12157D01*
X02279Y03489D02*
X02359D01*
X02279Y03394D02*
Y03489D01*
X02384D02*
X02464D01*
Y03394D02*
Y03489D01*
G54D132*
X02691Y00674D02*
X02771D01*
X02796D02*
X02876D01*
X00816Y02174D02*
X00896D01*
X00921D02*
X01001D01*
X01472Y03674D02*
X01552D01*
X01577D02*
X01657D01*
X0705Y02871D02*
X0714D01*
X0692D02*
X0701D01*
X0715D02*
X0716D01*
X0717Y02771D02*
Y02871D01*
X0705Y02771D02*
X0717D01*
X0705Y02871D02*
X0717D01*
Y02771D02*
Y02861D01*
X0716Y02781D02*
Y02871D01*
X0719Y02821D02*
X0721D01*
X072Y02811D02*
Y02831D01*
X02046Y02379D02*
Y02404D01*
X01971Y02829D02*
X02046D01*
X01546Y02754D02*
Y02829D01*
Y02329D02*
X01621D01*
X01191Y01424D02*
X01271D01*
X01296D02*
X01376D01*
X06147Y03169D02*
X06227D01*
X06252D02*
X06332D01*
X06147Y03284D02*
X06227D01*
X06252D02*
X06332D01*
X06877Y03179D02*
X06957D01*
X06982D02*
X07062D01*
X01542Y02084D02*
Y02164D01*
Y02189D02*
Y02269D01*
X06252Y03494D02*
X06332D01*
X06147D02*
X06227D01*
X06527Y03314D02*
Y03394D01*
Y03419D02*
Y03499D01*
X01207Y03509D02*
X01287D01*
X01312D02*
X01392D01*
X01312Y03489D02*
X01392D01*
X01207D02*
X01287D01*
X02092D02*
X02172D01*
X01987D02*
X02067D01*
X01987Y03509D02*
X02067D01*
X02092D02*
X02172D01*
X00998Y02624D02*
Y02704D01*
Y02729D02*
Y02809D01*
X00777Y02729D02*
Y02809D01*
Y02624D02*
Y02704D01*
X06982Y03159D02*
X07062D01*
X06877D02*
X06957D01*
X0699Y03401D02*
Y03451D01*
X0704Y03361D02*
X0705D01*
X071Y03401D02*
Y03451D01*
X0713Y03401D02*
Y03451D01*
X0718Y03361D02*
X0719D01*
X0724Y03401D02*
Y03451D01*
X068Y03401D02*
Y03451D01*
X0685Y03361D02*
X0686D01*
X0691Y03401D02*
Y03451D01*
X02222Y03674D02*
X02302D01*
X02327D02*
X02407D01*
X02972D02*
X03052D01*
X03077D02*
X03157D01*
X03722D02*
X03802D01*
X03827D02*
X03907D01*
X11972D02*
X12052D01*
X12077D02*
X12157D01*
X11972Y00674D02*
X12052D01*
X12077D02*
X12157D01*
X11222Y01424D02*
X11302D01*
X11327D02*
X11407D01*
X09347Y02924D02*
X09427D01*
X09452D02*
X09532D01*
X08597D02*
X08677D01*
X08702D02*
X08782D01*
X07847D02*
X07927D01*
X07952D02*
X08032D01*
X07097D02*
X07177D01*
X07202D02*
X07282D01*
X06347D02*
X06427D01*
X06452D02*
X06532D01*
X08972Y03674D02*
X09052D01*
X09077D02*
X09157D01*
X09722D02*
X09802D01*
X09827D02*
X09907D01*
X08222D02*
X08302D01*
X08327D02*
X08407D01*
X07472D02*
X07552D01*
X07577D02*
X07657D01*
X06722D02*
X06802D01*
X06827D02*
X06907D01*
X05972D02*
X06052D01*
X06077D02*
X06157D01*
X05222D02*
X05302D01*
X05327D02*
X05407D01*
X04472D02*
X04552D01*
X04577D02*
X04657D01*
X04847Y02924D02*
X04927D01*
X04952D02*
X05032D01*
X05597D02*
X05677D01*
X05702D02*
X05782D01*
X04097D02*
X04177D01*
X04202D02*
X04282D01*
X03347D02*
X03427D01*
X03452D02*
X03532D01*
X0091D02*
X0099D01*
X01015D02*
X01095D01*
X01847D02*
X01927D01*
X01952D02*
X02032D01*
X02597D02*
X02677D01*
X02702D02*
X02782D01*
X02035Y02174D02*
X02115D01*
X0214D02*
X0222D01*
X02785D02*
X02865D01*
X0289D02*
X0297D01*
X03535D02*
X03615D01*
X0364D02*
X0372D01*
X04285D02*
X04365D01*
X0439D02*
X0447D01*
X05035D02*
X05115D01*
X0514D02*
X0522D01*
X05785D02*
X05865D01*
X0589D02*
X0597D01*
X06535D02*
X06615D01*
X0664D02*
X0672D01*
X07285D02*
X07365D01*
X0739D02*
X0747D01*
X08035D02*
X08115D01*
X0814D02*
X0822D01*
X08785D02*
X08865D01*
X0889D02*
X0897D01*
X09535D02*
X09615D01*
X0964D02*
X0972D01*
X10097Y02924D02*
X10177D01*
X10202D02*
X10282D01*
X11972Y01424D02*
X12052D01*
X12077D02*
X12157D01*
X0916D02*
X0924D01*
X09265D02*
X09345D01*
X0841D02*
X0849D01*
X08515D02*
X08595D01*
X0766D02*
X0774D01*
X07765D02*
X07845D01*
X0691D02*
X0699D01*
X07015D02*
X07095D01*
X0616D02*
X0624D01*
X06265D02*
X06345D01*
X0241D02*
X0249D01*
X02515D02*
X02595D01*
X0316D02*
X0324D01*
X03265D02*
X03345D01*
X0391D02*
X0399D01*
X04015D02*
X04095D01*
X0466D02*
X0474D01*
X04765D02*
X04845D01*
X0541D02*
X0549D01*
X05515D02*
X05595D01*
X10472Y03674D02*
X10552D01*
X10577D02*
X10657D01*
X11222D02*
X11302D01*
X11327D02*
X11407D01*
X0916Y00674D02*
X0924D01*
X09265D02*
X09345D01*
X0098Y03446D02*
Y03496D01*
X0103Y03406D02*
X0104D01*
X0109Y03446D02*
Y03496D01*
X00835Y03446D02*
Y03496D01*
X00885Y03406D02*
X00895D01*
X00945Y03446D02*
Y03496D01*
X02767Y00649D02*
X02847D01*
X02872D02*
X02952D01*
X05457Y02104D02*
X05537D01*
X05562D02*
X05642D01*
X10472Y00674D02*
X10552D01*
X10577D02*
X10657D01*
X11222D02*
X11302D01*
X11327D02*
X11407D01*
X04519Y02104D02*
X04599D01*
X04624D02*
X04704D01*
X10566Y01424D02*
X10646D01*
X10671D02*
X10751D01*
X04003Y00674D02*
X04083D01*
X04108D02*
X04188D01*
X06816D02*
X06896D01*
X06921D02*
X07001D01*
X1096Y02746D02*
Y02826D01*
Y02851D02*
Y02931D01*
X10839Y01996D02*
Y02076D01*
Y02101D02*
Y02181D01*
X0166Y01424D02*
X0174D01*
X01765D02*
X01845D01*
X00722Y03674D02*
X00802D01*
X00827D02*
X00907D01*
X10596Y02174D02*
X10676D01*
X10701D02*
X10781D01*
X10808Y00728D02*
Y00808D01*
Y00833D02*
Y00913D01*
X1058Y00599D02*
X1066D01*
X10475D02*
X10555D01*
X05972Y00674D02*
X06052D01*
X06077D02*
X06157D01*
X02515Y03225D02*
Y03305D01*
Y03115D02*
Y03195D01*
X11982Y02746D02*
Y02834D01*
X12167Y02746D02*
Y02834D01*
Y02659D02*
Y02739D01*
X11985Y02746D02*
X1206D01*
X11972Y01999D02*
X12052D01*
X12157Y02006D02*
Y02094D01*
X12062Y01914D02*
Y01994D01*
X02279Y03394D02*
X02359D01*
X02384D02*
X02464D01*
G54D138*
X03128Y00756D02*
X03218D01*
Y00696D02*
Y00756D01*
X03128Y00696D02*
X03218D01*
X03138D02*
X03148D01*
Y00751*
X03138D02*
X03148D01*
X03138Y00696D02*
Y00751D01*
X03133Y00756D02*
X03143D01*
Y00696D02*
Y00756D01*
X03133Y00696D02*
X03143D01*
X03133D02*
Y00756D01*
X01253Y02256D02*
X01343D01*
Y02196D02*
Y02256D01*
X01253Y02196D02*
X01343D01*
X01263D02*
X01273D01*
Y02251*
X01263D02*
X01273D01*
X01263Y02196D02*
Y02251D01*
X01258Y02256D02*
X01268D01*
Y02196D02*
Y02256D01*
X01258Y02196D02*
X01268D01*
X01258D02*
Y02256D01*
X0191Y03756D02*
X02D01*
Y03696D02*
Y03756D01*
X0191Y03696D02*
X02D01*
X0192D02*
X0193D01*
Y03751*
X0192D02*
X0193D01*
X0192Y03696D02*
Y03751D01*
X01915Y03756D02*
X01925D01*
Y03696D02*
Y03756D01*
X01915Y03696D02*
X01925D01*
X01915D02*
Y03756D01*
X0657Y03411D02*
Y03591D01*
X0665*
Y03411D02*
Y03591D01*
X0657Y03411D02*
X0665D01*
X0667D02*
Y03591D01*
X0675*
Y03411D02*
Y03591D01*
X0667Y03411D02*
X0675D01*
X01324Y02623D02*
Y02795D01*
X01299Y0282D02*
X01324Y02795D01*
X01068Y0282D02*
X01299D01*
X01068Y02623D02*
Y0282D01*
Y02623D02*
X01324D01*
Y0281D02*
Y0282D01*
X01314D02*
X01324Y0281D01*
X01314Y0282D02*
X01324D01*
X0266Y03756D02*
X0275D01*
Y03696D02*
Y03756D01*
X0266Y03696D02*
X0275D01*
X0267D02*
X0268D01*
Y03751*
X0267D02*
X0268D01*
X0267Y03696D02*
Y03751D01*
X02665Y03756D02*
X02675D01*
Y03696D02*
Y03756D01*
X02665Y03696D02*
X02675D01*
X02665D02*
Y03756D01*
X0341D02*
X035D01*
Y03696D02*
Y03756D01*
X0341Y03696D02*
X035D01*
X0342D02*
X0343D01*
Y03751*
X0342D02*
X0343D01*
X0342Y03696D02*
Y03751D01*
X03415Y03756D02*
X03425D01*
Y03696D02*
Y03756D01*
X03415Y03696D02*
X03425D01*
X03415D02*
Y03756D01*
X0416D02*
X0425D01*
Y03696D02*
Y03756D01*
X0416Y03696D02*
X0425D01*
X0417D02*
X0418D01*
Y03751*
X0417D02*
X0418D01*
X0417Y03696D02*
Y03751D01*
X04165Y03756D02*
X04175D01*
Y03696D02*
Y03756D01*
X04165Y03696D02*
X04175D01*
X04165D02*
Y03756D01*
X1241D02*
X125D01*
Y03696D02*
Y03756D01*
X1241Y03696D02*
X125D01*
X1242D02*
X1243D01*
Y03751*
X1242D02*
X1243D01*
X1242Y03696D02*
Y03751D01*
X12415Y03756D02*
X12425D01*
Y03696D02*
Y03756D01*
X12415Y03696D02*
X12425D01*
X12415D02*
Y03756D01*
X1241Y00756D02*
X125D01*
Y00696D02*
Y00756D01*
X1241Y00696D02*
X125D01*
X1242D02*
X1243D01*
Y00751*
X1242D02*
X1243D01*
X1242Y00696D02*
Y00751D01*
X12415Y00756D02*
X12425D01*
Y00696D02*
Y00756D01*
X12415Y00696D02*
X12425D01*
X12415D02*
Y00756D01*
X1166Y01506D02*
X1175D01*
Y01446D02*
Y01506D01*
X1166Y01446D02*
X1175D01*
X1167D02*
X1168D01*
Y01501*
X1167D02*
X1168D01*
X1167Y01446D02*
Y01501D01*
X11665Y01506D02*
X11675D01*
Y01446D02*
Y01506D01*
X11665Y01446D02*
X11675D01*
X11665D02*
Y01506D01*
X09785Y03006D02*
X09875D01*
Y02946D02*
Y03006D01*
X09785Y02946D02*
X09875D01*
X09795D02*
X09805D01*
Y03001*
X09795D02*
X09805D01*
X09795Y02946D02*
Y03001D01*
X0979Y03006D02*
X098D01*
Y02946D02*
Y03006D01*
X0979Y02946D02*
X098D01*
X0979D02*
Y03006D01*
X09035D02*
X09125D01*
Y02946D02*
Y03006D01*
X09035Y02946D02*
X09125D01*
X09045D02*
X09055D01*
Y03001*
X09045D02*
X09055D01*
X09045Y02946D02*
Y03001D01*
X0904Y03006D02*
X0905D01*
Y02946D02*
Y03006D01*
X0904Y02946D02*
X0905D01*
X0904D02*
Y03006D01*
X08285D02*
X08375D01*
Y02946D02*
Y03006D01*
X08285Y02946D02*
X08375D01*
X08295D02*
X08305D01*
Y03001*
X08295D02*
X08305D01*
X08295Y02946D02*
Y03001D01*
X0829Y03006D02*
X083D01*
Y02946D02*
Y03006D01*
X0829Y02946D02*
X083D01*
X0829D02*
Y03006D01*
X07535D02*
X07625D01*
Y02946D02*
Y03006D01*
X07535Y02946D02*
X07625D01*
X07545D02*
X07555D01*
Y03001*
X07545D02*
X07555D01*
X07545Y02946D02*
Y03001D01*
X0754Y03006D02*
X0755D01*
Y02946D02*
Y03006D01*
X0754Y02946D02*
X0755D01*
X0754D02*
Y03006D01*
X06785D02*
X06875D01*
Y02946D02*
Y03006D01*
X06785Y02946D02*
X06875D01*
X06795D02*
X06805D01*
Y03001*
X06795D02*
X06805D01*
X06795Y02946D02*
Y03001D01*
X0679Y03006D02*
X068D01*
Y02946D02*
Y03006D01*
X0679Y02946D02*
X068D01*
X0679D02*
Y03006D01*
X0941Y03756D02*
X095D01*
Y03696D02*
Y03756D01*
X0941Y03696D02*
X095D01*
X0942D02*
X0943D01*
Y03751*
X0942D02*
X0943D01*
X0942Y03696D02*
Y03751D01*
X09415Y03756D02*
X09425D01*
Y03696D02*
Y03756D01*
X09415Y03696D02*
X09425D01*
X09415D02*
Y03756D01*
X1016D02*
X1025D01*
Y03696D02*
Y03756D01*
X1016Y03696D02*
X1025D01*
X1017D02*
X1018D01*
Y03751*
X1017D02*
X1018D01*
X1017Y03696D02*
Y03751D01*
X10165Y03756D02*
X10175D01*
Y03696D02*
Y03756D01*
X10165Y03696D02*
X10175D01*
X10165D02*
Y03756D01*
X0866D02*
X0875D01*
Y03696D02*
Y03756D01*
X0866Y03696D02*
X0875D01*
X0867D02*
X0868D01*
Y03751*
X0867D02*
X0868D01*
X0867Y03696D02*
Y03751D01*
X08665Y03756D02*
X08675D01*
Y03696D02*
Y03756D01*
X08665Y03696D02*
X08675D01*
X08665D02*
Y03756D01*
X0791D02*
X08D01*
Y03696D02*
Y03756D01*
X0791Y03696D02*
X08D01*
X0792D02*
X0793D01*
Y03751*
X0792D02*
X0793D01*
X0792Y03696D02*
Y03751D01*
X07915Y03756D02*
X07925D01*
Y03696D02*
Y03756D01*
X07915Y03696D02*
X07925D01*
X07915D02*
Y03756D01*
X0716D02*
X0725D01*
Y03696D02*
Y03756D01*
X0716Y03696D02*
X0725D01*
X0717D02*
X0718D01*
Y03751*
X0717D02*
X0718D01*
X0717Y03696D02*
Y03751D01*
X07165Y03756D02*
X07175D01*
Y03696D02*
Y03756D01*
X07165Y03696D02*
X07175D01*
X07165D02*
Y03756D01*
X0641D02*
X065D01*
Y03696D02*
Y03756D01*
X0641Y03696D02*
X065D01*
X0642D02*
X0643D01*
Y03751*
X0642D02*
X0643D01*
X0642Y03696D02*
Y03751D01*
X06415Y03756D02*
X06425D01*
Y03696D02*
Y03756D01*
X06415Y03696D02*
X06425D01*
X06415D02*
Y03756D01*
X0566D02*
X0575D01*
Y03696D02*
Y03756D01*
X0566Y03696D02*
X0575D01*
X0567D02*
X0568D01*
Y03751*
X0567D02*
X0568D01*
X0567Y03696D02*
Y03751D01*
X05665Y03756D02*
X05675D01*
Y03696D02*
Y03756D01*
X05665Y03696D02*
X05675D01*
X05665D02*
Y03756D01*
X0491D02*
X05D01*
Y03696D02*
Y03756D01*
X0491Y03696D02*
X05D01*
X0492D02*
X0493D01*
Y03751*
X0492D02*
X0493D01*
X0492Y03696D02*
Y03751D01*
X04915Y03756D02*
X04925D01*
Y03696D02*
Y03756D01*
X04915Y03696D02*
X04925D01*
X04915D02*
Y03756D01*
X05285Y03006D02*
X05375D01*
Y02946D02*
Y03006D01*
X05285Y02946D02*
X05375D01*
X05295D02*
X05305D01*
Y03001*
X05295D02*
X05305D01*
X05295Y02946D02*
Y03001D01*
X0529Y03006D02*
X053D01*
Y02946D02*
Y03006D01*
X0529Y02946D02*
X053D01*
X0529D02*
Y03006D01*
X06035D02*
X06125D01*
Y02946D02*
Y03006D01*
X06035Y02946D02*
X06125D01*
X06045D02*
X06055D01*
Y03001*
X06045D02*
X06055D01*
X06045Y02946D02*
Y03001D01*
X0604Y03006D02*
X0605D01*
Y02946D02*
Y03006D01*
X0604Y02946D02*
X0605D01*
X0604D02*
Y03006D01*
X04535D02*
X04625D01*
Y02946D02*
Y03006D01*
X04535Y02946D02*
X04625D01*
X04545D02*
X04555D01*
Y03001*
X04545D02*
X04555D01*
X04545Y02946D02*
Y03001D01*
X0454Y03006D02*
X0455D01*
Y02946D02*
Y03006D01*
X0454Y02946D02*
X0455D01*
X0454D02*
Y03006D01*
X03785D02*
X03875D01*
Y02946D02*
Y03006D01*
X03785Y02946D02*
X03875D01*
X03795D02*
X03805D01*
Y03001*
X03795D02*
X03805D01*
X03795Y02946D02*
Y03001D01*
X0379Y03006D02*
X038D01*
Y02946D02*
Y03006D01*
X0379Y02946D02*
X038D01*
X0379D02*
Y03006D01*
X01347D02*
X01437D01*
Y02946D02*
Y03006D01*
X01347Y02946D02*
X01437D01*
X01357D02*
X01367D01*
Y03001*
X01357D02*
X01367D01*
X01357Y02946D02*
Y03001D01*
X01352Y03006D02*
X01362D01*
Y02946D02*
Y03006D01*
X01352Y02946D02*
X01362D01*
X01352D02*
Y03006D01*
X02285D02*
X02375D01*
Y02946D02*
Y03006D01*
X02285Y02946D02*
X02375D01*
X02295D02*
X02305D01*
Y03001*
X02295D02*
X02305D01*
X02295Y02946D02*
Y03001D01*
X0229Y03006D02*
X023D01*
Y02946D02*
Y03006D01*
X0229Y02946D02*
X023D01*
X0229D02*
Y03006D01*
X03035D02*
X03125D01*
Y02946D02*
Y03006D01*
X03035Y02946D02*
X03125D01*
X03045D02*
X03055D01*
Y03001*
X03045D02*
X03055D01*
X03045Y02946D02*
Y03001D01*
X0304Y03006D02*
X0305D01*
Y02946D02*
Y03006D01*
X0304Y02946D02*
X0305D01*
X0304D02*
Y03006D01*
X02472Y02256D02*
X02562D01*
Y02196D02*
Y02256D01*
X02472Y02196D02*
X02562D01*
X02482D02*
X02492D01*
Y02251*
X02482D02*
X02492D01*
X02482Y02196D02*
Y02251D01*
X02477Y02256D02*
X02487D01*
Y02196D02*
Y02256D01*
X02477Y02196D02*
X02487D01*
X02477D02*
Y02256D01*
X03222D02*
X03312D01*
Y02196D02*
Y02256D01*
X03222Y02196D02*
X03312D01*
X03232D02*
X03242D01*
Y02251*
X03232D02*
X03242D01*
X03232Y02196D02*
Y02251D01*
X03227Y02256D02*
X03237D01*
Y02196D02*
Y02256D01*
X03227Y02196D02*
X03237D01*
X03227D02*
Y02256D01*
X03972D02*
X04062D01*
Y02196D02*
Y02256D01*
X03972Y02196D02*
X04062D01*
X03982D02*
X03992D01*
Y02251*
X03982D02*
X03992D01*
X03982Y02196D02*
Y02251D01*
X03977Y02256D02*
X03987D01*
Y02196D02*
Y02256D01*
X03977Y02196D02*
X03987D01*
X03977D02*
Y02256D01*
X04722D02*
X04812D01*
Y02196D02*
Y02256D01*
X04722Y02196D02*
X04812D01*
X04732D02*
X04742D01*
Y02251*
X04732D02*
X04742D01*
X04732Y02196D02*
Y02251D01*
X04727Y02256D02*
X04737D01*
Y02196D02*
Y02256D01*
X04727Y02196D02*
X04737D01*
X04727D02*
Y02256D01*
X05472D02*
X05562D01*
Y02196D02*
Y02256D01*
X05472Y02196D02*
X05562D01*
X05482D02*
X05492D01*
Y02251*
X05482D02*
X05492D01*
X05482Y02196D02*
Y02251D01*
X05477Y02256D02*
X05487D01*
Y02196D02*
Y02256D01*
X05477Y02196D02*
X05487D01*
X05477D02*
Y02256D01*
X06222D02*
X06312D01*
Y02196D02*
Y02256D01*
X06222Y02196D02*
X06312D01*
X06232D02*
X06242D01*
Y02251*
X06232D02*
X06242D01*
X06232Y02196D02*
Y02251D01*
X06227Y02256D02*
X06237D01*
Y02196D02*
Y02256D01*
X06227Y02196D02*
X06237D01*
X06227D02*
Y02256D01*
X06972D02*
X07062D01*
Y02196D02*
Y02256D01*
X06972Y02196D02*
X07062D01*
X06982D02*
X06992D01*
Y02251*
X06982D02*
X06992D01*
X06982Y02196D02*
Y02251D01*
X06977Y02256D02*
X06987D01*
Y02196D02*
Y02256D01*
X06977Y02196D02*
X06987D01*
X06977D02*
Y02256D01*
X07722D02*
X07812D01*
Y02196D02*
Y02256D01*
X07722Y02196D02*
X07812D01*
X07732D02*
X07742D01*
Y02251*
X07732D02*
X07742D01*
X07732Y02196D02*
Y02251D01*
X07727Y02256D02*
X07737D01*
Y02196D02*
Y02256D01*
X07727Y02196D02*
X07737D01*
X07727D02*
Y02256D01*
X08472D02*
X08562D01*
Y02196D02*
Y02256D01*
X08472Y02196D02*
X08562D01*
X08482D02*
X08492D01*
Y02251*
X08482D02*
X08492D01*
X08482Y02196D02*
Y02251D01*
X08477Y02256D02*
X08487D01*
Y02196D02*
Y02256D01*
X08477Y02196D02*
X08487D01*
X08477D02*
Y02256D01*
X09222D02*
X09312D01*
Y02196D02*
Y02256D01*
X09222Y02196D02*
X09312D01*
X09232D02*
X09242D01*
Y02251*
X09232D02*
X09242D01*
X09232Y02196D02*
Y02251D01*
X09227Y02256D02*
X09237D01*
Y02196D02*
Y02256D01*
X09227Y02196D02*
X09237D01*
X09227D02*
Y02256D01*
X09972D02*
X10062D01*
Y02196D02*
Y02256D01*
X09972Y02196D02*
X10062D01*
X09982D02*
X09992D01*
Y02251*
X09982D02*
X09992D01*
X09982Y02196D02*
Y02251D01*
X09977Y02256D02*
X09987D01*
Y02196D02*
Y02256D01*
X09977Y02196D02*
X09987D01*
X09977D02*
Y02256D01*
X10535Y03006D02*
X10625D01*
Y02946D02*
Y03006D01*
X10535Y02946D02*
X10625D01*
X10545D02*
X10555D01*
Y03001*
X10545D02*
X10555D01*
X10545Y02946D02*
Y03001D01*
X1054Y03006D02*
X1055D01*
Y02946D02*
Y03006D01*
X1054Y02946D02*
X1055D01*
X1054D02*
Y03006D01*
X1241Y01506D02*
X125D01*
Y01446D02*
Y01506D01*
X1241Y01446D02*
X125D01*
X1242D02*
X1243D01*
Y01501*
X1242D02*
X1243D01*
X1242Y01446D02*
Y01501D01*
X12415Y01506D02*
X12425D01*
Y01446D02*
Y01506D01*
X12415Y01446D02*
X12425D01*
X12415D02*
Y01506D01*
X09597D02*
X09687D01*
Y01446D02*
Y01506D01*
X09597Y01446D02*
X09687D01*
X09607D02*
X09617D01*
Y01501*
X09607D02*
X09617D01*
X09607Y01446D02*
Y01501D01*
X09602Y01506D02*
X09612D01*
Y01446D02*
Y01506D01*
X09602Y01446D02*
X09612D01*
X09602D02*
Y01506D01*
X08847D02*
X08937D01*
Y01446D02*
Y01506D01*
X08847Y01446D02*
X08937D01*
X08857D02*
X08867D01*
Y01501*
X08857D02*
X08867D01*
X08857Y01446D02*
Y01501D01*
X08852Y01506D02*
X08862D01*
Y01446D02*
Y01506D01*
X08852Y01446D02*
X08862D01*
X08852D02*
Y01506D01*
X08097D02*
X08187D01*
Y01446D02*
Y01506D01*
X08097Y01446D02*
X08187D01*
X08107D02*
X08117D01*
Y01501*
X08107D02*
X08117D01*
X08107Y01446D02*
Y01501D01*
X08102Y01506D02*
X08112D01*
Y01446D02*
Y01506D01*
X08102Y01446D02*
X08112D01*
X08102D02*
Y01506D01*
X07347D02*
X07437D01*
Y01446D02*
Y01506D01*
X07347Y01446D02*
X07437D01*
X07357D02*
X07367D01*
Y01501*
X07357D02*
X07367D01*
X07357Y01446D02*
Y01501D01*
X07352Y01506D02*
X07362D01*
Y01446D02*
Y01506D01*
X07352Y01446D02*
X07362D01*
X07352D02*
Y01506D01*
X06597D02*
X06687D01*
Y01446D02*
Y01506D01*
X06597Y01446D02*
X06687D01*
X06607D02*
X06617D01*
Y01501*
X06607D02*
X06617D01*
X06607Y01446D02*
Y01501D01*
X06602Y01506D02*
X06612D01*
Y01446D02*
Y01506D01*
X06602Y01446D02*
X06612D01*
X06602D02*
Y01506D01*
X02847D02*
X02937D01*
Y01446D02*
Y01506D01*
X02847Y01446D02*
X02937D01*
X02857D02*
X02867D01*
Y01501*
X02857D02*
X02867D01*
X02857Y01446D02*
Y01501D01*
X02852Y01506D02*
X02862D01*
Y01446D02*
Y01506D01*
X02852Y01446D02*
X02862D01*
X02852D02*
Y01506D01*
X03597D02*
X03687D01*
Y01446D02*
Y01506D01*
X03597Y01446D02*
X03687D01*
X03607D02*
X03617D01*
Y01501*
X03607D02*
X03617D01*
X03607Y01446D02*
Y01501D01*
X03602Y01506D02*
X03612D01*
Y01446D02*
Y01506D01*
X03602Y01446D02*
X03612D01*
X03602D02*
Y01506D01*
X04347D02*
X04437D01*
Y01446D02*
Y01506D01*
X04347Y01446D02*
X04437D01*
X04357D02*
X04367D01*
Y01501*
X04357D02*
X04367D01*
X04357Y01446D02*
Y01501D01*
X04352Y01506D02*
X04362D01*
Y01446D02*
Y01506D01*
X04352Y01446D02*
X04362D01*
X04352D02*
Y01506D01*
X05097D02*
X05187D01*
Y01446D02*
Y01506D01*
X05097Y01446D02*
X05187D01*
X05107D02*
X05117D01*
Y01501*
X05107D02*
X05117D01*
X05107Y01446D02*
Y01501D01*
X05102Y01506D02*
X05112D01*
Y01446D02*
Y01506D01*
X05102Y01446D02*
X05112D01*
X05102D02*
Y01506D01*
X05847D02*
X05937D01*
Y01446D02*
Y01506D01*
X05847Y01446D02*
X05937D01*
X05857D02*
X05867D01*
Y01501*
X05857D02*
X05867D01*
X05857Y01446D02*
Y01501D01*
X05852Y01506D02*
X05862D01*
Y01446D02*
Y01506D01*
X05852Y01446D02*
X05862D01*
X05852D02*
Y01506D01*
X1091Y03756D02*
X11D01*
Y03696D02*
Y03756D01*
X1091Y03696D02*
X11D01*
X1092D02*
X1093D01*
Y03751*
X1092D02*
X1093D01*
X1092Y03696D02*
Y03751D01*
X10915Y03756D02*
X10925D01*
Y03696D02*
Y03756D01*
X10915Y03696D02*
X10925D01*
X10915D02*
Y03756D01*
X1166D02*
X1175D01*
Y03696D02*
Y03756D01*
X1166Y03696D02*
X1175D01*
X1167D02*
X1168D01*
Y03751*
X1167D02*
X1168D01*
X1167Y03696D02*
Y03751D01*
X11665Y03756D02*
X11675D01*
Y03696D02*
Y03756D01*
X11665Y03696D02*
X11675D01*
X11665D02*
Y03756D01*
X09817Y00741D02*
X09907D01*
Y00681D02*
Y00741D01*
X09817Y00681D02*
X09907D01*
X09827D02*
X09837D01*
Y00736*
X09827D02*
X09837D01*
X09827Y00681D02*
Y00736D01*
X09822Y00741D02*
X09832D01*
Y00681D02*
Y00741D01*
X09822Y00681D02*
X09832D01*
X09822D02*
Y00741D01*
X0282Y00816D02*
X0291D01*
X0282D02*
Y00876D01*
X0291*
X0289D02*
X029D01*
X0289Y00821D02*
Y00876D01*
Y00821D02*
X029D01*
Y00876*
X02895Y00816D02*
X02905D01*
X02895D02*
Y00876D01*
X02905*
Y00816D02*
Y00876D01*
X02191Y00756D02*
X02281D01*
Y00696D02*
Y00756D01*
X02191Y00696D02*
X02281D01*
X02201D02*
X02211D01*
Y00751*
X02201D02*
X02211D01*
X02201Y00696D02*
Y00751D01*
X02196Y00756D02*
X02206D01*
Y00696D02*
Y00756D01*
X02196Y00696D02*
X02206D01*
X02196D02*
Y00756D01*
X1091D02*
X11D01*
Y00696D02*
Y00756D01*
X1091Y00696D02*
X11D01*
X1092D02*
X1093D01*
Y00751*
X1092D02*
X1093D01*
X1092Y00696D02*
Y00751D01*
X10915Y00756D02*
X10925D01*
Y00696D02*
Y00756D01*
X10915Y00696D02*
X10925D01*
X10915D02*
Y00756D01*
X1166D02*
X1175D01*
Y00696D02*
Y00756D01*
X1166Y00696D02*
X1175D01*
X1167D02*
X1168D01*
Y00751*
X1167D02*
X1168D01*
X1167Y00696D02*
Y00751D01*
X11665Y00756D02*
X11675D01*
Y00696D02*
Y00756D01*
X11665Y00696D02*
X11675D01*
X11665D02*
Y00756D01*
X04957Y02187D02*
X05047D01*
Y02127D02*
Y02187D01*
X04957Y02127D02*
X05047D01*
X04967D02*
X04977D01*
Y02182*
X04967D02*
X04977D01*
X04967Y02127D02*
Y02182D01*
X04962Y02187D02*
X04972D01*
Y02127D02*
Y02187D01*
X04962Y02127D02*
X04972D01*
X04962D02*
Y02187D01*
X04441Y00756D02*
X04531D01*
Y00696D02*
Y00756D01*
X04441Y00696D02*
X04531D01*
X04451D02*
X04461D01*
Y00751*
X04451D02*
X04461D01*
X04451Y00696D02*
Y00751D01*
X04446Y00756D02*
X04456D01*
Y00696D02*
Y00756D01*
X04446Y00696D02*
X04456D01*
X04446D02*
Y00756D01*
X07253D02*
X07343D01*
Y00696D02*
Y00756D01*
X07253Y00696D02*
X07343D01*
X07263D02*
X07273D01*
Y00751*
X07263D02*
X07273D01*
X07263Y00696D02*
Y00751D01*
X07258Y00756D02*
X07268D01*
Y00696D02*
Y00756D01*
X07258Y00696D02*
X07268D01*
X07258D02*
Y00756D01*
X10678Y01185D02*
X10768D01*
Y01125D02*
Y01185D01*
X10678Y01125D02*
X10768D01*
X10688D02*
X10698D01*
Y0118*
X10688D02*
X10698D01*
X10688Y01125D02*
Y0118D01*
X10683Y01185D02*
X10693D01*
Y01125D02*
Y01185D01*
X10683Y01125D02*
X10693D01*
X10683D02*
Y01185D01*
X11472Y03006D02*
X11562D01*
Y02946D02*
Y03006D01*
X11472Y02946D02*
X11562D01*
X11482D02*
X11492D01*
Y03001*
X11482D02*
X11492D01*
X11482Y02946D02*
Y03001D01*
X11477Y03006D02*
X11487D01*
Y02946D02*
Y03006D01*
X11477Y02946D02*
X11487D01*
X11477D02*
Y03006D01*
X10722Y02256D02*
X10812D01*
Y02196D02*
Y02256D01*
X10722Y02196D02*
X10812D01*
X10732D02*
X10742D01*
Y02251*
X10732D02*
X10742D01*
X10732Y02196D02*
Y02251D01*
X10727Y02256D02*
X10737D01*
Y02196D02*
Y02256D01*
X10727Y02196D02*
X10737D01*
X10727D02*
Y02256D01*
X02107Y01336D02*
X02197D01*
Y01276D02*
Y01336D01*
X02107Y01276D02*
X02197D01*
X02117D02*
X02127D01*
Y01331*
X02117D02*
X02127D01*
X02117Y01276D02*
Y01331D01*
X02112Y01336D02*
X02122D01*
Y01276D02*
Y01336D01*
X02112Y01276D02*
X02122D01*
X02112D02*
Y01336D01*
X01234Y03626D02*
Y03716D01*
X01174Y03626D02*
X01234D01*
X01174D02*
Y03716D01*
Y03696D02*
Y03706D01*
Y03696D02*
X01229D01*
Y03706*
X01174D02*
X01229D01*
X01234Y03701D02*
Y03711D01*
X01174Y03701D02*
X01234D01*
X01174D02*
Y03711D01*
X01234*
X11191Y02256D02*
X11281D01*
Y02196D02*
Y02256D01*
X11191Y02196D02*
X11281D01*
X11201D02*
X11211D01*
Y02251*
X11201D02*
X11211D01*
X11201Y02196D02*
Y02251D01*
X11196Y02256D02*
X11206D01*
Y02196D02*
Y02256D01*
X11196Y02196D02*
X11206D01*
X11196D02*
Y02256D01*
X11491Y00653D02*
X11581D01*
Y00593D02*
Y00653D01*
X11491Y00593D02*
X11581D01*
X11501D02*
X11511D01*
Y00648*
X11501D02*
X11511D01*
X11501Y00593D02*
Y00648D01*
X11496Y00653D02*
X11506D01*
Y00593D02*
Y00653D01*
X11496Y00593D02*
X11506D01*
X11496D02*
Y00653D01*
X10535Y00756D02*
X10625D01*
Y00696D02*
Y00756D01*
X10535Y00696D02*
X10625D01*
X10545D02*
X10555D01*
Y00751*
X10545D02*
X10555D01*
X10545Y00696D02*
Y00751D01*
X1054Y00756D02*
X1055D01*
Y00696D02*
Y00756D01*
X1054Y00696D02*
X1055D01*
X1054D02*
Y00756D01*
X0641D02*
X065D01*
Y00696D02*
Y00756D01*
X0641Y00696D02*
X065D01*
X0642D02*
X0643D01*
Y00751*
X0642D02*
X0643D01*
X0642Y00696D02*
Y00751D01*
X06415Y00756D02*
X06425D01*
Y00696D02*
Y00756D01*
X06415Y00696D02*
X06425D01*
X06415D02*
Y00756D01*
X1241Y03006D02*
X125D01*
Y02946D02*
Y03006D01*
X1241Y02946D02*
X125D01*
X1242D02*
X1243D01*
Y03001*
X1242D02*
X1243D01*
X1242Y02946D02*
Y03001D01*
X12415Y03006D02*
X12425D01*
Y02946D02*
Y03006D01*
X12415Y02946D02*
X12425D01*
X12415D02*
Y03006D01*
X1241Y02256D02*
X125D01*
Y02196D02*
Y02256D01*
X1241Y02196D02*
X125D01*
X1242D02*
X1243D01*
Y02251*
X1242D02*
X1243D01*
X1242Y02196D02*
Y02251D01*
X12415Y02256D02*
X12425D01*
Y02196D02*
Y02256D01*
X12415Y02196D02*
X12425D01*
X12415D02*
Y02256D01*
G54D144*
X02802Y03348D02*
Y03368D01*
X01743Y03343D02*
Y03363D01*
G54D145*
X01628Y01506D02*
X01718D01*
Y01446D02*
Y01506D01*
X01628Y01446D02*
X01718D01*
X01638D02*
X01648D01*
Y01501*
X01638D02*
X01648D01*
X01638Y01446D02*
Y01501D01*
X01633Y01506D02*
X01643D01*
Y01446D02*
Y01506D01*
X01633Y01446D02*
X01643D01*
X01633D02*
Y01506D01*
X11003D02*
X11093D01*
Y01446D02*
Y01506D01*
X11003Y01446D02*
X11093D01*
X11013D02*
X11023D01*
Y01501*
X11013D02*
X11023D01*
X11013Y01446D02*
Y01501D01*
X11008Y01506D02*
X11018D01*
Y01446D02*
Y01506D01*
X11008Y01446D02*
X11018D01*
X11008D02*
Y01506D01*
G54D146*
X03128Y00696D02*
Y00756D01*
X01253Y02196D02*
Y02256D01*
X0191Y03696D02*
Y03756D01*
X0266Y03696D02*
Y03756D01*
X0341Y03696D02*
Y03756D01*
X0416Y03696D02*
Y03756D01*
X1241Y03696D02*
Y03756D01*
Y00696D02*
Y00756D01*
X1166Y01446D02*
Y01506D01*
X09785Y02946D02*
Y03006D01*
X09035Y02946D02*
Y03006D01*
X08285Y02946D02*
Y03006D01*
X07535Y02946D02*
Y03006D01*
X06785Y02946D02*
Y03006D01*
X0941Y03696D02*
Y03756D01*
X1016Y03696D02*
Y03756D01*
X0866Y03696D02*
Y03756D01*
X0791Y03696D02*
Y03756D01*
X0716Y03696D02*
Y03756D01*
X0641Y03696D02*
Y03756D01*
X0566Y03696D02*
Y03756D01*
X0491Y03696D02*
Y03756D01*
X05285Y02946D02*
Y03006D01*
X06035Y02946D02*
Y03006D01*
X04535Y02946D02*
Y03006D01*
X03785Y02946D02*
Y03006D01*
X01347Y02946D02*
Y03006D01*
X02285Y02946D02*
Y03006D01*
X03035Y02946D02*
Y03006D01*
X02472Y02196D02*
Y02256D01*
X03222Y02196D02*
Y02256D01*
X03972Y02196D02*
Y02256D01*
X04722Y02196D02*
Y02256D01*
X05472Y02196D02*
Y02256D01*
X06222Y02196D02*
Y02256D01*
X06972Y02196D02*
Y02256D01*
X07722Y02196D02*
Y02256D01*
X08472Y02196D02*
Y02256D01*
X09222Y02196D02*
Y02256D01*
X09972Y02196D02*
Y02256D01*
X10535Y02946D02*
Y03006D01*
X1241Y01446D02*
Y01506D01*
X09597Y01446D02*
Y01506D01*
X08847Y01446D02*
Y01506D01*
X08097Y01446D02*
Y01506D01*
X07347Y01446D02*
Y01506D01*
X06597Y01446D02*
Y01506D01*
X02847Y01446D02*
Y01506D01*
X03597Y01446D02*
Y01506D01*
X04347Y01446D02*
Y01506D01*
X05097Y01446D02*
Y01506D01*
X05847Y01446D02*
Y01506D01*
X1091Y03696D02*
Y03756D01*
X1166Y03696D02*
Y03756D01*
X09817Y00681D02*
Y00741D01*
X0291Y00816D02*
Y00876D01*
X02191Y00696D02*
Y00756D01*
X1091Y00696D02*
Y00756D01*
X1166Y00696D02*
Y00756D01*
X04957Y02127D02*
Y02187D01*
X04441Y00696D02*
Y00756D01*
X07253Y00696D02*
Y00756D01*
X10678Y01125D02*
Y01185D01*
X11472Y02946D02*
Y03006D01*
X10722Y02196D02*
Y02256D01*
X02107Y01276D02*
Y01336D01*
X01174Y03716D02*
X01234D01*
X11191Y02196D02*
Y02256D01*
X11491Y00593D02*
Y00653D01*
X10535Y00696D02*
Y00756D01*
X0641Y00696D02*
Y00756D01*
X1241Y02946D02*
Y03006D01*
Y02196D02*
Y02256D01*
G54D156*
X02774Y03376D03*
G54D157*
X01712Y03371D03*
G54D158*
X02843Y00611D02*
Y00661D01*
X02818Y00636D02*
X02868D01*
X00968Y02111D02*
Y02161D01*
X00943Y02136D02*
X00993D01*
X01625Y03611D02*
Y03661D01*
X016Y03636D02*
X0165D01*
X08468Y00611D02*
Y00661D01*
X08443Y00636D02*
X08493D01*
X10343Y01361D02*
Y01411D01*
X10318Y01386D02*
X10368D01*
X01628Y01446D02*
Y01506D01*
X01343Y01361D02*
Y01411D01*
X01318Y01386D02*
X01368D01*
X02375Y03611D02*
Y03661D01*
X0235Y03636D02*
X024D01*
X03125Y03611D02*
Y03661D01*
X031Y03636D02*
X0315D01*
X03875Y03611D02*
Y03661D01*
X0385Y03636D02*
X039D01*
X12125Y03611D02*
Y03661D01*
X121Y03636D02*
X1215D01*
X12125Y00611D02*
Y00661D01*
X121Y00636D02*
X1215D01*
X11375Y01361D02*
Y01411D01*
X1135Y01386D02*
X114D01*
X095Y02861D02*
Y02911D01*
X09475Y02886D02*
X09525D01*
X0875Y02861D02*
Y02911D01*
X08725Y02886D02*
X08775D01*
X08Y02861D02*
Y02911D01*
X07975Y02886D02*
X08025D01*
X0725Y02861D02*
Y02911D01*
X07225Y02886D02*
X07275D01*
X065Y02861D02*
Y02911D01*
X06475Y02886D02*
X06525D01*
X09125Y03611D02*
Y03661D01*
X091Y03636D02*
X0915D01*
X09875Y03611D02*
Y03661D01*
X0985Y03636D02*
X099D01*
X08375Y03611D02*
Y03661D01*
X0835Y03636D02*
X084D01*
X07625Y03611D02*
Y03661D01*
X076Y03636D02*
X0765D01*
X06875Y03611D02*
Y03661D01*
X0685Y03636D02*
X069D01*
X06125Y03611D02*
Y03661D01*
X061Y03636D02*
X0615D01*
X05375Y03611D02*
Y03661D01*
X0535Y03636D02*
X054D01*
X04625Y03611D02*
Y03661D01*
X046Y03636D02*
X0465D01*
X05Y02861D02*
Y02911D01*
X04975Y02886D02*
X05025D01*
X0575Y02861D02*
Y02911D01*
X05725Y02886D02*
X05775D01*
X0425Y02861D02*
Y02911D01*
X04225Y02886D02*
X04275D01*
X035Y02861D02*
Y02911D01*
X03475Y02886D02*
X03525D01*
X01062Y02861D02*
Y02911D01*
X01037Y02886D02*
X01087D01*
X02Y02861D02*
Y02911D01*
X01975Y02886D02*
X02025D01*
X0275Y02861D02*
Y02911D01*
X02725Y02886D02*
X02775D01*
X02187Y02111D02*
Y02161D01*
X02162Y02136D02*
X02212D01*
X02937Y02111D02*
Y02161D01*
X02912Y02136D02*
X02962D01*
X03687Y02111D02*
Y02161D01*
X03662Y02136D02*
X03712D01*
X04437Y02111D02*
Y02161D01*
X04412Y02136D02*
X04462D01*
X05187Y02111D02*
Y02161D01*
X05162Y02136D02*
X05212D01*
X05937Y02111D02*
Y02161D01*
X05912Y02136D02*
X05962D01*
X06687Y02111D02*
Y02161D01*
X06662Y02136D02*
X06712D01*
X07437Y02111D02*
Y02161D01*
X07412Y02136D02*
X07462D01*
X08187Y02111D02*
Y02161D01*
X08162Y02136D02*
X08212D01*
X08937Y02111D02*
Y02161D01*
X08912Y02136D02*
X08962D01*
X09687Y02111D02*
Y02161D01*
X09662Y02136D02*
X09712D01*
X1025Y02861D02*
Y02911D01*
X10225Y02886D02*
X10275D01*
X12125Y01361D02*
Y01411D01*
X121Y01386D02*
X1215D01*
X09312Y01361D02*
Y01411D01*
X09287Y01386D02*
X09337D01*
X08562Y01361D02*
Y01411D01*
X08537Y01386D02*
X08587D01*
X07812Y01361D02*
Y01411D01*
X07787Y01386D02*
X07837D01*
X07062Y01361D02*
Y01411D01*
X07037Y01386D02*
X07087D01*
X06312Y01361D02*
Y01411D01*
X06287Y01386D02*
X06337D01*
X02562Y01361D02*
Y01411D01*
X02537Y01386D02*
X02587D01*
X03312Y01361D02*
Y01411D01*
X03287Y01386D02*
X03337D01*
X04062Y01361D02*
Y01411D01*
X04037Y01386D02*
X04087D01*
X04812Y01361D02*
Y01411D01*
X04787Y01386D02*
X04837D01*
X05562Y01361D02*
Y01411D01*
X05537Y01386D02*
X05587D01*
X10625Y03611D02*
Y03661D01*
X106Y03636D02*
X1065D01*
X1175Y03611D02*
Y03661D01*
X11725Y03636D02*
X11775D01*
X11375Y03611D02*
Y03661D01*
X1135Y03636D02*
X114D01*
X1118Y02836D02*
X1123D01*
X11205Y02811D02*
Y02861D01*
X08625Y00611D02*
Y00661D01*
X086Y00636D02*
X0865D01*
X05843Y00611D02*
Y00661D01*
X05818Y00636D02*
X05868D01*
X04828Y02042D02*
Y02092D01*
X04803Y02067D02*
X04853D01*
X05328Y02042D02*
Y02092D01*
X05303Y02067D02*
X05353D01*
X09312Y00611D02*
Y00661D01*
X09287Y00636D02*
X09337D01*
X00968Y01361D02*
Y01411D01*
X00943Y01386D02*
X00993D01*
X05375Y00611D02*
Y00661D01*
X0535Y00636D02*
X054D01*
X05656Y00611D02*
Y00661D01*
X05631Y00636D02*
X05681D01*
X02187Y00611D02*
Y00661D01*
X02162Y00636D02*
X02212D01*
X02375Y00611D02*
Y00661D01*
X0235Y00636D02*
X024D01*
X09687Y00611D02*
Y00661D01*
X09662Y00636D02*
X09712D01*
X01156Y02111D02*
Y02161D01*
X01131Y02136D02*
X01181D01*
X11Y03611D02*
Y03661D01*
X10975Y03636D02*
X11025D01*
X03125Y00611D02*
Y00661D01*
X031Y00636D02*
X0315D01*
X05609Y02042D02*
Y02092D01*
X05584Y02067D02*
X05634D01*
X10625Y00611D02*
Y00661D01*
X106Y00636D02*
X1065D01*
X11375Y00611D02*
Y00661D01*
X1135Y00636D02*
X114D01*
X04672Y02042D02*
Y02092D01*
X04647Y02067D02*
X04697D01*
X11003Y01446D02*
Y01506D01*
X10718Y01361D02*
Y01411D01*
X10693Y01386D02*
X10743D01*
X04343Y00611D02*
Y00661D01*
X04318Y00636D02*
X04368D01*
X04156Y00611D02*
Y00661D01*
X04131Y00636D02*
X04181D01*
X06968Y00611D02*
Y00661D01*
X06943Y00636D02*
X06993D01*
X07156Y00611D02*
Y00661D01*
X07131Y00636D02*
X07181D01*
X11262Y02799D02*
Y02849D01*
X11237Y02824D02*
X11287D01*
X10437Y02109D02*
Y02159D01*
X10412Y02134D02*
X10462D01*
X01812Y01361D02*
Y01411D01*
X01787Y01386D02*
X01837D01*
X00875Y03611D02*
Y03661D01*
X0085Y03636D02*
X009D01*
X10908Y02111D02*
Y02161D01*
X10883Y02136D02*
X10933D01*
X11187Y00611D02*
Y00661D01*
X11162Y00636D02*
X11212D01*
X10325Y00549D02*
Y00599D01*
X103Y00574D02*
X1035D01*
X09875Y00611D02*
Y00661D01*
X0985Y00636D02*
X099D01*
X09125Y00611D02*
Y00661D01*
X091Y00636D02*
X0915D01*
X06125Y00611D02*
Y00661D01*
X061Y00636D02*
X0615D01*
X12125Y02861D02*
Y02911D01*
X121Y02886D02*
X1215D01*
X12125Y02111D02*
Y02161D01*
X121Y02136D02*
X1215D01*
G54D159*
X0658Y03481D02*
X0664D01*
Y03491*
X0658D02*
X0664D01*
X0658Y03481D02*
Y03491D01*
X0668Y03481D02*
X0674D01*
Y03491*
X0668D02*
X0674D01*
X0668Y03481D02*
Y03491D01*
G54D160*
X02802Y03368D02*
Y03545D01*
X02707D02*
X02802D01*
X02707Y03348D02*
Y03545D01*
Y03348D02*
X02802D01*
X01743Y03363D02*
Y0354D01*
X01586D02*
X01743D01*
X01586Y03343D02*
Y0354D01*
Y03343D02*
X01743D01*
M02*