%FSTAX23Y23*%
%MOIN*%
%SFA1B1*%

%IPPOS*%
%ADD146C,0.003937*%
%LNquadcube_65_pcb_mechanical_13-1*%
%LPD*%
G54D146*
X05462Y07247D02*
D01*
X05462Y07248*
X05462Y07249*
X05462Y07251*
X05461Y07252*
X05461Y07253*
X0546Y07255*
X0546Y07256*
X05459Y07257*
X05458Y07258*
X05457Y07259*
X05457Y0726*
X05456Y07261*
X05455Y07262*
X05453Y07263*
X05452Y07264*
X05451Y07264*
X0545Y07265*
X05448Y07265*
X05447Y07266*
X05446Y07266*
X05444Y07266*
X05443Y07266*
X05442*
X0544Y07266*
X05439Y07266*
X05438Y07266*
X05436Y07265*
X05435Y07265*
X05434Y07264*
X05433Y07264*
X05431Y07263*
X0543Y07262*
X05429Y07261*
X05428Y0726*
X05427Y07259*
X05426Y07258*
X05426Y07257*
X05425Y07256*
X05424Y07255*
X05424Y07253*
X05423Y07252*
X05423Y07251*
X05423Y07249*
X05423Y07248*
X05423Y07247*
X05423Y07245*
X05423Y07244*
X05423Y07242*
X05423Y07241*
X05424Y0724*
X05424Y07239*
X05425Y07237*
X05426Y07236*
X05426Y07235*
X05427Y07234*
X05428Y07233*
X05429Y07232*
X0543Y07231*
X05431Y0723*
X05433Y07229*
X05434Y07229*
X05435Y07228*
X05436Y07228*
X05438Y07227*
X05439Y07227*
X0544Y07227*
X05442Y07227*
X05443*
X05444Y07227*
X05446Y07227*
X05447Y07227*
X05448Y07228*
X0545Y07228*
X05451Y07229*
X05452Y07229*
X05453Y0723*
X05455Y07231*
X05456Y07232*
X05457Y07233*
X05457Y07234*
X05458Y07235*
X05459Y07236*
X0546Y07237*
X0546Y07239*
X05461Y0724*
X05461Y07241*
X05462Y07242*
X05462Y07244*
X05462Y07245*
X05462Y07247*
X11196Y05424D02*
D01*
X11196Y05425*
X11196Y05426*
X11196Y05428*
X11196Y05429*
X11195Y0543*
X11195Y05432*
X11194Y05433*
X11193Y05434*
X11193Y05435*
X11192Y05436*
X11191Y05437*
X1119Y05438*
X11189Y05439*
X11188Y0544*
X11187Y05441*
X11185Y05441*
X11184Y05442*
X11183Y05442*
X11181Y05443*
X1118Y05443*
X11179Y05443*
X11177Y05443*
X11176*
X11175Y05443*
X11173Y05443*
X11172Y05443*
X11171Y05442*
X11169Y05442*
X11168Y05441*
X11167Y05441*
X11166Y0544*
X11165Y05439*
X11163Y05438*
X11163Y05437*
X11162Y05436*
X11161Y05435*
X1116Y05434*
X11159Y05433*
X11159Y05432*
X11158Y0543*
X11158Y05429*
X11157Y05428*
X11157Y05426*
X11157Y05425*
X11157Y05424*
X11157Y05422*
X11157Y05421*
X11157Y0542*
X11158Y05418*
X11158Y05417*
X11159Y05416*
X11159Y05414*
X1116Y05413*
X11161Y05412*
X11162Y05411*
X11163Y0541*
X11163Y05409*
X11165Y05408*
X11166Y05407*
X11167Y05407*
X11168Y05406*
X11169Y05405*
X11171Y05405*
X11172Y05405*
X11173Y05404*
X11175Y05404*
X11176Y05404*
X11177*
X11179Y05404*
X1118Y05404*
X11181Y05405*
X11183Y05405*
X11184Y05405*
X11185Y05406*
X11187Y05407*
X11188Y05407*
X11189Y05408*
X1119Y05409*
X11191Y0541*
X11192Y05411*
X11193Y05412*
X11193Y05413*
X11194Y05414*
X11195Y05416*
X11195Y05417*
X11196Y05418*
X11196Y0542*
X11196Y05421*
X11196Y05422*
X11196Y05424*
X05589Y08229D02*
D01*
X05589Y0823*
X05589Y08232*
X05589Y08233*
X05588Y08234*
X05588Y08236*
X05587Y08237*
X05587Y08238*
X05586Y08239*
X05585Y0824*
X05584Y08241*
X05584Y08243*
X05583Y08243*
X05582Y08244*
X0558Y08245*
X05579Y08246*
X05578Y08247*
X05577Y08247*
X05575Y08248*
X05574Y08248*
X05573Y08248*
X05571Y08248*
X0557Y08249*
X05569*
X05567Y08248*
X05566Y08248*
X05565Y08248*
X05563Y08248*
X05562Y08247*
X05561Y08247*
X0556Y08246*
X05558Y08245*
X05557Y08244*
X05556Y08243*
X05555Y08243*
X05554Y08241*
X05553Y0824*
X05553Y08239*
X05552Y08238*
X05551Y08237*
X05551Y08236*
X0555Y08234*
X0555Y08233*
X0555Y08232*
X0555Y0823*
X0555Y08229*
X0555Y08227*
X0555Y08226*
X0555Y08225*
X0555Y08223*
X05551Y08222*
X05551Y08221*
X05552Y0822*
X05553Y08218*
X05553Y08217*
X05554Y08216*
X05555Y08215*
X05556Y08214*
X05557Y08213*
X05558Y08213*
X0556Y08212*
X05561Y08211*
X05562Y08211*
X05563Y0821*
X05565Y0821*
X05566Y08209*
X05567Y08209*
X05569Y08209*
X0557*
X05571Y08209*
X05573Y08209*
X05574Y0821*
X05575Y0821*
X05577Y08211*
X05578Y08211*
X05579Y08212*
X0558Y08213*
X05582Y08213*
X05583Y08214*
X05584Y08215*
X05584Y08216*
X05585Y08217*
X05586Y08218*
X05587Y0822*
X05587Y08221*
X05588Y08222*
X05588Y08223*
X05589Y08225*
X05589Y08226*
X05589Y08227*
X05589Y08229*
X10686Y05679D02*
D01*
X10685Y0568*
X10685Y05681*
X10685Y05683*
X10685Y05684*
X10684Y05685*
X10684Y05687*
X10683Y05688*
X10683Y05689*
X10682Y0569*
X10681Y05691*
X1068Y05692*
X10679Y05693*
X10678Y05694*
X10677Y05695*
X10676Y05696*
X10674Y05696*
X10673Y05697*
X10672Y05697*
X10671Y05698*
X10669Y05698*
X10668Y05698*
X10667Y05698*
X10665*
X10664Y05698*
X10662Y05698*
X10661Y05698*
X1066Y05697*
X10658Y05697*
X10657Y05696*
X10656Y05696*
X10655Y05695*
X10654Y05694*
X10653Y05693*
X10652Y05692*
X10651Y05691*
X1065Y0569*
X10649Y05689*
X10648Y05688*
X10648Y05687*
X10647Y05685*
X10647Y05684*
X10647Y05683*
X10646Y05681*
X10646Y0568*
X10646Y05679*
X10646Y05677*
X10646Y05676*
X10647Y05675*
X10647Y05673*
X10647Y05672*
X10648Y05671*
X10648Y05669*
X10649Y05668*
X1065Y05667*
X10651Y05666*
X10652Y05665*
X10653Y05664*
X10654Y05663*
X10655Y05662*
X10656Y05662*
X10657Y05661*
X10658Y0566*
X1066Y0566*
X10661Y0566*
X10662Y05659*
X10664Y05659*
X10665Y05659*
X10667*
X10668Y05659*
X10669Y05659*
X10671Y0566*
X10672Y0566*
X10673Y0566*
X10674Y05661*
X10676Y05662*
X10677Y05662*
X10678Y05663*
X10679Y05664*
X1068Y05665*
X10681Y05666*
X10682Y05667*
X10683Y05668*
X10683Y05669*
X10684Y05671*
X10684Y05672*
X10685Y05673*
X10685Y05675*
X10685Y05676*
X10685Y05677*
X10686Y05679*
X10476Y0833D02*
D01*
X10476Y08332*
X10476Y08333*
X10475Y08334*
X10475Y08336*
X10475Y08337*
X10474Y08338*
X10474Y08339*
X10473Y08341*
X10472Y08342*
X10471Y08343*
X1047Y08344*
X10469Y08345*
X10468Y08346*
X10467Y08347*
X10466Y08347*
X10465Y08348*
X10464Y08348*
X10462Y08349*
X10461Y08349*
X1046Y0835*
X10458Y0835*
X10457Y0835*
X10456*
X10454Y0835*
X10453Y0835*
X10451Y08349*
X1045Y08349*
X10449Y08348*
X10448Y08348*
X10446Y08347*
X10445Y08347*
X10444Y08346*
X10443Y08345*
X10442Y08344*
X10441Y08343*
X1044Y08342*
X10439Y08341*
X10439Y08339*
X10438Y08338*
X10438Y08337*
X10437Y08336*
X10437Y08334*
X10437Y08333*
X10437Y08332*
X10437Y0833*
X10437Y08329*
X10437Y08327*
X10437Y08326*
X10437Y08325*
X10438Y08323*
X10438Y08322*
X10439Y08321*
X10439Y0832*
X1044Y08319*
X10441Y08318*
X10442Y08317*
X10443Y08316*
X10444Y08315*
X10445Y08314*
X10446Y08313*
X10448Y08313*
X10449Y08312*
X1045Y08311*
X10451Y08311*
X10453Y08311*
X10454Y08311*
X10456Y08311*
X10457*
X10458Y08311*
X1046Y08311*
X10461Y08311*
X10462Y08311*
X10464Y08312*
X10465Y08313*
X10466Y08313*
X10467Y08314*
X10468Y08315*
X10469Y08316*
X1047Y08317*
X10471Y08318*
X10472Y08319*
X10473Y0832*
X10474Y08321*
X10474Y08322*
X10475Y08323*
X10475Y08325*
X10475Y08326*
X10476Y08327*
X10476Y08329*
X10476Y0833*
X11964Y06785D02*
Y06822D01*
X12031Y06785D02*
Y06822D01*
X11964Y06785D02*
X12031D01*
X11964Y06822D02*
X12031D01*
X11332Y07429D02*
X1137D01*
X11332Y07496D02*
X1137D01*
Y07429D02*
Y07496D01*
X11332Y07429D02*
Y07496D01*
X14594Y07198D02*
Y07303D01*
Y07198D02*
X14657D01*
X14594Y07303D02*
X14657D01*
Y07198D02*
Y07303D01*
X14626Y06467D02*
Y06573D01*
Y06467D02*
X14689D01*
X14626Y06573D02*
X14689D01*
Y06467D02*
Y06573D01*
X14216Y05776D02*
Y05882D01*
X14153D02*
X14216D01*
X14153Y05776D02*
X14216D01*
X14153D02*
Y05882D01*
X12715Y05693D02*
Y05799D01*
Y05693D02*
X12778D01*
X12715Y05799D02*
X12778D01*
Y05693D02*
Y05799D01*
X06993Y05449D02*
Y05516D01*
X0703Y05449D02*
Y05516D01*
X06993D02*
X0703D01*
X06993Y05449D02*
X0703D01*
X06245Y05442D02*
Y05509D01*
X06282Y05442D02*
Y05509D01*
X06245D02*
X06282D01*
X06245Y05442D02*
X06282D01*
X05732Y05383D02*
Y0545D01*
X05769Y05383D02*
Y0545D01*
X05732D02*
X05769D01*
X05732Y05383D02*
X05769D01*
X14855Y05698D02*
Y05804D01*
Y05698D02*
X14917D01*
X14855Y05804D02*
X14917D01*
Y05698D02*
Y05804D01*
X09802Y05725D02*
Y05831D01*
Y05725D02*
X09865D01*
X09802Y05831D02*
X09865D01*
Y05725D02*
Y05831D01*
X07279Y05698D02*
Y05803D01*
Y05698D02*
X07342D01*
X07279Y05803D02*
X07342D01*
Y05698D02*
Y05803D01*
X11016Y05547D02*
X11054D01*
X11016Y05616D02*
X11054D01*
Y05547D02*
Y05616D01*
X11016Y05547D02*
Y05616D01*
X11636Y05647D02*
X11674D01*
X11636Y05578D02*
X11674D01*
X11636D02*
Y05647D01*
X11674Y05578D02*
Y05647D01*
X10666Y07255D02*
X10703D01*
X10666Y07324D02*
X10703D01*
Y07255D02*
Y07324D01*
X10666Y07255D02*
Y07324D01*
X06808Y08149D02*
X06845D01*
X06808Y08216D02*
X06845D01*
Y08149D02*
Y08216D01*
X06808Y08149D02*
Y08216D01*
X10382Y08261D02*
X1042D01*
X10382Y08194D02*
X1042D01*
X10382D02*
Y08261D01*
X1042Y08194D02*
Y08261D01*
X10468Y05279D02*
X10505D01*
X10468Y05346D02*
X10505D01*
Y05279D02*
Y05346D01*
X10468Y05279D02*
Y05346D01*
X15873Y07632D02*
X1591D01*
X15873Y07699D02*
X1591D01*
Y07632D02*
Y07699D01*
X15873Y07632D02*
Y07699D01*
X15774Y07578D02*
Y07684D01*
Y07578D02*
X15837D01*
X15774Y07684D02*
X15837D01*
Y07578D02*
Y07684D01*
X15666Y07578D02*
Y07684D01*
Y07578D02*
X15729D01*
X15666Y07684D02*
X15729D01*
Y07578D02*
Y07684D01*
X14458Y08383D02*
Y08449D01*
X14496Y08383D02*
Y08449D01*
X14458D02*
X14496D01*
X14458Y08383D02*
X14496D01*
X1479Y08787D02*
Y08893D01*
Y08787D02*
X14853D01*
X1479Y08893D02*
X14853D01*
Y08787D02*
Y08893D01*
X1576Y06828D02*
Y06934D01*
Y06828D02*
X15823D01*
X1576Y06934D02*
X15823D01*
Y06828D02*
Y06934D01*
X15663Y06828D02*
Y06934D01*
Y06828D02*
X15726D01*
X15663Y06934D02*
X15726D01*
Y06828D02*
Y06934D01*
X07051Y05976D02*
X07088D01*
X07051Y05907D02*
X07088D01*
X07051D02*
Y05976D01*
X07088Y05907D02*
Y05976D01*
X13465D02*
X13502D01*
X13465Y05907D02*
X13502D01*
X13465D02*
Y05976D01*
X13502Y05907D02*
Y05976D01*
X05407Y07605D02*
X05801D01*
X05407Y07211D02*
X05801D01*
Y07605*
X05407Y07211D02*
Y07605D01*
X11141Y05782D02*
X11535D01*
X11141Y05388D02*
X11535D01*
Y05782*
X11141Y05388D02*
Y05782D01*
X10324Y09059D02*
X10639D01*
X10393Y08799D02*
Y08818D01*
X10368D02*
X10393D01*
X10368Y08799D02*
Y08818D01*
X10596Y08799D02*
Y08818D01*
X1057D02*
X10596D01*
X1057Y08799D02*
Y08818D01*
X10633Y08641D02*
Y08799D01*
X1033Y08641D02*
X10633D01*
X1033D02*
Y08799D01*
X10633*
X10284Y05286D02*
X10337D01*
X10284Y05373D02*
X10337D01*
X10284Y05286D02*
Y05373D01*
X10337Y05286D02*
Y05373D01*
X09338Y05542D02*
X09405D01*
X09338Y05504D02*
X09405D01*
Y05542*
X09338Y05504D02*
Y05542D01*
X10505Y05402D02*
Y05469D01*
X10468Y05402D02*
Y05469D01*
Y05402D02*
X10505D01*
X10468Y05469D02*
X10505D01*
X09335Y05401D02*
X09402D01*
X09335Y05364D02*
X09402D01*
Y05401*
X09335Y05364D02*
Y05401D01*
X04585Y06448D02*
Y06553D01*
Y06448D02*
X04648D01*
X04585Y06553D02*
X04648D01*
Y06448D02*
Y06553D01*
X04682Y07D02*
X04788D01*
X04682Y06937D02*
Y07D01*
X04788Y06937D02*
Y07D01*
X04682Y06937D02*
X04788D01*
X09622Y05908D02*
Y05977D01*
X09584Y05908D02*
Y05977D01*
Y05908D02*
X09622D01*
X09584Y05977D02*
X09622D01*
X04699Y07521D02*
Y07559D01*
X04768Y07521D02*
Y07559D01*
X04699Y07521D02*
X04768D01*
X04699Y07559D02*
X04768D01*
X047Y07352D02*
Y07389D01*
X04769Y07352D02*
Y07389D01*
X047Y07352D02*
X04769D01*
X047Y07389D02*
X04769D01*
X05585Y07066D02*
Y07104D01*
X05654Y07066D02*
Y07104D01*
X05585Y07066D02*
X05654D01*
X05585Y07104D02*
X05654D01*
Y07727D02*
Y07764D01*
X05585Y07727D02*
Y07764D01*
X05654*
X05585Y07727D02*
X05654D01*
X0524Y07427D02*
X05277D01*
X0524Y07358D02*
X05277D01*
X0524D02*
Y07427D01*
X05277Y07358D02*
Y07427D01*
X10812Y05976D02*
X10849D01*
X10812Y05907D02*
X10849D01*
X10812D02*
Y05976D01*
X10849Y05907D02*
Y05976D01*
X04971Y08393D02*
X05008D01*
X04971Y08324D02*
X05008D01*
X04971D02*
Y08393D01*
X05008Y08324D02*
Y08393D01*
X0946D02*
X09498D01*
X0946Y08324D02*
X09498D01*
X0946D02*
Y08393D01*
X09498Y08324D02*
Y08393D01*
X15966Y05976D02*
X16003D01*
X15966Y05907D02*
X16003D01*
X15966D02*
Y05976D01*
X16003Y05907D02*
Y05976D01*
X10076Y07856D02*
X1021D01*
X10076Y07962D02*
X1021D01*
X10076Y07856D02*
Y07962D01*
X1021Y07856D02*
Y07962D01*
X1045Y07312D02*
Y0735D01*
X10519Y07312D02*
Y0735D01*
X1045Y07312D02*
X10519D01*
X1045Y0735D02*
X10519D01*
X06101Y07656D02*
Y07711D01*
X06219Y07656D02*
Y07711D01*
X06101D02*
X06219D01*
X06101Y07656D02*
X06219D01*
X06345D02*
Y07711D01*
X06463Y07656D02*
Y07711D01*
X06345D02*
X06463D01*
X06345Y07656D02*
X06463D01*
X09758Y07521D02*
X09813D01*
X09758Y07403D02*
X09813D01*
Y07521*
X09758Y07403D02*
Y07521D01*
X05Y06623D02*
Y0666D01*
X05067Y06623D02*
Y0666D01*
X05Y06623D02*
X05067D01*
X05Y0666D02*
X05067D01*
X06262Y07545D02*
X063D01*
X06262Y07478D02*
X063D01*
X06262D02*
Y07545D01*
X063Y07478D02*
Y07545D01*
X05375Y07727D02*
X05413D01*
X05375Y07794D02*
X05413D01*
Y07727D02*
Y07794D01*
X05375Y07727D02*
Y07794D01*
X05299Y07727D02*
X05336D01*
X05299Y07794D02*
X05336D01*
Y07727D02*
Y07794D01*
X05299Y07727D02*
Y07794D01*
X04927Y06949D02*
Y06987D01*
X0486Y06949D02*
Y06987D01*
X04927*
X0486Y06949D02*
X04927D01*
X15863Y06882D02*
X159D01*
X15863Y06949D02*
X159D01*
Y06882D02*
Y06949D01*
X15863Y06882D02*
Y06949D01*
X10344Y07562D02*
X10381D01*
X10344Y07629D02*
X10381D01*
Y07562D02*
Y07629D01*
X10344Y07562D02*
Y07629D01*
X13038Y07812D02*
Y07849D01*
X13105Y07812D02*
Y07849D01*
X13038Y07812D02*
X13105D01*
X13038Y07849D02*
X13105D01*
X09518Y07388D02*
X09556D01*
X09518Y07321D02*
X09556D01*
X09518D02*
Y07388D01*
X09556Y07321D02*
Y07388D01*
X13113Y07921D02*
X13219D01*
Y07984*
X13113Y07921D02*
Y07984D01*
X13219*
X05534Y08264D02*
X05745D01*
X05534Y08052D02*
X05745D01*
X05534D02*
Y08264D01*
X05745Y08052D02*
Y08264D01*
X1063Y05765D02*
X10808D01*
X1063Y05643D02*
X10808D01*
Y05765*
X1063Y05643D02*
Y05765D01*
X10421Y08417D02*
X10543D01*
X10421Y08295D02*
X10543D01*
Y08417*
X10421Y08295D02*
Y08417D01*
X11254Y07448D02*
Y07535D01*
X11201Y07448D02*
Y07535D01*
X11254*
X11201Y07448D02*
X11254D01*
X0955Y07517D02*
X09605D01*
X0955Y07431D02*
X09605D01*
Y07517*
X0955Y07431D02*
Y07517D01*
X15136Y07198D02*
Y07304D01*
Y07198D02*
X15199D01*
X15136Y07304D02*
X15199D01*
Y07198D02*
Y07304D01*
X1474Y06883D02*
Y06949D01*
X14777Y06883D02*
Y06949D01*
X1474D02*
X14777D01*
X1474Y06883D02*
X14777D01*
X14317Y06941D02*
Y07008D01*
X14355Y06941D02*
Y07008D01*
X14317D02*
X14355D01*
X14317Y06941D02*
X14355D01*
X14036Y05776D02*
Y05882D01*
Y05776D02*
X14099D01*
X14036Y05882D02*
X14099D01*
Y05776D02*
Y05882D01*
X13742Y05441D02*
Y05508D01*
X13779Y05441D02*
Y05508D01*
X13742D02*
X13779D01*
X13742Y05441D02*
X13779D01*
X13269Y05776D02*
Y05882D01*
Y05776D02*
X13332D01*
X13269Y05882D02*
X13332D01*
Y05776D02*
Y05882D01*
X12958Y05383D02*
Y05449D01*
X12996Y05383D02*
Y05449D01*
X12958D02*
X12996D01*
X12958Y05383D02*
X12996D01*
X0655Y05702D02*
Y05808D01*
Y05702D02*
X06613D01*
X0655Y05808D02*
X06613D01*
Y05702D02*
Y05808D01*
X05547Y05713D02*
Y05819D01*
Y05713D02*
X0561D01*
X05547Y05819D02*
X0561D01*
Y05713D02*
Y05819D01*
X04708Y05383D02*
Y05449D01*
X04746Y05383D02*
Y05449D01*
X04708D02*
X04746D01*
X04708Y05383D02*
X04746D01*
X06042Y06448D02*
Y06554D01*
Y06448D02*
X06105D01*
X06042Y06554D02*
X06105D01*
Y06448D02*
Y06554D01*
X05646Y06133D02*
Y06199D01*
X05683Y06133D02*
Y06199D01*
X05646D02*
X05683D01*
X05646Y06133D02*
X05683D01*
X05214Y05712D02*
Y05818D01*
Y05712D02*
X05277D01*
X05214Y05818D02*
X05277D01*
Y05712D02*
Y05818D01*
X05114Y07215D02*
Y07321D01*
Y07215D02*
X05177D01*
X05114Y07321D02*
X05177D01*
Y07215D02*
Y07321D01*
X04802Y06133D02*
Y06199D01*
X0484Y06133D02*
Y06199D01*
X04802D02*
X0484D01*
X04802Y06133D02*
X0484D01*
X05026Y06945D02*
Y07012D01*
X05063Y06945D02*
Y07012D01*
X05026D02*
X05063D01*
X05026Y06945D02*
X05063D01*
X14458Y05383D02*
Y05449D01*
X14496Y05383D02*
Y05449D01*
X14458D02*
X14496D01*
X14458Y05383D02*
X14496D01*
X15324Y0542D02*
Y05487D01*
X15362Y0542D02*
Y05487D01*
X15324D02*
X15362D01*
X15324Y0542D02*
X15362D01*
X15605Y05698D02*
Y05804D01*
Y05698D02*
X15667D01*
X15605Y05804D02*
X15667D01*
Y05698D02*
Y05804D01*
X15526Y06457D02*
Y06563D01*
Y06457D02*
X15589D01*
X15526Y06563D02*
X15589D01*
Y06457D02*
Y06563D01*
X15208Y06133D02*
Y06199D01*
X15246Y06133D02*
Y06199D01*
X15208D02*
X15246D01*
X15208Y06133D02*
X15246D01*
X14177D02*
Y06199D01*
X14215Y06133D02*
Y06199D01*
X14177D02*
X14215D01*
X14177Y06133D02*
X14215D01*
X12208Y05383D02*
Y05449D01*
X12246Y05383D02*
Y05449D01*
X12208D02*
X12246D01*
X12208Y05383D02*
X12246D01*
X09524Y05446D02*
Y05513D01*
X09562Y05446D02*
Y05513D01*
X09524D02*
X09562D01*
X09524Y05446D02*
X09562D01*
X15337Y07949D02*
Y08054D01*
Y07949D02*
X154D01*
X15337Y08054D02*
X154D01*
Y07949D02*
Y08054D01*
X1502Y07633D02*
Y07699D01*
X15057Y07633D02*
Y07699D01*
X1502D02*
X15057D01*
X1502Y07633D02*
X15057D01*
X1596Y06132D02*
Y06199D01*
X15998Y06132D02*
Y06199D01*
X1596D02*
X15998D01*
X1596Y06132D02*
X15998D01*
X16316Y06507D02*
Y06612D01*
Y06507D02*
X16379D01*
X16316Y06612D02*
X16379D01*
Y06507D02*
Y06612D01*
X15962Y0538D02*
Y05447D01*
X16Y0538D02*
Y05447D01*
X15962D02*
X16D01*
X15962Y0538D02*
X16D01*
X16318Y05708D02*
Y05814D01*
Y05708D02*
X16381D01*
X16318Y05814D02*
X16381D01*
Y05708D02*
Y05814D01*
X10197Y06448D02*
Y06553D01*
Y06448D02*
X1026D01*
X10197Y06553D02*
X1026D01*
Y06448D02*
Y06553D01*
X10145Y06133D02*
Y06199D01*
X10182Y06133D02*
Y06199D01*
X10145D02*
X10182D01*
X10145Y06133D02*
X10182D01*
X09395D02*
Y06199D01*
X09432Y06133D02*
Y06199D01*
X09395D02*
X09432D01*
X09395Y06133D02*
X09432D01*
X09791Y06448D02*
Y06554D01*
Y06448D02*
X09854D01*
X09791Y06554D02*
X09854D01*
Y06448D02*
Y06554D01*
X06791Y06448D02*
Y06554D01*
Y06448D02*
X06854D01*
X06791Y06554D02*
X06854D01*
Y06448D02*
Y06554D01*
X06395Y06133D02*
Y06199D01*
X06432Y06133D02*
Y06199D01*
X06395D02*
X06432D01*
X06395Y06133D02*
X06432D01*
X07145D02*
Y06199D01*
X07182Y06133D02*
Y06199D01*
X07145D02*
X07182D01*
X07145Y06133D02*
X07182D01*
X07541Y06448D02*
Y06554D01*
Y06448D02*
X07604D01*
X07541Y06554D02*
X07604D01*
Y06448D02*
Y06554D01*
X09041Y06448D02*
Y06554D01*
Y06448D02*
X09104D01*
X09041Y06554D02*
X09104D01*
Y06448D02*
Y06554D01*
X08645Y06133D02*
Y06199D01*
X08682Y06133D02*
Y06199D01*
X08645D02*
X08682D01*
X08645Y06133D02*
X08682D01*
X07895D02*
Y06199D01*
X07932Y06133D02*
Y06199D01*
X07895D02*
X07932D01*
X07895Y06133D02*
X07932D01*
X08291Y06448D02*
Y06554D01*
Y06448D02*
X08354D01*
X08291Y06554D02*
X08354D01*
Y06448D02*
Y06554D01*
X11291Y06448D02*
Y06554D01*
Y06448D02*
X11354D01*
X11291Y06554D02*
X11354D01*
Y06448D02*
Y06554D01*
X10895Y06133D02*
Y06199D01*
X10932Y06133D02*
Y06199D01*
X10895D02*
X10932D01*
X10895Y06133D02*
X10932D01*
X11645D02*
Y06199D01*
X11682Y06133D02*
Y06199D01*
X11645D02*
X11682D01*
X11645Y06133D02*
X11682D01*
X12041Y06448D02*
Y06554D01*
Y06448D02*
X12104D01*
X12041Y06554D02*
X12104D01*
Y06448D02*
Y06554D01*
X12791Y06448D02*
Y06554D01*
Y06448D02*
X12854D01*
X12791Y06554D02*
X12854D01*
Y06448D02*
Y06554D01*
X12395Y06133D02*
Y06199D01*
X12432Y06133D02*
Y06199D01*
X12395D02*
X12432D01*
X12395Y06133D02*
X12432D01*
X13145D02*
Y06199D01*
X13182Y06133D02*
Y06199D01*
X13145D02*
X13182D01*
X13145Y06133D02*
X13182D01*
X13199Y06449D02*
Y06554D01*
Y06449D02*
X13262D01*
X13199Y06554D02*
X13262D01*
Y06449D02*
Y06554D01*
X12228Y07948D02*
Y08054D01*
Y07948D02*
X12291D01*
X12228Y08054D02*
X12291D01*
Y07948D02*
Y08054D01*
X12978Y07948D02*
Y08054D01*
Y07948D02*
X13041D01*
X12978Y08054D02*
X13041D01*
Y07948D02*
Y08054D01*
X12582Y07633D02*
Y07699D01*
X1262Y07633D02*
Y07699D01*
X12582D02*
X1262D01*
X12582Y07633D02*
X1262D01*
X13332D02*
Y07699D01*
X1337Y07633D02*
Y07699D01*
X13332D02*
X1337D01*
X13332Y07633D02*
X1337D01*
X13728Y07948D02*
Y08054D01*
Y07948D02*
X13791D01*
X13728Y08054D02*
X13791D01*
Y07948D02*
Y08054D01*
X14082Y07633D02*
Y07699D01*
X1412Y07633D02*
Y07699D01*
X14082D02*
X1412D01*
X14082Y07633D02*
X1412D01*
X14478Y07948D02*
Y08054D01*
Y07948D02*
X14541D01*
X14478Y08054D02*
X14541D01*
Y07948D02*
Y08054D01*
X12603Y08698D02*
Y08804D01*
Y08698D02*
X12666D01*
X12603Y08804D02*
X12666D01*
Y08698D02*
Y08804D01*
X12207Y08383D02*
Y08449D01*
X12245Y08383D02*
Y08449D01*
X12207D02*
X12245D01*
X12207Y08383D02*
X12245D01*
X12957D02*
Y08449D01*
X12995Y08383D02*
Y08449D01*
X12957D02*
X12995D01*
X12957Y08383D02*
X12995D01*
X13353Y08698D02*
Y08804D01*
Y08698D02*
X13416D01*
X13353Y08804D02*
X13416D01*
Y08698D02*
Y08804D01*
X14103Y08698D02*
Y08804D01*
Y08698D02*
X14166D01*
X14103Y08804D02*
X14166D01*
Y08698D02*
Y08804D01*
X13707Y08383D02*
Y08449D01*
X13745Y08383D02*
Y08449D01*
X13707D02*
X13745D01*
X13707Y08383D02*
X13745D01*
X13166Y07198D02*
Y07304D01*
Y07198D02*
X13229D01*
X13166Y07304D02*
X13229D01*
Y07198D02*
Y07304D01*
X1277Y06883D02*
Y06949D01*
X12807Y06883D02*
Y06949D01*
X1277D02*
X12807D01*
X1277Y06883D02*
X12807D01*
X1352D02*
Y06949D01*
X13557Y06883D02*
Y06949D01*
X1352D02*
X13557D01*
X1352Y06883D02*
X13557D01*
X1383Y07198D02*
Y07303D01*
Y07198D02*
X13893D01*
X1383Y07303D02*
X13893D01*
Y07198D02*
Y07303D01*
X12416Y07198D02*
Y07304D01*
Y07198D02*
X12479D01*
X12416Y07304D02*
X12479D01*
Y07198D02*
Y07304D01*
X1202Y06883D02*
Y06949D01*
X12057Y06883D02*
Y06949D01*
X1202D02*
X12057D01*
X1202Y06883D02*
X12057D01*
X1127D02*
Y06949D01*
X11307Y06883D02*
Y06949D01*
X1127D02*
X11307D01*
X1127Y06883D02*
X11307D01*
X11666Y07198D02*
Y07304D01*
Y07198D02*
X11729D01*
X11666Y07304D02*
X11729D01*
Y07198D02*
Y07304D01*
X05291Y07948D02*
Y08054D01*
Y07948D02*
X05354D01*
X05291Y08054D02*
X05354D01*
Y07948D02*
Y08054D01*
X04896Y07665D02*
Y07732D01*
X04934Y07665D02*
Y07732D01*
X04896D02*
X04934D01*
X04896Y07665D02*
X04934D01*
X08082Y07633D02*
Y07699D01*
X0812Y07633D02*
Y07699D01*
X08082D02*
X0812D01*
X08082Y07633D02*
X0812D01*
X08478Y07948D02*
Y08054D01*
Y07948D02*
X08541D01*
X08478Y08054D02*
X08541D01*
Y07948D02*
Y08054D01*
X08832Y07633D02*
Y07699D01*
X0887Y07633D02*
Y07699D01*
X08832D02*
X0887D01*
X08832Y07633D02*
X0887D01*
X09228Y07948D02*
Y08054D01*
Y07948D02*
X09291D01*
X09228Y08054D02*
X09291D01*
Y07948D02*
Y08054D01*
X07728Y07948D02*
Y08054D01*
Y07948D02*
X07791D01*
X07728Y08054D02*
X07791D01*
Y07948D02*
Y08054D01*
X07332Y07633D02*
Y07699D01*
X0737Y07633D02*
Y07699D01*
X07332D02*
X0737D01*
X07332Y07633D02*
X0737D01*
X06582D02*
Y07699D01*
X0662Y07633D02*
Y07699D01*
X06582D02*
X0662D01*
X06582Y07633D02*
X0662D01*
X06978Y07948D02*
Y08054D01*
Y07948D02*
X07041D01*
X06978Y08054D02*
X07041D01*
Y07948D02*
Y08054D01*
X07166Y07198D02*
Y07304D01*
Y07198D02*
X07229D01*
X07166Y07304D02*
X07229D01*
Y07198D02*
Y07304D01*
X0677Y06883D02*
Y06949D01*
X06807Y06883D02*
Y06949D01*
X0677D02*
X06807D01*
X0677Y06883D02*
X06807D01*
X0752D02*
Y06949D01*
X07557Y06883D02*
Y06949D01*
X0752D02*
X07557D01*
X0752Y06883D02*
X07557D01*
X07916Y07198D02*
Y07304D01*
Y07198D02*
X07979D01*
X07916Y07304D02*
X07979D01*
Y07198D02*
Y07304D01*
X06416Y07198D02*
Y07304D01*
Y07198D02*
X06479D01*
X06416Y07304D02*
X06479D01*
Y07198D02*
Y07304D01*
X0602Y06883D02*
Y06949D01*
X06057Y06883D02*
Y06949D01*
X0602D02*
X06057D01*
X0602Y06883D02*
X06057D01*
X09603Y08698D02*
Y08804D01*
Y08698D02*
X09666D01*
X09603Y08804D02*
X09666D01*
Y08698D02*
Y08804D01*
X09207Y08383D02*
Y08449D01*
X09245Y08383D02*
Y08449D01*
X09207D02*
X09245D01*
X09207Y08383D02*
X09245D01*
X08853Y08698D02*
Y08804D01*
Y08698D02*
X08916D01*
X08853Y08804D02*
X08916D01*
Y08698D02*
Y08804D01*
X08457Y08383D02*
Y08449D01*
X08495Y08383D02*
Y08449D01*
X08457D02*
X08495D01*
X08457Y08383D02*
X08495D01*
X07353Y08698D02*
Y08804D01*
Y08698D02*
X07416D01*
X07353Y08804D02*
X07416D01*
Y08698D02*
Y08804D01*
X06957Y08383D02*
Y08449D01*
X06995Y08383D02*
Y08449D01*
X06957D02*
X06995D01*
X06957Y08383D02*
X06995D01*
X08666Y07198D02*
Y07304D01*
Y07198D02*
X08729D01*
X08666Y07304D02*
X08729D01*
Y07198D02*
Y07304D01*
X0827Y06883D02*
Y06949D01*
X08307Y06883D02*
Y06949D01*
X0827D02*
X08307D01*
X0827Y06883D02*
X08307D01*
X0902D02*
Y06949D01*
X09057Y06883D02*
Y06949D01*
X0902D02*
X09057D01*
X0902Y06883D02*
X09057D01*
X1052D02*
Y06949D01*
X10557Y06883D02*
Y06949D01*
X1052D02*
X10557D01*
X1052Y06883D02*
X10557D01*
X0977D02*
Y06949D01*
X09807Y06883D02*
Y06949D01*
X0977D02*
X09807D01*
X0977Y06883D02*
X09807D01*
X09897Y07205D02*
Y07311D01*
Y07205D02*
X0996D01*
X09897Y07311D02*
X0996D01*
Y07205D02*
Y07311D01*
X05852Y07691D02*
Y07758D01*
X05889Y07691D02*
Y07758D01*
X05852D02*
X05889D01*
X05852Y07691D02*
X05889D01*
X06228Y07948D02*
Y08054D01*
Y07948D02*
X06291D01*
X06228Y08054D02*
X06291D01*
Y07948D02*
Y08054D01*
X09948Y08822D02*
X10053D01*
X09948Y08759D02*
Y08822D01*
X10053Y08759D02*
Y08822D01*
X09948Y08759D02*
X10053D01*
X09636Y07948D02*
Y08053D01*
Y07948D02*
X09699D01*
X09636Y08053D02*
X09699D01*
Y07948D02*
Y08053D01*
X09582Y07633D02*
Y07699D01*
X0962Y07633D02*
Y07699D01*
X09582D02*
X0962D01*
X09582Y07633D02*
X0962D01*
X10374Y07691D02*
Y07758D01*
X10411Y07691D02*
Y07758D01*
X10374D02*
X10411D01*
X10374Y07691D02*
X10411D01*
X10387Y07948D02*
Y08053D01*
Y07948D02*
X1045D01*
X10387Y08053D02*
X1045D01*
Y07948D02*
Y08053D01*
X11832Y07633D02*
Y07699D01*
X1187Y07633D02*
Y07699D01*
X11832D02*
X1187D01*
X11832Y07633D02*
X1187D01*
X11082D02*
Y07699D01*
X1112Y07633D02*
Y07699D01*
X11082D02*
X1112D01*
X11082Y07633D02*
X1112D01*
X11478Y07948D02*
Y08054D01*
Y07948D02*
X11541D01*
X11478Y08054D02*
X11541D01*
Y07948D02*
Y08054D01*
X11853Y08698D02*
Y08804D01*
Y08698D02*
X11916D01*
X11853Y08804D02*
X11916D01*
Y08698D02*
Y08804D01*
X11457Y08383D02*
Y08449D01*
X11495Y08383D02*
Y08449D01*
X11457D02*
X11495D01*
X11457Y08383D02*
X11495D01*
X10757Y08437D02*
Y08504D01*
X10795Y08437D02*
Y08504D01*
X10757D02*
X10795D01*
X10757Y08437D02*
X10795D01*
X11103Y08698D02*
Y08804D01*
Y08698D02*
X11166D01*
X11103Y08804D02*
X11166D01*
Y08698D02*
Y08804D01*
X09957Y08383D02*
Y08449D01*
X09995Y08383D02*
Y08449D01*
X09957D02*
X09995D01*
X09957Y08383D02*
X09995D01*
X07707D02*
Y08449D01*
X07745Y08383D02*
Y08449D01*
X07707D02*
X07745D01*
X07707Y08383D02*
X07745D01*
X08103Y08698D02*
Y08804D01*
Y08698D02*
X08166D01*
X08103Y08804D02*
X08166D01*
Y08698D02*
Y08804D01*
X06207Y08383D02*
Y08449D01*
X06245Y08383D02*
Y08449D01*
X06207D02*
X06245D01*
X06207Y08383D02*
X06245D01*
X06603Y08698D02*
Y08804D01*
Y08698D02*
X06666D01*
X06603Y08804D02*
X06666D01*
Y08698D02*
Y08804D01*
X05457Y08383D02*
Y08449D01*
X05495Y08383D02*
Y08449D01*
X05457D02*
X05495D01*
X05457Y08383D02*
X05495D01*
X05853Y08698D02*
Y08804D01*
Y08698D02*
X05916D01*
X05853Y08804D02*
X05916D01*
Y08698D02*
Y08804D01*
X04707Y08383D02*
Y08449D01*
X04745Y08383D02*
Y08449D01*
X04707D02*
X04745D01*
X04707Y08383D02*
X04745D01*
X05103Y08698D02*
Y08804D01*
Y08698D02*
X05166D01*
X05103Y08804D02*
X05166D01*
Y08698D02*
Y08804D01*
X1305Y07561D02*
X13101D01*
X1305Y07446D02*
X13101D01*
Y07561*
X1305Y07446D02*
Y07561D01*
X13051Y07751D02*
X13102D01*
X13051Y07636D02*
X13102D01*
Y07751*
X13051Y07636D02*
Y07751D01*
X14027Y08274D02*
Y08343D01*
X1399Y08274D02*
Y08343D01*
Y08274D02*
X14027D01*
X1399Y08343D02*
X14027D01*
X10572Y07199D02*
Y07304D01*
Y07199D02*
X10635D01*
X10572Y07304D02*
X10635D01*
Y07199D02*
Y07304D01*
X10445Y07402D02*
Y07524D01*
X10375Y07402D02*
Y07524D01*
X10445*
X10375Y07402D02*
X10445D01*
X10596Y07658D02*
X10633D01*
X10596Y07591D02*
X10633D01*
X10596D02*
Y07658D01*
X10633Y07591D02*
Y07658D01*
X10704Y07382D02*
X10838D01*
X10704Y07571D02*
X10838D01*
Y07382D02*
Y07571D01*
X10704Y07382D02*
Y07571D01*
X10941Y07505D02*
X11063D01*
X10941Y07435D02*
X11063D01*
X10941D02*
Y07505D01*
X11063Y07435D02*
Y07505D01*
X10873Y07236D02*
Y07273D01*
X10941Y07236D02*
Y07273D01*
X10873Y07236D02*
X10941D01*
X10873Y07273D02*
X10941D01*
X11117Y07305D02*
Y07342D01*
X11184Y07305D02*
Y07342D01*
X11117Y07305D02*
X11184D01*
X11117Y07342D02*
X11184D01*
X11402Y07577D02*
Y07683D01*
X11339D02*
X11402D01*
X11339Y07577D02*
X11402D01*
X11339D02*
Y07683D01*
X09416Y07198D02*
Y07304D01*
Y07198D02*
X09479D01*
X09416Y07304D02*
X09479D01*
Y07198D02*
Y07304D01*
X05236Y06494D02*
Y066D01*
Y06494D02*
X05299D01*
X05236Y066D02*
X05299D01*
Y06494D02*
Y066D01*
X06454Y08147D02*
X06569D01*
X06454Y08198D02*
X06569D01*
Y08147D02*
Y08198D01*
X06454Y08147D02*
Y08198D01*
Y08347D02*
X06569D01*
X06454Y08296D02*
X06569D01*
X06454D02*
Y08347D01*
X06569Y08296D02*
Y08347D01*
X15953Y07632D02*
Y07699D01*
X15991Y07632D02*
Y07699D01*
X15953D02*
X15991D01*
X15953Y07632D02*
X15991D01*
X15943Y06882D02*
Y06949D01*
X15981Y06882D02*
Y06949D01*
X15943D02*
X15981D01*
X15943Y06882D02*
X15981D01*
X16317Y08006D02*
Y08112D01*
Y08006D02*
X1638D01*
X16317Y08112D02*
X1638D01*
Y08006D02*
Y08112D01*
X16315Y07257D02*
Y07362D01*
Y07257D02*
X16378D01*
X16315Y07362D02*
X16378D01*
Y07257D02*
Y07362D01*
X15163Y08352D02*
Y08419D01*
X152Y08352D02*
Y08419D01*
X15163D02*
X152D01*
X15163Y08352D02*
X152D01*
X15945Y08362D02*
Y08429D01*
X15983Y08362D02*
Y08429D01*
X15945D02*
X15983D01*
X15945Y08362D02*
X15983D01*
X15261Y08795D02*
X15366D01*
X15261Y08732D02*
Y08795D01*
X15366Y08732D02*
Y08795D01*
X15261Y08732D02*
X15366D01*
X15967Y08804D02*
X16073D01*
X15967Y08741D02*
Y08804D01*
X16073Y08741D02*
Y08804D01*
X15967Y08741D02*
X16073D01*
X12001Y05608D02*
Y05645D01*
X11933Y05608D02*
Y05645D01*
X12001*
X11933Y05608D02*
X12001D01*
X11933Y05355D02*
Y05392D01*
X12001Y05355D02*
Y05392D01*
X11933Y05355D02*
X12001D01*
X11933Y05392D02*
X12001D01*
X10823Y0549D02*
Y0561D01*
X10768Y0549D02*
Y0561D01*
X10823*
X10768Y0549D02*
X10823D01*
X10136Y05297D02*
Y05334D01*
X10205Y05297D02*
Y05334D01*
X10136Y05297D02*
X10205D01*
X10136Y05334D02*
X10205D01*
X106Y05265D02*
X10653D01*
X106Y05352D02*
X10653D01*
X106Y05265D02*
Y05352D01*
X10653Y05265D02*
Y05352D01*
X106Y05388D02*
X10653D01*
X106Y05475D02*
X10653D01*
X106Y05388D02*
Y05475D01*
X10653Y05388D02*
Y05475D01*
X10999Y07305D02*
Y07342D01*
X11065Y07305D02*
Y07342D01*
X10999Y07305D02*
X11065D01*
X10999Y07342D02*
X11065D01*
M02*