%FSTAX23Y23*%
%MOIN*%
%SFA1B1*%

%IPPOS*%
%ADD141C,0.014000*%
%LNquadcube_65_pcb_mechanical_3-1*%
%LPD*%
G54D141*
X16722Y09143D02*
D01*
X16722Y09151*
X16721Y09159*
X16719Y09167*
X16717Y09175*
X16715Y09183*
X16712Y09191*
X16708Y09198*
X16704Y09205*
X16699Y09212*
X16694Y09219*
X16689Y09225*
X16683Y0923*
X16677Y09236*
X1667Y09241*
X16663Y09245*
X16656Y09249*
X16648Y09252*
X1664Y09255*
X16632Y09257*
X16624Y09259*
X16616Y0926*
X16608Y09261*
X16604Y09261*
X10777D02*
D01*
X10774Y09261*
X10772Y0926*
X10769Y0926*
X10766Y09259*
X10764Y09258*
X10761Y09257*
X10759Y09256*
X10756Y09255*
X10754Y09253*
X10752Y09251*
X1075Y0925*
X10748Y09248*
X10746Y09246*
X10744Y09243*
X10743Y09241*
X10742Y09239*
X10741Y09236*
X1074Y09234*
X10739Y09231*
X10738Y09228*
X10738Y09225*
X10738Y09223*
X10738Y09221*
Y09055D02*
D01*
X10738Y09052*
X10738Y09049*
X10739Y09047*
X10739Y09044*
X1074Y09041*
X10741Y09039*
X10742Y09036*
X10744Y09034*
X10745Y09032*
X10747Y0903*
X10749Y09028*
X10751Y09026*
X10753Y09024*
X10755Y09022*
X10757Y09021*
X1076Y0902*
X10762Y09018*
X10765Y09018*
X10768Y09017*
X1077Y09016*
X10773Y09016*
X10776Y09016*
X10777Y09016*
X10816Y08996D02*
D01*
X10816Y08997*
X10816Y08999*
X10816Y09*
X10816Y09001*
X10815Y09003*
X10815Y09004*
X10814Y09005*
X10813Y09006*
X10813Y09007*
X10812Y09009*
X10811Y0901*
X1081Y09011*
X10809Y09011*
X10808Y09012*
X10807Y09013*
X10805Y09014*
X10804Y09014*
X10803Y09015*
X10802Y09015*
X108Y09015*
X10799Y09015*
X10797Y09016*
X10797Y09016*
Y08937D02*
D01*
X10798Y08937*
X10799Y08937*
X10801Y08937*
X10802Y08938*
X10803Y08938*
X10805Y08939*
X10806Y08939*
X10807Y0894*
X10808Y08941*
X10809Y08941*
X1081Y08942*
X10811Y08943*
X10812Y08944*
X10813Y08946*
X10814Y08947*
X10814Y08948*
X10815Y08949*
X10815Y0895*
X10816Y08952*
X10816Y08953*
X10816Y08954*
X10816Y08956*
X10816Y08957*
X10147D02*
D01*
X10147Y08955*
X10147Y08954*
X10148Y08952*
X10148Y08951*
X10148Y0895*
X10149Y08949*
X10149Y08947*
X1015Y08946*
X10151Y08945*
X10152Y08944*
X10153Y08943*
X10154Y08942*
X10155Y08941*
X10156Y0894*
X10157Y08939*
X10158Y08939*
X10159Y08938*
X10161Y08938*
X10162Y08937*
X10163Y08937*
X10165Y08937*
X10166Y08937*
X10167Y08937*
Y09016D02*
D01*
X10165Y09016*
X10164Y09015*
X10163Y09015*
X10161Y09015*
X1016Y09014*
X10159Y09014*
X10158Y09013*
X10156Y09013*
X10155Y09012*
X10154Y09011*
X10153Y0901*
X10152Y09009*
X10151Y09008*
X10151Y09007*
X1015Y09006*
X10149Y09005*
X10149Y09003*
X10148Y09002*
X10148Y09001*
X10147Y08999*
X10147Y08998*
X10147Y08997*
X10147Y08996*
X10187Y09016D02*
D01*
X10189Y09016*
X10192Y09016*
X10195Y09016*
X10197Y09017*
X102Y09018*
X10203Y09019*
X10205Y0902*
X10207Y09022*
X1021Y09023*
X10212Y09025*
X10214Y09027*
X10216Y09029*
X10218Y09031*
X10219Y09033*
X10221Y09035*
X10222Y09038*
X10223Y0904*
X10224Y09043*
X10225Y09045*
X10225Y09048*
X10226Y09051*
X10226Y09054*
X10226Y09055*
Y09221D02*
D01*
X10226Y09224*
X10225Y09227*
X10225Y0923*
X10224Y09232*
X10224Y09235*
X10222Y09237*
X10221Y0924*
X1022Y09242*
X10218Y09244*
X10217Y09247*
X10215Y09249*
X10213Y09251*
X10211Y09252*
X10209Y09254*
X10206Y09255*
X10204Y09257*
X10201Y09258*
X10199Y09259*
X10196Y0926*
X10193Y0926*
X10191Y0926*
X10188Y09261*
X10187Y09261*
X0436D02*
D01*
X04351Y0926*
X04343Y0926*
X04335Y09258*
X04327Y09256*
X04319Y09254*
X04312Y0925*
X04304Y09247*
X04297Y09243*
X0429Y09238*
X04284Y09233*
X04278Y09228*
X04272Y09222*
X04267Y09215*
X04262Y09209*
X04257Y09202*
X04254Y09194*
X0425Y09187*
X04247Y09179*
X04245Y09171*
X04243Y09163*
X04242Y09155*
X04242Y09147*
X04242Y09143*
Y0503D02*
D01*
X04242Y05022*
X04243Y05014*
X04244Y05006*
X04246Y04998*
X04249Y0499*
X04252Y04982*
X04255Y04975*
X0426Y04968*
X04264Y04961*
X04269Y04954*
X04275Y04948*
X04281Y04943*
X04287Y04937*
X04294Y04932*
X04301Y04928*
X04308Y04924*
X04315Y04921*
X04323Y04918*
X04331Y04916*
X04339Y04914*
X04347Y04913*
X04356Y04912*
X0436Y04912*
X16604D02*
D01*
X16612Y04912*
X1662Y04913*
X16628Y04915*
X16636Y04917*
X16644Y04919*
X16652Y04922*
X16659Y04926*
X16666Y0493*
X16673Y04935*
X1668Y0494*
X16686Y04945*
X16692Y04951*
X16697Y04958*
X16702Y04964*
X16706Y04971*
X1671Y04979*
X16713Y04986*
X16716Y04994*
X16718Y05002*
X1672Y0501*
X16721Y05018*
X16722Y05026*
X16722Y0503*
X10777Y09016D02*
X10797D01*
X10674Y08937D02*
X10797D01*
X10634Y08986D02*
X10674Y08937D01*
X10329Y08986D02*
X10634D01*
X1029Y08937D02*
X10329Y08986D01*
X10167Y08937D02*
X1029D01*
X10147Y08957D02*
Y08996D01*
X10167Y09016D02*
X10187D01*
X10226Y09055D02*
Y09221D01*
X10777Y09261D02*
X16604D01*
X10738Y09055D02*
Y09221D01*
X10816Y08957D02*
Y08996D01*
X0436Y09261D02*
X10187D01*
X04242Y0503D02*
Y09143D01*
X0436Y04912D02*
X16604D01*
X16722Y0503D02*
Y09143D01*
M02*