%FSTAX23Y23*%
%MOIN*%
%SFA1B1*%

%IPPOS*%
%ADD132C,0.005000*%
%LNquadcube_65_pcb_drillmap_1-1*%
%LPD*%
G54D132*
X15042Y07411D02*
X15082D01*
X15062Y07391D02*
Y07431D01*
X04981Y06886D02*
X05021D01*
X05001Y06866D02*
Y06906D01*
X05824Y06136D02*
X05864D01*
X05844Y06116D02*
Y06156D01*
X05168Y06886D02*
X05208D01*
X05188Y06866D02*
Y06906D01*
X15012Y08386D02*
X15052D01*
X15032Y08366D02*
Y08406D01*
X15387Y08386D02*
X15427D01*
X15407Y08366D02*
Y08406D01*
X14918Y06886D02*
X14958D01*
X14938Y06866D02*
Y06906D01*
X15198Y07636D02*
X15238D01*
X15218Y07616D02*
Y07656D01*
X05356Y06136D02*
X05396D01*
X05376Y06116D02*
Y06156D01*
X04981Y06136D02*
X05021D01*
X05001Y06116D02*
Y06156D01*
X16137Y08386D02*
X16177D01*
X16157Y08366D02*
Y08406D01*
X15762Y08386D02*
X15802D01*
X15782Y08366D02*
Y08406D01*
X14637Y08386D02*
X14677D01*
X14657Y08366D02*
Y08406D01*
X05818Y05386D02*
X05858D01*
X05838Y05366D02*
Y05406D01*
X14731Y06136D02*
X14771D01*
X14751Y06116D02*
Y06156D01*
X14356Y06136D02*
X14396D01*
X14376Y06116D02*
Y06156D01*
X07137Y05386D02*
X07177D01*
X07157Y05366D02*
Y05406D01*
X10137Y05386D02*
X10177D01*
X10157Y05366D02*
Y05406D01*
X12581Y05386D02*
X12621D01*
X12601Y05366D02*
Y05406D01*
X12381Y05386D02*
X12421D01*
X12401Y05366D02*
Y05406D01*
X09668Y05386D02*
X09708D01*
X09688Y05366D02*
Y05406D01*
X13699Y05386D02*
X13739D01*
X13719Y05366D02*
Y05406D01*
X14356Y05386D02*
X14396D01*
X14376Y05366D02*
Y05406D01*
X14156Y05386D02*
X14196D01*
X14176Y05366D02*
Y05406D01*
X13224Y05386D02*
X13264D01*
X13244Y05366D02*
Y05406D01*
X13887Y05386D02*
X13927D01*
X13907Y05366D02*
Y05406D01*
X14637Y05386D02*
X14677D01*
X14657Y05366D02*
Y05406D01*
X13424Y05386D02*
X13464D01*
X13444Y05366D02*
Y05406D01*
X13137Y05386D02*
X13177D01*
X13157Y05366D02*
Y05406D01*
X04872Y07086D02*
X05029D01*
X04951Y07008D02*
Y07165D01*
X105Y0872D02*
X10527D01*
X10513Y08706D02*
Y08734D01*
X10437Y0872D02*
X10464D01*
X1045Y08706D02*
Y08734D01*
X10531Y08673D02*
X10559D01*
X10545Y08659D02*
Y08687D01*
X10405Y08673D02*
X10433D01*
X10419Y08659D02*
Y08687D01*
X10468Y08673D02*
X10496D01*
X10482Y08659D02*
Y08687D01*
X10609Y08903D02*
X10642D01*
X10625Y08886D02*
Y0892D01*
X10321Y08903D02*
X10355D01*
X10338Y08886D02*
Y0892D01*
X05416Y06724D02*
X05451D01*
X05434Y06706D02*
Y06742D01*
X05316Y06724D02*
X05351D01*
X05334Y06706D02*
Y06742D01*
X05216Y06724D02*
X05251D01*
X05234Y06706D02*
Y06742D01*
X05116Y06724D02*
X05151D01*
X05134Y06706D02*
Y06742D01*
X05016Y06724D02*
X05051D01*
X05034Y06706D02*
Y06742D01*
X04916Y06724D02*
X04951D01*
X04934Y06706D02*
Y06742D01*
X1203Y06715D02*
X12065D01*
X12048Y06697D02*
Y06733D01*
X1193Y06715D02*
X11965D01*
X11948Y06697D02*
Y06733D01*
X1183Y06715D02*
X11865D01*
X11848Y06697D02*
Y06733D01*
X1173Y06715D02*
X11765D01*
X11748Y06697D02*
Y06733D01*
X1163Y06715D02*
X11665D01*
X11648Y06697D02*
Y06733D01*
X1153Y06715D02*
X11565D01*
X11548Y06697D02*
Y06733D01*
X10316Y07281D02*
X10348D01*
X10332Y07265D02*
Y07297D01*
X10238Y07281D02*
X10269D01*
X10253Y07265D02*
Y07297D01*
X15653Y08586D02*
X15811D01*
X15732Y08508D02*
Y08665D01*
X15427Y05786D02*
X15486D01*
X15457Y05757D02*
Y05816D01*
X15523Y05586D02*
X15591D01*
X15557Y05553D02*
Y0562D01*
X15287Y05386D02*
X15327D01*
X15307Y05366D02*
Y05406D01*
X15278Y05586D02*
X15436D01*
X15357Y05508D02*
Y05665D01*
X15187Y05686D02*
X15226D01*
X15207Y05667D02*
Y05706D01*
X14677Y05786D02*
X14736D01*
X14707Y05757D02*
Y05816D01*
X14373Y05586D02*
X14441D01*
X14407Y05553D02*
Y0562D01*
X14773Y05586D02*
X14841D01*
X14807Y05553D02*
Y0562D01*
X14537Y05386D02*
X14577D01*
X14557Y05366D02*
Y05406D01*
X14528Y05586D02*
X14686D01*
X14607Y05508D02*
Y05665D01*
X14427Y05686D02*
X14486D01*
X14457Y05657D02*
Y05716D01*
X13927Y05786D02*
X13986D01*
X13957Y05757D02*
Y05816D01*
X14023Y05586D02*
X14091D01*
X14057Y05553D02*
Y0562D01*
X13787Y05386D02*
X13827D01*
X13807Y05366D02*
Y05406D01*
X13778Y05586D02*
X13936D01*
X13857Y05508D02*
Y05665D01*
X13687Y05686D02*
X13726D01*
X13707Y05667D02*
Y05706D01*
X15093Y05686D02*
X15133D01*
X15113Y05667D02*
Y05706D01*
X15184Y05586D02*
X15342D01*
X15263Y05508D02*
Y05665D01*
X15429Y05586D02*
X15497D01*
X15463Y05553D02*
Y0562D01*
X15029Y05586D02*
X15097D01*
X15063Y05553D02*
Y0562D01*
X15334Y05786D02*
X15393D01*
X15363Y05757D02*
Y05816D01*
X1524Y05786D02*
X15299D01*
X15269Y05757D02*
Y05816D01*
X14936Y05586D02*
X15003D01*
X14969Y05553D02*
Y0562D01*
X15099Y05386D02*
X15139D01*
X15119Y05366D02*
Y05406D01*
X1499Y05686D02*
X15049D01*
X15019Y05657D02*
Y05716D01*
X14156Y05686D02*
X14195D01*
X14176Y05667D02*
Y05706D01*
X14247Y05586D02*
X14404D01*
X14326Y05508D02*
Y05665D01*
X14256Y05386D02*
X14296D01*
X14276Y05366D02*
Y05406D01*
X14492Y05586D02*
X14559D01*
X14526Y05553D02*
Y0562D01*
X14092Y05586D02*
X14159D01*
X14126Y05553D02*
Y0562D01*
X14396Y05786D02*
X14455D01*
X14426Y05757D02*
Y05816D01*
X13177Y05786D02*
X13236D01*
X13207Y05757D02*
Y05816D01*
X12873Y05586D02*
X12941D01*
X12907Y05553D02*
Y0562D01*
X13037Y05386D02*
X13077D01*
X13057Y05366D02*
Y05406D01*
X12927Y05686D02*
X12986D01*
X12957Y05657D02*
Y05716D01*
X14396Y06536D02*
X14455D01*
X14426Y06507D02*
Y06566D01*
X14092Y06336D02*
X14159D01*
X14126Y06303D02*
Y0637D01*
X14492Y06336D02*
X14559D01*
X14526Y06303D02*
Y0637D01*
X14256Y06136D02*
X14296D01*
X14276Y06116D02*
Y06156D01*
X14247Y06336D02*
X14404D01*
X14326Y06258D02*
Y06415D01*
X14146Y06436D02*
X14205D01*
X14176Y06407D02*
Y06466D01*
X15238Y08036D02*
X15298D01*
X15268Y08007D02*
Y08066D01*
X14934Y07836D02*
X15002D01*
X14968Y07803D02*
Y0787D01*
X15334Y07836D02*
X15402D01*
X15368Y07803D02*
Y0787D01*
X15098Y07636D02*
X15138D01*
X15118Y07616D02*
Y07656D01*
X15089Y07836D02*
X15247D01*
X15168Y07758D02*
Y07915D01*
X14998Y07936D02*
X15038D01*
X15018Y07917D02*
Y07956D01*
X15442Y07361D02*
X15481D01*
X15462Y07342D02*
Y07381D01*
X15228Y07661D02*
X15296D01*
X15262Y07628D02*
Y07695D01*
X15228Y07261D02*
X15296D01*
X15262Y07228D02*
Y07295D01*
X15042Y07511D02*
X15082D01*
X15062Y07491D02*
Y07531D01*
X15183Y07461D02*
X15341D01*
X15262Y07383D02*
Y0754D01*
X15332Y07611D02*
X15391D01*
X15362Y07582D02*
Y07641D01*
X14959Y07286D02*
X15018D01*
X14988Y07257D02*
Y07316D01*
X14654Y07086D02*
X14722D01*
X14688Y07053D02*
Y0712D01*
X15054Y07086D02*
X15122D01*
X15088Y07053D02*
Y0712D01*
X14818Y06886D02*
X14858D01*
X14838Y06866D02*
Y06906D01*
X14809Y07086D02*
X14967D01*
X14888Y07008D02*
Y07165D01*
X14709Y07186D02*
X14768D01*
X14738Y07157D02*
Y07216D01*
X1449Y07286D02*
X14549D01*
X14519Y07257D02*
Y07316D01*
X14186Y07086D02*
X14253D01*
X14219Y07053D02*
Y0712D01*
X14586Y07086D02*
X14653D01*
X14619Y07053D02*
Y0712D01*
X14349Y06886D02*
X14389D01*
X14369Y06866D02*
Y06906D01*
X14341Y07086D02*
X14498D01*
X14419Y07008D02*
Y07165D01*
X1424Y07186D02*
X14299D01*
X14269Y07157D02*
Y07216D01*
X12427Y05786D02*
X12486D01*
X12457Y05757D02*
Y05816D01*
X12123Y05586D02*
X12191D01*
X12157Y05553D02*
Y0562D01*
X12287Y05386D02*
X12327D01*
X12307Y05366D02*
Y05406D01*
X12278Y05586D02*
X12436D01*
X12357Y05508D02*
Y05665D01*
X12177Y05686D02*
X12236D01*
X12207Y05657D02*
Y05716D01*
X13459Y05786D02*
X13518D01*
X13488Y05757D02*
Y05816D01*
X13154Y05586D02*
X13222D01*
X13188Y05553D02*
Y0562D01*
X13554Y05586D02*
X13622D01*
X13588Y05553D02*
Y0562D01*
X13318Y05386D02*
X13358D01*
X13338Y05366D02*
Y05406D01*
X13309Y05586D02*
X13467D01*
X13388Y05508D02*
Y05665D01*
X13218Y05686D02*
X13258D01*
X13238Y05667D02*
Y05706D01*
X1349Y05686D02*
X13549D01*
X13519Y05657D02*
Y05716D01*
X13591Y05586D02*
X13748D01*
X13669Y05508D02*
Y05665D01*
X13599Y05386D02*
X13639D01*
X13619Y05366D02*
Y05406D01*
X13436Y05586D02*
X13503D01*
X13469Y05553D02*
Y0562D01*
X1374Y05786D02*
X13799D01*
X13769Y05757D02*
Y05816D01*
X14302Y05786D02*
X14361D01*
X14332Y05757D02*
Y05816D01*
X13998Y05586D02*
X14066D01*
X14032Y05553D02*
Y0562D01*
X14398Y05586D02*
X14466D01*
X14432Y05553D02*
Y0562D01*
X14262Y05386D02*
X14302D01*
X14282Y05366D02*
Y05406D01*
X14153Y05586D02*
X14311D01*
X14232Y05508D02*
Y05665D01*
X14052Y05686D02*
X14111D01*
X14082Y05657D02*
Y05716D01*
X12281Y05686D02*
X1232D01*
X12301Y05667D02*
Y05706D01*
X12372Y05586D02*
X12529D01*
X12451Y05508D02*
Y05665D01*
X12481Y05386D02*
X12521D01*
X12501Y05366D02*
Y05406D01*
X12617Y05586D02*
X12684D01*
X12651Y05553D02*
Y0562D01*
X12217Y05586D02*
X12284D01*
X12251Y05553D02*
Y0562D01*
X12521Y05786D02*
X1258D01*
X12551Y05757D02*
Y05816D01*
X10177Y05786D02*
X10236D01*
X10207Y05757D02*
Y05816D01*
X09873Y05586D02*
X09941D01*
X09907Y05553D02*
Y0562D01*
X10273Y05586D02*
X10341D01*
X10307Y05553D02*
Y0562D01*
X10037Y05386D02*
X10077D01*
X10057Y05366D02*
Y05406D01*
X10028Y05586D02*
X10186D01*
X10107Y05508D02*
Y05665D01*
X09927Y05686D02*
X09986D01*
X09957Y05657D02*
Y05716D01*
X12375Y05686D02*
X12414D01*
X12394Y05667D02*
Y05706D01*
X12466Y05586D02*
X12623D01*
X12544Y05508D02*
Y05665D01*
X12474Y05386D02*
X12514D01*
X12494Y05366D02*
Y05406D01*
X12711Y05586D02*
X12778D01*
X12744Y05553D02*
Y0562D01*
X12615Y05786D02*
X12674D01*
X12644Y05757D02*
Y05816D01*
X09405Y05587D02*
X09472D01*
X09438Y05553D02*
Y05621D01*
X09805Y05587D02*
X09872D01*
X09838Y05553D02*
Y05621D01*
X13125Y05686D02*
X13164D01*
X13144Y05667D02*
Y05706D01*
X13216Y05586D02*
X13373D01*
X13294Y05508D02*
Y05665D01*
X13324Y05386D02*
X13364D01*
X13344Y05366D02*
Y05406D01*
X13461Y05586D02*
X13528D01*
X13494Y05553D02*
Y0562D01*
X13365Y05786D02*
X13424D01*
X13394Y05757D02*
Y05816D01*
X09709Y05786D02*
X09768D01*
X09738Y05757D02*
Y05816D01*
X09568Y05386D02*
X09608D01*
X09588Y05366D02*
Y05406D01*
X09559Y05586D02*
X09717D01*
X09638Y05508D02*
Y05665D01*
X09468Y05686D02*
X09508D01*
X09488Y05667D02*
Y05706D01*
X06937Y05686D02*
X06976D01*
X06957Y05667D02*
Y05706D01*
X07028Y05586D02*
X07186D01*
X07107Y05508D02*
Y05665D01*
X07037Y05386D02*
X07077D01*
X07057Y05366D02*
Y05406D01*
X07273Y05586D02*
X07341D01*
X07307Y05553D02*
Y0562D01*
X07177Y05786D02*
X07236D01*
X07207Y05757D02*
Y05816D01*
X0675Y05686D02*
X06789D01*
X06769Y05667D02*
Y05706D01*
X06841Y05586D02*
X06998D01*
X06919Y05508D02*
Y05665D01*
X06686Y05586D02*
X06753D01*
X06719Y05553D02*
Y0562D01*
X0699Y05786D02*
X07049D01*
X07019Y05757D02*
Y05816D01*
X06646Y05686D02*
X06705D01*
X06676Y05657D02*
Y05716D01*
X06856Y05386D02*
X06896D01*
X06876Y05366D02*
Y05406D01*
X06992Y05586D02*
X07059D01*
X07026Y05553D02*
Y0562D01*
X06592Y05586D02*
X06659D01*
X06626Y05553D02*
Y0562D01*
X06896Y05786D02*
X06955D01*
X06926Y05757D02*
Y05816D01*
X05959Y05786D02*
X06018D01*
X05988Y05757D02*
Y05816D01*
X05654Y05586D02*
X05722D01*
X05688Y05553D02*
Y0562D01*
X06054Y05586D02*
X06122D01*
X06088Y05553D02*
Y0562D01*
X05918Y05386D02*
X05958D01*
X05938Y05366D02*
Y05406D01*
X05709Y05686D02*
X05768D01*
X05738Y05657D02*
Y05716D01*
X06427Y05786D02*
X06486D01*
X06457Y05757D02*
Y05816D01*
X06523Y05586D02*
X06591D01*
X06557Y05553D02*
Y0562D01*
X06287Y05386D02*
X06327D01*
X06307Y05366D02*
Y05406D01*
X06278Y05586D02*
X06436D01*
X06357Y05508D02*
Y05665D01*
X06187Y05686D02*
X06226D01*
X06207Y05667D02*
Y05706D01*
X05427Y05686D02*
X05486D01*
X05457Y05657D02*
Y05716D01*
X05528Y05586D02*
X05686D01*
X05607Y05508D02*
Y05665D01*
X05537Y05386D02*
X05577D01*
X05557Y05366D02*
Y05406D01*
X05773Y05586D02*
X05841D01*
X05807Y05553D02*
Y0562D01*
X05373Y05586D02*
X05441D01*
X05407Y05553D02*
Y0562D01*
X05677Y05786D02*
X05736D01*
X05707Y05757D02*
Y05816D01*
X06Y05686D02*
X06039D01*
X06019Y05667D02*
Y05706D01*
X06091Y05586D02*
X06248D01*
X06169Y05508D02*
Y05665D01*
X06099Y05386D02*
X06139D01*
X06119Y05366D02*
Y05406D01*
X0624Y05786D02*
X06299D01*
X06269Y05757D02*
Y05816D01*
X04677Y05686D02*
X04736D01*
X04707Y05657D02*
Y05716D01*
X04778Y05586D02*
X04936D01*
X04857Y05508D02*
Y05665D01*
X04787Y05386D02*
X04827D01*
X04807Y05366D02*
Y05406D01*
X04623Y05586D02*
X04691D01*
X04657Y05553D02*
Y0562D01*
X04927Y05786D02*
X04986D01*
X04957Y05757D02*
Y05816D01*
X05812Y05686D02*
X05851D01*
X05832Y05667D02*
Y05706D01*
X05903Y05586D02*
X06061D01*
X05982Y05508D02*
Y05665D01*
X05748Y05586D02*
X05816D01*
X05782Y05553D02*
Y0562D01*
X06052Y05786D02*
X06111D01*
X06082Y05757D02*
Y05816D01*
X05146Y06436D02*
X05205D01*
X05176Y06407D02*
Y06466D01*
X05247Y06336D02*
X05404D01*
X05326Y06258D02*
Y06415D01*
X05256Y06136D02*
X05296D01*
X05276Y06116D02*
Y06156D01*
X05492Y06336D02*
X05559D01*
X05526Y06303D02*
Y0637D01*
X05092Y06336D02*
X05159D01*
X05126Y06303D02*
Y0637D01*
X05396Y06536D02*
X05455D01*
X05426Y06507D02*
Y06566D01*
X05615Y06436D02*
X05674D01*
X05644Y06407D02*
Y06466D01*
X05716Y06336D02*
X05873D01*
X05794Y06258D02*
Y06415D01*
X05724Y06136D02*
X05764D01*
X05744Y06116D02*
Y06156D01*
X05961Y06336D02*
X06028D01*
X05994Y06303D02*
Y0637D01*
X05561Y06336D02*
X05628D01*
X05594Y06303D02*
Y0637D01*
X05865Y06536D02*
X05924D01*
X05894Y06507D02*
Y06566D01*
X05115Y05786D02*
X05174D01*
X05144Y05757D02*
Y05816D01*
X05211Y05586D02*
X05278D01*
X05244Y05553D02*
Y0562D01*
X04974Y05386D02*
X05014D01*
X04994Y05366D02*
Y05406D01*
X04966Y05586D02*
X05123D01*
X05044Y05508D02*
Y05665D01*
X04875Y05686D02*
X04914D01*
X04894Y05667D02*
Y05706D01*
X05021Y05786D02*
X0508D01*
X05051Y05757D02*
Y05816D01*
X04717Y05586D02*
X04784D01*
X04751Y05553D02*
Y0562D01*
X05117Y05586D02*
X05184D01*
X05151Y05553D02*
Y0562D01*
X04872Y05586D02*
X05029D01*
X04951Y05508D02*
Y05665D01*
X04781Y05686D02*
X0482D01*
X04801Y05667D02*
Y05706D01*
X04964Y07186D02*
X05012D01*
X04988Y07163D02*
Y0721D01*
X05059Y07086D02*
X05217D01*
X05138Y07008D02*
Y07165D01*
X05068Y06886D02*
X05108D01*
X05088Y06866D02*
Y06906D01*
X05304Y07086D02*
X05372D01*
X05338Y07053D02*
Y0712D01*
X05208Y07286D02*
X05268D01*
X05238Y07257D02*
Y07316D01*
X04771Y06436D02*
X0483D01*
X04801Y06407D02*
Y06466D01*
X04872Y06336D02*
X05029D01*
X04951Y06258D02*
Y06415D01*
X04881Y06136D02*
X04921D01*
X04901Y06116D02*
Y06156D01*
X05117Y06336D02*
X05184D01*
X05151Y06303D02*
Y0637D01*
X04717Y06336D02*
X04784D01*
X04751Y06303D02*
Y0637D01*
X05021Y06536D02*
X0508D01*
X05051Y06507D02*
Y06566D01*
X04771Y07186D02*
X0483D01*
X04801Y07157D02*
Y07216D01*
X04881Y06886D02*
X04921D01*
X04901Y06866D02*
Y06906D01*
X04717Y07086D02*
X04784D01*
X04751Y07053D02*
Y0712D01*
X05021Y07286D02*
X0508D01*
X05051Y07257D02*
Y07316D01*
X15437Y08786D02*
X15476D01*
X15457Y08767D02*
Y08806D01*
X15123Y08586D02*
X15191D01*
X15157Y08553D02*
Y0862D01*
X15523Y08586D02*
X15591D01*
X15557Y08553D02*
Y0862D01*
X15287Y08386D02*
X15327D01*
X15307Y08366D02*
Y08406D01*
X15278Y08586D02*
X15436D01*
X15357Y08508D02*
Y08665D01*
X15177Y08686D02*
X15236D01*
X15207Y08657D02*
Y08716D01*
X15802Y08786D02*
X15861D01*
X15832Y08757D02*
Y08816D01*
X15498Y08586D02*
X15566D01*
X15532Y08553D02*
Y0862D01*
X15898Y08586D02*
X15966D01*
X15932Y08553D02*
Y0862D01*
X15662Y08386D02*
X15702D01*
X15682Y08366D02*
Y08406D01*
X15552Y08686D02*
X15611D01*
X15582Y08657D02*
Y08716D01*
X16187Y08786D02*
X16226D01*
X16207Y08767D02*
Y08806D01*
X15873Y08586D02*
X15941D01*
X15907Y08553D02*
Y0862D01*
X16273Y08586D02*
X16341D01*
X16307Y08553D02*
Y0862D01*
X16037Y08386D02*
X16077D01*
X16057Y08366D02*
Y08406D01*
X15927Y08686D02*
X15986D01*
X15957Y08657D02*
Y08716D01*
X14771Y06536D02*
X1483D01*
X14801Y06507D02*
Y06566D01*
X14467Y06336D02*
X14534D01*
X14501Y06303D02*
Y0637D01*
X14867Y06336D02*
X14934D01*
X14901Y06303D02*
Y0637D01*
X14631Y06136D02*
X14671D01*
X14651Y06116D02*
Y06156D01*
X14622Y06336D02*
X14779D01*
X14701Y06258D02*
Y06415D01*
X14521Y06436D02*
X1458D01*
X14551Y06407D02*
Y06466D01*
X14802Y08686D02*
X14861D01*
X14832Y08657D02*
Y08716D01*
X14903Y08586D02*
X15061D01*
X14982Y08508D02*
Y08665D01*
X14912Y08386D02*
X14952D01*
X14932Y08366D02*
Y08406D01*
X15148Y08586D02*
X15216D01*
X15182Y08553D02*
Y0862D01*
X14748Y08586D02*
X14816D01*
X14782Y08553D02*
Y0862D01*
X15052Y08786D02*
X15111D01*
X15082Y08757D02*
Y08816D01*
X14677Y08786D02*
X14736D01*
X14707Y08757D02*
Y08816D01*
X14373Y08586D02*
X14441D01*
X14407Y08553D02*
Y0862D01*
X14773Y08586D02*
X14841D01*
X14807Y08553D02*
Y0862D01*
X14537Y08386D02*
X14577D01*
X14557Y08366D02*
Y08406D01*
X14528Y08586D02*
X14686D01*
X14607Y08508D02*
Y08665D01*
X14427Y08686D02*
X14486D01*
X14457Y08657D02*
Y08716D01*
X15279Y07411D02*
X15437D01*
X15358Y07333D02*
Y0749D01*
X14339Y07411D02*
X14497D01*
X14418Y07333D02*
Y0749D01*
X12277Y05911D02*
X12434D01*
X12356Y05833D02*
Y0599D01*
X14152Y06011D02*
X14309D01*
X14231Y05933D02*
Y0609D01*
X11549Y05311D02*
X11667D01*
X11608Y05252D02*
Y05371D01*
X15111Y06611D02*
X1523D01*
X15171Y06552D02*
Y06671D01*
X15092Y06011D02*
X15249D01*
X15171Y05933D02*
Y0609D01*
X15299Y06811D02*
X15417D01*
X15358Y06752D02*
Y06871D01*
X11529Y05911D02*
X11687D01*
X11608Y05833D02*
Y0599D01*
X07609Y05311D02*
X07727D01*
X07668Y05252D02*
Y05371D01*
X07777Y05911D02*
X07934D01*
X07856Y05833D02*
Y0599D01*
X07589Y05911D02*
X07747D01*
X07668Y05833D02*
Y0599D01*
X07796Y05311D02*
X07915D01*
X07856Y05252D02*
Y05371D01*
X14453Y08861D02*
X14571D01*
X14512Y08802D02*
Y08921D01*
X15203Y08861D02*
X15321D01*
X15262Y08802D02*
Y08921D01*
X16143Y08861D02*
X16261D01*
X16202Y08802D02*
Y08921D01*
X15478Y06991D02*
X15596D01*
X15537Y06932D02*
Y07051D01*
X15393Y08861D02*
X15511D01*
X15452Y08802D02*
Y08921D01*
X14433Y08261D02*
X14591D01*
X14512Y08183D02*
Y0834D01*
X15183Y08261D02*
X15341D01*
X15262Y08183D02*
Y0834D01*
X14858Y07931D02*
X15016D01*
X14937Y07853D02*
Y0801D01*
X15373Y08261D02*
X15531D01*
X15452Y08183D02*
Y0834D01*
X16123Y08261D02*
X16281D01*
X16202Y08183D02*
Y0834D01*
X14858Y06991D02*
X15016D01*
X14937Y06913D02*
Y0707D01*
X15478Y07931D02*
X15596D01*
X15537Y07872D02*
Y07991D01*
X05736Y06611D02*
X05855D01*
X05796Y06552D02*
Y06671D01*
X05717Y06011D02*
X05874D01*
X05796Y05933D02*
Y0609D01*
X04777Y06011D02*
X04934D01*
X04856Y05933D02*
Y0609D01*
X04796Y06611D02*
X04915D01*
X04856Y06552D02*
Y06671D01*
X14171Y06611D02*
X1429D01*
X14231Y06552D02*
Y06671D01*
X16028Y07836D02*
X16186D01*
X16107Y07758D02*
Y07915D01*
X16137Y07636D02*
X16177D01*
X16157Y07616D02*
Y07656D01*
X16037Y07636D02*
X16077D01*
X16057Y07616D02*
Y07656D01*
X16273Y07836D02*
X16341D01*
X16307Y07803D02*
Y0787D01*
X15873Y07836D02*
X15941D01*
X15907Y07803D02*
Y0787D01*
X16177Y08036D02*
X16236D01*
X16207Y08007D02*
Y08066D01*
X15927Y07936D02*
X15986D01*
X15957Y07907D02*
Y07966D01*
X15927Y07186D02*
X15986D01*
X15957Y07157D02*
Y07216D01*
X16177Y07286D02*
X16236D01*
X16207Y07257D02*
Y07316D01*
X15873Y07086D02*
X15941D01*
X15907Y07053D02*
Y0712D01*
X16273Y07086D02*
X16341D01*
X16307Y07053D02*
Y0712D01*
X16037Y06886D02*
X16077D01*
X16057Y06866D02*
Y06906D01*
X16137Y06886D02*
X16177D01*
X16157Y06866D02*
Y06906D01*
X16028Y07086D02*
X16186D01*
X16107Y07008D02*
Y07165D01*
X10964Y06336D02*
X11122D01*
X11043Y06258D02*
Y06415D01*
X11073Y06136D02*
X11113D01*
X11093Y06116D02*
Y06156D01*
X10973Y06136D02*
X11013D01*
X10993Y06116D02*
Y06156D01*
X11209Y06336D02*
X11277D01*
X11243Y06303D02*
Y0637D01*
X10809Y06336D02*
X10877D01*
X10843Y06303D02*
Y0637D01*
X11113Y06536D02*
X11173D01*
X11143Y06507D02*
Y06566D01*
X10863Y06436D02*
X10923D01*
X10893Y06407D02*
Y06466D01*
X11613Y06436D02*
X11673D01*
X11643Y06407D02*
Y06466D01*
X11863Y06536D02*
X11923D01*
X11893Y06507D02*
Y06566D01*
X11559Y06336D02*
X11627D01*
X11593Y06303D02*
Y0637D01*
X11959Y06336D02*
X12027D01*
X11993Y06303D02*
Y0637D01*
X11723Y06136D02*
X11763D01*
X11743Y06116D02*
Y06156D01*
X11823Y06136D02*
X11863D01*
X11843Y06116D02*
Y06156D01*
X11714Y06336D02*
X11872D01*
X11793Y06258D02*
Y06415D01*
X10214Y06336D02*
X10372D01*
X10293Y06258D02*
Y06415D01*
X10323Y06136D02*
X10363D01*
X10343Y06116D02*
Y06156D01*
X10223Y06136D02*
X10263D01*
X10243Y06116D02*
Y06156D01*
X10459Y06336D02*
X10527D01*
X10493Y06303D02*
Y0637D01*
X10059Y06336D02*
X10127D01*
X10093Y06303D02*
Y0637D01*
X10363Y06536D02*
X10423D01*
X10393Y06507D02*
Y06566D01*
X10113Y06436D02*
X10173D01*
X10143Y06407D02*
Y06466D01*
X09363Y06436D02*
X09423D01*
X09393Y06407D02*
Y06466D01*
X09613Y06536D02*
X09673D01*
X09643Y06507D02*
Y06566D01*
X09309Y06336D02*
X09377D01*
X09343Y06303D02*
Y0637D01*
X09709Y06336D02*
X09777D01*
X09743Y06303D02*
Y0637D01*
X09473Y06136D02*
X09513D01*
X09493Y06116D02*
Y06156D01*
X09573Y06136D02*
X09613D01*
X09593Y06116D02*
Y06156D01*
X09464Y06336D02*
X09622D01*
X09543Y06258D02*
Y06415D01*
X12464Y06336D02*
X12622D01*
X12543Y06258D02*
Y06415D01*
X12573Y06136D02*
X12613D01*
X12593Y06116D02*
Y06156D01*
X12473Y06136D02*
X12513D01*
X12493Y06116D02*
Y06156D01*
X12709Y06336D02*
X12777D01*
X12743Y06303D02*
Y0637D01*
X12309Y06336D02*
X12377D01*
X12343Y06303D02*
Y0637D01*
X12613Y06536D02*
X12673D01*
X12643Y06507D02*
Y06566D01*
X12363Y06436D02*
X12423D01*
X12393Y06407D02*
Y06466D01*
X13113Y06436D02*
X13173D01*
X13143Y06407D02*
Y06466D01*
X13363Y06536D02*
X13423D01*
X13393Y06507D02*
Y06566D01*
X13059Y06336D02*
X13127D01*
X13093Y06303D02*
Y0637D01*
X13459Y06336D02*
X13527D01*
X13493Y06303D02*
Y0637D01*
X13223Y06136D02*
X13263D01*
X13243Y06116D02*
Y06156D01*
X13323Y06136D02*
X13363D01*
X13343Y06116D02*
Y06156D01*
X13214Y06336D02*
X13372D01*
X13293Y06258D02*
Y06415D01*
X15278Y06336D02*
X15436D01*
X15357Y06258D02*
Y06415D01*
X15387Y06136D02*
X15427D01*
X15407Y06116D02*
Y06156D01*
X15287Y06136D02*
X15327D01*
X15307Y06116D02*
Y06156D01*
X15523Y06336D02*
X15591D01*
X15557Y06303D02*
Y0637D01*
X15123Y06336D02*
X15191D01*
X15157Y06303D02*
Y0637D01*
X15427Y06536D02*
X15486D01*
X15457Y06507D02*
Y06566D01*
X15177Y06436D02*
X15236D01*
X15207Y06407D02*
Y06466D01*
X08051Y07936D02*
X0811D01*
X08081Y07907D02*
Y07966D01*
X08301Y08036D02*
X0836D01*
X08331Y08007D02*
Y08066D01*
X07997Y07836D02*
X08064D01*
X08031Y07803D02*
Y0787D01*
X08397Y07836D02*
X08464D01*
X08431Y07803D02*
Y0787D01*
X08161Y07636D02*
X08201D01*
X08181Y07616D02*
Y07656D01*
X08261Y07636D02*
X08301D01*
X08281Y07616D02*
Y07656D01*
X08152Y07836D02*
X08309D01*
X08231Y07758D02*
Y07915D01*
X08902Y07836D02*
X09059D01*
X08981Y07758D02*
Y07915D01*
X09011Y07636D02*
X09051D01*
X09031Y07616D02*
Y07656D01*
X08911Y07636D02*
X08951D01*
X08931Y07616D02*
Y07656D01*
X09147Y07836D02*
X09214D01*
X09181Y07803D02*
Y0787D01*
X08747Y07836D02*
X08814D01*
X08781Y07803D02*
Y0787D01*
X09051Y08036D02*
X0911D01*
X09081Y08007D02*
Y08066D01*
X08801Y07936D02*
X0886D01*
X08831Y07907D02*
Y07966D01*
X07301Y07936D02*
X0736D01*
X07331Y07907D02*
Y07966D01*
X07551Y08036D02*
X0761D01*
X07581Y08007D02*
Y08066D01*
X07247Y07836D02*
X07314D01*
X07281Y07803D02*
Y0787D01*
X07647Y07836D02*
X07714D01*
X07681Y07803D02*
Y0787D01*
X07411Y07636D02*
X07451D01*
X07431Y07616D02*
Y07656D01*
X07511Y07636D02*
X07551D01*
X07531Y07616D02*
Y07656D01*
X07402Y07836D02*
X07559D01*
X07481Y07758D02*
Y07915D01*
X06652Y07836D02*
X06809D01*
X06731Y07758D02*
Y07915D01*
X06761Y07636D02*
X06801D01*
X06781Y07616D02*
Y07656D01*
X06661Y07636D02*
X06701D01*
X06681Y07616D02*
Y07656D01*
X06897Y07836D02*
X06964D01*
X06931Y07803D02*
Y0787D01*
X06497Y07836D02*
X06564D01*
X06531Y07803D02*
Y0787D01*
X06801Y08036D02*
X0686D01*
X06831Y08007D02*
Y08066D01*
X06551Y07936D02*
X0661D01*
X06581Y07907D02*
Y07966D01*
X09551Y07936D02*
X0961D01*
X09581Y07907D02*
Y07966D01*
X09801Y08036D02*
X0986D01*
X09831Y08007D02*
Y08066D01*
X09497Y07836D02*
X09564D01*
X09531Y07803D02*
Y0787D01*
X09897Y07836D02*
X09964D01*
X09931Y07803D02*
Y0787D01*
X09661Y07636D02*
X09701D01*
X09681Y07616D02*
Y07656D01*
X09761Y07636D02*
X09801D01*
X09781Y07616D02*
Y07656D01*
X09652Y07836D02*
X09809D01*
X09731Y07758D02*
Y07915D01*
X10402Y07836D02*
X10559D01*
X10481Y07758D02*
Y07915D01*
X10511Y07636D02*
X10551D01*
X10531Y07616D02*
Y07656D01*
X10411Y07636D02*
X10451D01*
X10431Y07616D02*
Y07656D01*
X10647Y07836D02*
X10714D01*
X10681Y07803D02*
Y0787D01*
X10247Y07836D02*
X10314D01*
X10281Y07803D02*
Y0787D01*
X10551Y08036D02*
X1061D01*
X10581Y08007D02*
Y08066D01*
X10301Y07936D02*
X1036D01*
X10331Y07907D02*
Y07966D01*
X11801Y07936D02*
X1186D01*
X11831Y07907D02*
Y07966D01*
X12051Y08036D02*
X1211D01*
X12081Y08007D02*
Y08066D01*
X11747Y07836D02*
X11814D01*
X11781Y07803D02*
Y0787D01*
X12147Y07836D02*
X12214D01*
X12181Y07803D02*
Y0787D01*
X11911Y07636D02*
X11951D01*
X11931Y07616D02*
Y07656D01*
X12011Y07636D02*
X12051D01*
X12031Y07616D02*
Y07656D01*
X11902Y07836D02*
X12059D01*
X11981Y07758D02*
Y07915D01*
X11152Y07836D02*
X11309D01*
X11231Y07758D02*
Y07915D01*
X11261Y07636D02*
X11301D01*
X11281Y07616D02*
Y07656D01*
X11161Y07636D02*
X11201D01*
X11181Y07616D02*
Y07656D01*
X11397Y07836D02*
X11464D01*
X11431Y07803D02*
Y0787D01*
X10997Y07836D02*
X11064D01*
X11031Y07803D02*
Y0787D01*
X11301Y08036D02*
X1136D01*
X11331Y08007D02*
Y08066D01*
X11051Y07936D02*
X1111D01*
X11081Y07907D02*
Y07966D01*
X06738Y07186D02*
X06798D01*
X06768Y07157D02*
Y07216D01*
X06988Y07286D02*
X07048D01*
X07018Y07257D02*
Y07316D01*
X06684Y07086D02*
X06752D01*
X06718Y07053D02*
Y0712D01*
X07084Y07086D02*
X07152D01*
X07118Y07053D02*
Y0712D01*
X06848Y06886D02*
X06888D01*
X06868Y06866D02*
Y06906D01*
X06948Y06886D02*
X06988D01*
X06968Y06866D02*
Y06906D01*
X06839Y07086D02*
X06997D01*
X06918Y07008D02*
Y07165D01*
X07589Y07086D02*
X07747D01*
X07668Y07008D02*
Y07165D01*
X07698Y06886D02*
X07738D01*
X07718Y06866D02*
Y06906D01*
X07598Y06886D02*
X07638D01*
X07618Y06866D02*
Y06906D01*
X07834Y07086D02*
X07902D01*
X07868Y07053D02*
Y0712D01*
X07434Y07086D02*
X07502D01*
X07468Y07053D02*
Y0712D01*
X07738Y07286D02*
X07798D01*
X07768Y07257D02*
Y07316D01*
X07488Y07186D02*
X07548D01*
X07518Y07157D02*
Y07216D01*
X05988Y07186D02*
X06048D01*
X06018Y07157D02*
Y07216D01*
X06238Y07286D02*
X06298D01*
X06268Y07257D02*
Y07316D01*
X05934Y07086D02*
X06002D01*
X05968Y07053D02*
Y0712D01*
X06334Y07086D02*
X06402D01*
X06368Y07053D02*
Y0712D01*
X06098Y06886D02*
X06138D01*
X06118Y06866D02*
Y06906D01*
X06198Y06886D02*
X06238D01*
X06218Y06866D02*
Y06906D01*
X06089Y07086D02*
X06247D01*
X06168Y07008D02*
Y07165D01*
X12652Y07836D02*
X12809D01*
X12731Y07758D02*
Y07915D01*
X12761Y07636D02*
X12801D01*
X12781Y07616D02*
Y07656D01*
X12661Y07636D02*
X12701D01*
X12681Y07616D02*
Y07656D01*
X12897Y07836D02*
X12964D01*
X12931Y07803D02*
Y0787D01*
X12497Y07836D02*
X12564D01*
X12531Y07803D02*
Y0787D01*
X12801Y08036D02*
X1286D01*
X12831Y08007D02*
Y08066D01*
X12551Y07936D02*
X1261D01*
X12581Y07907D02*
Y07966D01*
X13301Y07936D02*
X1336D01*
X13331Y07907D02*
Y07966D01*
X13551Y08036D02*
X1361D01*
X13581Y08007D02*
Y08066D01*
X13247Y07836D02*
X13314D01*
X13281Y07803D02*
Y0787D01*
X13647Y07836D02*
X13714D01*
X13681Y07803D02*
Y0787D01*
X13411Y07636D02*
X13451D01*
X13431Y07616D02*
Y07656D01*
X13511Y07636D02*
X13551D01*
X13531Y07616D02*
Y07656D01*
X13402Y07836D02*
X13559D01*
X13481Y07758D02*
Y07915D01*
X14152Y07836D02*
X14309D01*
X14231Y07758D02*
Y07915D01*
X14261Y07636D02*
X14301D01*
X14281Y07616D02*
Y07656D01*
X14161Y07636D02*
X14201D01*
X14181Y07616D02*
Y07656D01*
X14397Y07836D02*
X14464D01*
X14431Y07803D02*
Y0787D01*
X13997Y07836D02*
X14064D01*
X14031Y07803D02*
Y0787D01*
X14301Y08036D02*
X1436D01*
X14331Y08007D02*
Y08066D01*
X14051Y07936D02*
X1411D01*
X14081Y07907D02*
Y07966D01*
X12176Y08686D02*
X12235D01*
X12206Y08657D02*
Y08716D01*
X12426Y08786D02*
X12485D01*
X12456Y08757D02*
Y08816D01*
X12122Y08586D02*
X12189D01*
X12156Y08553D02*
Y0862D01*
X12522Y08586D02*
X12589D01*
X12556Y08553D02*
Y0862D01*
X12286Y08386D02*
X12326D01*
X12306Y08366D02*
Y08406D01*
X12386Y08386D02*
X12426D01*
X12406Y08366D02*
Y08406D01*
X12277Y08586D02*
X12434D01*
X12356Y08508D02*
Y08665D01*
X13027Y08586D02*
X13184D01*
X13106Y08508D02*
Y08665D01*
X13136Y08386D02*
X13176D01*
X13156Y08366D02*
Y08406D01*
X13036Y08386D02*
X13076D01*
X13056Y08366D02*
Y08406D01*
X13272Y08586D02*
X13339D01*
X13306Y08553D02*
Y0862D01*
X12872Y08586D02*
X12939D01*
X12906Y08553D02*
Y0862D01*
X13176Y08786D02*
X13235D01*
X13206Y08757D02*
Y08816D01*
X12926Y08686D02*
X12985D01*
X12956Y08657D02*
Y08716D01*
X11426Y08686D02*
X11485D01*
X11456Y08657D02*
Y08716D01*
X11676Y08786D02*
X11735D01*
X11706Y08757D02*
Y08816D01*
X11372Y08586D02*
X11439D01*
X11406Y08553D02*
Y0862D01*
X11772Y08586D02*
X11839D01*
X11806Y08553D02*
Y0862D01*
X11536Y08386D02*
X11576D01*
X11556Y08366D02*
Y08406D01*
X11636Y08386D02*
X11676D01*
X11656Y08366D02*
Y08406D01*
X11527Y08586D02*
X11684D01*
X11606Y08508D02*
Y08665D01*
X10777Y08586D02*
X10934D01*
X10856Y08508D02*
Y08665D01*
X10886Y08386D02*
X10926D01*
X10906Y08366D02*
Y08406D01*
X10786Y08386D02*
X10826D01*
X10806Y08366D02*
Y08406D01*
X11022Y08586D02*
X11089D01*
X11056Y08553D02*
Y0862D01*
X10622Y08586D02*
X10689D01*
X10656Y08553D02*
Y0862D01*
X10926Y08786D02*
X10985D01*
X10956Y08757D02*
Y08816D01*
X10676Y08686D02*
X10735D01*
X10706Y08657D02*
Y08716D01*
X13676Y08686D02*
X13735D01*
X13706Y08657D02*
Y08716D01*
X13926Y08786D02*
X13985D01*
X13956Y08757D02*
Y08816D01*
X13622Y08586D02*
X13689D01*
X13656Y08553D02*
Y0862D01*
X14022Y08586D02*
X14089D01*
X14056Y08553D02*
Y0862D01*
X13786Y08386D02*
X13826D01*
X13806Y08366D02*
Y08406D01*
X13886Y08386D02*
X13926D01*
X13906Y08366D02*
Y08406D01*
X13777Y08586D02*
X13934D01*
X13856Y08508D02*
Y08665D01*
X09277Y08586D02*
X09434D01*
X09356Y08508D02*
Y08665D01*
X09386Y08386D02*
X09426D01*
X09406Y08366D02*
Y08406D01*
X09286Y08386D02*
X09326D01*
X09306Y08366D02*
Y08406D01*
X09522Y08586D02*
X09589D01*
X09556Y08553D02*
Y0862D01*
X09122Y08586D02*
X09189D01*
X09156Y08553D02*
Y0862D01*
X09426Y08786D02*
X09485D01*
X09456Y08757D02*
Y08816D01*
X09176Y08686D02*
X09235D01*
X09206Y08657D02*
Y08716D01*
X09926Y08686D02*
X09985D01*
X09956Y08657D02*
Y08716D01*
X10176Y08786D02*
X10235D01*
X10206Y08757D02*
Y08816D01*
X09872Y08586D02*
X09939D01*
X09906Y08553D02*
Y0862D01*
X10272Y08586D02*
X10339D01*
X10306Y08553D02*
Y0862D01*
X10036Y08386D02*
X10076D01*
X10056Y08366D02*
Y08406D01*
X10136Y08386D02*
X10176D01*
X10156Y08366D02*
Y08406D01*
X10027Y08586D02*
X10184D01*
X10106Y08508D02*
Y08665D01*
X08527Y08586D02*
X08684D01*
X08606Y08508D02*
Y08665D01*
X08636Y08386D02*
X08676D01*
X08656Y08366D02*
Y08406D01*
X08536Y08386D02*
X08576D01*
X08556Y08366D02*
Y08406D01*
X08772Y08586D02*
X08839D01*
X08806Y08553D02*
Y0862D01*
X08372Y08586D02*
X08439D01*
X08406Y08553D02*
Y0862D01*
X08676Y08786D02*
X08735D01*
X08706Y08757D02*
Y08816D01*
X08426Y08686D02*
X08485D01*
X08456Y08657D02*
Y08716D01*
X07676Y08686D02*
X07735D01*
X07706Y08657D02*
Y08716D01*
X07926Y08786D02*
X07985D01*
X07956Y08757D02*
Y08816D01*
X07622Y08586D02*
X07689D01*
X07656Y08553D02*
Y0862D01*
X08022Y08586D02*
X08089D01*
X08056Y08553D02*
Y0862D01*
X07786Y08386D02*
X07826D01*
X07806Y08366D02*
Y08406D01*
X07886Y08386D02*
X07926D01*
X07906Y08366D02*
Y08406D01*
X07777Y08586D02*
X07934D01*
X07856Y08508D02*
Y08665D01*
X04777Y08586D02*
X04934D01*
X04856Y08508D02*
Y08665D01*
X04886Y08386D02*
X04926D01*
X04906Y08366D02*
Y08406D01*
X04786Y08386D02*
X04826D01*
X04806Y08366D02*
Y08406D01*
X05022Y08586D02*
X05089D01*
X05056Y08553D02*
Y0862D01*
X04622Y08586D02*
X04689D01*
X04656Y08553D02*
Y0862D01*
X04926Y08786D02*
X04985D01*
X04956Y08757D02*
Y08816D01*
X04676Y08686D02*
X04735D01*
X04706Y08657D02*
Y08716D01*
X05426Y08686D02*
X05485D01*
X05456Y08657D02*
Y08716D01*
X05676Y08786D02*
X05735D01*
X05706Y08757D02*
Y08816D01*
X05372Y08586D02*
X05439D01*
X05406Y08553D02*
Y0862D01*
X05772Y08586D02*
X05839D01*
X05806Y08553D02*
Y0862D01*
X05536Y08386D02*
X05576D01*
X05556Y08366D02*
Y08406D01*
X05636Y08386D02*
X05676D01*
X05656Y08366D02*
Y08406D01*
X05527Y08586D02*
X05684D01*
X05606Y08508D02*
Y08665D01*
X07027Y08586D02*
X07184D01*
X07106Y08508D02*
Y08665D01*
X07136Y08386D02*
X07176D01*
X07156Y08366D02*
Y08406D01*
X07036Y08386D02*
X07076D01*
X07056Y08366D02*
Y08406D01*
X07272Y08586D02*
X07339D01*
X07306Y08553D02*
Y0862D01*
X06872Y08586D02*
X06939D01*
X06906Y08553D02*
Y0862D01*
X07176Y08786D02*
X07235D01*
X07206Y08757D02*
Y08816D01*
X06926Y08686D02*
X06985D01*
X06956Y08657D02*
Y08716D01*
X06176Y08686D02*
X06235D01*
X06206Y08657D02*
Y08716D01*
X06426Y08786D02*
X06485D01*
X06456Y08757D02*
Y08816D01*
X06122Y08586D02*
X06189D01*
X06156Y08553D02*
Y0862D01*
X06522Y08586D02*
X06589D01*
X06556Y08553D02*
Y0862D01*
X06286Y08386D02*
X06326D01*
X06306Y08366D02*
Y08406D01*
X06386Y08386D02*
X06426D01*
X06406Y08366D02*
Y08406D01*
X06277Y08586D02*
X06434D01*
X06356Y08508D02*
Y08665D01*
X06464Y06336D02*
X06622D01*
X06543Y06258D02*
Y06415D01*
X06573Y06136D02*
X06613D01*
X06593Y06116D02*
Y06156D01*
X06473Y06136D02*
X06513D01*
X06493Y06116D02*
Y06156D01*
X06709Y06336D02*
X06777D01*
X06743Y06303D02*
Y0637D01*
X06309Y06336D02*
X06377D01*
X06343Y06303D02*
Y0637D01*
X06613Y06536D02*
X06673D01*
X06643Y06507D02*
Y06566D01*
X06363Y06436D02*
X06423D01*
X06393Y06407D02*
Y06466D01*
X07113Y06436D02*
X07173D01*
X07143Y06407D02*
Y06466D01*
X07363Y06536D02*
X07423D01*
X07393Y06507D02*
Y06566D01*
X07059Y06336D02*
X07127D01*
X07093Y06303D02*
Y0637D01*
X07459Y06336D02*
X07527D01*
X07493Y06303D02*
Y0637D01*
X07223Y06136D02*
X07263D01*
X07243Y06116D02*
Y06156D01*
X07323Y06136D02*
X07363D01*
X07343Y06116D02*
Y06156D01*
X07214Y06336D02*
X07372D01*
X07293Y06258D02*
Y06415D01*
X08714Y06336D02*
X08872D01*
X08793Y06258D02*
Y06415D01*
X08823Y06136D02*
X08863D01*
X08843Y06116D02*
Y06156D01*
X08723Y06136D02*
X08763D01*
X08743Y06116D02*
Y06156D01*
X08959Y06336D02*
X09027D01*
X08993Y06303D02*
Y0637D01*
X08559Y06336D02*
X08627D01*
X08593Y06303D02*
Y0637D01*
X08863Y06536D02*
X08923D01*
X08893Y06507D02*
Y06566D01*
X08613Y06436D02*
X08673D01*
X08643Y06407D02*
Y06466D01*
X07863Y06436D02*
X07923D01*
X07893Y06407D02*
Y06466D01*
X08113Y06536D02*
X08173D01*
X08143Y06507D02*
Y06566D01*
X07809Y06336D02*
X07877D01*
X07843Y06303D02*
Y0637D01*
X08209Y06336D02*
X08277D01*
X08243Y06303D02*
Y0637D01*
X07973Y06136D02*
X08013D01*
X07993Y06116D02*
Y06156D01*
X08073Y06136D02*
X08113D01*
X08093Y06116D02*
Y06156D01*
X07964Y06336D02*
X08122D01*
X08043Y06258D02*
Y06415D01*
X12839Y07086D02*
X12997D01*
X12918Y07008D02*
Y07165D01*
X12948Y06886D02*
X12988D01*
X12968Y06866D02*
Y06906D01*
X12848Y06886D02*
X12888D01*
X12868Y06866D02*
Y06906D01*
X13084Y07086D02*
X13152D01*
X13118Y07053D02*
Y0712D01*
X12684Y07086D02*
X12752D01*
X12718Y07053D02*
Y0712D01*
X12988Y07286D02*
X13048D01*
X13018Y07257D02*
Y07316D01*
X12738Y07186D02*
X12798D01*
X12768Y07157D02*
Y07216D01*
X13488Y07186D02*
X13548D01*
X13518Y07157D02*
Y07216D01*
X13738Y07286D02*
X13798D01*
X13768Y07257D02*
Y07316D01*
X13434Y07086D02*
X13502D01*
X13468Y07053D02*
Y0712D01*
X13834Y07086D02*
X13902D01*
X13868Y07053D02*
Y0712D01*
X13598Y06886D02*
X13638D01*
X13618Y06866D02*
Y06906D01*
X13698Y06886D02*
X13738D01*
X13718Y06866D02*
Y06906D01*
X13589Y07086D02*
X13747D01*
X13668Y07008D02*
Y07165D01*
X12089Y07086D02*
X12247D01*
X12168Y07008D02*
Y07165D01*
X12198Y06886D02*
X12238D01*
X12218Y06866D02*
Y06906D01*
X12098Y06886D02*
X12138D01*
X12118Y06866D02*
Y06906D01*
X12334Y07086D02*
X12402D01*
X12368Y07053D02*
Y0712D01*
X11934Y07086D02*
X12002D01*
X11968Y07053D02*
Y0712D01*
X12238Y07286D02*
X12298D01*
X12268Y07257D02*
Y07316D01*
X11988Y07186D02*
X12048D01*
X12018Y07157D02*
Y07216D01*
X11238Y07186D02*
X11298D01*
X11268Y07157D02*
Y07216D01*
X11488Y07286D02*
X11548D01*
X11518Y07257D02*
Y07316D01*
X11184Y07086D02*
X11252D01*
X11218Y07053D02*
Y0712D01*
X11584Y07086D02*
X11652D01*
X11618Y07053D02*
Y0712D01*
X11348Y06886D02*
X11388D01*
X11368Y06866D02*
Y06906D01*
X11448Y06886D02*
X11488D01*
X11468Y06866D02*
Y06906D01*
X11339Y07086D02*
X11497D01*
X11418Y07008D02*
Y07165D01*
X08339Y07086D02*
X08497D01*
X08418Y07008D02*
Y07165D01*
X08448Y06886D02*
X08488D01*
X08468Y06866D02*
Y06906D01*
X08348Y06886D02*
X08388D01*
X08368Y06866D02*
Y06906D01*
X08584Y07086D02*
X08652D01*
X08618Y07053D02*
Y0712D01*
X08184Y07086D02*
X08252D01*
X08218Y07053D02*
Y0712D01*
X08488Y07286D02*
X08548D01*
X08518Y07257D02*
Y07316D01*
X08238Y07186D02*
X08298D01*
X08268Y07157D02*
Y07216D01*
X08988Y07186D02*
X09048D01*
X09018Y07157D02*
Y07216D01*
X09238Y07286D02*
X09298D01*
X09268Y07257D02*
Y07316D01*
X08934Y07086D02*
X09002D01*
X08968Y07053D02*
Y0712D01*
X09334Y07086D02*
X09402D01*
X09368Y07053D02*
Y0712D01*
X09098Y06886D02*
X09138D01*
X09118Y06866D02*
Y06906D01*
X09198Y06886D02*
X09238D01*
X09218Y06866D02*
Y06906D01*
X09089Y07086D02*
X09247D01*
X09168Y07008D02*
Y07165D01*
X10589Y07086D02*
X10747D01*
X10668Y07008D02*
Y07165D01*
X10698Y06886D02*
X10738D01*
X10718Y06866D02*
Y06906D01*
X10598Y06886D02*
X10638D01*
X10618Y06866D02*
Y06906D01*
X10834Y07086D02*
X10902D01*
X10868Y07053D02*
Y0712D01*
X10434Y07086D02*
X10502D01*
X10468Y07053D02*
Y0712D01*
X10738Y07286D02*
X10798D01*
X10768Y07257D02*
Y07316D01*
X10488Y07186D02*
X10548D01*
X10518Y07157D02*
Y07216D01*
X09738Y07186D02*
X09798D01*
X09768Y07157D02*
Y07216D01*
X09988Y07286D02*
X10048D01*
X10018Y07257D02*
Y07316D01*
X09684Y07086D02*
X09752D01*
X09718Y07053D02*
Y0712D01*
X10084Y07086D02*
X10152D01*
X10118Y07053D02*
Y0712D01*
X09848Y06886D02*
X09888D01*
X09868Y06866D02*
Y06906D01*
X09948Y06886D02*
X09988D01*
X09968Y06866D02*
Y06906D01*
X09839Y07086D02*
X09997D01*
X09918Y07008D02*
Y07165D01*
X04964Y07836D02*
X05122D01*
X05043Y07758D02*
Y07915D01*
X05073Y07636D02*
X05113D01*
X05093Y07616D02*
Y07656D01*
X04973Y07636D02*
X05013D01*
X04993Y07616D02*
Y07656D01*
X05209Y07836D02*
X05277D01*
X05243Y07803D02*
Y0787D01*
X04809Y07836D02*
X04877D01*
X04843Y07803D02*
Y0787D01*
X05113Y08036D02*
X05173D01*
X05143Y08007D02*
Y08066D01*
X04863Y07936D02*
X04923D01*
X04893Y07907D02*
Y07966D01*
X05801Y07936D02*
X0586D01*
X05831Y07907D02*
Y07966D01*
X06051Y08036D02*
X0611D01*
X06081Y08007D02*
Y08066D01*
X05747Y07836D02*
X05814D01*
X05781Y07803D02*
Y0787D01*
X06147Y07836D02*
X06214D01*
X06181Y07803D02*
Y0787D01*
X05911Y07636D02*
X05951D01*
X05931Y07616D02*
Y07656D01*
X06011Y07636D02*
X06051D01*
X06031Y07616D02*
Y07656D01*
X05902Y07836D02*
X06059D01*
X05981Y07758D02*
Y07915D01*
X16028Y05586D02*
X16186D01*
X16107Y05508D02*
Y05665D01*
X16137Y05386D02*
X16177D01*
X16157Y05366D02*
Y05406D01*
X16037Y05386D02*
X16077D01*
X16057Y05366D02*
Y05406D01*
X16273Y05586D02*
X16341D01*
X16307Y05553D02*
Y0562D01*
X15873Y05586D02*
X15941D01*
X15907Y05553D02*
Y0562D01*
X16177Y05786D02*
X16236D01*
X16207Y05757D02*
Y05816D01*
X15927Y05686D02*
X15986D01*
X15957Y05657D02*
Y05716D01*
X15927Y06436D02*
X15986D01*
X15957Y06407D02*
Y06466D01*
X16177Y06536D02*
X16236D01*
X16207Y06507D02*
Y06566D01*
X15873Y06336D02*
X15941D01*
X15907Y06303D02*
Y0637D01*
X16273Y06336D02*
X16341D01*
X16307Y06303D02*
Y0637D01*
X16037Y06136D02*
X16077D01*
X16057Y06116D02*
Y06156D01*
X16137Y06136D02*
X16177D01*
X16157Y06116D02*
Y06156D01*
X16028Y06336D02*
X16186D01*
X16107Y06258D02*
Y06415D01*
X14449Y06886D02*
X14489D01*
X14469Y06866D02*
Y06906D01*
X15199Y05386D02*
X15239D01*
X15219Y05366D02*
Y05406D01*
X15387Y05386D02*
X15427D01*
X15407Y05366D02*
Y05406D01*
X04887Y05386D02*
X04927D01*
X04907Y05366D02*
Y05406D01*
X05074Y05386D02*
X05114D01*
X05094Y05366D02*
Y05406D01*
X05637Y05386D02*
X05677D01*
X05657Y05366D02*
Y05406D01*
X06387Y05386D02*
X06427D01*
X06407Y05366D02*
Y05406D01*
X06199Y05386D02*
X06239D01*
X06219Y05366D02*
Y05406D01*
X06018Y05386D02*
X06058D01*
X06038Y05366D02*
Y05406D01*
X06956Y05386D02*
X06996D01*
X06976Y05366D02*
Y05406D01*
X06756Y05386D02*
X06796D01*
X06776Y05366D02*
Y05406D01*
X15841Y05883D02*
X15852D01*
X15847Y05877D02*
Y05888D01*
X16311Y06732D02*
X16322D01*
X16317Y06726D02*
Y06737D01*
X16295Y07002D02*
X16306D01*
X16301Y06996D02*
Y07007D01*
X10586Y08254D02*
X10597D01*
X10592Y08248D02*
Y08259D01*
X10379Y0747D02*
X1039D01*
X10385Y07464D02*
Y07475D01*
X10648Y06711D02*
X10659D01*
X10654Y06705D02*
Y06717D01*
X10724Y05914D02*
X10735D01*
X1073Y05908D02*
Y0592D01*
X06689Y08171D02*
X067D01*
X06694Y08165D02*
Y08177D01*
X04942Y05876D02*
X04953D01*
X04948Y0587D02*
Y05881D01*
X04858Y07236D02*
X04869D01*
X04864Y0723D02*
Y07241D01*
X11476Y0778D02*
X11487D01*
X11482Y07774D02*
Y07785D01*
X1053Y05763D02*
X10541D01*
X10536Y05757D02*
Y05768D01*
X12001Y05776D02*
X12012D01*
X12007Y0577D02*
Y05781D01*
X10796Y0549D02*
X10807D01*
X10802Y05484D02*
Y05495D01*
X10372Y05375D02*
X10384D01*
X10378Y05369D02*
Y05381D01*
X06484Y08254D02*
X06495D01*
X0649Y08248D02*
Y08259D01*
X06484Y08492D02*
X06495D01*
X0649Y08486D02*
Y08497D01*
X05243Y08492D02*
X05254D01*
X05249Y08486D02*
Y08497D01*
X05184Y07772D02*
X05195D01*
X0519Y07766D02*
Y07777D01*
X10557Y08435D02*
X10568D01*
X10562Y08429D02*
Y0844D01*
X06385Y08212D02*
X06397D01*
X06391Y08206D02*
Y08218D01*
X11153Y05431D02*
X11164D01*
X11159Y05425D02*
Y05436D01*
X08834Y0572D02*
X08845D01*
X0884Y05714D02*
Y05725D01*
X12842Y075D02*
X12853D01*
X12848Y07494D02*
Y07505D01*
X10953Y05377D02*
X10964D01*
X10959Y05371D02*
Y05383D01*
X10718Y05466D02*
X10729D01*
X10724Y0546D02*
Y05472D01*
X05805Y07595D02*
X05816D01*
X05811Y07589D02*
Y076D01*
X06112Y06288D02*
X06123D01*
X06118Y06282D02*
Y06293D01*
X1395Y08891D02*
X13961D01*
X13956Y08886D02*
Y08897D01*
X058Y08862D02*
X05811D01*
X05806Y08856D02*
Y08867D01*
X05755Y07718D02*
X05767D01*
X05761Y07712D02*
Y07723D01*
X16287Y06629D02*
X16298D01*
X16293Y06623D02*
Y06634D01*
X12958Y06726D02*
X12969D01*
X12964Y0672D02*
Y06731D01*
X05601Y08143D02*
X05612D01*
X05607Y08137D02*
Y08148D01*
X05711Y07554D02*
X05722D01*
X05717Y07548D02*
Y07559D01*
X14553Y07224D02*
X14564D01*
X14559Y07218D02*
Y07229D01*
X12674Y07286D02*
X12686D01*
X1268Y07281D02*
Y07292D01*
X13762Y07444D02*
X13773D01*
X13768Y07438D02*
Y07449D01*
X09043Y06501D02*
X09054D01*
X09049Y06495D02*
Y06506D01*
X08629Y07474D02*
X0864D01*
X08635Y07468D02*
Y07479D01*
X1149Y05739D02*
X11501D01*
X11496Y05733D02*
Y05744D01*
X09354Y07447D02*
X09365D01*
X0936Y07441D02*
Y07452D01*
X12071Y07028D02*
X12082D01*
X12077Y07022D02*
Y07033D01*
X14223Y06278D02*
X14235D01*
X14229Y06272D02*
Y06283D01*
X05842Y0702D02*
X05854D01*
X05848Y07014D02*
Y07025D01*
X06291Y06597D02*
X06302D01*
X06297Y06591D02*
Y06602D01*
X05692Y07045D02*
X05704D01*
X05698Y07039D02*
Y07051D01*
X12964Y08495D02*
X12975D01*
X1297Y08489D02*
Y085D01*
X12554Y06483D02*
X12565D01*
X1256Y06477D02*
Y06488D01*
X05661Y07286D02*
X05673D01*
X05667Y07281D02*
Y07292D01*
X0533Y07349D02*
X05341D01*
X05336Y07343D02*
Y07354D01*
X04671Y06769D02*
X04682D01*
X04677Y06763D02*
Y06774D01*
X13076Y07656D02*
X13087D01*
X13082Y0765D02*
Y07662D01*
X12879Y05526D02*
X1289D01*
X12885Y0552D02*
Y05531D01*
X10783Y08235D02*
X10794D01*
X10789Y08229D02*
Y0824D01*
X11332Y05863D02*
X11344D01*
X11338Y05857D02*
Y05869D01*
X11301Y05967D02*
X11313D01*
X11307Y05961D02*
Y05973D01*
X15878Y07283D02*
X1589D01*
X15884Y07277D02*
Y07288D01*
X13477Y06044D02*
X13488D01*
X13483Y06038D02*
Y0605D01*
X12914Y05905D02*
X12925D01*
X1292Y05899D02*
Y0591D01*
X16354Y06688D02*
X16365D01*
X1636Y06683D02*
Y06694D01*
X16354Y05914D02*
X16365D01*
X1636Y05908D02*
Y0592D01*
X16015Y08158D02*
X16026D01*
X16021Y08152D02*
Y08163D01*
X15875Y06818D02*
X15887D01*
X15881Y06812D02*
Y06824D01*
X1096Y08281D02*
X10971D01*
X10966Y08275D02*
Y08286D01*
X10383Y0812D02*
X10394D01*
X10389Y08114D02*
Y08125D01*
X0805Y08151D02*
X08062D01*
X08056Y08145D02*
Y08157D01*
X04625Y06868D02*
X04636D01*
X04631Y06862D02*
Y06873D01*
X05676Y05433D02*
X05687D01*
X05682Y05427D02*
Y05438D01*
X13975Y05705D02*
X13986D01*
X13981Y05699D02*
Y0571D01*
X15761Y0674D02*
X15772D01*
X15767Y06734D02*
Y06746D01*
X08334Y05368D02*
X08346D01*
X0834Y05362D02*
Y05373D01*
X08222Y0552D02*
X08233D01*
X08228Y05514D02*
Y05526D01*
X09361Y05418D02*
X09372D01*
X09367Y05412D02*
Y05423D01*
X08688Y05351D02*
X087D01*
X08694Y05345D02*
Y05357D01*
X0906Y0546D02*
X09071D01*
X09066Y05454D02*
Y05465D01*
X08748Y0546D02*
X08759D01*
X08753Y05454D02*
Y05465D01*
X08969Y05308D02*
X0898D01*
X08975Y05302D02*
Y05313D01*
X08822Y05351D02*
X08833D01*
X08828Y05345D02*
Y05356D01*
X06426Y08325D02*
X06437D01*
X06432Y08319D02*
Y0833D01*
X06307Y07732D02*
X06318D01*
X06313Y07726D02*
Y07737D01*
X11197Y06668D02*
X11208D01*
X11203Y06662D02*
Y06673D01*
X10888Y06977D02*
X10899D01*
X10894Y06971D02*
Y06982D01*
X05648Y06977D02*
X05659D01*
X05654Y06971D02*
Y06982D01*
X04694Y0793D02*
X04705D01*
X047Y07924D02*
Y07935D01*
X04734Y0668D02*
X04745D01*
X0474Y06674D02*
Y06685D01*
X05947Y07413D02*
X05958D01*
X05953Y07407D02*
Y07418D01*
X05472Y07527D02*
X05484D01*
X05478Y07521D02*
Y07532D01*
X11301Y05431D02*
X11313D01*
X11307Y05425D02*
Y05436D01*
X09574Y07385D02*
X09585D01*
X0958Y07379D02*
Y0739D01*
X09536Y05562D02*
X09547D01*
X09542Y05556D02*
Y05567D01*
X09349Y06173D02*
X0936D01*
X09355Y06167D02*
Y06178D01*
X11057Y05711D02*
X11068D01*
X11063Y05705D02*
Y05717D01*
X10845Y05611D02*
X10856D01*
X10851Y05605D02*
Y05616D01*
X05225Y07179D02*
X05236D01*
X05231Y07173D02*
Y07184D01*
X05384Y07138D02*
X05395D01*
X0539Y07132D02*
Y07143D01*
X13948Y05959D02*
X13959D01*
X13954Y05953D02*
Y05964D01*
X05407Y07058D02*
X05418D01*
X05413Y07052D02*
Y07063D01*
X09052Y05853D02*
X09063D01*
X09058Y05847D02*
Y05858D01*
X08033Y06004D02*
X08044D01*
X08039Y05998D02*
Y06009D01*
X05437Y05848D02*
X05448D01*
X05443Y05842D02*
Y05853D01*
X13146Y07315D02*
X13158D01*
X13152Y07309D02*
Y07321D01*
X13146Y07416D02*
X13158D01*
X13152Y0741D02*
Y07421D01*
X06034Y07339D02*
X06045D01*
X0604Y07333D02*
Y07344D01*
X05535Y07242D02*
X05547D01*
X05541Y07236D02*
Y07247D01*
X11194Y05434D02*
X11205D01*
X112Y05428D02*
Y05439D01*
X10629Y05424D02*
X1064D01*
X10635Y05418D02*
Y05429D01*
X1101Y05452D02*
X11021D01*
X11016Y05446D02*
Y05457D01*
X10744Y05418D02*
X10755D01*
X1075Y05412D02*
Y05423D01*
X0531Y08731D02*
X05321D01*
X05316Y08725D02*
Y08736D01*
X05433Y0708D02*
X05444D01*
X05439Y07074D02*
Y07085D01*
X10798Y081D02*
X10809D01*
X10804Y08094D02*
Y08105D01*
X05496Y06689D02*
X05507D01*
X05502Y06683D02*
Y06694D01*
X12735Y05864D02*
X12746D01*
X12741Y05858D02*
Y05869D01*
X10713Y05856D02*
X10724D01*
X10719Y0585D02*
Y05861D01*
X06443Y0566D02*
X06454D01*
X06449Y05654D02*
Y05665D01*
X06428Y06873D02*
X06439D01*
X06434Y06867D02*
Y06878D01*
X06333Y06196D02*
X06344D01*
X06339Y0619D02*
Y06201D01*
X06257Y05638D02*
X06268D01*
X06263Y05632D02*
Y05643D01*
X10274Y05503D02*
X10285D01*
X1028Y05497D02*
Y05508D01*
X10061Y05684D02*
X10072D01*
X10067Y05678D02*
Y05689D01*
X10368Y05503D02*
X1038D01*
X10374Y05497D02*
Y05508D01*
X10221Y05355D02*
X10232D01*
X10227Y05349D02*
Y05361D01*
X08866Y05383D02*
X08877D01*
X08872Y05377D02*
Y05388D01*
X1127Y05865D02*
X11281D01*
X11276Y05859D02*
Y0587D01*
X10688Y0812D02*
X10699D01*
X10694Y08114D02*
Y08126D01*
X07328Y07028D02*
X07339D01*
X07334Y07022D02*
Y07033D01*
X09416Y07379D02*
X09427D01*
X09422Y07373D02*
Y07384D01*
X05771Y07502D02*
X05783D01*
X05777Y07497D02*
Y07508D01*
X05782Y06744D02*
X05793D01*
X05788Y06738D02*
Y06749D01*
X11799Y06758D02*
X1181D01*
X11805Y06752D02*
Y06763D01*
X10192Y08022D02*
X10204D01*
X10198Y08016D02*
Y08028D01*
X10207Y07312D02*
X10218D01*
X10213Y07306D02*
Y07317D01*
X11738Y06977D02*
X11749D01*
X11744Y06971D02*
Y06983D01*
X11738Y07466D02*
X11749D01*
X11744Y0746D02*
Y07471D01*
X06441Y05883D02*
X06452D01*
X06447Y05877D02*
Y05888D01*
X06515Y08171D02*
X06526D01*
X0652Y08165D02*
Y08177D01*
X06232Y08165D02*
X06244D01*
X06238Y0816D02*
Y08171D01*
X06232Y07483D02*
X06244D01*
X06238Y07477D02*
Y07489D01*
X15788Y0845D02*
X158D01*
X15794Y08444D02*
Y08456D01*
X10724Y06711D02*
X10735D01*
X1073Y06705D02*
Y06717D01*
X06527Y05958D02*
X06538D01*
X06533Y05952D02*
Y05963D01*
X11116Y0746D02*
X11127D01*
X11122Y07454D02*
Y07465D01*
X11223Y05532D02*
X11235D01*
X11229Y05526D02*
Y05538D01*
X1032Y07427D02*
X10332D01*
X10326Y07421D02*
Y07433D01*
X10193Y08005D02*
X10204D01*
X10199Y07999D02*
Y08011D01*
X10207Y07314D02*
X10218D01*
X10213Y07308D02*
Y07319D01*
X10347Y08225D02*
X10358D01*
X10352Y08219D02*
Y0823D01*
X10806Y05307D02*
X10817D01*
X10812Y05301D02*
Y05313D01*
X08275Y05751D02*
X08287D01*
X08281Y05745D02*
Y05756D01*
X0945Y08151D02*
X09461D01*
X09456Y08145D02*
Y08157D01*
X11415Y07369D02*
X11426D01*
X11421Y07363D02*
Y07374D01*
X10855Y06091D02*
X10866D01*
X10861Y06085D02*
Y06096D01*
X09678Y05945D02*
X09689D01*
X09684Y05939D02*
Y0595D01*
X08728Y05635D02*
X08739D01*
X08734Y05629D02*
Y05641D01*
X0657Y08133D02*
X06581D01*
X06576Y08127D02*
Y08139D01*
X06552Y07727D02*
X06563D01*
X06558Y07721D02*
Y07732D01*
X1571Y06223D02*
X15721D01*
X15716Y06217D02*
Y06228D01*
X15825Y06338D02*
X15837D01*
X15831Y06332D02*
Y06344D01*
X15856Y06742D02*
X15867D01*
X15862Y06736D02*
Y06747D01*
X1571Y05557D02*
X15721D01*
X15716Y05551D02*
Y05562D01*
X06333Y06196D02*
X06344D01*
X06338Y0619D02*
Y06201D01*
X13948Y06493D02*
X13959D01*
X13954Y06487D02*
Y06498D01*
X05217Y07355D02*
X05228D01*
X05223Y07349D02*
Y0736D01*
X10468Y08065D02*
X1048D01*
X10474Y08059D02*
Y08071D01*
X0544Y07125D02*
X05452D01*
X05446Y07119D02*
Y07131D01*
X05523Y07134D02*
X05535D01*
X05529Y07128D02*
Y07139D01*
X05499Y07238D02*
X0551D01*
X05505Y07232D02*
Y07243D01*
X05476Y07137D02*
X05487D01*
X05482Y07131D02*
Y07143D01*
X15284Y08767D02*
X15296D01*
X1529Y08761D02*
Y08773D01*
X09492Y05477D02*
X09504D01*
X09498Y05471D02*
Y05483D01*
X04625Y08227D02*
X04636D01*
X04631Y08221D02*
Y08232D01*
X0818Y08281D02*
X08192D01*
X08186Y08275D02*
Y08287D01*
X0945Y08281D02*
X09461D01*
X09456Y08275D02*
Y08287D01*
X11568Y05816D02*
X1158D01*
X11574Y0581D02*
Y05821D01*
X13379Y05873D02*
X1339D01*
X13385Y05867D02*
Y05878D01*
X04626Y06391D02*
X04637D01*
X04632Y06385D02*
Y06396D01*
X06697Y08339D02*
X06709D01*
X06703Y08333D02*
Y08345D01*
X11241Y05973D02*
X11253D01*
X11247Y05967D02*
Y05979D01*
X05333Y08095D02*
X05344D01*
X05339Y08089D02*
Y081D01*
X05377Y08013D02*
X05389D01*
X05383Y08007D02*
Y08019D01*
X10315Y08316D02*
X10327D01*
X10321Y08311D02*
Y08322D01*
X11498Y05554D02*
X11509D01*
X11503Y05548D02*
Y0556D01*
X11649Y05679D02*
X11661D01*
X11655Y05673D02*
Y05685D01*
X09532Y07278D02*
X09544D01*
X09538Y07272D02*
Y07284D01*
X10495Y07463D02*
X10506D01*
X105Y07457D02*
Y07469D01*
X10434Y08239D02*
X10445D01*
X10439Y08233D02*
Y08245D01*
X10395Y08411D02*
X10407D01*
X10401Y08405D02*
Y08417D01*
X10052Y07909D02*
X10064D01*
X10058Y07903D02*
Y07915D01*
X07151Y08151D02*
X07163D01*
X07157Y08145D02*
Y08157D01*
X0939Y05424D02*
X09402D01*
X09396Y05418D02*
Y0543D01*
X1588Y08184D02*
X15892D01*
X15886Y08178D02*
Y0819D01*
X05636Y07696D02*
X05648D01*
X05642Y0769D02*
Y07702D01*
X08505Y08152D02*
X08517D01*
X08511Y08146D02*
Y08158D01*
X04717Y07501D02*
X04729D01*
X04723Y07496D02*
Y07507D01*
X05284Y07419D02*
X05296D01*
X0529Y07413D02*
Y07425D01*
X05173Y07448D02*
X05185D01*
X05179Y07442D02*
Y07454D01*
X05449Y07432D02*
X05461D01*
X05455Y07426D02*
Y07438D01*
X05556Y07432D02*
X05568D01*
X05562Y07426D02*
Y07438D01*
X09631Y08151D02*
X09643D01*
X09637Y08145D02*
Y08157D01*
X09443Y08366D02*
X09455D01*
X09449Y0836D02*
Y08372D01*
X09536Y08386D02*
X09548D01*
X09542Y0838D02*
Y08392D01*
X09795Y08148D02*
X09807D01*
X09801Y08142D02*
Y08154D01*
X13119Y07672D02*
X13131D01*
X13125Y07666D02*
Y07678D01*
X13118Y07526D02*
X1313D01*
X13124Y0752D02*
Y07532D01*
X13105Y07584D02*
X13117D01*
X13111Y07578D02*
Y0759D01*
M02*