%FSTAX23Y23*%
%MOIN*%
%SFA1B1*%

%IPPOS*%
%ADD143C,0.000500*%
%LNquadcube_65_pcb_mechanical_17-1*%
%LPD*%
G54D143*
X12727Y04122D02*
Y04073D01*
Y04097*
X1276*
Y04122*
Y04073*
X128Y04122D02*
X12784D01*
X12776Y04114*
Y04081*
X12784Y04073*
X128*
X12809Y04081*
Y04114*
X128Y04122*
X12825D02*
Y04073D01*
X12857*
X12906Y04122D02*
X12874D01*
Y04073*
X12906*
X12874Y04097D02*
X1289D01*
X12923Y04073D02*
X12939D01*
X12931*
Y04122*
X12923Y04114*
X12964Y04081D02*
X12972Y04073D01*
X12988*
X12996Y04081*
Y04114*
X12988Y04122*
X12972*
X12964Y04114*
Y04106*
X12972Y04097*
X12996*
X04226Y01479D02*
Y0143D01*
Y01455*
X04259*
Y01479*
Y0143*
X04299Y01479D02*
X04283D01*
X04275Y01471*
Y01438*
X04283Y0143*
X04299*
X04308Y01438*
Y01471*
X04299Y01479*
X04324D02*
Y0143D01*
X04357*
X04405Y01479D02*
X04373D01*
Y0143*
X04405*
X04373Y01455D02*
X04389D01*
X04454Y0143D02*
X04422D01*
X04454Y01463*
Y01471*
X04446Y01479*
X0443*
X04422Y01471*
X04471D02*
X04479Y01479D01*
X04495*
X04503Y01471*
Y01438*
X04495Y0143*
X04479*
X04471Y01438*
Y01471*
X05157Y01479D02*
Y0143D01*
Y01455*
X0519*
Y01479*
Y0143*
X0523Y01479D02*
X05214D01*
X05206Y01471*
Y01438*
X05214Y0143*
X0523*
X05239Y01438*
Y01471*
X0523Y01479*
X05255D02*
Y0143D01*
X05288*
X05337Y01479D02*
X05304D01*
Y0143*
X05337*
X05304Y01455D02*
X0532D01*
X05386Y0143D02*
X05353D01*
X05386Y01463*
Y01471*
X05377Y01479*
X05361*
X05353Y01471*
X05402Y0143D02*
X05418D01*
X0541*
Y01479*
X05402Y01471*
X02717Y00049D02*
Y0D01*
Y00024*
X0275*
Y00049*
Y0*
X0279Y00049D02*
X02774D01*
X02766Y00041*
Y00008*
X02774Y0*
X0279*
X02799Y00008*
Y00041*
X0279Y00049*
X02815D02*
Y0D01*
X02848*
X02897Y00049D02*
X02864D01*
Y0*
X02897*
X02864Y00024D02*
X0288D01*
X02946Y0D02*
X02913D01*
X02946Y00033*
Y00041*
X02937Y00049*
X02921*
X02913Y00041*
X02995Y0D02*
X02962D01*
X02995Y00033*
Y00041*
X02986Y00049*
X0297*
X02962Y00041*
X03632Y00049D02*
Y0D01*
Y00024*
X03665*
Y00049*
Y0*
X03706Y00049D02*
X0369D01*
X03681Y00041*
Y00008*
X0369Y0*
X03706*
X03714Y00008*
Y00041*
X03706Y00049*
X0373D02*
Y0D01*
X03763*
X03812Y00049D02*
X03779D01*
Y0*
X03812*
X03779Y00024D02*
X03796D01*
X03861Y0D02*
X03828D01*
X03861Y00033*
Y00041*
X03853Y00049*
X03836*
X03828Y00041*
X03877D02*
X03885Y00049D01*
X03902*
X0391Y00041*
Y00033*
X03902Y00024*
X03894*
X03902*
X0391Y00016*
Y00008*
X03902Y0*
X03885*
X03877Y00008*
X05148Y00049D02*
Y0D01*
Y00024*
X05181*
Y00049*
Y0*
X05221Y00049D02*
X05205D01*
X05197Y00041*
Y00008*
X05205Y0*
X05221*
X0523Y00008*
Y00041*
X05221Y00049*
X05246D02*
Y0D01*
X05279*
X05327Y00049D02*
X05295D01*
Y0*
X05327*
X05295Y00024D02*
X05311D01*
X05376Y0D02*
X05344D01*
X05376Y00033*
Y00041*
X05368Y00049*
X05352*
X05344Y00041*
X05417Y0D02*
Y00049D01*
X05393Y00024*
X05425*
X00522Y04122D02*
Y04073D01*
Y04097*
X00555*
Y04122*
Y04073*
X00596Y04122D02*
X00579D01*
X00571Y04114*
Y04081*
X00579Y04073*
X00596*
X00604Y04081*
Y04114*
X00596Y04122*
X0062D02*
Y04073D01*
X00653*
X00702Y04122D02*
X00669D01*
Y04073*
X00702*
X00669Y04097D02*
X00685D01*
X00718Y04073D02*
X00734D01*
X00726*
Y04122*
X00718Y04114*
X00759D02*
X00767Y04122D01*
X00783*
X00792Y04114*
Y04081*
X00783Y04073*
X00767*
X00759Y04081*
Y04114*
X02136Y04122D02*
Y04073D01*
Y04097*
X02169*
Y04122*
Y04073*
X0221Y04122D02*
X02193D01*
X02185Y04114*
Y04081*
X02193Y04073*
X0221*
X02218Y04081*
Y04114*
X0221Y04122*
X02234D02*
Y04073D01*
X02267*
X02316Y04122D02*
X02283D01*
Y04073*
X02316*
X02283Y04097D02*
X023D01*
X02332Y04073D02*
X02349D01*
X0234*
Y04122*
X02332Y04114*
X02373Y04073D02*
X02389D01*
X02381*
Y04122*
X02373Y04114*
X03632Y04122D02*
Y04073D01*
Y04097*
X03665*
Y04122*
Y04073*
X03706Y04122D02*
X0369D01*
X03681Y04114*
Y04081*
X0369Y04073*
X03706*
X03714Y04081*
Y04114*
X03706Y04122*
X0373D02*
Y04073D01*
X03763*
X03812Y04122D02*
X03779D01*
Y04073*
X03812*
X03779Y04097D02*
X03796D01*
X03828Y04073D02*
X03845D01*
X03836*
Y04122*
X03828Y04114*
X03902Y04073D02*
X03869D01*
X03902Y04106*
Y04114*
X03894Y04122*
X03877*
X03869Y04114*
X05125Y04122D02*
Y04073D01*
Y04097*
X05157*
Y04122*
Y04073*
X05198Y04122D02*
X05182D01*
X05173Y04114*
Y04081*
X05182Y04073*
X05198*
X05206Y04081*
Y04114*
X05198Y04122*
X05222D02*
Y04073D01*
X05255*
X05304Y04122D02*
X05271D01*
Y04073*
X05304*
X05271Y04097D02*
X05288D01*
X0532Y04073D02*
X05337D01*
X05329*
Y04122*
X0532Y04114*
X05361D02*
X05369Y04122D01*
X05386*
X05394Y04114*
Y04106*
X05386Y04097*
X05378*
X05386*
X05394Y04089*
Y04081*
X05386Y04073*
X05369*
X05361Y04081*
X06191Y04122D02*
Y04073D01*
Y04097*
X06224*
Y04122*
Y04073*
X06265Y04122D02*
X06249D01*
X0624Y04114*
Y04081*
X06249Y04073*
X06265*
X06273Y04081*
Y04114*
X06265Y04122*
X06289D02*
Y04073D01*
X06322*
X06371Y04122D02*
X06338D01*
Y04073*
X06371*
X06338Y04097D02*
X06355D01*
X06387Y04073D02*
X06404D01*
X06396*
Y04122*
X06387Y04114*
X06453Y04073D02*
Y04122D01*
X06428Y04097*
X06461*
X07058Y04122D02*
Y04073D01*
Y04097*
X0709*
Y04122*
Y04073*
X07131Y04122D02*
X07115D01*
X07107Y04114*
Y04081*
X07115Y04073*
X07131*
X07139Y04081*
Y04114*
X07131Y04122*
X07156D02*
Y04073D01*
X07188*
X07237Y04122D02*
X07205D01*
Y04073*
X07237*
X07205Y04097D02*
X07221D01*
X07254Y04073D02*
X0727D01*
X07262*
Y04122*
X07254Y04114*
X07327Y04122D02*
X07294D01*
Y04097*
X07311Y04106*
X07319*
X07327Y04097*
Y04081*
X07319Y04073*
X07302*
X07294Y04081*
X08125Y04122D02*
Y04073D01*
Y04097*
X08157*
Y04122*
Y04073*
X08198Y04122D02*
X08182D01*
X08173Y04114*
Y04081*
X08182Y04073*
X08198*
X08206Y04081*
Y04114*
X08198Y04122*
X08222D02*
Y04073D01*
X08255*
X08304Y04122D02*
X08271D01*
Y04073*
X08304*
X08271Y04097D02*
X08288D01*
X0832Y04073D02*
X08337D01*
X08329*
Y04122*
X0832Y04114*
X08394Y04122D02*
X08378Y04114D01*
X08361Y04097*
Y04081*
X08369Y04073*
X08386*
X08394Y04081*
Y04089*
X08386Y04097*
X08361*
X09617Y04122D02*
Y04073D01*
Y04097*
X09649*
Y04122*
Y04073*
X0969Y04122D02*
X09674D01*
X09666Y04114*
Y04081*
X09674Y04073*
X0969*
X09698Y04081*
Y04114*
X0969Y04122*
X09715D02*
Y04073D01*
X09747*
X09796Y04122D02*
X09764D01*
Y04073*
X09796*
X09764Y04097D02*
X0978D01*
X09813Y04073D02*
X09829D01*
X09821*
Y04122*
X09813Y04114*
X09853Y04122D02*
X09886D01*
Y04114*
X09853Y04081*
Y04073*
X11113Y04122D02*
Y04073D01*
Y04097*
X11145*
Y04122*
Y04073*
X11186Y04122D02*
X1117D01*
X11162Y04114*
Y04081*
X1117Y04073*
X11186*
X11194Y04081*
Y04114*
X11186Y04122*
X11211D02*
Y04073D01*
X11243*
X11292Y04122D02*
X1126D01*
Y04073*
X11292*
X1126Y04097D02*
X11276D01*
X11309Y04073D02*
X11325D01*
X11317*
Y04122*
X11309Y04114*
X11349D02*
X11358Y04122D01*
X11374*
X11382Y04114*
Y04106*
X11374Y04097*
X11382Y04089*
Y04081*
X11374Y04073*
X11358*
X11349Y04081*
Y04089*
X11358Y04097*
X11349Y04106*
Y04114*
X11358Y04097D02*
X11374D01*
X06625Y00049D02*
Y0D01*
Y00024*
X06657*
Y00049*
Y0*
X06698Y00049D02*
X06682D01*
X06673Y00041*
Y00008*
X06682Y0*
X06698*
X06706Y00008*
Y00041*
X06698Y00049*
X06722D02*
Y0D01*
X06755*
X06804Y00049D02*
X06771D01*
Y0*
X06804*
X06771Y00024D02*
X06788D01*
X06853Y0D02*
X0682D01*
X06853Y00033*
Y00041*
X06845Y00049*
X06829*
X0682Y00041*
X06902Y00049D02*
X06869D01*
Y00024*
X06886Y00033*
X06894*
X06902Y00024*
Y00008*
X06894Y0*
X06878*
X06869Y00008*
X08101Y00049D02*
Y0D01*
Y00024*
X08134*
Y00049*
Y0*
X08175Y00049D02*
X08158D01*
X0815Y00041*
Y00008*
X08158Y0*
X08175*
X08183Y00008*
Y00041*
X08175Y00049*
X08199D02*
Y0D01*
X08232*
X08281Y00049D02*
X08248D01*
Y0*
X08281*
X08248Y00024D02*
X08264D01*
X0833Y0D02*
X08297D01*
X0833Y00033*
Y00041*
X08322Y00049*
X08305*
X08297Y00041*
X08379Y00049D02*
X08362Y00041D01*
X08346Y00024*
Y00008*
X08354Y0*
X08371*
X08379Y00008*
Y00016*
X08371Y00024*
X08346*
X09617Y00049D02*
Y0D01*
Y00024*
X09649*
Y00049*
Y0*
X0969Y00049D02*
X09674D01*
X09666Y00041*
Y00008*
X09674Y0*
X0969*
X09698Y00008*
Y00041*
X0969Y00049*
X09715D02*
Y0D01*
X09747*
X09796Y00049D02*
X09764D01*
Y0*
X09796*
X09764Y00024D02*
X0978D01*
X09845Y0D02*
X09813D01*
X09845Y00033*
Y00041*
X09837Y00049*
X09821*
X09813Y00041*
X09862Y00049D02*
X09894D01*
Y00041*
X09862Y00008*
Y0*
X10532Y00049D02*
Y0D01*
Y00024*
X10565*
Y00049*
Y0*
X10605Y00049D02*
X10589D01*
X10581Y00041*
Y00008*
X10589Y0*
X10605*
X10614Y00008*
Y00041*
X10605Y00049*
X1063D02*
Y0D01*
X10663*
X10712Y00049D02*
X10679D01*
Y0*
X10712*
X10679Y00024D02*
X10695D01*
X10761Y0D02*
X10728D01*
X10761Y00033*
Y00041*
X10752Y00049*
X10736*
X10728Y00041*
X10777D02*
X10785Y00049D01*
X10801*
X1081Y00041*
Y00033*
X10801Y00024*
X1081Y00016*
Y00008*
X10801Y0*
X10785*
X10777Y00008*
Y00016*
X10785Y00024*
X10777Y00033*
Y00041*
X10785Y00024D02*
X10801D01*
X11796Y00049D02*
Y0D01*
Y00024*
X11828*
Y00049*
Y0*
X11869Y00049D02*
X11853D01*
X11845Y00041*
Y00008*
X11853Y0*
X11869*
X11877Y00008*
Y00041*
X11869Y00049*
X11894D02*
Y0D01*
X11926*
X11975Y00049D02*
X11943D01*
Y0*
X11975*
X11943Y00024D02*
X11959D01*
X12024Y0D02*
X11992D01*
X12024Y00033*
Y00041*
X12016Y00049*
X12*
X11992Y00041*
X12041Y00008D02*
X12049Y0D01*
X12065*
X12073Y00008*
Y00041*
X12065Y00049*
X12049*
X12041Y00041*
Y00033*
X12049Y00024*
X12073*
X12727Y00049D02*
Y0D01*
Y00024*
X1276*
Y00049*
Y0*
X128Y00049D02*
X12784D01*
X12776Y00041*
Y00008*
X12784Y0*
X128*
X12809Y00008*
Y00041*
X128Y00049*
X12825D02*
Y0D01*
X12857*
X12906Y00049D02*
X12874D01*
Y0*
X12906*
X12874Y00024D02*
X1289D01*
X12923Y00041D02*
X12931Y00049D01*
X12947*
X12955Y00041*
Y00033*
X12947Y00024*
X12939*
X12947*
X12955Y00016*
Y00008*
X12947Y0*
X12931*
X12923Y00008*
X12972Y00041D02*
X1298Y00049D01*
X12996*
X13004Y00041*
Y00008*
X12996Y0*
X1298*
X12972Y00008*
Y00041*
X00522Y02085D02*
Y02036D01*
Y02061*
X00555*
Y02085*
Y02036*
X00596Y02085D02*
X00579D01*
X00571Y02077*
Y02045*
X00579Y02036*
X00596*
X00604Y02045*
Y02077*
X00596Y02085*
X0062D02*
Y02036D01*
X00653*
X00702Y02085D02*
X00669D01*
Y02036*
X00702*
X00669Y02061D02*
X00685D01*
X00718Y02077D02*
X00726Y02085D01*
X00743*
X00751Y02077*
Y02069*
X00743Y02061*
X00751Y02053*
Y02045*
X00743Y02036*
X00726*
X00718Y02045*
Y02053*
X00726Y02061*
X00718Y02069*
Y02077*
X00726Y02061D02*
X00743D01*
X12727Y02085D02*
Y02036D01*
Y02061*
X1276*
Y02085*
Y02036*
X128Y02085D02*
X12784D01*
X12776Y02077*
Y02045*
X12784Y02036*
X128*
X12809Y02045*
Y02077*
X128Y02085*
X12825D02*
Y02036D01*
X12857*
X12906Y02085D02*
X12874D01*
Y02036*
X12906*
X12874Y02061D02*
X1289D01*
X12923Y02045D02*
X12931Y02036D01*
X12947*
X12955Y02045*
Y02077*
X12947Y02085*
X12931*
X12923Y02077*
Y02069*
X12931Y02061*
X12955*
X01933Y01961D02*
X01884D01*
X01908*
Y01929*
X01933*
X01884*
X01933Y01888D02*
Y01904D01*
X01924Y01912*
X01892*
X01884Y01904*
Y01888*
X01892Y0188*
X01924*
X01933Y01888*
Y01863D02*
X01884D01*
Y01831*
X01933Y01782D02*
Y01815D01*
X01884*
Y01782*
X01908Y01815D02*
Y01798D01*
X01884Y01766D02*
Y01749D01*
Y01757*
X01933*
X01924Y01766*
X03876Y01961D02*
X03925D01*
X039*
Y01994*
X03876*
X03925*
X03876Y02035D02*
Y02019D01*
X03884Y0201*
X03916*
X03925Y02019*
Y02035*
X03916Y02043*
X03884*
X03876Y02035*
Y02059D02*
X03925D01*
Y02092*
X03876Y02141D02*
Y02108D01*
X03925*
Y02141*
X039Y02108D02*
Y02125D01*
X03925Y0219D02*
Y02157D01*
X03892Y0219*
X03884*
X03876Y02182*
Y02166*
X03884Y02157*
X05376Y01961D02*
X05425D01*
X054*
Y01994*
X05376*
X05425*
X05376Y02035D02*
Y02019D01*
X05384Y0201*
X05416*
X05425Y02019*
Y02035*
X05416Y02043*
X05384*
X05376Y02035*
Y02059D02*
X05425D01*
Y02092*
X05376Y02141D02*
Y02108D01*
X05425*
Y02141*
X054Y02108D02*
Y02125D01*
X05384Y02157D02*
X05376Y02166D01*
Y02182*
X05384Y0219*
X05392*
X054Y02182*
Y02174*
Y02182*
X05408Y0219*
X05416*
X05425Y02182*
Y02166*
X05416Y02157*
X06876Y01961D02*
X06925D01*
X069*
Y01994*
X06876*
X06925*
X06876Y02035D02*
Y02019D01*
X06884Y0201*
X06916*
X06925Y02019*
Y02035*
X06916Y02043*
X06884*
X06876Y02035*
Y02059D02*
X06925D01*
Y02092*
X06876Y02141D02*
Y02108D01*
X06925*
Y02141*
X069Y02108D02*
Y02125D01*
X06925Y02182D02*
X06876D01*
X069Y02157*
Y0219*
X08376Y01961D02*
X08425D01*
X084*
Y01994*
X08376*
X08425*
X08376Y02035D02*
Y02019D01*
X08384Y0201*
X08416*
X08425Y02019*
Y02035*
X08416Y02043*
X08384*
X08376Y02035*
Y02059D02*
X08425D01*
Y02092*
X08376Y02141D02*
Y02108D01*
X08425*
Y02141*
X084Y02108D02*
Y02125D01*
X08376Y0219D02*
Y02157D01*
X084*
X08392Y02174*
Y02182*
X084Y0219*
X08416*
X08425Y02182*
Y02166*
X08416Y02157*
X09876Y01961D02*
X09925D01*
X099*
Y01994*
X09876*
X09925*
X09876Y02035D02*
Y02019D01*
X09884Y0201*
X09916*
X09925Y02019*
Y02035*
X09916Y02043*
X09884*
X09876Y02035*
Y02059D02*
X09925D01*
Y02092*
X09876Y02141D02*
Y02108D01*
X09925*
Y02141*
X099Y02108D02*
Y02125D01*
X09876Y0219D02*
X09884Y02174D01*
X099Y02157*
X09916*
X09925Y02166*
Y02182*
X09916Y0219*
X09908*
X099Y02182*
Y02157*
X11316Y01961D02*
X11365D01*
X11341*
Y01994*
X11316*
X11365*
X11316Y02035D02*
Y02019D01*
X11325Y0201*
X11357*
X11365Y02019*
Y02035*
X11357Y02043*
X11325*
X11316Y02035*
Y02059D02*
X11365D01*
Y02092*
X11316Y02141D02*
Y02108D01*
X11365*
Y02141*
X11341Y02108D02*
Y02125D01*
X11316Y02157D02*
Y0219D01*
X11325*
X11357Y02157*
X11365*
M02*