%FSTAX23Y23*%
%MOIN*%
%SFA1B1*%

%IPPOS*%
%ADD18C,0.010000*%
%ADD145C,0.007870*%
%LNquadcube_65_pcb_mechanical_31-1*%
%LPD*%
G54D18*
X08528Y00936D02*
X08658D01*
X08693Y00901*
Y00771D02*
Y00901D01*
X08658Y00736D02*
X08693Y00771D01*
X08528Y00736D02*
X08658D01*
X08493Y00771D02*
X08528Y00736D01*
X08493Y00771D02*
Y00901D01*
X08528Y00936*
X10403Y01686D02*
X10533D01*
X10568Y01651*
Y01521D02*
Y01651D01*
X10533Y01486D02*
X10568Y01521D01*
X10403Y01486D02*
X10533D01*
X10368Y01521D02*
X10403Y01486D01*
X10368Y01521D02*
Y01651D01*
X10403Y01686*
X08435Y00936D02*
X08565D01*
X086Y00901*
Y00771D02*
Y00901D01*
X08565Y00736D02*
X086Y00771D01*
X08435Y00736D02*
X08565D01*
X084Y00771D02*
X08435Y00736D01*
X084Y00771D02*
Y00901D01*
X08435Y00936*
X05903D02*
X06033D01*
X06068Y00901*
Y00771D02*
Y00901D01*
X06033Y00736D02*
X06068Y00771D01*
X05903Y00736D02*
X06033D01*
X05868Y00771D02*
X05903Y00736D01*
X05868Y00771D02*
Y00901D01*
X05903Y00936*
X04638Y02367D02*
X04768D01*
X04803Y02332*
Y02202D02*
Y02332D01*
X04768Y02167D02*
X04803Y02202D01*
X04638Y02167D02*
X04768D01*
X04603Y02202D02*
X04638Y02167D01*
X04603Y02202D02*
Y02332D01*
X04638Y02367*
X05388D02*
X05518D01*
X05553Y02332*
Y02202D02*
Y02332D01*
X05518Y02167D02*
X05553Y02202D01*
X05388Y02167D02*
X05518D01*
X05353Y02202D02*
X05388Y02167D01*
X05353Y02202D02*
Y02332D01*
X05388Y02367*
X01028Y01686D02*
X01158D01*
X01193Y01651*
Y01521D02*
Y01651D01*
X01158Y01486D02*
X01193Y01521D01*
X01028Y01486D02*
X01158D01*
X00993Y01521D02*
X01028Y01486D01*
X00993Y01521D02*
Y01651D01*
X01028Y01686*
X05435Y00936D02*
X05565D01*
X056Y00901*
Y00771D02*
Y00901D01*
X05565Y00736D02*
X056Y00771D01*
X05435Y00736D02*
X05565D01*
X054Y00771D02*
X05435Y00736D01*
X054Y00771D02*
Y00901D01*
X05435Y00936*
X05716D02*
X05846D01*
X05881Y00901*
Y00771D02*
Y00901D01*
X05846Y00736D02*
X05881Y00771D01*
X05716Y00736D02*
X05846D01*
X05681Y00771D02*
X05716Y00736D01*
X05681Y00771D02*
Y00901D01*
X05716Y00936*
X02247D02*
X02377D01*
X02412Y00901*
Y00771D02*
Y00901D01*
X02377Y00736D02*
X02412Y00771D01*
X02247Y00736D02*
X02377D01*
X02212Y00771D02*
X02247Y00736D01*
X02212Y00771D02*
Y00901D01*
X02247Y00936*
X02435D02*
X02565D01*
X026Y00901*
Y00771D02*
Y00901D01*
X02565Y00736D02*
X026Y00771D01*
X02435Y00736D02*
X02565D01*
X024Y00771D02*
X02435Y00736D01*
X024Y00771D02*
Y00901D01*
X02435Y00936*
X09747D02*
X09877D01*
X09912Y00901*
Y00771D02*
Y00901D01*
X09877Y00736D02*
X09912Y00771D01*
X09747Y00736D02*
X09877D01*
X09712Y00771D02*
X09747Y00736D01*
X09712Y00771D02*
Y00901D01*
X09747Y00936*
X01216Y02436D02*
X01346D01*
X01381Y02401*
Y02271D02*
Y02401D01*
X01346Y02236D02*
X01381Y02271D01*
X01216Y02236D02*
X01346D01*
X01181Y02271D02*
X01216Y02236D01*
X01181Y02271D02*
Y02401D01*
X01216Y02436*
X09935Y00936D02*
X10065D01*
X101Y00901*
Y00771D02*
Y00901D01*
X10065Y00736D02*
X101Y00771D01*
X09935Y00736D02*
X10065D01*
X099Y00771D02*
X09935Y00736D01*
X099Y00771D02*
Y00901D01*
X09935Y00936*
X09185D02*
X09315D01*
X0935Y00901*
Y00771D02*
Y00901D01*
X09315Y00736D02*
X0935Y00771D01*
X09185Y00736D02*
X09315D01*
X0915Y00771D02*
X09185Y00736D01*
X0915Y00771D02*
Y00901D01*
X09185Y00936*
X06185D02*
X06315D01*
X0635Y00901*
Y00771D02*
Y00901D01*
X06315Y00736D02*
X0635Y00771D01*
X06185Y00736D02*
X06315D01*
X0615Y00771D02*
X06185Y00736D01*
X0615Y00771D02*
Y00901D01*
X06185Y00936*
G54D145*
X01396Y01686D02*
X01541D01*
X01568Y01659*
Y01514D02*
Y01659D01*
X01541Y01486D02*
X01568Y01514D01*
X01396Y01486D02*
X01541D01*
X01368Y01514D02*
X01396Y01486D01*
X01368Y01514D02*
Y01659D01*
X01396Y01686*
X11802Y03936D02*
X11947D01*
X11975Y03909*
Y03764D02*
Y03909D01*
X11947Y03736D02*
X11975Y03764D01*
X11802Y03736D02*
X11947D01*
X11775Y03764D02*
X11802Y03736D01*
X11775Y03764D02*
Y03909D01*
X11802Y03936*
X11505Y02639D02*
Y02784D01*
X11477Y02611D02*
X11505Y02639D01*
X11332Y02611D02*
X11477D01*
X11305Y02639D02*
X11332Y02611D01*
X11305Y02639D02*
Y02784D01*
X11332Y02811*
X11477*
X11505Y02784*
X11052Y03936D02*
X11197D01*
X11225Y03909*
Y03764D02*
Y03909D01*
X11197Y03736D02*
X11225Y03764D01*
X11052Y03736D02*
X11197D01*
X11025Y03764D02*
X11052Y03736D01*
X11025Y03764D02*
Y03909D01*
X11052Y03936*
X08615Y00936D02*
X08759D01*
X08787Y00909*
Y00764D02*
Y00909D01*
X08759Y00736D02*
X08787Y00764D01*
X08615Y00736D02*
X08759D01*
X08587Y00764D02*
X08615Y00736D01*
X08587Y00764D02*
Y00909D01*
X08615Y00936*
X05521D02*
X05666D01*
X05693Y00909*
Y00764D02*
Y00909D01*
X05666Y00736D02*
X05693Y00764D01*
X05521Y00736D02*
X05666D01*
X05493Y00764D02*
X05521Y00736D01*
X05493Y00764D02*
Y00909D01*
X05521Y00936*
X04818Y02367D02*
X04963D01*
X04991Y02339*
Y02194D02*
Y02339D01*
X04963Y02167D02*
X04991Y02194D01*
X04818Y02167D02*
X04963D01*
X04791Y02194D02*
X04818Y02167D01*
X04791Y02194D02*
Y02339D01*
X04818Y02367*
X02052Y00936D02*
X02197D01*
X02225Y00909*
Y00764D02*
Y00909D01*
X02197Y00736D02*
X02225Y00764D01*
X02052Y00736D02*
X02197D01*
X02025Y00764D02*
X02052Y00736D01*
X02025Y00764D02*
Y00909D01*
X02052Y00936*
X09458D02*
X09603D01*
X09631Y00909*
Y00764D02*
Y00909D01*
X09603Y00736D02*
X09631Y00764D01*
X09458Y00736D02*
X09603D01*
X09431Y00764D02*
X09458Y00736D01*
X09431Y00764D02*
Y00909D01*
X09458Y00936*
X11333D02*
X11478D01*
X11506Y00909*
Y00764D02*
Y00909D01*
X11478Y00736D02*
X11506Y00764D01*
X11333Y00736D02*
X11478D01*
X11306Y00764D02*
X11333Y00736D01*
X11306Y00764D02*
Y00909D01*
X11333Y00936*
X10771Y01686D02*
X10916D01*
X10943Y01659*
Y01514D02*
Y01659D01*
X10916Y01486D02*
X10943Y01514D01*
X10771Y01486D02*
X10916D01*
X10743Y01514D02*
X10771Y01486D01*
X10743Y01514D02*
Y01659D01*
X10771Y01686*
X04396Y00936D02*
X04541D01*
X04568Y00909*
Y00764D02*
Y00909D01*
X04541Y00736D02*
X04568Y00764D01*
X04396Y00736D02*
X04541D01*
X04368Y00764D02*
X04396Y00736D01*
X04368Y00764D02*
Y00909D01*
X04396Y00936*
X04208D02*
X04353D01*
X04381Y00909*
Y00764D02*
Y00909D01*
X04353Y00736D02*
X04381Y00764D01*
X04208Y00736D02*
X04353D01*
X04181Y00764D02*
X04208Y00736D01*
X04181Y00764D02*
Y00909D01*
X04208Y00936*
X07021D02*
X07166D01*
X07193Y00909*
Y00764D02*
Y00909D01*
X07166Y00736D02*
X07193Y00764D01*
X07021Y00736D02*
X07166D01*
X06993Y00764D02*
X07021Y00736D01*
X06993Y00764D02*
Y00909D01*
X07021Y00936*
X07208D02*
X07353D01*
X07381Y00909*
Y00764D02*
Y00909D01*
X07353Y00736D02*
X07381Y00764D01*
X07208Y00736D02*
X07353D01*
X07181Y00764D02*
X07208Y00736D01*
X07181Y00764D02*
Y00909D01*
X07208Y00936*
X10396D02*
X10541D01*
X10568Y00909*
Y00764D02*
Y00909D01*
X10541Y00736D02*
X10568Y00764D01*
X10396Y00736D02*
X10541D01*
X10368Y00764D02*
X10396Y00736D01*
X10368Y00764D02*
Y00909D01*
X10396Y00936*
X1124Y03186D02*
X11384D01*
X11412Y03159*
Y03014D02*
Y03159D01*
X11384Y02986D02*
X11412Y03014D01*
X1124Y02986D02*
X11384D01*
X11212Y03014D02*
X1124Y02986D01*
X11212Y03014D02*
Y03159D01*
X1124Y03186*
X1049Y02436D02*
X10634D01*
X10662Y02409*
Y02264D02*
Y02409D01*
X10634Y02236D02*
X10662Y02264D01*
X1049Y02236D02*
X10634D01*
X10462Y02264D02*
X1049Y02236D01*
X10462Y02264D02*
Y02409D01*
X1049Y02436*
X10958D02*
X11103D01*
X11131Y02409*
Y02264D02*
Y02409D01*
X11103Y02236D02*
X11131Y02264D01*
X10958Y02236D02*
X11103D01*
X10931Y02264D02*
X10958Y02236D01*
X10931Y02264D02*
Y02409D01*
X10958Y02436*
X10302Y00936D02*
X10447D01*
X10475Y00909*
Y00764D02*
Y00909D01*
X10447Y00736D02*
X10475Y00764D01*
X10302Y00736D02*
X10447D01*
X10275Y00764D02*
X10302Y00736D01*
X10275Y00764D02*
Y00909D01*
X10302Y00936*
X0299D02*
X03134D01*
X03162Y00909*
Y00764D02*
Y00909D01*
X03134Y00736D02*
X03162Y00764D01*
X0299Y00736D02*
X03134D01*
X02962Y00764D02*
X0299Y00736D01*
X02962Y00764D02*
Y00909D01*
X0299Y00936*
M02*