%FSTAX23Y23*%
%MOIN*%
%SFA1B1*%

%IPPOS*%
%ADD146C,0.003937*%
%ADD147C,0.001969*%
%LNquadcube_65_pcb_mechanical_15-1*%
%LPD*%
G54D146*
X1195Y06782D02*
Y06825D01*
X12045Y06782D02*
Y06825D01*
X1195Y06782D02*
X12045D01*
X1195Y06825D02*
X12045D01*
X11979Y06804D02*
X12016D01*
X11998Y06785D02*
Y06822D01*
X11329Y07415D02*
X11373D01*
X11329Y07509D02*
X11373D01*
Y07415D02*
Y07509D01*
X11329Y07415D02*
Y07509D01*
X11351Y07443D02*
Y07481D01*
X11332Y07462D02*
X1137D01*
X14625Y07231D02*
Y0727D01*
X14606Y0725D02*
X14645D01*
X14658Y065D02*
Y0654D01*
X14638Y0652D02*
X14678D01*
X14165Y05829D02*
X14204D01*
X14185Y0581D02*
Y05849D01*
X12747Y05726D02*
Y05765D01*
X12727Y05746D02*
X12766D01*
X06993Y05483D02*
X0703D01*
X07011Y05464D02*
Y05501D01*
X0699Y05436D02*
Y0553D01*
X07033Y05436D02*
Y0553D01*
X0699D02*
X07033D01*
X0699Y05436D02*
X07033D01*
X06245Y05476D02*
X06282D01*
X06263Y05457D02*
Y05495D01*
X06242Y05429D02*
Y05523D01*
X06285Y05429D02*
Y05523D01*
X06242D02*
X06285D01*
X06242Y05429D02*
X06285D01*
X05732Y05417D02*
X05769D01*
X0575Y05398D02*
Y05436D01*
X05729Y0537D02*
Y05464D01*
X05772Y0537D02*
Y05464D01*
X05729D02*
X05772D01*
X05729Y0537D02*
X05772D01*
X14886Y05731D02*
Y05771D01*
X14866Y05751D02*
X14906D01*
X09833Y05758D02*
Y05798D01*
X09813Y05778D02*
X09853D01*
X07311Y05731D02*
Y0577D01*
X07291Y0575D02*
X0733D01*
X11013Y05534D02*
X11057D01*
X11013Y05628D02*
X11057D01*
Y05534D02*
Y05628D01*
X11013Y05534D02*
Y05628D01*
X11035Y05562D02*
Y056D01*
X11016Y05581D02*
X11054D01*
X11633Y0566D02*
X11677D01*
X11633Y05565D02*
X11677D01*
X11633D02*
Y0566D01*
X11677Y05565D02*
Y0566D01*
X11655Y05594D02*
Y05631D01*
X11636Y05613D02*
X11674D01*
X10663Y07243D02*
X10706D01*
X10663Y07337D02*
X10706D01*
Y07243D02*
Y07337D01*
X10663Y07243D02*
Y07337D01*
X10685Y07271D02*
Y07309D01*
X10666Y0729D02*
X10703D01*
X06805Y08135D02*
X06848D01*
X06805Y0823D02*
X06848D01*
Y08135D02*
Y0823D01*
X06805Y08135D02*
Y0823D01*
X06826Y08164D02*
Y08201D01*
X06808Y08183D02*
X06845D01*
X10379Y08275D02*
X10423D01*
X10379Y08181D02*
X10423D01*
X10379D02*
Y08275D01*
X10423Y08181D02*
Y08275D01*
X10401Y08209D02*
Y08247D01*
X10382Y08228D02*
X1042D01*
X10465Y05265D02*
X10508D01*
X10465Y0536D02*
X10508D01*
Y05265D02*
Y0536D01*
X10465Y05265D02*
Y0536D01*
X10487Y05294D02*
Y05331D01*
X10468Y05312D02*
X10505D01*
X1587Y07619D02*
X15913D01*
X1587Y07713D02*
X15913D01*
Y07619D02*
Y07713D01*
X1587Y07619D02*
Y07713D01*
X15891Y07647D02*
Y07685D01*
X15873Y07666D02*
X1591D01*
X15806Y07612D02*
Y07651D01*
X15786Y07631D02*
X15825D01*
X15697Y07612D02*
Y07651D01*
X15678Y07631D02*
X15717D01*
X14458Y08416D02*
X14496D01*
X14477Y08397D02*
Y08435D01*
X14455Y08369D02*
Y08463D01*
X14499Y08369D02*
Y08463D01*
X14455D02*
X14499D01*
X14455Y08369D02*
X14499D01*
X14821Y0882D02*
Y0886D01*
X14802Y0884D02*
X14841D01*
X15792Y06862D02*
Y06901D01*
X15772Y06881D02*
X15812D01*
X15694Y06862D02*
Y06901D01*
X15675Y06881D02*
X15714D01*
X07048Y05989D02*
X07091D01*
X07048Y05894D02*
X07091D01*
X07048D02*
Y05989D01*
X07091Y05894D02*
Y05989D01*
X07069Y05923D02*
Y0596D01*
X07051Y05941D02*
X07088D01*
X13462Y05989D02*
X13505D01*
X13462Y05894D02*
X13505D01*
X13462D02*
Y05989D01*
X13505Y05894D02*
Y05989D01*
X13484Y05923D02*
Y0596D01*
X13465Y05941D02*
X13502D01*
X05604Y07388D02*
Y07428D01*
X05584Y07408D02*
X05624D01*
X11338Y05565D02*
Y05605D01*
X11318Y05585D02*
X11358D01*
X10482Y08704D02*
Y08744D01*
X10462Y08724D02*
X10501D01*
X10311Y0531D02*
Y05349D01*
X10291Y05329D02*
X1033D01*
X09372Y05504D02*
Y05542D01*
X09353Y05523D02*
X0939D01*
X09324Y05545D02*
X09419D01*
X09324Y05501D02*
X09419D01*
Y05545*
X09324Y05501D02*
Y05545D01*
X10468Y05436D02*
X10505D01*
X10487Y05417D02*
Y05454D01*
X10508Y05388D02*
Y05483D01*
X10465Y05388D02*
Y05483D01*
Y05388D02*
X10508D01*
X10465Y05483D02*
X10508D01*
X09369Y05364D02*
Y05401D01*
X0935Y05382D02*
X09387D01*
X09321Y05404D02*
X09416D01*
X09321Y05361D02*
X09416D01*
Y05404*
X09321Y05361D02*
Y05404D01*
X04617Y06481D02*
Y0652D01*
X04597Y065D02*
X04636D01*
X04715Y06968D02*
X04754D01*
X04735Y06948D02*
Y06988D01*
X09584Y05942D02*
X09622D01*
X09603Y05924D02*
Y05961D01*
X09625Y05895D02*
Y0599D01*
X09581Y05895D02*
Y0599D01*
Y05895D02*
X09625D01*
X09581Y0599D02*
X09625D01*
X04687Y07518D02*
Y07562D01*
X04781Y07518D02*
Y07562D01*
X04687Y07518D02*
X04781D01*
X04687Y07562D02*
X04781D01*
X04715Y0754D02*
X04752D01*
X04734Y07521D02*
Y07559D01*
X04687Y07349D02*
Y07392D01*
X04782Y07349D02*
Y07392D01*
X04687Y07349D02*
X04782D01*
X04687Y07392D02*
X04782D01*
X04716Y07371D02*
X04753D01*
X04735Y07352D02*
Y07389D01*
X05572Y07063D02*
Y07107D01*
X05667Y07063D02*
Y07107D01*
X05572Y07063D02*
X05667D01*
X05572Y07107D02*
X05667D01*
X05601Y07085D02*
X05638D01*
X0562Y07066D02*
Y07104D01*
X05667Y07724D02*
Y07767D01*
X05572Y07724D02*
Y07767D01*
X05667*
X05572Y07724D02*
X05667D01*
X05601Y07746D02*
X05638D01*
X0562Y07727D02*
Y07764D01*
X05237Y07439D02*
X0528D01*
X05237Y07345D02*
X0528D01*
X05237D02*
Y07439D01*
X0528Y07345D02*
Y07439D01*
X05258Y07374D02*
Y07411D01*
X0524Y07392D02*
X05277D01*
X10809Y05989D02*
X10852D01*
X10809Y05894D02*
X10852D01*
X10809D02*
Y05989D01*
X10852Y05894D02*
Y05989D01*
X1083Y05923D02*
Y0596D01*
X10812Y05941D02*
X10849D01*
X04968Y08406D02*
X05011D01*
X04968Y08312D02*
X05011D01*
X04968D02*
Y08406D01*
X05011Y08312D02*
Y08406D01*
X0499Y0834D02*
Y08377D01*
X04971Y08359D02*
X05008D01*
X09457Y08406D02*
X095D01*
X09457Y08312D02*
X095D01*
X09457D02*
Y08406D01*
X095Y08312D02*
Y08406D01*
X09479Y0834D02*
Y08377D01*
X0946Y08359D02*
X09498D01*
X15963Y05989D02*
X16006D01*
X15963Y05894D02*
X16006D01*
X15963D02*
Y05989D01*
X16006Y05894D02*
Y05989D01*
X15985Y05923D02*
Y0596D01*
X15966Y05941D02*
X16003D01*
X10143Y07889D02*
Y07929D01*
X10124Y07909D02*
X10163D01*
X10064Y07854D02*
X10222D01*
X10064Y07964D02*
X10222D01*
X10064Y07854D02*
Y07964D01*
X10222Y07854D02*
Y07964D01*
X10437Y0731D02*
Y07353D01*
X10532Y0731D02*
Y07353D01*
X10437Y0731D02*
X10532D01*
X10437Y07353D02*
X10532D01*
X10466Y07331D02*
X10503D01*
X10485Y07312D02*
Y0735D01*
X0614Y07684D02*
X0618D01*
X0616Y07664D02*
Y07703D01*
X06091Y07607D02*
Y0776D01*
X06229Y07607D02*
Y0776D01*
X06091D02*
X06229D01*
X06091Y07607D02*
X06229D01*
X06384Y07684D02*
X06424D01*
X06404Y07664D02*
Y07703D01*
X06335Y07607D02*
Y0776D01*
X06473Y07607D02*
Y0776D01*
X06335D02*
X06473D01*
X06335Y07607D02*
X06473D01*
X09786Y07442D02*
Y07482D01*
X09766Y07462D02*
X09806D01*
X09709Y07531D02*
X09863D01*
X09709Y07393D02*
X09863D01*
Y07531*
X09709Y07393D02*
Y07531D01*
X04987Y0662D02*
Y06663D01*
X05081Y0662D02*
Y06663D01*
X04987Y0662D02*
X05081D01*
X04987Y06663D02*
X05081D01*
X05015Y06641D02*
X05053D01*
X05034Y06623D02*
Y0666D01*
X06259Y07559D02*
X06303D01*
X06259Y07464D02*
X06303D01*
X06259D02*
Y07559D01*
X06303Y07464D02*
Y07559D01*
X06281Y07493D02*
Y0753D01*
X06262Y07511D02*
X063D01*
X05373Y07713D02*
X05416D01*
X05373Y07808D02*
X05416D01*
Y07713D02*
Y07808D01*
X05373Y07713D02*
Y07808D01*
X05394Y07742D02*
Y07779D01*
X05375Y0776D02*
X05413D01*
X05296Y07713D02*
X05339D01*
X05296Y07808D02*
X05339D01*
Y07713D02*
Y07808D01*
X05296Y07713D02*
Y07808D01*
X05317Y07742D02*
Y07779D01*
X05299Y0776D02*
X05336D01*
X0494Y06946D02*
Y0699D01*
X04846Y06946D02*
Y0699D01*
X0494*
X04846Y06946D02*
X0494D01*
X04875Y06968D02*
X04912D01*
X04893Y06949D02*
Y06987D01*
X1586Y06869D02*
X15903D01*
X1586Y06963D02*
X15903D01*
Y06869D02*
Y06963D01*
X1586Y06869D02*
Y06963D01*
X15881Y06897D02*
Y06935D01*
X15863Y06916D02*
X159D01*
X10341Y07549D02*
X10384D01*
X10341Y07643D02*
X10384D01*
Y07549D02*
Y07643D01*
X10341Y07549D02*
Y07643D01*
X10363Y07577D02*
Y07615D01*
X10344Y07596D02*
X10381D01*
X13024Y07809D02*
Y07852D01*
X13119Y07809D02*
Y07852D01*
X13024Y07809D02*
X13119D01*
X13024Y07852D02*
X13119D01*
X13053Y0783D02*
X1309D01*
X13071Y07812D02*
Y07849D01*
X09515Y07402D02*
X09559D01*
X09515Y07308D02*
X09559D01*
X09515D02*
Y07402D01*
X09559Y07308D02*
Y07402D01*
X09537Y07336D02*
Y07374D01*
X09518Y07355D02*
X09556D01*
X13166Y07933D02*
Y07972D01*
X13146Y07952D02*
X13186D01*
X05639Y08138D02*
Y08178D01*
X0562Y08158D02*
X05659D01*
X10719Y05685D02*
Y05724D01*
X10699Y05704D02*
X10739D01*
X10482Y08336D02*
Y08375D01*
X10462Y08356D02*
X10501D01*
X11208Y07492D02*
X11248D01*
X11228Y07472D02*
Y07511D01*
X09577Y07454D02*
Y07494D01*
X09558Y07474D02*
X09597D01*
X09513Y07527D02*
X09641D01*
X09513Y07421D02*
X09641D01*
Y07527*
X09513Y07421D02*
Y07527D01*
X15167Y07231D02*
Y07271D01*
X15148Y07251D02*
X15187D01*
X1474Y06916D02*
X14777D01*
X14758Y06897D02*
Y06935D01*
X14737Y06869D02*
Y06963D01*
X1478Y06869D02*
Y06963D01*
X14737D02*
X1478D01*
X14737Y06869D02*
X1478D01*
X14317Y06975D02*
X14355D01*
X14336Y06956D02*
Y06994D01*
X14314Y06928D02*
Y07022D01*
X14358Y06928D02*
Y07022D01*
X14314D02*
X14358D01*
X14314Y06928D02*
X14358D01*
X14067Y0581D02*
Y05849D01*
X14048Y05829D02*
X14087D01*
X13742Y05475D02*
X13779D01*
X1376Y05456D02*
Y05494D01*
X13739Y05428D02*
Y05522D01*
X13782Y05428D02*
Y05522D01*
X13739D02*
X13782D01*
X13739Y05428D02*
X13782D01*
X13301Y0581D02*
Y05849D01*
X13281Y05829D02*
X1332D01*
X12958Y05416D02*
X12996D01*
X12977Y05397D02*
Y05435D01*
X12955Y05369D02*
Y05463D01*
X12999Y05369D02*
Y05463D01*
X12955D02*
X12999D01*
X12955Y05369D02*
X12999D01*
X06581Y05736D02*
Y05775D01*
X06562Y05755D02*
X06601D01*
X05578Y05747D02*
Y05786D01*
X05559Y05766D02*
X05598D01*
X04708Y05416D02*
X04746D01*
X04727Y05397D02*
Y05435D01*
X04705Y05369D02*
Y05463D01*
X04749Y05369D02*
Y05463D01*
X04705D02*
X04749D01*
X04705Y05369D02*
X04749D01*
X06074Y06481D02*
Y06521D01*
X06054Y06501D02*
X06093D01*
X05646Y06166D02*
X05683D01*
X05665Y06147D02*
Y06185D01*
X05643Y06119D02*
Y06213D01*
X05686Y06119D02*
Y06213D01*
X05643D02*
X05686D01*
X05643Y06119D02*
X05686D01*
X05246Y05746D02*
Y05785D01*
X05226Y05765D02*
X05265D01*
X05145Y07249D02*
Y07288D01*
X05125Y07268D02*
X05165D01*
X04802Y06166D02*
X0484D01*
X04821Y06147D02*
Y06185D01*
X04799Y06119D02*
Y06213D01*
X04843Y06119D02*
Y06213D01*
X04799D02*
X04843D01*
X04799Y06119D02*
X04843D01*
X05026Y06979D02*
X05063D01*
X05045Y0696D02*
Y06998D01*
X05023Y06932D02*
Y07026D01*
X05066Y06932D02*
Y07026D01*
X05023D02*
X05066D01*
X05023Y06932D02*
X05066D01*
X14458Y05416D02*
X14496D01*
X14477Y05397D02*
Y05435D01*
X14455Y05369D02*
Y05463D01*
X14499Y05369D02*
Y05463D01*
X14455D02*
X14499D01*
X14455Y05369D02*
X14499D01*
X15324Y05453D02*
X15362D01*
X15343Y05435D02*
Y05472D01*
X15321Y05406D02*
Y055D01*
X15365Y05406D02*
Y055D01*
X15321D02*
X15365D01*
X15321Y05406D02*
X15365D01*
X15636Y05731D02*
Y05771D01*
X15616Y05751D02*
X15656D01*
X15558Y06491D02*
Y0653D01*
X15538Y0651D02*
X15577D01*
X15208Y06166D02*
X15246D01*
X15227Y06147D02*
Y06185D01*
X15205Y06119D02*
Y06213D01*
X15249Y06119D02*
Y06213D01*
X15205D02*
X15249D01*
X15205Y06119D02*
X15249D01*
X14177Y06166D02*
X14215D01*
X14196Y06147D02*
Y06185D01*
X14174Y06119D02*
Y06213D01*
X14218Y06119D02*
Y06213D01*
X14174D02*
X14218D01*
X14174Y06119D02*
X14218D01*
X12208Y05416D02*
X12246D01*
X12227Y05397D02*
Y05435D01*
X12205Y05369D02*
Y05463D01*
X12249Y05369D02*
Y05463D01*
X12205D02*
X12249D01*
X12205Y05369D02*
X12249D01*
X09524Y0548D02*
X09562D01*
X09543Y05461D02*
Y05499D01*
X09521Y05433D02*
Y05527D01*
X09564Y05433D02*
Y05527D01*
X09521D02*
X09564D01*
X09521Y05433D02*
X09564D01*
X15369Y07982D02*
Y08021D01*
X15349Y08001D02*
X15388D01*
X1502Y07666D02*
X15057D01*
X15038Y07647D02*
Y07685D01*
X15017Y07619D02*
Y07713D01*
X1506Y07619D02*
Y07713D01*
X15017D02*
X1506D01*
X15017Y07619D02*
X1506D01*
X1596Y06166D02*
X15998D01*
X15979Y06147D02*
Y06185D01*
X15957Y06119D02*
Y06213D01*
X16Y06119D02*
Y06213D01*
X15957D02*
X16D01*
X15957Y06119D02*
X16D01*
X16348Y0654D02*
Y06579D01*
X16328Y0656D02*
X16368D01*
X15962Y05414D02*
X16D01*
X15981Y05395D02*
Y05433D01*
X15959Y05367D02*
Y05461D01*
X16002Y05367D02*
Y05461D01*
X15959D02*
X16002D01*
X15959Y05367D02*
X16002D01*
X1635Y05742D02*
Y05781D01*
X1633Y05761D02*
X1637D01*
X10229Y06481D02*
Y0652D01*
X10209Y065D02*
X10249D01*
X10145Y06166D02*
X10182D01*
X10163Y06147D02*
Y06185D01*
X10142Y06119D02*
Y06213D01*
X10185Y06119D02*
Y06213D01*
X10142D02*
X10185D01*
X10142Y06119D02*
X10185D01*
X09395Y06166D02*
X09432D01*
X09413Y06147D02*
Y06185D01*
X09392Y06119D02*
Y06213D01*
X09435Y06119D02*
Y06213D01*
X09392D02*
X09435D01*
X09392Y06119D02*
X09435D01*
X09822Y06481D02*
Y06521D01*
X09803Y06501D02*
X09842D01*
X06822Y06481D02*
Y06521D01*
X06803Y06501D02*
X06842D01*
X06395Y06166D02*
X06432D01*
X06413Y06147D02*
Y06185D01*
X06392Y06119D02*
Y06213D01*
X06435Y06119D02*
Y06213D01*
X06392D02*
X06435D01*
X06392Y06119D02*
X06435D01*
X07145Y06166D02*
X07182D01*
X07163Y06147D02*
Y06185D01*
X07142Y06119D02*
Y06213D01*
X07185Y06119D02*
Y06213D01*
X07142D02*
X07185D01*
X07142Y06119D02*
X07185D01*
X07572Y06481D02*
Y06521D01*
X07553Y06501D02*
X07592D01*
X09072Y06481D02*
Y06521D01*
X09053Y06501D02*
X09092D01*
X08645Y06166D02*
X08682D01*
X08663Y06147D02*
Y06185D01*
X08642Y06119D02*
Y06213D01*
X08685Y06119D02*
Y06213D01*
X08642D02*
X08685D01*
X08642Y06119D02*
X08685D01*
X07895Y06166D02*
X07932D01*
X07913Y06147D02*
Y06185D01*
X07892Y06119D02*
Y06213D01*
X07935Y06119D02*
Y06213D01*
X07892D02*
X07935D01*
X07892Y06119D02*
X07935D01*
X08322Y06481D02*
Y06521D01*
X08303Y06501D02*
X08342D01*
X11322Y06481D02*
Y06521D01*
X11303Y06501D02*
X11342D01*
X10895Y06166D02*
X10932D01*
X10913Y06147D02*
Y06185D01*
X10892Y06119D02*
Y06213D01*
X10935Y06119D02*
Y06213D01*
X10892D02*
X10935D01*
X10892Y06119D02*
X10935D01*
X11645Y06166D02*
X11682D01*
X11663Y06147D02*
Y06185D01*
X11642Y06119D02*
Y06213D01*
X11685Y06119D02*
Y06213D01*
X11642D02*
X11685D01*
X11642Y06119D02*
X11685D01*
X12072Y06481D02*
Y06521D01*
X12053Y06501D02*
X12092D01*
X12822Y06481D02*
Y06521D01*
X12803Y06501D02*
X12842D01*
X12395Y06166D02*
X12432D01*
X12413Y06147D02*
Y06185D01*
X12392Y06119D02*
Y06213D01*
X12435Y06119D02*
Y06213D01*
X12392D02*
X12435D01*
X12392Y06119D02*
X12435D01*
X13145Y06166D02*
X13182D01*
X13163Y06147D02*
Y06185D01*
X13142Y06119D02*
Y06213D01*
X13185Y06119D02*
Y06213D01*
X13142D02*
X13185D01*
X13142Y06119D02*
X13185D01*
X13231Y06482D02*
Y06521D01*
X13211Y06501D02*
X1325D01*
X1226Y07981D02*
Y08021D01*
X1224Y08001D02*
X12279D01*
X1301Y07981D02*
Y08021D01*
X1299Y08001D02*
X13029D01*
X12582Y07666D02*
X1262D01*
X12601Y07647D02*
Y07685D01*
X12579Y07619D02*
Y07713D01*
X12623Y07619D02*
Y07713D01*
X12579D02*
X12623D01*
X12579Y07619D02*
X12623D01*
X13332Y07666D02*
X1337D01*
X13351Y07647D02*
Y07685D01*
X13329Y07619D02*
Y07713D01*
X13373Y07619D02*
Y07713D01*
X13329D02*
X13373D01*
X13329Y07619D02*
X13373D01*
X1376Y07981D02*
Y08021D01*
X1374Y08001D02*
X13779D01*
X14082Y07666D02*
X1412D01*
X14101Y07647D02*
Y07685D01*
X14079Y07619D02*
Y07713D01*
X14123Y07619D02*
Y07713D01*
X14079D02*
X14123D01*
X14079Y07619D02*
X14123D01*
X1451Y07981D02*
Y08021D01*
X1449Y08001D02*
X14529D01*
X12635Y08731D02*
Y08771D01*
X12615Y08751D02*
X12654D01*
X12207Y08416D02*
X12245D01*
X12226Y08397D02*
Y08435D01*
X12204Y08369D02*
Y08463D01*
X12248Y08369D02*
Y08463D01*
X12204D02*
X12248D01*
X12204Y08369D02*
X12248D01*
X12957Y08416D02*
X12995D01*
X12976Y08397D02*
Y08435D01*
X12954Y08369D02*
Y08463D01*
X12998Y08369D02*
Y08463D01*
X12954D02*
X12998D01*
X12954Y08369D02*
X12998D01*
X13385Y08731D02*
Y08771D01*
X13365Y08751D02*
X13404D01*
X14135Y08731D02*
Y08771D01*
X14115Y08751D02*
X14154D01*
X13707Y08416D02*
X13745D01*
X13726Y08397D02*
Y08435D01*
X13704Y08369D02*
Y08463D01*
X13748Y08369D02*
Y08463D01*
X13704D02*
X13748D01*
X13704Y08369D02*
X13748D01*
X13197Y07231D02*
Y07271D01*
X13178Y07251D02*
X13217D01*
X1277Y06916D02*
X12807D01*
X12788Y06897D02*
Y06935D01*
X12767Y06869D02*
Y06963D01*
X1281Y06869D02*
Y06963D01*
X12767D02*
X1281D01*
X12767Y06869D02*
X1281D01*
X1352Y06916D02*
X13557D01*
X13538Y06897D02*
Y06935D01*
X13517Y06869D02*
Y06963D01*
X1356Y06869D02*
Y06963D01*
X13517D02*
X1356D01*
X13517Y06869D02*
X1356D01*
X13862Y07231D02*
Y0727D01*
X13842Y0725D02*
X13881D01*
X12447Y07231D02*
Y07271D01*
X12428Y07251D02*
X12467D01*
X1202Y06916D02*
X12057D01*
X12038Y06897D02*
Y06935D01*
X12017Y06869D02*
Y06963D01*
X1206Y06869D02*
Y06963D01*
X12017D02*
X1206D01*
X12017Y06869D02*
X1206D01*
X1127Y06916D02*
X11307D01*
X11288Y06897D02*
Y06935D01*
X11267Y06869D02*
Y06963D01*
X1131Y06869D02*
Y06963D01*
X11267D02*
X1131D01*
X11267Y06869D02*
X1131D01*
X11697Y07231D02*
Y07271D01*
X11678Y07251D02*
X11717D01*
X05322Y07981D02*
Y08021D01*
X05303Y08001D02*
X05342D01*
X04896Y07698D02*
X04934D01*
X04915Y0768D02*
Y07717D01*
X04893Y07651D02*
Y07746D01*
X04937Y07651D02*
Y07746D01*
X04893D02*
X04937D01*
X04893Y07651D02*
X04937D01*
X08082Y07666D02*
X0812D01*
X08101Y07647D02*
Y07685D01*
X08079Y07619D02*
Y07713D01*
X08123Y07619D02*
Y07713D01*
X08079D02*
X08123D01*
X08079Y07619D02*
X08123D01*
X0851Y07981D02*
Y08021D01*
X0849Y08001D02*
X08529D01*
X08832Y07666D02*
X0887D01*
X08851Y07647D02*
Y07685D01*
X08829Y07619D02*
Y07713D01*
X08873Y07619D02*
Y07713D01*
X08829D02*
X08873D01*
X08829Y07619D02*
X08873D01*
X0926Y07981D02*
Y08021D01*
X0924Y08001D02*
X09279D01*
X0776Y07981D02*
Y08021D01*
X0774Y08001D02*
X07779D01*
X07332Y07666D02*
X0737D01*
X07351Y07647D02*
Y07685D01*
X07329Y07619D02*
Y07713D01*
X07373Y07619D02*
Y07713D01*
X07329D02*
X07373D01*
X07329Y07619D02*
X07373D01*
X06582Y07666D02*
X0662D01*
X06601Y07647D02*
Y07685D01*
X06579Y07619D02*
Y07713D01*
X06623Y07619D02*
Y07713D01*
X06579D02*
X06623D01*
X06579Y07619D02*
X06623D01*
X0701Y07981D02*
Y08021D01*
X0699Y08001D02*
X07029D01*
X07197Y07231D02*
Y07271D01*
X07178Y07251D02*
X07217D01*
X0677Y06916D02*
X06807D01*
X06788Y06897D02*
Y06935D01*
X06767Y06869D02*
Y06963D01*
X0681Y06869D02*
Y06963D01*
X06767D02*
X0681D01*
X06767Y06869D02*
X0681D01*
X0752Y06916D02*
X07557D01*
X07538Y06897D02*
Y06935D01*
X07517Y06869D02*
Y06963D01*
X0756Y06869D02*
Y06963D01*
X07517D02*
X0756D01*
X07517Y06869D02*
X0756D01*
X07947Y07231D02*
Y07271D01*
X07928Y07251D02*
X07967D01*
X06447Y07231D02*
Y07271D01*
X06428Y07251D02*
X06467D01*
X0602Y06916D02*
X06057D01*
X06038Y06897D02*
Y06935D01*
X06017Y06869D02*
Y06963D01*
X0606Y06869D02*
Y06963D01*
X06017D02*
X0606D01*
X06017Y06869D02*
X0606D01*
X09635Y08731D02*
Y08771D01*
X09615Y08751D02*
X09654D01*
X09207Y08416D02*
X09245D01*
X09226Y08397D02*
Y08435D01*
X09204Y08369D02*
Y08463D01*
X09248Y08369D02*
Y08463D01*
X09204D02*
X09248D01*
X09204Y08369D02*
X09248D01*
X08885Y08731D02*
Y08771D01*
X08865Y08751D02*
X08904D01*
X08457Y08416D02*
X08495D01*
X08476Y08397D02*
Y08435D01*
X08454Y08369D02*
Y08463D01*
X08498Y08369D02*
Y08463D01*
X08454D02*
X08498D01*
X08454Y08369D02*
X08498D01*
X07385Y08731D02*
Y08771D01*
X07365Y08751D02*
X07404D01*
X06957Y08416D02*
X06995D01*
X06976Y08397D02*
Y08435D01*
X06954Y08369D02*
Y08463D01*
X06998Y08369D02*
Y08463D01*
X06954D02*
X06998D01*
X06954Y08369D02*
X06998D01*
X08697Y07231D02*
Y07271D01*
X08678Y07251D02*
X08717D01*
X0827Y06916D02*
X08307D01*
X08288Y06897D02*
Y06935D01*
X08267Y06869D02*
Y06963D01*
X0831Y06869D02*
Y06963D01*
X08267D02*
X0831D01*
X08267Y06869D02*
X0831D01*
X0902Y06916D02*
X09057D01*
X09038Y06897D02*
Y06935D01*
X09017Y06869D02*
Y06963D01*
X0906Y06869D02*
Y06963D01*
X09017D02*
X0906D01*
X09017Y06869D02*
X0906D01*
X1052Y06916D02*
X10557D01*
X10538Y06897D02*
Y06935D01*
X10517Y06869D02*
Y06963D01*
X1056Y06869D02*
Y06963D01*
X10517D02*
X1056D01*
X10517Y06869D02*
X1056D01*
X0977Y06916D02*
X09807D01*
X09788Y06897D02*
Y06935D01*
X09767Y06869D02*
Y06963D01*
X0981Y06869D02*
Y06963D01*
X09767D02*
X0981D01*
X09767Y06869D02*
X0981D01*
X09929Y07239D02*
Y07278D01*
X09909Y07258D02*
X09948D01*
X05852Y07725D02*
X05889D01*
X05871Y07706D02*
Y07744D01*
X05849Y07678D02*
Y07772D01*
X05892Y07678D02*
Y07772D01*
X05849D02*
X05892D01*
X05849Y07678D02*
X05892D01*
X0626Y07981D02*
Y08021D01*
X0624Y08001D02*
X06279D01*
X09981Y08791D02*
X1002D01*
X1Y08771D02*
Y08811D01*
X09668Y07981D02*
Y0802D01*
X09648Y08D02*
X09687D01*
X09582Y07666D02*
X0962D01*
X09601Y07647D02*
Y07685D01*
X09579Y07619D02*
Y07713D01*
X09623Y07619D02*
Y07713D01*
X09579D02*
X09623D01*
X09579Y07619D02*
X09623D01*
X10374Y07725D02*
X10411D01*
X10392Y07706D02*
Y07744D01*
X10371Y07678D02*
Y07772D01*
X10414Y07678D02*
Y07772D01*
X10371D02*
X10414D01*
X10371Y07678D02*
X10414D01*
X10419Y07981D02*
Y0802D01*
X10399Y08D02*
X10438D01*
X11832Y07666D02*
X1187D01*
X11851Y07647D02*
Y07685D01*
X11829Y07619D02*
Y07713D01*
X11873Y07619D02*
Y07713D01*
X11829D02*
X11873D01*
X11829Y07619D02*
X11873D01*
X11082Y07666D02*
X1112D01*
X11101Y07647D02*
Y07685D01*
X11079Y07619D02*
Y07713D01*
X11123Y07619D02*
Y07713D01*
X11079D02*
X11123D01*
X11079Y07619D02*
X11123D01*
X1151Y07981D02*
Y08021D01*
X1149Y08001D02*
X11529D01*
X11885Y08731D02*
Y08771D01*
X11865Y08751D02*
X11904D01*
X11457Y08416D02*
X11495D01*
X11476Y08397D02*
Y08435D01*
X11454Y08369D02*
Y08463D01*
X11498Y08369D02*
Y08463D01*
X11454D02*
X11498D01*
X11454Y08369D02*
X11498D01*
X10757Y08471D02*
X10795D01*
X10776Y08452D02*
Y0849D01*
X10754Y08424D02*
Y08518D01*
X10798Y08424D02*
Y08518D01*
X10754D02*
X10798D01*
X10754Y08424D02*
X10798D01*
X11135Y08731D02*
Y08771D01*
X11115Y08751D02*
X11154D01*
X09957Y08416D02*
X09995D01*
X09976Y08397D02*
Y08435D01*
X09954Y08369D02*
Y08463D01*
X09998Y08369D02*
Y08463D01*
X09954D02*
X09998D01*
X09954Y08369D02*
X09998D01*
X07707Y08416D02*
X07745D01*
X07726Y08397D02*
Y08435D01*
X07704Y08369D02*
Y08463D01*
X07748Y08369D02*
Y08463D01*
X07704D02*
X07748D01*
X07704Y08369D02*
X07748D01*
X08135Y08731D02*
Y08771D01*
X08115Y08751D02*
X08154D01*
X06207Y08416D02*
X06245D01*
X06226Y08397D02*
Y08435D01*
X06204Y08369D02*
Y08463D01*
X06248Y08369D02*
Y08463D01*
X06204D02*
X06248D01*
X06204Y08369D02*
X06248D01*
X06635Y08731D02*
Y08771D01*
X06615Y08751D02*
X06654D01*
X05457Y08416D02*
X05495D01*
X05476Y08397D02*
Y08435D01*
X05454Y08369D02*
Y08463D01*
X05498Y08369D02*
Y08463D01*
X05454D02*
X05498D01*
X05454Y08369D02*
X05498D01*
X05885Y08731D02*
Y08771D01*
X05865Y08751D02*
X05904D01*
X04707Y08416D02*
X04745D01*
X04726Y08397D02*
Y08435D01*
X04704Y08369D02*
Y08463D01*
X04748Y08369D02*
Y08463D01*
X04704D02*
X04748D01*
X04704Y08369D02*
X04748D01*
X05135Y08731D02*
Y08771D01*
X05115Y08751D02*
X05154D01*
X13075Y07484D02*
Y07523D01*
X13056Y07503D02*
X13095D01*
X13076Y07674D02*
Y07713D01*
X13057Y07693D02*
X13096D01*
X1399Y08309D02*
X14027D01*
X14008Y0829D02*
Y08327D01*
X1403Y08261D02*
Y08356D01*
X13987Y08261D02*
Y08356D01*
Y08261D02*
X1403D01*
X13987Y08356D02*
X1403D01*
X10604Y07232D02*
Y07271D01*
X10584Y07251D02*
X10624D01*
X1039Y07463D02*
X1043D01*
X1041Y07443D02*
Y07483D01*
X10593Y07672D02*
X10636D01*
X10593Y07577D02*
X10636D01*
X10593D02*
Y07672D01*
X10636Y07577D02*
Y07672D01*
X10615Y07606D02*
Y07643D01*
X10596Y07625D02*
X10633D01*
X10702Y07371D02*
X1084D01*
X10702Y07583D02*
X1084D01*
Y07371D02*
Y07583D01*
X10702Y07371D02*
Y07583D01*
X10771Y07457D02*
Y07497D01*
X10751Y07477D02*
X10791D01*
X11002Y0745D02*
Y0749D01*
X10983Y0747D02*
X11022D01*
X1086Y07233D02*
Y07276D01*
X10954Y07233D02*
Y07276D01*
X1086Y07233D02*
X10954D01*
X1086Y07276D02*
X10954D01*
X10888Y07254D02*
X10926D01*
X10907Y07236D02*
Y07273D01*
X11103Y07302D02*
Y07345D01*
X11197Y07302D02*
Y07345D01*
X11103Y07302D02*
X11197D01*
X11103Y07345D02*
X11197D01*
X11131Y07323D02*
X11169D01*
X1115Y07305D02*
Y07342D01*
X11371Y07611D02*
Y0765D01*
X11351Y0763D02*
X1139D01*
X09447Y07231D02*
Y07271D01*
X09428Y07251D02*
X09467D01*
X05267Y06527D02*
Y06566D01*
X05248Y06547D02*
X05287D01*
X06511Y08153D02*
Y08192D01*
X06492Y08173D02*
X06531D01*
X06511Y08302D02*
Y08341D01*
X06492Y08321D02*
X06531D01*
X15953Y07666D02*
X15991D01*
X15972Y07647D02*
Y07685D01*
X1595Y07619D02*
Y07713D01*
X15994Y07619D02*
Y07713D01*
X1595D02*
X15994D01*
X1595Y07619D02*
X15994D01*
X15943Y06916D02*
X15981D01*
X15962Y06897D02*
Y06935D01*
X1594Y06869D02*
Y06963D01*
X15984Y06869D02*
Y06963D01*
X1594D02*
X15984D01*
X1594Y06869D02*
X15984D01*
X16349Y08039D02*
Y08078D01*
X16329Y08059D02*
X16369D01*
X16347Y0729D02*
Y07329D01*
X16327Y0731D02*
X16367D01*
X15163Y08385D02*
X152D01*
X15182Y08367D02*
Y08404D01*
X1516Y08338D02*
Y08433D01*
X15203Y08338D02*
Y08433D01*
X1516D02*
X15203D01*
X1516Y08338D02*
X15203D01*
X15945Y08395D02*
X15983D01*
X15964Y08376D02*
Y08414D01*
X15942Y08348D02*
Y08442D01*
X15986Y08348D02*
Y08442D01*
X15942D02*
X15986D01*
X15942Y08348D02*
X15986D01*
X15294Y08763D02*
X15333D01*
X15313Y08744D02*
Y08783D01*
X16Y08772D02*
X1604D01*
X1602Y08752D02*
Y08792D01*
X12014Y05605D02*
Y05648D01*
X1192Y05605D02*
Y05648D01*
X12014*
X1192Y05605D02*
X12014D01*
X11948Y05626D02*
X11986D01*
X11967Y05608D02*
Y05645D01*
X1192Y05352D02*
Y05395D01*
X12014Y05352D02*
Y05395D01*
X1192Y05352D02*
X12014D01*
X1192Y05395D02*
X12014D01*
X11948Y05374D02*
X11986D01*
X11967Y05355D02*
Y05392D01*
X10776Y0555D02*
X10815D01*
X10796Y0553D02*
Y05569D01*
X10124Y05294D02*
Y05337D01*
X10218Y05294D02*
Y05337D01*
X10124Y05294D02*
X10218D01*
X10124Y05337D02*
X10218D01*
X10152Y05315D02*
X10189D01*
X10171Y05297D02*
Y05334D01*
X10626Y05289D02*
Y05328D01*
X10607Y05309D02*
X10646D01*
X10626Y05412D02*
Y05451D01*
X10607Y05432D02*
X10646D01*
X10985Y07302D02*
Y07345D01*
X11079Y07302D02*
Y07345D01*
X10985Y07302D02*
X11079D01*
X10985Y07345D02*
X11079D01*
X11013Y07323D02*
X11051D01*
X11032Y07305D02*
Y07342D01*
G54D147*
X1459Y07164D02*
Y07337D01*
Y07164D02*
X14661D01*
X1459Y07337D02*
X14661D01*
Y07164D02*
Y07337D01*
X14623Y06434D02*
Y06606D01*
Y06434D02*
X14693D01*
X14623Y06606D02*
X14693D01*
Y06434D02*
Y06606D01*
X1422Y05743D02*
Y05915D01*
X14149D02*
X1422D01*
X14149Y05743D02*
X1422D01*
X14149D02*
Y05915D01*
X12711Y05659D02*
Y05832D01*
Y05659D02*
X12782D01*
X12711Y05832D02*
X12782D01*
Y05659D02*
Y05832D01*
X14851Y05665D02*
Y05837D01*
Y05665D02*
X14921D01*
X14851Y05837D02*
X14921D01*
Y05665D02*
Y05837D01*
X09798Y05692D02*
Y05864D01*
Y05692D02*
X09869D01*
X09798Y05864D02*
X09869D01*
Y05692D02*
Y05864D01*
X07275Y05664D02*
Y05837D01*
Y05664D02*
X07346D01*
X07275Y05837D02*
X07346D01*
Y05664D02*
Y05837D01*
X1577Y07545D02*
Y07718D01*
Y07545D02*
X15841D01*
X1577Y07718D02*
X15841D01*
Y07545D02*
Y07718D01*
X15662Y07545D02*
Y07718D01*
Y07545D02*
X15733D01*
X15662Y07718D02*
X15733D01*
Y07545D02*
Y07718D01*
X14786Y08754D02*
Y08926D01*
Y08754D02*
X14857D01*
X14786Y08926D02*
X14857D01*
Y08754D02*
Y08926D01*
X15756Y06795D02*
Y06968D01*
Y06795D02*
X15827D01*
X15756Y06968D02*
X15827D01*
Y06795D02*
Y06968D01*
X15659Y06795D02*
Y06968D01*
Y06795D02*
X1573D01*
X15659Y06968D02*
X1573D01*
Y06795D02*
Y06968D01*
X05338Y07674D02*
X0587D01*
X05338Y07142D02*
X0587D01*
Y07674*
X05338Y07142D02*
Y07674D01*
X11074Y05849D02*
X11602D01*
X11074Y05321D02*
X11602D01*
Y05849*
X11074Y05321D02*
Y05849D01*
X10247Y05276D02*
X10375D01*
X10247Y05382D02*
X10375D01*
X10247Y05276D02*
Y05382D01*
X10375Y05276D02*
Y05382D01*
X04581Y06414D02*
Y06587D01*
Y06414D02*
X04652D01*
X04581Y06587D02*
X04652D01*
Y06414D02*
Y06587D01*
X04649Y07003D02*
X04821D01*
X04649Y06933D02*
Y07003D01*
X04821Y06933D02*
Y07003D01*
X04649Y06933D02*
X04821D01*
X1308Y07917D02*
X13252D01*
Y07988*
X1308Y07917D02*
Y07988D01*
X13252*
X05523Y08345D02*
X05755D01*
X05523Y07971D02*
X05755D01*
X05523D02*
Y08345D01*
X05755Y07971D02*
Y08345D01*
X10565Y05775D02*
X10873D01*
X10565Y05633D02*
X10873D01*
Y05775*
X10565Y05633D02*
Y05775D01*
X10358Y08427D02*
X10606D01*
X10358Y08285D02*
X10606D01*
Y08427*
X10358Y08285D02*
Y08427D01*
X11279Y07444D02*
Y07539D01*
X11177Y07444D02*
Y07539D01*
X11279*
X11177Y07444D02*
X11279D01*
X15132Y07165D02*
Y07337D01*
Y07165D02*
X15203D01*
X15132Y07337D02*
X15203D01*
Y07165D02*
Y07337D01*
X14032Y05743D02*
Y05915D01*
Y05743D02*
X14103D01*
X14032Y05915D02*
X14103D01*
Y05743D02*
Y05915D01*
X13265Y05743D02*
Y05915D01*
Y05743D02*
X13336D01*
X13265Y05915D02*
X13336D01*
Y05743D02*
Y05915D01*
X06546Y05669D02*
Y05842D01*
Y05669D02*
X06617D01*
X06546Y05842D02*
X06617D01*
Y05669D02*
Y05842D01*
X05543Y0568D02*
Y05852D01*
Y0568D02*
X05614D01*
X05543Y05852D02*
X05614D01*
Y0568D02*
Y05852D01*
X06038Y06415D02*
Y06587D01*
Y06415D02*
X06109D01*
X06038Y06587D02*
X06109D01*
Y06415D02*
Y06587D01*
X0521Y05679D02*
Y05851D01*
Y05679D02*
X05281D01*
X0521Y05851D02*
X05281D01*
Y05679D02*
Y05851D01*
X0511Y07182D02*
Y07354D01*
Y07182D02*
X05181D01*
X0511Y07354D02*
X05181D01*
Y07182D02*
Y07354D01*
X15601Y05665D02*
Y05837D01*
Y05665D02*
X15671D01*
X15601Y05837D02*
X15671D01*
Y05665D02*
Y05837D01*
X15522Y06424D02*
Y06597D01*
Y06424D02*
X15593D01*
X15522Y06597D02*
X15593D01*
Y06424D02*
Y06597D01*
X15333Y07915D02*
Y08088D01*
Y07915D02*
X15404D01*
X15333Y08088D02*
X15404D01*
Y07915D02*
Y08088D01*
X16312Y06473D02*
Y06646D01*
Y06473D02*
X16383D01*
X16312Y06646D02*
X16383D01*
Y06473D02*
Y06646D01*
X16314Y05675D02*
Y05848D01*
Y05675D02*
X16385D01*
X16314Y05848D02*
X16385D01*
Y05675D02*
Y05848D01*
X10193Y06414D02*
Y06587D01*
Y06414D02*
X10264D01*
X10193Y06587D02*
X10264D01*
Y06414D02*
Y06587D01*
X09787Y06415D02*
Y06587D01*
Y06415D02*
X09858D01*
X09787Y06587D02*
X09858D01*
Y06415D02*
Y06587D01*
X06787Y06415D02*
Y06587D01*
Y06415D02*
X06858D01*
X06787Y06587D02*
X06858D01*
Y06415D02*
Y06587D01*
X07537Y06415D02*
Y06587D01*
Y06415D02*
X07608D01*
X07537Y06587D02*
X07608D01*
Y06415D02*
Y06587D01*
X09037Y06415D02*
Y06587D01*
Y06415D02*
X09108D01*
X09037Y06587D02*
X09108D01*
Y06415D02*
Y06587D01*
X08287Y06415D02*
Y06587D01*
Y06415D02*
X08358D01*
X08287Y06587D02*
X08358D01*
Y06415D02*
Y06587D01*
X11287Y06415D02*
Y06587D01*
Y06415D02*
X11358D01*
X11287Y06587D02*
X11358D01*
Y06415D02*
Y06587D01*
X12037Y06415D02*
Y06587D01*
Y06415D02*
X12108D01*
X12037Y06587D02*
X12108D01*
Y06415D02*
Y06587D01*
X12787Y06415D02*
Y06587D01*
Y06415D02*
X12858D01*
X12787Y06587D02*
X12858D01*
Y06415D02*
Y06587D01*
X13195Y06415D02*
Y06588D01*
Y06415D02*
X13266D01*
X13195Y06588D02*
X13266D01*
Y06415D02*
Y06588D01*
X12224Y07915D02*
Y08087D01*
Y07915D02*
X12295D01*
X12224Y08087D02*
X12295D01*
Y07915D02*
Y08087D01*
X12974Y07915D02*
Y08087D01*
Y07915D02*
X13045D01*
X12974Y08087D02*
X13045D01*
Y07915D02*
Y08087D01*
X13724Y07915D02*
Y08087D01*
Y07915D02*
X13795D01*
X13724Y08087D02*
X13795D01*
Y07915D02*
Y08087D01*
X14474Y07915D02*
Y08087D01*
Y07915D02*
X14545D01*
X14474Y08087D02*
X14545D01*
Y07915D02*
Y08087D01*
X12599Y08665D02*
Y08837D01*
Y08665D02*
X1267D01*
X12599Y08837D02*
X1267D01*
Y08665D02*
Y08837D01*
X13349Y08665D02*
Y08837D01*
Y08665D02*
X1342D01*
X13349Y08837D02*
X1342D01*
Y08665D02*
Y08837D01*
X14099Y08665D02*
Y08837D01*
Y08665D02*
X1417D01*
X14099Y08837D02*
X1417D01*
Y08665D02*
Y08837D01*
X13162Y07165D02*
Y07337D01*
Y07165D02*
X13233D01*
X13162Y07337D02*
X13233D01*
Y07165D02*
Y07337D01*
X13826Y07164D02*
Y07337D01*
Y07164D02*
X13897D01*
X13826Y07337D02*
X13897D01*
Y07164D02*
Y07337D01*
X12412Y07165D02*
Y07337D01*
Y07165D02*
X12483D01*
X12412Y07337D02*
X12483D01*
Y07165D02*
Y07337D01*
X11662Y07165D02*
Y07337D01*
Y07165D02*
X11733D01*
X11662Y07337D02*
X11733D01*
Y07165D02*
Y07337D01*
X05287Y07915D02*
Y08087D01*
Y07915D02*
X05358D01*
X05287Y08087D02*
X05358D01*
Y07915D02*
Y08087D01*
X08474Y07915D02*
Y08087D01*
Y07915D02*
X08545D01*
X08474Y08087D02*
X08545D01*
Y07915D02*
Y08087D01*
X09224Y07915D02*
Y08087D01*
Y07915D02*
X09295D01*
X09224Y08087D02*
X09295D01*
Y07915D02*
Y08087D01*
X07724Y07915D02*
Y08087D01*
Y07915D02*
X07795D01*
X07724Y08087D02*
X07795D01*
Y07915D02*
Y08087D01*
X06974Y07915D02*
Y08087D01*
Y07915D02*
X07045D01*
X06974Y08087D02*
X07045D01*
Y07915D02*
Y08087D01*
X07162Y07165D02*
Y07337D01*
Y07165D02*
X07233D01*
X07162Y07337D02*
X07233D01*
Y07165D02*
Y07337D01*
X07912Y07165D02*
Y07337D01*
Y07165D02*
X07983D01*
X07912Y07337D02*
X07983D01*
Y07165D02*
Y07337D01*
X06412Y07165D02*
Y07337D01*
Y07165D02*
X06483D01*
X06412Y07337D02*
X06483D01*
Y07165D02*
Y07337D01*
X09599Y08665D02*
Y08837D01*
Y08665D02*
X0967D01*
X09599Y08837D02*
X0967D01*
Y08665D02*
Y08837D01*
X08849Y08665D02*
Y08837D01*
Y08665D02*
X0892D01*
X08849Y08837D02*
X0892D01*
Y08665D02*
Y08837D01*
X07349Y08665D02*
Y08837D01*
Y08665D02*
X0742D01*
X07349Y08837D02*
X0742D01*
Y08665D02*
Y08837D01*
X08662Y07165D02*
Y07337D01*
Y07165D02*
X08733D01*
X08662Y07337D02*
X08733D01*
Y07165D02*
Y07337D01*
X09893Y07172D02*
Y07345D01*
Y07172D02*
X09964D01*
X09893Y07345D02*
X09964D01*
Y07172D02*
Y07345D01*
X06224Y07915D02*
Y08087D01*
Y07915D02*
X06295D01*
X06224Y08087D02*
X06295D01*
Y07915D02*
Y08087D01*
X09914Y08826D02*
X10087D01*
X09914Y08755D02*
Y08826D01*
X10087Y08755D02*
Y08826D01*
X09914Y08755D02*
X10087D01*
X09632Y07914D02*
Y08087D01*
Y07914D02*
X09703D01*
X09632Y08087D02*
X09703D01*
Y07914D02*
Y08087D01*
X10383Y07914D02*
Y08087D01*
Y07914D02*
X10454D01*
X10383Y08087D02*
X10454D01*
Y07914D02*
Y08087D01*
X11474Y07915D02*
Y08087D01*
Y07915D02*
X11545D01*
X11474Y08087D02*
X11545D01*
Y07915D02*
Y08087D01*
X11849Y08665D02*
Y08837D01*
Y08665D02*
X1192D01*
X11849Y08837D02*
X1192D01*
Y08665D02*
Y08837D01*
X11099Y08665D02*
Y08837D01*
Y08665D02*
X1117D01*
X11099Y08837D02*
X1117D01*
Y08665D02*
Y08837D01*
X08099Y08665D02*
Y08837D01*
Y08665D02*
X0817D01*
X08099Y08837D02*
X0817D01*
Y08665D02*
Y08837D01*
X06599Y08665D02*
Y08837D01*
Y08665D02*
X0667D01*
X06599Y08837D02*
X0667D01*
Y08665D02*
Y08837D01*
X05849Y08665D02*
Y08837D01*
Y08665D02*
X0592D01*
X05849Y08837D02*
X0592D01*
Y08665D02*
Y08837D01*
X05099Y08665D02*
Y08837D01*
Y08665D02*
X0517D01*
X05099Y08837D02*
X0517D01*
Y08665D02*
Y08837D01*
X13014Y07565D02*
X13136D01*
X13014Y07442D02*
X13136D01*
Y07565*
X13014Y07442D02*
Y07565D01*
X13015Y07755D02*
X13137D01*
X13015Y07632D02*
X13137D01*
Y07755*
X13015Y07632D02*
Y07755D01*
X10568Y07165D02*
Y07338D01*
Y07165D02*
X10639D01*
X10568Y07338D02*
X10639D01*
Y07165D02*
Y07338D01*
X10489Y07392D02*
Y07534D01*
X10331Y07392D02*
Y07534D01*
X10489*
X10331Y07392D02*
X10489D01*
X10932Y07549D02*
X11073D01*
X10932Y07391D02*
X11073D01*
X10932D02*
Y07549D01*
X11073Y07391D02*
Y07549D01*
X11406Y07544D02*
Y07717D01*
X11335D02*
X11406D01*
X11335Y07544D02*
X11406D01*
X11335D02*
Y07717D01*
X09412Y07165D02*
Y07337D01*
Y07165D02*
X09483D01*
X09412Y07337D02*
X09483D01*
Y07165D02*
Y07337D01*
X05232Y06461D02*
Y06633D01*
Y06461D02*
X05303D01*
X05232Y06633D02*
X05303D01*
Y06461D02*
Y06633D01*
X0645Y08112D02*
X06573D01*
X0645Y08234D02*
X06573D01*
Y08112D02*
Y08234D01*
X0645Y08112D02*
Y08234D01*
Y08382D02*
X06573D01*
X0645Y0826D02*
X06573D01*
X0645D02*
Y08382D01*
X06573Y0826D02*
Y08382D01*
X16313Y07972D02*
Y08145D01*
Y07972D02*
X16384D01*
X16313Y08145D02*
X16384D01*
Y07972D02*
Y08145D01*
X16312Y07223D02*
Y07396D01*
Y07223D02*
X16382D01*
X16312Y07396D02*
X16382D01*
Y07223D02*
Y07396D01*
X15227Y08799D02*
X154D01*
X15227Y08728D02*
Y08799D01*
X154Y08728D02*
Y08799D01*
X15227Y08728D02*
X154D01*
X15934Y08808D02*
X16106D01*
X15934Y08737D02*
Y08808D01*
X16106Y08737D02*
Y08808D01*
X15934Y08737D02*
X16106D01*
X10873Y05481D02*
Y05619D01*
X10719Y05481D02*
Y05619D01*
X10873*
X10719Y05481D02*
X10873D01*
X10562Y05255D02*
X1069D01*
X10562Y05362D02*
X1069D01*
X10562Y05255D02*
Y05362D01*
X1069Y05255D02*
Y05362D01*
X10562Y05378D02*
X1069D01*
X10562Y05485D02*
X1069D01*
X10562Y05378D02*
Y05485D01*
X1069Y05378D02*
Y05485D01*
M02*