%FSTAX23Y23*%
%MOIN*%
%SFA1B1*%

%IPPOS*%
%AMD83*
4,1,4,-0.041800,0.002800,0.002800,-0.041800,0.041800,-0.002800,-0.002800,0.041800,-0.041800,0.002800,0.0*
%
%ADD77R,0.035559X0.043433*%
%ADD78R,0.043433X0.035559*%
%ADD79R,0.056031X0.043827*%
%ADD80R,0.043429X0.067059*%
%ADD81R,0.043433X0.039496*%
%ADD82R,0.067055X0.110362*%
G04~CAMADD=83~9~0.0~0.0~631.2~552.4~0.0~0.0~0~0.0~0.0~0.0~0.0~0~0.0~0.0~0.0~0.0~0~0.0~0.0~0.0~135.0~836.0~835.0*
%ADD83D83*%
%ADD84O,0.029653X0.076897*%
%ADD85O,0.076897X0.029653*%
%ADD86O,0.029653X0.070992*%
%ADD87O,0.070992X0.029653*%
%ADD88R,0.035559X0.019811*%
%ADD89R,0.043827X0.056031*%
%ADD90R,0.039496X0.043433*%
%ADD91R,0.051307X0.110362*%
%ADD92R,0.031622X0.053275*%
%ADD93R,0.053275X0.031622*%
%ADD94R,0.137921X0.102488*%
%ADD95O,0.031622X0.094614*%
%ADD96O,0.069023X0.021779*%
%ADD97O,0.074929X0.019811*%
%ADD98R,0.027685X0.023748*%
%ADD99R,0.035559X0.023748*%
%ADD100R,0.078866X0.074929*%
%ADD101R,0.067059X0.043429*%
%ADD102R,0.043433X0.039496*%
%ADD103R,0.051307X0.033590*%
%ADD104R,0.232409X0.070992*%
%ADD105R,0.031622X0.051307*%
%ADD106R,0.039496X0.043433*%
%ADD107R,0.047370X0.086740*%
%ADD108R,0.086740X0.047370*%
%ADD109R,0.067055X0.031622*%
%ADD110C,0.074000*%
%ADD111C,0.165500*%
%ADD112C,0.051307*%
%ADD113O,0.029653X0.090677*%
%ADD114R,0.067055X0.067055*%
%ADD115C,0.067055*%
%ADD116C,0.064000*%
%ADD117O,0.086740X0.108000*%
%ADD118C,0.084000*%
%ADD119C,0.108000*%
%ADD120O,0.108000X0.090677*%
%ADD121O,0.094614X0.108000*%
%ADD122C,0.098551*%
%ADD123C,0.104456*%
%ADD124C,0.104653*%
%ADD125C,0.086740*%
%ADD126C,0.126110*%
%ADD127C,0.165500*%
%ADD128C,0.074000*%
%ADD129C,0.084000*%
%ADD130C,0.108000*%
%ADD131C,0.023787*%
%LNquadcube_65_pcb_soldermask_bot-1*%
%LPD*%
G54D77*
X11968Y06804D03*
X12027D03*
X09401Y05523D03*
X09342D03*
X09398Y05382D03*
X09339D03*
X05004Y06641D03*
X05063D03*
X04923Y06968D03*
X04864D03*
X13042Y0783D03*
X13101D03*
X11121Y07323D03*
X1118D03*
X11002D03*
X11062D03*
G54D78*
X11351Y07433D03*
Y07492D03*
X07011Y05512D03*
Y05453D03*
X06263Y05505D03*
Y05446D03*
X0575D03*
Y05387D03*
X06826Y08153D03*
Y08212D03*
X10401Y08257D03*
Y08198D03*
X10487Y05283D03*
Y05342D03*
X15891Y07636D03*
Y07695D03*
X14477Y08446D03*
Y08386D03*
X10487Y05406D03*
Y05465D03*
X06281Y07541D03*
Y07482D03*
X05394Y07731D03*
Y0779D03*
X05317Y07731D03*
Y0779D03*
X15881Y06886D03*
Y06945D03*
X10363Y07566D03*
Y07625D03*
X09537Y07384D03*
Y07325D03*
X14758Y06946D03*
Y06886D03*
X14336Y07004D03*
Y06945D03*
X1376Y05504D03*
Y05445D03*
X12977Y05446D03*
Y05386D03*
X04727Y05446D03*
Y05386D03*
X05665Y06196D03*
Y06136D03*
X04821Y06196D03*
Y06136D03*
X05045Y07008D03*
Y06949D03*
X14477Y05446D03*
Y05386D03*
X15343Y05483D03*
Y05424D03*
X15227Y06196D03*
Y06136D03*
X14196Y06196D03*
Y06136D03*
X12227Y05446D03*
Y05386D03*
X09543Y05509D03*
Y0545D03*
X15038Y07696D03*
Y07636D03*
X15979Y06195D03*
Y06136D03*
X15981Y05443D03*
Y05384D03*
X10163Y06196D03*
Y06136D03*
X09413Y06196D03*
Y06136D03*
X06413Y06196D03*
Y06136D03*
X07163Y06196D03*
Y06136D03*
X08663Y06196D03*
Y06136D03*
X07913Y06196D03*
Y06136D03*
X10913Y06196D03*
Y06136D03*
X11663Y06196D03*
Y06136D03*
X12413Y06196D03*
Y06136D03*
X13163Y06196D03*
Y06136D03*
X12601Y07696D03*
Y07636D03*
X13351Y07696D03*
Y07636D03*
X14101Y07696D03*
Y07636D03*
X12226Y08446D03*
Y08386D03*
X12976Y08446D03*
Y08386D03*
X13726Y08446D03*
Y08386D03*
X12788Y06946D03*
Y06886D03*
X13538Y06946D03*
Y06886D03*
X12038Y06946D03*
Y06886D03*
X11288Y06946D03*
Y06886D03*
X04915Y07728D03*
Y07669D03*
X08101Y07696D03*
Y07636D03*
X08851Y07696D03*
Y07636D03*
X07351Y07696D03*
Y07636D03*
X06601Y07696D03*
Y07636D03*
X06788Y06946D03*
Y06886D03*
X07538Y06946D03*
Y06886D03*
X06038Y06946D03*
Y06886D03*
X09226Y08446D03*
Y08386D03*
X08476Y08446D03*
Y08386D03*
X06976Y08446D03*
Y08386D03*
X08288Y06946D03*
Y06886D03*
X09038Y06946D03*
Y06886D03*
X10538Y06946D03*
Y06886D03*
X09788Y06946D03*
Y06886D03*
X05871Y07754D03*
Y07695D03*
X09601Y07696D03*
Y07636D03*
X10392Y07754D03*
Y07695D03*
X11851Y07696D03*
Y07636D03*
X11101Y07696D03*
Y07636D03*
X11476Y08446D03*
Y08386D03*
X10776Y085D03*
Y08441D03*
X09976Y08446D03*
Y08386D03*
X07726Y08446D03*
Y08386D03*
X06226Y08446D03*
Y08386D03*
X05476Y08446D03*
Y08386D03*
X04726Y08446D03*
Y08386D03*
X10615Y07654D03*
Y07595D03*
X15972Y07695D03*
Y07636D03*
X15962Y06945D03*
Y06886D03*
X15182Y08415D03*
Y08356D03*
X15964Y08425D03*
Y08366D03*
G54D79*
X14625Y07315D03*
Y07186D03*
X14658Y06585D03*
Y06456D03*
X14185Y05765D03*
Y05894D03*
X12747Y0581D03*
Y05681D03*
X14886Y05815D03*
Y05686D03*
X09833Y05842D03*
Y05714D03*
X07311Y05815D03*
Y05686D03*
X15806Y07696D03*
Y07567D03*
X15697Y07696D03*
Y07567D03*
X14821Y08904D03*
Y08776D03*
X15792Y06946D03*
Y06817D03*
X15694Y06946D03*
Y06817D03*
X04617Y06565D03*
Y06436D03*
X15167Y07315D03*
Y07186D03*
X14067Y05894D03*
Y05765D03*
X13301Y05894D03*
Y05765D03*
X06581Y0582D03*
Y05691D03*
X05578Y05831D03*
Y05702D03*
X06074Y06565D03*
Y06436D03*
X05246Y0583D03*
Y05701D03*
X05145Y07333D03*
Y07204D03*
X15636Y05815D03*
Y05686D03*
X15558Y06575D03*
Y06446D03*
X15369Y08066D03*
Y07937D03*
X16348Y06624D03*
Y06495D03*
X1635Y05826D03*
Y05697D03*
X10229Y06565D03*
Y06436D03*
X09822Y06565D03*
Y06436D03*
X06822Y06565D03*
Y06436D03*
X07572Y06565D03*
Y06436D03*
X09072Y06565D03*
Y06436D03*
X08322Y06565D03*
Y06436D03*
X11322Y06565D03*
Y06436D03*
X12072Y06565D03*
Y06436D03*
X12822Y06565D03*
Y06436D03*
X13231Y06566D03*
Y06437D03*
X1226Y08065D03*
Y07936D03*
X1301Y08065D03*
Y07936D03*
X1376Y08065D03*
Y07936D03*
X1451Y08065D03*
Y07936D03*
X12635Y08815D03*
Y08686D03*
X13385Y08815D03*
Y08686D03*
X14135Y08815D03*
Y08686D03*
X13197Y07315D03*
Y07186D03*
X13862Y07315D03*
Y07186D03*
X12447Y07315D03*
Y07186D03*
X11697Y07315D03*
Y07186D03*
X05322Y08065D03*
Y07936D03*
X0851Y08065D03*
Y07936D03*
X0926Y08065D03*
Y07936D03*
X0776Y08065D03*
Y07936D03*
X0701Y08065D03*
Y07936D03*
X07197Y07315D03*
Y07186D03*
X07947Y07315D03*
Y07186D03*
X06447Y07315D03*
Y07186D03*
X09635Y08815D03*
Y08686D03*
X08885Y08815D03*
Y08686D03*
X07385Y08815D03*
Y08686D03*
X08697Y07315D03*
Y07186D03*
X09929Y07323D03*
Y07194D03*
X0626Y08065D03*
Y07936D03*
X09668Y08065D03*
Y07936D03*
X10419Y08065D03*
Y07936D03*
X1151Y08065D03*
Y07936D03*
X11885Y08815D03*
Y08686D03*
X11135Y08815D03*
Y08686D03*
X08135Y08815D03*
Y08686D03*
X06635Y08815D03*
Y08686D03*
X05885Y08815D03*
Y08686D03*
X05135Y08815D03*
Y08686D03*
X10604Y07316D03*
Y07187D03*
X11371Y07566D03*
Y07695D03*
X09447Y07315D03*
Y07186D03*
X05267Y06611D03*
Y06482D03*
X16349Y08123D03*
Y07994D03*
X16347Y07374D03*
Y07245D03*
G54D80*
X04612Y06075D03*
X04742D03*
X04612Y05882D03*
X04742D03*
G54D81*
X11035Y05554D03*
Y05609D03*
X11655Y0564D03*
Y05585D03*
X10685Y07262D03*
Y07317D03*
X07069Y05969D03*
Y05914D03*
X13484Y05969D03*
Y05914D03*
X09603Y05915D03*
Y0597D03*
X05258Y0742D03*
Y07365D03*
X1083Y05969D03*
Y05914D03*
X0499Y08386D03*
Y08331D03*
X09479Y08386D03*
Y08331D03*
X15985Y05969D03*
Y05914D03*
X14008Y08281D03*
Y08336D03*
G54D82*
X10823Y07721D03*
X10705D03*
X09122Y05459D03*
X0924D03*
X09122Y05307D03*
X0924D03*
G54D83*
X11889Y05495D03*
X11828Y05556D03*
X11781Y05508D03*
X11842Y05447D03*
G54D84*
X05446Y07186D03*
X05478D03*
X05509D03*
X05541D03*
X05572D03*
X05604D03*
X05635D03*
X05667D03*
X05698D03*
X0573D03*
X05761D03*
Y0763D03*
X0573D03*
X05698D03*
X05667D03*
X05635D03*
X05604D03*
X05572D03*
X05541D03*
X05509D03*
X05478D03*
X05446D03*
G54D85*
X05826Y0725D03*
Y07282D03*
Y07313D03*
Y07345D03*
Y07376D03*
Y07408D03*
Y07439D03*
Y07471D03*
Y07502D03*
Y07534D03*
Y07565D03*
X05381D03*
Y07534D03*
Y07502D03*
Y07471D03*
Y07439D03*
Y07408D03*
Y07376D03*
Y07345D03*
Y07313D03*
Y07282D03*
Y0725D03*
G54D86*
X11181Y05363D03*
X11212D03*
X11244D03*
X11275D03*
X11307D03*
X11338D03*
X1137D03*
X11401D03*
X11433D03*
X11464D03*
X11496D03*
Y05808D03*
X11464D03*
X11433D03*
X11401D03*
X1137D03*
X11338D03*
X11307D03*
X11275D03*
X11244D03*
X11212D03*
X11181D03*
G54D87*
X11561Y05428D03*
Y05459D03*
Y05491D03*
Y05522D03*
Y05554D03*
Y05585D03*
Y05617D03*
Y05648D03*
Y0568D03*
Y05711D03*
Y05743D03*
X11116D03*
Y05711D03*
Y0568D03*
Y05648D03*
Y05617D03*
Y05585D03*
Y05554D03*
Y05522D03*
Y05491D03*
Y05459D03*
Y05428D03*
G54D88*
X1027Y05355D03*
Y05304D03*
X10351D03*
Y05329D03*
Y05355D03*
X10586Y05334D03*
Y05283D03*
X10667D03*
Y05309D03*
Y05334D03*
X10586Y05457D03*
Y05406D03*
X10667D03*
Y05432D03*
Y05457D03*
G54D89*
X04799Y06968D03*
X0467D03*
X13101Y07952D03*
X1323D03*
X10065Y08791D03*
X09936D03*
X15378Y08763D03*
X15249D03*
X16085Y08772D03*
X15956D03*
G54D90*
X04706Y0754D03*
X04761D03*
X04707Y07371D03*
X04762D03*
X05592Y07085D03*
X05647D03*
Y07746D03*
X05592D03*
X10457Y07331D03*
X10512D03*
X10879Y07254D03*
X10935D03*
X11995Y05626D03*
X11939D03*
Y05374D03*
X11995D03*
X10143Y05315D03*
X10198D03*
G54D91*
X1009Y07909D03*
X10196D03*
G54D92*
X0616Y07728D03*
X06123Y07639D03*
X06197D03*
X06404Y07728D03*
X06367Y07639D03*
X06441D03*
G54D93*
X0983Y07462D03*
X09742Y075D03*
Y07425D03*
G54D94*
X10982Y06985D03*
Y06711D03*
X10106Y07719D03*
Y07445D03*
G54D95*
X05564Y08292D03*
X05614D03*
X05664D03*
X05714D03*
X05564Y08024D03*
X05614D03*
X05664D03*
X05714D03*
G54D96*
X10832Y05743D03*
Y05717D03*
Y05691D03*
Y05666D03*
X10606Y05743D03*
Y05717D03*
Y05691D03*
Y05666D03*
G54D97*
X10562Y08395D03*
Y08375D03*
Y08356D03*
Y08336D03*
Y08316D03*
X10401Y08395D03*
Y08375D03*
Y08356D03*
Y08336D03*
Y08316D03*
G54D98*
X11265Y07517D03*
Y07492D03*
Y07466D03*
X1119D03*
Y07492D03*
Y07517D03*
G54D99*
X09618Y07448D03*
Y075D03*
X09537D03*
Y07474D03*
Y07448D03*
G54D100*
X04884Y07371D03*
Y0754D03*
G54D101*
X16317Y06818D03*
Y06688D03*
X16124Y06818D03*
Y06688D03*
X06114Y06044D03*
Y05914D03*
X05922Y06044D03*
Y05914D03*
X07197D03*
Y06044D03*
X0739Y05914D03*
Y06044D03*
X0848D03*
Y05914D03*
X08287Y06044D03*
Y05914D03*
X09748D03*
Y06044D03*
X09941Y05914D03*
Y06044D03*
X11177D03*
Y05914D03*
X10984Y06044D03*
Y05914D03*
X12476D03*
Y06044D03*
X12668Y05914D03*
Y06044D03*
X13767D03*
Y05914D03*
X13574Y06044D03*
Y05914D03*
X14849D03*
Y06044D03*
X15042Y05914D03*
Y06044D03*
X16317D03*
Y05914D03*
X16125Y06044D03*
Y05914D03*
X15888Y08151D03*
Y08281D03*
X16081Y08151D03*
Y08281D03*
X15042D03*
Y08151D03*
X14849Y08281D03*
Y08151D03*
X13574D03*
Y08281D03*
X13767Y08151D03*
Y08281D03*
X12491D03*
Y08151D03*
X12298Y08281D03*
Y08151D03*
X11023D03*
Y08281D03*
X11216Y08151D03*
Y08281D03*
X09941D03*
Y08151D03*
X09748Y08281D03*
Y08151D03*
X08472D03*
Y08281D03*
X08665Y08151D03*
Y08281D03*
X0739D03*
Y08151D03*
X07197Y08281D03*
Y08151D03*
X05922D03*
Y08281D03*
X06114Y08151D03*
Y08281D03*
X04839D03*
Y08151D03*
X04646Y08281D03*
Y08151D03*
X04835Y06838D03*
Y06708D03*
X04642Y06838D03*
Y06708D03*
G54D102*
X13115Y07503D03*
X13036Y07541D03*
Y07466D03*
X13116Y07693D03*
X13037Y07731D03*
Y07656D03*
G54D103*
X10457Y075D03*
Y07463D03*
Y07426D03*
X10363D03*
Y075D03*
G54D104*
X10771Y07384D03*
Y07569D03*
G54D105*
X10965Y07517D03*
X11002D03*
X1104D03*
Y07423D03*
X11002D03*
X10965D03*
G54D106*
X06549Y08133D03*
X06474D03*
Y08361D03*
X06549D03*
X06511Y08282D03*
Y08212D03*
G54D107*
X08222Y05809D03*
X08281D03*
X08931D03*
X08399D03*
X0834D03*
X08576D03*
X08635D03*
X08517D03*
X08458D03*
X08694D03*
X08753D03*
X08872D03*
X08812D03*
Y05297D03*
X08872D03*
X08753D03*
X08694D03*
X08458D03*
X08517D03*
X08635D03*
X08576D03*
X0834D03*
X08399D03*
X08931D03*
X08281D03*
X08222D03*
G54D108*
X09003Y05405D03*
Y05346D03*
Y05523D03*
Y05582D03*
Y05759D03*
Y057D03*
Y05641D03*
Y05464D03*
G54D109*
X10833Y05587D03*
Y05512D03*
X10758Y0555D03*
G54D110*
X15062Y07411D03*
X05001Y06886D03*
X05844Y06136D03*
X05188Y06886D03*
X15032Y08386D03*
X15407D03*
X14938Y06886D03*
X15218Y07636D03*
X05376Y06136D03*
X05001D03*
X16157Y08386D03*
X15782D03*
X14657D03*
X05838Y05386D03*
X14751Y06136D03*
X14376D03*
X07157Y05386D03*
X10157D03*
X12601D03*
X12401D03*
X09688D03*
X13719D03*
X14376D03*
X14176D03*
X13244D03*
X13907D03*
X14657D03*
X13444D03*
X13157D03*
X15307D03*
X14557D03*
X13807D03*
X15119D03*
X14276D03*
X13057D03*
X14276Y06136D03*
X15118Y07636D03*
X15062Y07511D03*
X14838Y06886D03*
X14369D03*
X12307Y05386D03*
X13338D03*
X13619D03*
X14282D03*
X12501D03*
X10057D03*
X12494D03*
X13344D03*
X09588D03*
X07057D03*
X06876D03*
X05938D03*
X06307D03*
X05557D03*
X06119D03*
X04807D03*
X05276Y06136D03*
X05744D03*
X04994Y05386D03*
X05088Y06886D03*
X04901Y06136D03*
Y06886D03*
X15307Y08386D03*
X15682D03*
X16057D03*
X14651Y06136D03*
X14932Y08386D03*
X14557D03*
X14469Y06886D03*
X15219Y05386D03*
X15407D03*
X04907D03*
X05094D03*
X05657D03*
X06407D03*
X06219D03*
X06038D03*
X06976D03*
X06776D03*
G54D111*
X04951Y07086D03*
X15732Y08586D03*
X15357Y05586D03*
X14607D03*
X13857D03*
X15263D03*
X14326D03*
Y06336D03*
X15168Y07836D03*
X15262Y07461D03*
X14888Y07086D03*
X14419D03*
X12357Y05586D03*
X13388D03*
X13669D03*
X14232D03*
X12451D03*
X10107Y05586D03*
X12544Y05586D03*
X13294D03*
X09638D03*
X07107D03*
X06919D03*
X06357D03*
X05607D03*
X06169D03*
X04857D03*
X05982D03*
X05326Y06336D03*
X05794D03*
X05044Y05586D03*
X04951D03*
X05138Y07086D03*
X04951Y06336D03*
X15357Y08586D03*
X14701Y06336D03*
X14982Y08586D03*
X14607D03*
X15358Y07411D03*
X14418D03*
X12356Y05911D03*
X14231Y06011D03*
X15171D03*
X11608Y05911D03*
X07856D03*
X07668D03*
X14512Y08261D03*
X15262D03*
X14937Y07931D03*
X15452Y08261D03*
X16202D03*
X14937Y06991D03*
X05796Y06011D03*
X04856D03*
G54D112*
X10513Y0872D03*
X1045D03*
X10545Y08673D03*
X10419D03*
X10482D03*
G54D113*
X10625Y08903D03*
X10338D03*
G54D114*
X05434Y06724D03*
X12048Y06715D03*
G54D115*
X05334Y06724D03*
X05234D03*
X05134D03*
X05034D03*
X04934D03*
X11948Y06715D03*
X11848D03*
X11748D03*
X11648D03*
X11548D03*
G54D116*
X10332Y07281D03*
X10253D03*
G54D117*
X15457Y05786D03*
X15207Y05686D03*
X15113D03*
X15363Y05786D03*
X13488D03*
X13238Y05686D03*
X14332Y05786D03*
X14082Y05686D03*
X13144D03*
X13394Y05786D03*
G54D118*
X15557Y05586D03*
X14407D03*
X14807D03*
X14057D03*
X15463D03*
X15063D03*
X14969D03*
X14526D03*
X14126D03*
X12907D03*
X14126Y06336D03*
X14526D03*
X14968Y07836D03*
X15368D03*
X15262Y07661D03*
Y07261D03*
X14688Y07086D03*
X15088D03*
X14219D03*
X14619D03*
X12157Y05586D03*
X13188D03*
X13588D03*
X13469D03*
X14032D03*
X14432D03*
X12651D03*
X12251D03*
X09907D03*
X10307D03*
X12744D03*
X09438Y05587D03*
X09838D03*
X13494Y05586D03*
X07307D03*
X06719D03*
X07026D03*
X06626D03*
X05688D03*
X06088D03*
X06557D03*
X05807D03*
X05407D03*
X04657D03*
X05782D03*
X05526Y06336D03*
X05126D03*
X05994D03*
X05594D03*
X05244Y05586D03*
X04751D03*
X05151D03*
X05338Y07086D03*
X05151Y06336D03*
X04751D03*
Y07086D03*
X15157Y08586D03*
X15557D03*
X15532D03*
X15932D03*
X15907D03*
X16307D03*
X14501Y06336D03*
X14901D03*
X15182Y08586D03*
X14782D03*
X14407D03*
X14807D03*
G54D119*
X14707Y05786D03*
X13957D03*
X13707Y05686D03*
X15269Y05786D03*
X15019Y05686D03*
X12957D03*
X14426Y06536D03*
X14176Y06436D03*
X15268Y08036D03*
X15018Y07936D03*
X15462Y07361D03*
X15362Y07611D03*
X14988Y07286D03*
X14738Y07186D03*
X14519Y07286D03*
X14269Y07186D03*
X12457Y05786D03*
X12207Y05686D03*
X13769Y05786D03*
X12551D03*
X10207D03*
X12644D03*
X09738D03*
X07207D03*
X06769Y05686D03*
X07019Y05786D03*
X06676Y05686D03*
X06457Y05786D03*
X06207Y05686D03*
X05457D03*
X06269Y05786D03*
X04707Y05686D03*
X04957Y05786D03*
X06082D03*
X05176Y06436D03*
X05426Y06536D03*
X05644Y06436D03*
X05894Y06536D03*
X05144Y05786D03*
X05051D03*
X05238Y07286D03*
X04801Y06436D03*
X05051Y06536D03*
X04801Y07186D03*
X05051Y07286D03*
X15457Y08786D03*
X15207Y08686D03*
X15832Y08786D03*
X15582Y08686D03*
X16207Y08786D03*
X15957Y08686D03*
X14801Y06536D03*
X14551Y06436D03*
X14832Y08686D03*
X15082Y08786D03*
X14707D03*
X14457Y08686D03*
G54D120*
X14457Y05686D03*
G54D121*
X14176Y05686D03*
X14426Y05786D03*
G54D122*
X13207Y05786D03*
X13519Y05686D03*
X12301D03*
X09957D03*
X12394D03*
X09488D03*
X06957D03*
X05988Y05786D03*
X05707D03*
X06019Y05686D03*
X04894D03*
X04801D03*
X04988Y07186D03*
G54D123*
X06926Y05786D03*
G54D124*
X05738Y05686D03*
G54D125*
X05832Y05686D03*
G54D126*
X11608Y05311D03*
X15171Y06611D03*
X15358Y06811D03*
X07668Y05311D03*
X07856D03*
X14512Y08861D03*
X15262D03*
X16202D03*
X15537Y06991D03*
X15452Y08861D03*
X15537Y07931D03*
X05796Y06611D03*
X04856D03*
X14231D03*
G54D127*
X16107Y07836D03*
Y07086D03*
X11043Y06336D03*
X11793D03*
X10293D03*
X09543D03*
X12543D03*
X13293D03*
X15357D03*
X08231Y07836D03*
X08981D03*
X07481D03*
X06731D03*
X09731D03*
X10481D03*
X11981D03*
X11231D03*
X06918Y07086D03*
X07668D03*
X06168D03*
X12731Y07836D03*
X13481D03*
X14231D03*
X12356Y08586D03*
X13106D03*
X11606D03*
X10856D03*
X13856D03*
X09356D03*
X10106D03*
X08606D03*
X07856D03*
X04856D03*
X05606D03*
X07106D03*
X06356D03*
X06543Y06336D03*
X07293D03*
X08793D03*
X08043D03*
X12918Y07086D03*
X13668D03*
X12168D03*
X11418D03*
X08418D03*
X09168D03*
X10668D03*
X09918D03*
X05043Y07836D03*
X05981D03*
X16107Y05586D03*
Y06336D03*
G54D128*
X16157Y07636D03*
X16057D03*
Y06886D03*
X16157D03*
X11093Y06136D03*
X10993D03*
X11743D03*
X11843D03*
X10343D03*
X10243D03*
X09493D03*
X09593D03*
X12593D03*
X12493D03*
X13243D03*
X13343D03*
X15407D03*
X15307D03*
X08181Y07636D03*
X08281D03*
X09031D03*
X08931D03*
X07431D03*
X07531D03*
X06781D03*
X06681D03*
X09681D03*
X09781D03*
X10531D03*
X10431D03*
X11931D03*
X12031D03*
X11281D03*
X11181D03*
X06868Y06886D03*
X06968D03*
X07718D03*
X07618D03*
X06118D03*
X06218D03*
X12781Y07636D03*
X12681D03*
X13431D03*
X13531D03*
X14281D03*
X14181D03*
X12306Y08386D03*
X12406D03*
X13156D03*
X13056D03*
X11556D03*
X11656D03*
X10906D03*
X10806D03*
X13806D03*
X13906D03*
X09406D03*
X09306D03*
X10056D03*
X10156D03*
X08656D03*
X08556D03*
X07806D03*
X07906D03*
X04906D03*
X04806D03*
X05556D03*
X05656D03*
X07156D03*
X07056D03*
X06306D03*
X06406D03*
X06593Y06136D03*
X06493D03*
X07243D03*
X07343D03*
X08843D03*
X08743D03*
X07993D03*
X08093D03*
X12968Y06886D03*
X12868D03*
X13618D03*
X13718D03*
X12218D03*
X12118D03*
X11368D03*
X11468D03*
X08468D03*
X08368D03*
X09118D03*
X09218D03*
X10718D03*
X10618D03*
X09868D03*
X09968D03*
X05093Y07636D03*
X04993D03*
X05931D03*
X06031D03*
X16157Y05386D03*
X16057D03*
Y06136D03*
X16157D03*
G54D129*
X16307Y07836D03*
X15907D03*
Y07086D03*
X16307D03*
X11243Y06336D03*
X10843D03*
X11593D03*
X11993D03*
X10493D03*
X10093D03*
X09343D03*
X09743D03*
X12743D03*
X12343D03*
X13093D03*
X13493D03*
X15557D03*
X15157D03*
X08031Y07836D03*
X08431D03*
X09181D03*
X08781D03*
X07281D03*
X07681D03*
X06931D03*
X06531D03*
X09531D03*
X09931D03*
X10681D03*
X10281D03*
X11781D03*
X12181D03*
X11431D03*
X11031D03*
X06718Y07086D03*
X07118D03*
X07868D03*
X07468D03*
X05968D03*
X06368D03*
X12931Y07836D03*
X12531D03*
X13281D03*
X13681D03*
X14431D03*
X14031D03*
X12156Y08586D03*
X12556D03*
X13306D03*
X12906D03*
X11406D03*
X11806D03*
X11056D03*
X10656D03*
X13656D03*
X14056D03*
X09556D03*
X09156D03*
X09906D03*
X10306D03*
X08806D03*
X08406D03*
X07656D03*
X08056D03*
X05056D03*
X04656D03*
X05406D03*
X05806D03*
X07306D03*
X06906D03*
X06156D03*
X06556D03*
X06743Y06336D03*
X06343D03*
X07093D03*
X07493D03*
X08993D03*
X08593D03*
X07843D03*
X08243D03*
X13118Y07086D03*
X12718D03*
X13468D03*
X13868D03*
X12368D03*
X11968D03*
X11218D03*
X11618D03*
X08618D03*
X08218D03*
X08968D03*
X09368D03*
X10868D03*
X10468D03*
X09718D03*
X10118D03*
X05243Y07836D03*
X04843D03*
X05781D03*
X06181D03*
X16307Y05586D03*
X15907D03*
Y06336D03*
X16307D03*
G54D130*
X16207Y08036D03*
X15957Y07936D03*
Y07186D03*
X16207Y07286D03*
X11143Y06536D03*
X10893Y06436D03*
X11643D03*
X11893Y06536D03*
X10393D03*
X10143Y06436D03*
X09393D03*
X09643Y06536D03*
X12643D03*
X12393Y06436D03*
X13143D03*
X13393Y06536D03*
X15457D03*
X15207Y06436D03*
X08081Y07936D03*
X08331Y08036D03*
X09081D03*
X08831Y07936D03*
X07331D03*
X07581Y08036D03*
X06831D03*
X06581Y07936D03*
X09581D03*
X09831Y08036D03*
X10581D03*
X10331Y07936D03*
X11831D03*
X12081Y08036D03*
X11331D03*
X11081Y07936D03*
X06768Y07186D03*
X07018Y07286D03*
X07768D03*
X07518Y07186D03*
X06018D03*
X06268Y07286D03*
X12831Y08036D03*
X12581Y07936D03*
X13331D03*
X13581Y08036D03*
X14331D03*
X14081Y07936D03*
X12206Y08686D03*
X12456Y08786D03*
X13206D03*
X12956Y08686D03*
X11456D03*
X11706Y08786D03*
X10956D03*
X10706Y08686D03*
X13706D03*
X13956Y08786D03*
X09456D03*
X09206Y08686D03*
X09956D03*
X10206Y08786D03*
X08706D03*
X08456Y08686D03*
X07706D03*
X07956Y08786D03*
X04956D03*
X04706Y08686D03*
X05456D03*
X05706Y08786D03*
X07206D03*
X06956Y08686D03*
X06206D03*
X06456Y08786D03*
X06643Y06536D03*
X06393Y06436D03*
X07143D03*
X07393Y06536D03*
X08893D03*
X08643Y06436D03*
X07893D03*
X08143Y06536D03*
X13018Y07286D03*
X12768Y07186D03*
X13518D03*
X13768Y07286D03*
X12268D03*
X12018Y07186D03*
X11268D03*
X11518Y07286D03*
X08518D03*
X08268Y07186D03*
X09018D03*
X09268Y07286D03*
X10768D03*
X10518Y07186D03*
X09768D03*
X10018Y07286D03*
X05143Y08036D03*
X04893Y07936D03*
X05831D03*
X06081Y08036D03*
X16207Y05786D03*
X15957Y05686D03*
Y06436D03*
X16207Y06536D03*
G54D131*
X15847Y05883D03*
X16317Y06732D03*
X16301Y07002D03*
X10592Y08254D03*
X10385Y0747D03*
X10654Y06711D03*
X1073Y05914D03*
X06694Y08171D03*
X04948Y05876D03*
X04864Y07236D03*
X11482Y0778D03*
X10536Y05763D03*
X12007Y05776D03*
X10802Y0549D03*
X10378Y05375D03*
X0649Y08254D03*
Y08492D03*
X05249D03*
X0519Y07772D03*
X10562Y08435D03*
X06391Y08212D03*
X11159Y05431D03*
X0884Y0572D03*
X12848Y075D03*
X10959Y05377D03*
X10724Y05466D03*
X05811Y07595D03*
X06118Y06288D03*
X13956Y08891D03*
X05806Y08862D03*
X05761Y07718D03*
X16293Y06629D03*
X12964Y06726D03*
X05607Y08143D03*
X05717Y07554D03*
X14559Y07224D03*
X1268Y07286D03*
X13768Y07444D03*
X09049Y06501D03*
X08635Y07474D03*
X11496Y05739D03*
X0936Y07447D03*
X12077Y07028D03*
X14229Y06278D03*
X05848Y0702D03*
X06297Y06597D03*
X05698Y07045D03*
X1297Y08495D03*
X1256Y06483D03*
X05667Y07286D03*
X05336Y07349D03*
X04677Y06769D03*
X13082Y07656D03*
X12885Y05526D03*
X10789Y08235D03*
X11338Y05863D03*
X11307Y05967D03*
X15884Y07283D03*
X13483Y06044D03*
X1292Y05905D03*
X1636Y06688D03*
Y05914D03*
X16021Y08158D03*
X15881Y06818D03*
X10966Y08281D03*
X10389Y0812D03*
X08056Y08151D03*
X04631Y06868D03*
X05682Y05433D03*
X13981Y05705D03*
X15767Y0674D03*
X0834Y05368D03*
X08228Y0552D03*
X09367Y05418D03*
X08694Y05351D03*
X09066Y0546D03*
X08753D03*
X08975Y05308D03*
X08828Y05351D03*
X06432Y08325D03*
X06313Y07732D03*
X11203Y06668D03*
X10894Y06977D03*
X05654D03*
X047Y0793D03*
X0474Y0668D03*
X05953Y07413D03*
X05478Y07527D03*
X11307Y05431D03*
X0958Y07385D03*
X09542Y05562D03*
X09355Y06173D03*
X11063Y05711D03*
X10851Y05611D03*
X05231Y07179D03*
X0539Y07138D03*
X13954Y05959D03*
X05413Y07058D03*
X09058Y05853D03*
X08039Y06004D03*
X05443Y05848D03*
X13152Y07315D03*
Y07416D03*
X0604Y07339D03*
X05541Y07242D03*
X112Y05434D03*
X10635Y05424D03*
X11016Y05452D03*
X1075Y05418D03*
X05316Y08731D03*
X05439Y0708D03*
X10804Y081D03*
X05502Y06689D03*
X12741Y05864D03*
X10719Y05856D03*
X06449Y0566D03*
X06434Y06873D03*
X06339Y06196D03*
X06263Y05638D03*
X1028Y05503D03*
X10067Y05684D03*
X10374Y05503D03*
X10227Y05355D03*
X08872Y05383D03*
X11276Y05865D03*
X10694Y0812D03*
X07334Y07028D03*
X09422Y07379D03*
X05777Y07502D03*
X05788Y06744D03*
X11805Y06758D03*
X10198Y08022D03*
X10213Y07312D03*
X11744Y06977D03*
Y07466D03*
X06447Y05883D03*
X0652Y08171D03*
X06238Y08165D03*
Y07483D03*
X15794Y0845D03*
X1073Y06711D03*
X06533Y05958D03*
X11122Y0746D03*
X11229Y05532D03*
X10326Y07427D03*
X10199Y08005D03*
X10213Y07314D03*
X10352Y08225D03*
X10812Y05307D03*
X08281Y05751D03*
X09456Y08151D03*
X11421Y07369D03*
X10861Y06091D03*
X09684Y05945D03*
X08734Y05635D03*
X06576Y08133D03*
X06558Y07727D03*
X15716Y06223D03*
X15831Y06338D03*
X15862Y06742D03*
X15716Y05557D03*
X06338Y06196D03*
X13954Y06493D03*
X05223Y07355D03*
X10474Y08065D03*
X05446Y07125D03*
X05529Y07134D03*
X05505Y07238D03*
X05482Y07137D03*
X1529Y08767D03*
X09498Y05477D03*
X04631Y08227D03*
X08186Y08281D03*
X09456D03*
X11574Y05816D03*
X13385Y05873D03*
X04632Y06391D03*
X06703Y08339D03*
X11247Y05973D03*
X05339Y08095D03*
X05383Y08013D03*
X10321Y08316D03*
X11503Y05554D03*
X11655Y05679D03*
X09538Y07278D03*
X105Y07463D03*
X10439Y08239D03*
X10401Y08411D03*
X10058Y07909D03*
X07157Y08151D03*
X09396Y05424D03*
X15886Y08184D03*
X05642Y07696D03*
X08511Y08152D03*
X04723Y07501D03*
X0529Y07419D03*
X05179Y07448D03*
X05455Y07432D03*
X05562D03*
X09637Y08151D03*
X09449Y08366D03*
X09542Y08386D03*
X09801Y08148D03*
X13125Y07672D03*
X13124Y07526D03*
X13111Y07584D03*
M02*